<svg xmlns="http://www.w3.org/2000/svg" width="256" height="256" viewBox="0 0 256 256"><path d="M244 133.4a50.1 50.1 0 0 0-29.2-17.6 41.6 41.6 0 0 0 2.4-14 38.2 38.2 0 0 0-38.4-38.4 37.2 37.2 0 0 0-21.2 6.4 64.5 64.5 0 0 0-23.2-23.2 61.6 61.6 0 0 0-32.2-8.8A63.4 63.4 0 0 0 70 46.4a64.1 64.1 0 0 0-32 55.4v3.2a57.1 57.1 0 0 0-27.6 21 57.1 57.1 0 0 0-3 62.2 58.7 58.7 0 0 0 21 21 55.6 55.6 0 0 0 28.8 7.8h147.2a51.3 51.3 0 0 0 25.8-6.8 48.9 48.9 0 0 0 18.6-18.6 51.3 51.3 0 0 0 6.8-25.8 49.3 49.3 0 0 0-11.6-32.4zm-72.6 7.8h-23.2v39.1a4.7 4.7 0 0 1-4.6 4.6h-31.2a4.7 4.7 0 0 1-4.6-4.6v-39.1H84.6a4.6 4.6 0 0 1-3.4-7.7l43.4-47.7a4.6 4.6 0 0 1 6.8 0l43.4 47.7a4.6 4.6 0 0 1-3.4 7.7z"/></svg>