<svg xmlns="http://www.w3.org/2000/svg" width="256" height="256" viewBox="0 0 256 256"><path fill="#fff" d="M128 224a96 96 0 1 1 96-96 96.2 96.2 0 0 1-96 96zm0-177.8a81.8 81.8 0 1 0 81.8 81.8A81.9 81.9 0 0 0 128 46.2z"/><path fill="#fff" d="M128 143.9c-1.9 0-4.3-.9-7-2.6a49.8 49.8 0 0 1-6.8-4.9l-2.2-1.5q-26.9-19.7-36.5-27l-1.5-1.1a5 5 0 0 1-1.9-4.2v-4.2a10.3 10.3 0 0 1 3-7.4 10.4 10.4 0 0 1 7.5-3.1h90.8a10.4 10.4 0 0 1 7.5 3.1 10.3 10.3 0 0 1 3 7.4v4.2a5.1 5.1 0 0 1-1.9 4.2l-1.1.8q-9.5 7.5-37 27.3l-2.2 1.5a49.8 49.8 0 0 1-6.8 4.9c-2.6 1.7-5 2.6-6.9 2.6zm53.7-28.2c-5.2 4.1-16.5 12.3-33.6 24.7l-2.2 1.7a62.7 62.7 0 0 1-8.3 5.7 18.6 18.6 0 0 1-9.6 3.1 20.2 20.2 0 0 1-9.6-2.9 71 71 0 0 1-8.3-5.6l-2.2-2c-17.6-12.8-28.8-21.1-33.6-24.7a1.4 1.4 0 0 0-1.4-.1 1.3 1.3 0 0 0-.8 1.2v44.6a10.3 10.3 0 0 0 3 7.4 10.4 10.4 0 0 0 7.5 3.1h90.8a10.4 10.4 0 0 0 7.5-3.1 10.3 10.3 0 0 0 3-7.4v-44.6a1.3 1.3 0 0 0-.8-1.3 1.1 1.1 0 0 0-1.4.2z"/></svg>
