<svg xmlns="http://www.w3.org/2000/svg" width="256" height="256" viewBox="0 0 256 256"><path d="M139.6 84.6a8.4 8.4 0 0 0 2.5 6.2 8.2 8.2 0 0 0 6.1 2.5h49.2v118.5a8.5 8.5 0 0 1-2.6 6.2 8.1 8.1 0 0 1-6.1 2.5H67.3a8.1 8.1 0 0 1-6.1-2.5 8.5 8.5 0 0 1-2.6-6.2V44.2a8.5 8.5 0 0 1 2.6-6.2 8.1 8.1 0 0 1 6.1-2.5h72.3zm23.1 36.2a4 4 0 0 0-1.3-3.1 4.2 4.2 0 0 0-3-1.3H97.6a4.2 4.2 0 0 0-3 1.3 4 4 0 0 0-1.3 3.1v2.9a4.4 4.4 0 0 0 4.3 4.3h60.8a4.4 4.4 0 0 0 4.3-4.3zm0 26v-2.9a4.2 4.2 0 0 0-1.3-3.1 4.1 4.1 0 0 0-3-1.2H97.6a4.1 4.1 0 0 0-3 1.2 4.2 4.2 0 0 0-1.3 3.1v2.9a4.2 4.2 0 0 0 1.3 3.1 4.1 4.1 0 0 0 3 1.2h60.8a4.1 4.1 0 0 0 3-1.2 4.2 4.2 0 0 0 1.3-3.1zm0 23.1V167a4.4 4.4 0 0 0-4.3-4.3H97.6a4.4 4.4 0 0 0-4.3 4.3v2.9a4.2 4.2 0 0 0 1.3 3.1 4.1 4.1 0 0 0 3 1.2h60.8a4.1 4.1 0 0 0 3-1.2 4.2 4.2 0 0 0 1.3-3.1zm34.7-90.3a8.5 8.5 0 0 0-2.6-6.2L159.4 38a8.2 8.2 0 0 0-6.1-2.5h-2.2v46.3h46.3z"/></svg>