<svg xmlns="http://www.w3.org/2000/svg" width="256" height="256" viewBox="0 0 256 256"><path d="M239.4 49a14 14 0 0 0-13.9-13.9H31.4a13.3 13.3 0 0 0-9.8 4.1 13.3 13.3 0 0 0-4.1 9.8v9.2a13.5 13.5 0 0 0 4.1 9.9 13.2 13.2 0 0 0 9.8 4h194.1a13.2 13.2 0 0 0 9.8-4 13.5 13.5 0 0 0 4.1-9.9zm0 83.2v-9.3a13.4 13.4 0 0 0-4.1-9.8 13.2 13.2 0 0 0-9.8-4H31.4a13.2 13.2 0 0 0-9.8 4 13.4 13.4 0 0 0-4.1 9.8v9.3a13.4 13.4 0 0 0 4.1 9.8 13.2 13.2 0 0 0 9.8 4h194.1a13.2 13.2 0 0 0 9.8-4 13.4 13.4 0 0 0 4.1-9.8zm0 73.9v-9.2a14 14 0 0 0-13.9-13.9H31.4a13.3 13.3 0 0 0-9.8 4.1 13.3 13.3 0 0 0-4.1 9.8v9.2a13.5 13.5 0 0 0 4.1 9.9 13.2 13.2 0 0 0 9.8 4h194.1a13.2 13.2 0 0 0 9.8-4 13.5 13.5 0 0 0 4.1-9.9z"/></svg>