<svg xmlns="http://www.w3.org/2000/svg" width="256" height="256" viewBox="0 0 256 256"><path d="M151.2 92.9h49v118.4a8.4 8.4 0 0 1-2.5 6.2 8.2 8.2 0 0 1-6.1 2.5H70.3a8.1 8.1 0 0 1-6.1-2.5 8.5 8.5 0 0 1-2.6-6.2V43.8a8.3 8.3 0 0 1 2.6-6.1 8.1 8.1 0 0 1 6.1-2.5h72.2v49.1a8.5 8.5 0 0 0 8.7 8.6zm-48.8 5.8A17.2 17.2 0 0 0 85.1 116a17.1 17.1 0 0 0 5 12.3 16.5 16.5 0 0 0 12.1 5.1 17.1 17.1 0 0 0 12.3-5.1 16.5 16.5 0 0 0 5.2-12.3 16.1 16.1 0 0 0-5.2-12.2 16.8 16.8 0 0 0-12.1-5.1zm75.1 86.6v-40.4l-14.4-14.4a4.2 4.2 0 0 0-2.9-1.1 5.7 5.7 0 0 0-3.3 1.1L119.7 168l-14.4-14.4a5.3 5.3 0 0 0-3.1-1.1 4 4 0 0 0-2.7 1.1L85.1 168v17.3zm22.7-106.1a8.2 8.2 0 0 0-2.5-6.1l-35.4-35.4a8.1 8.1 0 0 0-6.1-2.5H154v46.2h46.2z"/></svg>