<svg xmlns="http://www.w3.org/2000/svg" width="256" height="256" viewBox="0 0 256 256"><path d="M180.1 43.2h-104a29.3 29.3 0 0 0-29.3 29.2v104A29.2 29.2 0 0 0 76 205.6h74.8l22.7 22.8a3.8 3.8 0 0 0 6.5-2.7v-20.1a29.2 29.2 0 0 0 29.2-29.2v-104a29.1 29.1 0 0 0-29.1-29.2zM79.7 66.7a4.7 4.7 0 0 1 4.8-4.7h13.2a4.8 4.8 0 0 1 4.8 4.7v7.6a4.8 4.8 0 0 1-4.8 4.8H84.5a4.7 4.7 0 0 1-4.8-4.8zm95.4 27.4l-89.2 87.8a3.6 3.6 0 0 1-6.2-2.6l.2-87.8a3.6 3.6 0 0 1 3.6-3.6h15.3a3.6 3.6 0 0 1 3.6 3.6V126a3.7 3.7 0 0 0 6.2 2.6l39.6-39.7a4.1 4.1 0 0 1 2.6-1.1h21.7a3.7 3.7 0 0 1 2.6 6.3z"/></svg>