<svg xmlns="http://www.w3.org/2000/svg" width="256" height="256" viewBox="0 0 256 256"><path fill="#fff" d="M128 224a96 96 0 1 1 96-96 96.2 96.2 0 0 1-96 96zm0-177.8a81.8 81.8 0 1 0 81.8 81.8A81.9 81.9 0 0 0 128 46.2z"/><path fill="#fff" d="M79.3 98.7a11.7 11.7 0 0 1-3.8-8.9 11.9 11.9 0 0 1 3.8-8.9 12.1 12.1 0 0 1 8.9-3.8 13 13 0 0 1 12.7 12.7 12.1 12.1 0 0 1-3.8 8.9 11.9 11.9 0 0 1-8.9 3.8 11.7 11.7 0 0 1-8.9-3.8zm-2.2 83.5v-70.1h21.8v70.1zm81.6 0V148c0-5.6-.5-9.7-1.4-12.3-1.8-4.2-5.1-6.3-10.1-6.3s-8.6 1.9-10.6 5.6-2.4 7-2.4 12.4v34.7h-21.5v-70h20.8v9.6h.3a17.9 17.9 0 0 1 7.5-7.7 22.1 22.1 0 0 1 13-3.8q15.3 0 21.3 9.6c3.2 5.1 4.7 13.1 4.7 23.9v38.4h-21.6z"/></svg>
