<svg xmlns="http://www.w3.org/2000/svg" width="256" height="256" viewBox="0 0 256 256"><path d="M128 152.3c-3.3 0-7.5-1.6-12.4-4.7a95.2 95.2 0 0 1-12-8.5l-3.9-2.7Q52 101.4 35 88.3l-2.7-2a8.5 8.5 0 0 1-3.5-7.3v-7.4A18.4 18.4 0 0 1 47.4 53h161.3a18.3 18.3 0 0 1 13.2 5.4 18 18 0 0 1 5.4 13.2V79a8.8 8.8 0 0 1-3.5 7.3l-1.9 1.6c-11.2 8.8-33 24.9-65.6 48.5l-3.8 2.7c-5.2 4.1-9.2 7-12.1 8.5-4.9 3.1-9 4.7-12.4 4.7zm95.4-50.1q-14 11-59.7 43.9l-3.9 3.1a101.2 101.2 0 0 1-14.7 10c-6.2 3.7-11.9 5.5-17.1 5.5s-10.8-1.7-17-5.1a127.6 127.6 0 0 1-14.8-10.1l-3.8-3.4q-46.9-34.2-59.8-43.9a2.7 2.7 0 0 0-2.5-.2 2.1 2.1 0 0 0-1.3 2.2v79.1a18.3 18.3 0 0 0 5.4 13.2 18 18 0 0 0 13.2 5.4h161.3a18.4 18.4 0 0 0 18.6-18.6v-79.1a2.4 2.4 0 0 0-1.4-2.3 1.9 1.9 0 0 0-2.5.3z"/></svg>