<svg xmlns="http://www.w3.org/2000/svg" width="256" height="256" viewBox="0 0 256 256"><path d="M68.8 160A77.7 77.7 0 0 1 29 175.8h-.3a2.9 2.9 0 0 1-2.9-2.2c-.2-.9.4-2 1.8-3.2l1.8-1.8c3.6-3.1 6.1-5.9 7.5-8.6s4.2-9.5 5.4-16.4c-11-10.3-16.5-22.1-16.5-35.5 0-10.5 3.6-20.2 10.8-29.2s16.9-16 29.2-21.3a100.6 100.6 0 0 1 40.3-7.9 100.5 100.5 0 0 1 40.2 7.9c12.3 5.3 22.1 12.4 29.2 21.3s10.8 18.8 10.8 29.4-3.6 20.4-10.8 29.4-16.9 16-29.2 21.3a102.2 102.2 0 0 1-40.2 7.8 100.8 100.8 0 0 1-37.3-6.8zm159.7 43.7a40.4 40.4 0 0 1-6.8-7.8 45.7 45.7 0 0 1-4.6-15.1c7.9-7.4 12.6-15.7 14.3-25.1a39.2 39.2 0 0 0-4.8-27c-4.9-8.7-12.6-16.1-23.1-22v1.4c0 14.6-4.7 27.8-14 39.8s-21.4 20.4-37.1 27a119.9 119.9 0 0 1-50.6 9.1 80.1 80.1 0 0 0 24.8 13.1 98.2 98.2 0 0 0 31 4.8 101 101 0 0 0 34.8-6c10.5 8.1 22.8 12.8 36.9 14.3a3.2 3.2 0 0 0 1.6-.6 2.5 2.5 0 0 0 1.2-1.6c.3-.7-.2-1.5-1.4-2.5l-.4-.3z"/></svg>