<svg xmlns="http://www.w3.org/2000/svg" width="256" height="256" viewBox="0 0 256 256"><path d="M51.9 177a53.8 53.8 0 0 1 .2-27.6 51.5 51.5 0 0 1 13.7-23.8l72.6-74.7a39.2 39.2 0 0 1 38.2-10.4 40 40 0 0 1 17.7 10.4 38 38 0 0 1 10.2 17.9 41.8 41.8 0 0 1 0 20.5 38 38 0 0 1-10.2 17.9l-63.6 64.9a24.1 24.1 0 0 1-18.7 7.8 24.9 24.9 0 0 1-18.6-8 25.4 25.4 0 0 1-7.3-18.7 25.9 25.9 0 0 1 7.8-18.6l49.7-51a6.5 6.5 0 0 1 4-1.6 4.6 4.6 0 0 1 3.9 1.6l8 7.6a5.3 5.3 0 0 1 0 8l-50 51a6.6 6.6 0 0 0-1.2 3.3 3.6 3.6 0 0 0 1.1 3.2 3.7 3.7 0 0 0 2.7 1.2 3.1 3.1 0 0 0 2.6-1.4l63.6-64.6a18.1 18.1 0 0 0 5.2-12.8 17.4 17.4 0 0 0-5-12.5 16.2 16.2 0 0 0-12-5.3 16.8 16.8 0 0 0-12.2 5.3l-72.9 74.3a32.4 32.4 0 0 0-.2 44.6 28.8 28.8 0 0 0 21.4 9.2 28.4 28.4 0 0 0 21.2-9l59.7-61.2a5.6 5.6 0 0 1 8 0l8 7.7a5.6 5.6 0 0 1 1.7 4 5.8 5.8 0 0 1-1.7 4l-59.8 61.1a49.5 49.5 0 0 1-23.7 13.9 53.7 53.7 0 0 1-27.3-.2 50.1 50.1 0 0 1-23.6-14.1A51.8 51.8 0 0 1 51.9 177z"/></svg>