<svg xmlns="http://www.w3.org/2000/svg" width="256" height="256" viewBox="0 0 256 256"><path d="M218.4 41.9a97.7 97.7 0 0 1 2.2 16q.3 5.1.3 14.1c0 17.5-4.4 32.7-13.4 45.8-7.5 11.2-18.5 21.4-33 30.9v37.8a17.3 17.3 0 0 1-2.6 9.2 16.3 16.3 0 0 1-7.3 6.4L129 220.2a8.6 8.6 0 0 1-8.5-.7 8 8 0 0 1-4.2-7.2v-34.6l-13.8 6.6a4.8 4.8 0 0 1-3.4.3 5.6 5.6 0 0 1-3.1-1.4l-23.3-23.3a5.3 5.3 0 0 1-1.4-3 5.7 5.7 0 0 1 .4-3.5c1.9-3.9 4.1-8.5 6.5-13.8H43.7a8 8 0 0 1-7.3-4.2 8.1 8.1 0 0 1-.3-8.5l17.8-36a16.1 16.1 0 0 1 6.3-6.9 17.5 17.5 0 0 1 9.3-2.5h37.8q14.1-22.2 30.5-33.1c13.3-8.9 28.7-13.4 46.1-13.4 6.3 0 11 .1 14.2.4a86.7 86.7 0 0 1 15.9 2.1 5.2 5.2 0 0 1 4.4 4.4zm-38.1 51.2a17.4 17.4 0 0 0 17.4-17.4A17.5 17.5 0 1 0 167.9 88a16.8 16.8 0 0 0 12.4 5.1z"/></svg>