<svg xmlns="http://www.w3.org/2000/svg" width="256" height="256" viewBox="0 0 256 256"><path fill="#00aff0" d="M218.8 147.9a48.7 48.7 0 0 1 10.4 30.7 49.6 49.6 0 0 1-6.7 25.3 50.3 50.3 0 0 1-18.6 18.6 49.6 49.6 0 0 1-25.3 6.7 48.7 48.7 0 0 1-30.7-10.4 111.6 111.6 0 0 1-19.9 1.8 90 90 0 0 1-46.5-12.4 92.3 92.3 0 0 1-33.7-33.7A90 90 0 0 1 35.4 128a116.8 116.8 0 0 1 1.8-19.9 48.7 48.7 0 0 1-10.4-30.7 49.6 49.6 0 0 1 6.7-25.3 50.3 50.3 0 0 1 18.6-18.6 49.6 49.6 0 0 1 25.3-6.7 48.7 48.7 0 0 1 30.7 10.4 111.6 111.6 0 0 1 19.9-1.8 90 90 0 0 1 46.5 12.4 92.3 92.3 0 0 1 33.7 33.7 90 90 0 0 1 12.4 46.5 116.8 116.8 0 0 1-1.8 19.9zM130.7 189c13.6 0 25.2-3.2 34.8-9.5s15.8-17 15.8-29.4c0-10.2-4.5-18.5-13.5-24.8-6.4-4.2-15.5-7.7-27.6-10.4l-7.2-1.4c-9.4-2.4-15.4-4.2-18.1-5.4s-5.9-4.5-5.9-8.1c0-6.6 6.3-10 19-10a32.7 32.7 0 0 1 13.6 2.7 77.4 77.4 0 0 1 8.1 5.9q3.2 3.6 5.4 4.5a14.1 14.1 0 0 0 17-2.2 14.8 14.8 0 0 0 3.8-10.4c0-7.2-5.3-13.3-15.8-18.1s-21.5-6.8-34.6-6.8-24.2 2.7-33.2 8.2-15.8 16.1-15.8 28.4q0 12.8 6.3 20.4c3.3 4.5 8.7 8.1 16.3 10.8 4.5 1.8 12.2 3.9 23 6.4l9.1 2.2c6.6 1.5 10.8 2.9 12.6 4.1a8.7 8.7 0 0 1 5 8.1c0 3.6-1.8 6.6-5.4 8.8s-8.4 3.4-14.3 3.4a29.3 29.3 0 0 1-15.6-4.1 48.9 48.9 0 0 1-9.9-8.1 33.6 33.6 0 0 0-6.3-5.9 14.3 14.3 0 0 0-7.7-2.2c-4.2 0-7.5 1.3-9.7 3.8a14 14 0 0 0-3.4 9.7c0 5.5 2.4 10.4 7.2 14.9s11.5 8.1 19.9 10.7a94.9 94.9 0 0 0 27.1 3.8z"/></svg>