<svg xmlns="http://www.w3.org/2000/svg" width="256" height="256" viewBox="0 0 256 256"><path d="M174.5 152.2a34.8 34.8 0 0 1 34.9 34.9 34.7 34.7 0 0 1-34.9 34.8 34.7 34.7 0 0 1-34.9-34.8 45.6 45.6 0 0 1 .7-7.6l-37-23.3a33.7 33.7 0 0 1-21.8 7.6A34.7 34.7 0 0 1 46.6 129a34.8 34.8 0 0 1 34.9-34.9 34.2 34.2 0 0 1 21.8 7.6l37-23.2a46.7 46.7 0 0 1-.7-7.6A34.8 34.8 0 0 1 174.5 36a34.8 34.8 0 0 1 34.9 34.9 34.7 34.7 0 0 1-34.9 34.8 33.7 33.7 0 0 1-21.8-7.6l-37 23.2a43.7 43.7 0 0 1 0 15.3l37 23.2a34.2 34.2 0 0 1 21.8-7.6z"/></svg>