<svg xmlns="http://www.w3.org/2000/svg" width="256" height="256" viewBox="0 0 256 256"><path fill="#fff" d="M128 224a96 96 0 1 1 96-96 96.2 96.2 0 0 1-96 96zm0-177.8a81.8 81.8 0 1 0 81.8 81.8A81.9 81.9 0 0 0 128 46.2z"/><path fill="#fff" d="M177.7 112.4a65.3 65.3 0 0 1-7.9 31.1 63.9 63.9 0 0 1-22.6 25.4c-10.7 7-22.8 10.5-36.6 10.5a65.9 65.9 0 0 1-36.2-10.5l5.6.2a47.3 47.3 0 0 0 29.5-10.1 21.7 21.7 0 0 1-13.8-4.6 23.4 23.4 0 0 1-8.2-11.5 31 31 0 0 0 4.2.2 27 27 0 0 0 6.3-.7 24 24 0 0 1-13.5-8.2 22.9 22.9 0 0 1-5.3-14.9v-.5a22.2 22.2 0 0 0 10.5 3.2 26 26 0 0 1-7.6-8.5 22.2 22.2 0 0 1-2.9-11.4 21.5 21.5 0 0 1 3.4-11.7 65.2 65.2 0 0 0 21.4 17.5 67 67 0 0 0 27.1 7.2 35 35 0 0 1-.5-5.4 22.5 22.5 0 0 1 3.2-11.8A23 23 0 0 1 154 86.2a23.1 23.1 0 0 1 9.5 2 28.1 28.1 0 0 1 7.7 5.4 47.4 47.4 0 0 0 15.1-5.6 23.3 23.3 0 0 1-10.3 13 50.8 50.8 0 0 0 13.4-3.8 49.7 49.7 0 0 1-11.9 12.3 16.5 16.5 0 0 1 .2 2.9z"/></svg>
