<svg xmlns="http://www.w3.org/2000/svg" width="1920" height="1080" viewBox="0 0 1920 1080"><g opacity=".15"><path fill="#7d07f2" d="M1760.5 84.6a7.8 7.8 0 0 0-3.8-3.8 6.7 6.7 0 0 0 1-2.1 6.1 6.1 0 0 0-4.5-7.4 5.3 5.3 0 0 0-3.5.2 10.3 10.3 0 0 0-2.6-4.5 9.7 9.7 0 0 0-4.6-2.6 9.5 9.5 0 0 0-5.3 0 9.4 9.4 0 0 0-4.5 2.7 9.2 9.2 0 0 0-2.6 4.6v.5a9 9 0 0 0-5.1 2.2 8.7 8.7 0 0 0-3 4.7 8.4 8.4 0 0 0 .1 4.7 10.6 10.6 0 0 0 2.4 4.1 9.3 9.3 0 0 0 4.1 2.3l22.7 5.7a7.5 7.5 0 0 0 4.2 0 8.2 8.2 0 0 0 3.6-2.1 8.9 8.9 0 0 0 2.1-3.8 7.8 7.8 0 0 0-.7-5.4zm-11.4-1.6l-3.6-.9-1.5 6a.7.7 0 0 1-.9.5l-4.8-1.2a.7.7 0 0 1-.5-.9l1.5-6-3.6-.9a.7.7 0 0 1-.2-1.3l8.5-5.7a.8.8 0 0 1 1.1.3l4.8 9a.8.8 0 0 1-.8 1.1z"/><path fill="#5207f2" d="M935.3 458.1a8 8 0 0 0-5.3-.9 5.9 5.9 0 0 0-.5-2.2 5.7 5.7 0 0 0-3.3-3.3 5.3 5.3 0 0 0-4.6 0 5.6 5.6 0 0 0-2.8 2.2 10.3 10.3 0 0 0-10-1.4 10.5 10.5 0 0 0-6.3 8 10.3 10.3 0 0 0 .7 5.2l.2.5a8.8 8.8 0 0 0-2.4 10.3 8.8 8.8 0 0 0 2.8 3.8 10 10 0 0 0 4.4 1.8 9.6 9.6 0 0 0 4.7-.6l21.6-8.8a7.8 7.8 0 0 0 3.4-2.5 7.6 7.6 0 0 0 1.6-3.9 8.7 8.7 0 0 0-.5-4.2 7.6 7.6 0 0 0-3.7-4zm-10.2 5.5l-3.4 1.3 2.4 5.8a.8.8 0 0 1-.4.9l-4.6 1.9a.7.7 0 0 1-1-.4l-2.3-5.8-3.4 1.4a.7.7 0 0 1-1-.9l3.5-9.6a.8.8 0 0 1 1-.4l9.3 4.4a.8.8 0 0 1-.1 1.4zM135.6 472a8.2 8.2 0 0 0-5.2-1.6 6 6 0 0 0-.1-2.3 6.2 6.2 0 0 0-2.7-3.8 6.1 6.1 0 0 0-4.6-.7 5.6 5.6 0 0 0-3 1.7 10.3 10.3 0 0 0-9.7-2.9 9.6 9.6 0 0 0-7.4 6.9 9.2 9.2 0 0 0-.2 5.2v.5a8.5 8.5 0 0 0-3.5 4.2 9 9 0 0 0-.5 5.6 8.6 8.6 0 0 0 2.2 4.1 10 10 0 0 0 4 2.5 8.4 8.4 0 0 0 4.7.2l22.7-5.3a7.6 7.6 0 0 0 3.8-1.9 8.4 8.4 0 0 0 2.2-3.6 8.5 8.5 0 0 0 .1-4.2 7.8 7.8 0 0 0-2.8-4.6zm-11 3.8l-3.5.9 1.4 6a.9.9 0 0 1-.6.9l-4.8 1.1a.8.8 0 0 1-.9-.6l-1.4-6-3.5.8a.7.7 0 0 1-.8-1l5-8.9a.7.7 0 0 1 1-.3l8.4 5.8a.7.7 0 0 1-.3 1.3z"/><path fill="#d7f205" d="M1471.2 632.6a8 8 0 0 0-2.5-4.8 8 8 0 0 0 1.5-1.7 5.8 5.8 0 0 0 .8-4.6 6.2 6.2 0 0 0-2.7-3.8 6.7 6.7 0 0 0-3.4-.9 9.9 9.9 0 0 0-1.1-5 10.4 10.4 0 0 0-3.6-3.9 10.2 10.2 0 0 0-5-1.6 10.4 10.4 0 0 0-9 4.8l-.2.4a9.4 9.4 0 0 0-5.5.5 8.7 8.7 0 0 0-4.2 3.6 8.2 8.2 0 0 0-1.4 4.5 9.5 9.5 0 0 0 1.1 4.6 8.1 8.1 0 0 0 3.2 3.4l19.7 12.3a8.2 8.2 0 0 0 4 1.3 8.6 8.6 0 0 0 4.1-1 7.3 7.3 0 0 0 3-2.8 7.9 7.9 0 0 0 1.2-5.3zm-10.4-5.1l-3.1-1.9-3.3 5.2a.7.7 0 0 1-1 .3l-4.1-2.7a.7.7 0 0 1-.3-1l3.3-5.2-3.1-1.9a.8.8 0 0 1 .2-1.4l9.8-2.7a.7.7 0 0 1 .9.6l1.8 10a.7.7 0 0 1-1.1.7zM474.1 933.2a8 8 0 0 0-5.2-1.5 5.5 5.5 0 0 0-.2-2.2 6 6 0 0 0-7.4-4.3 5.8 5.8 0 0 0-3 1.8 10.3 10.3 0 0 0-4.4-2.6 9.6 9.6 0 0 0-5.3 0 9.2 9.2 0 0 0-4.6 2.6 11.3 11.3 0 0 0-2.6 4.5 9.2 9.2 0 0 0 0 5.2v.5a8.8 8.8 0 0 0-3.3 4.3 9 9 0 0 0-.3 5.6 8.7 8.7 0 0 0 6.4 6.4 7.5 7.5 0 0 0 4.7 0l22.4-5.9a8 8 0 0 0 3.7-2.1 8.2 8.2 0 0 0 2.1-3.6 8.1 8.1 0 0 0-3.1-8.7zm-10.8 4.1l-3.5 1 1.6 6a.7.7 0 0 1-.5.8l-4.8 1.3a.7.7 0 0 1-.9-.5l-1.6-6-3.5 1a.8.8 0 0 1-.8-1.1l4.7-9a.7.7 0 0 1 1-.3l8.5 5.5a.7.7 0 0 1-.2 1.3z"/><path fill="#5207f2" d="M471.8 190.3a6.1 6.1 0 0 1 4.2 1.7 5.7 5.7 0 0 1 1.7 4.2 5.7 5.7 0 0 1-1.7 4.1 6.1 6.1 0 0 1-4.2 1.7 5.7 5.7 0 0 1-4.1-1.7 6.2 6.2 0 0 1-1.6-5.4l-6.2-3.9a6.2 6.2 0 0 1-3.7 1.3 5.4 5.4 0 0 1-4.1-1.8 5.8 5.8 0 0 1 4.1-9.9 6.1 6.1 0 0 1 3.7 1.2l6.2-3.9a4.9 4.9 0 0 1-.1-1.2 5.4 5.4 0 0 1 1.7-4.2 5.7 5.7 0 0 1 4.1-1.7 6.1 6.1 0 0 1 4.2 1.7 5.7 5.7 0 0 1 1.7 4.2 5.7 5.7 0 0 1-1.7 4.1 6.1 6.1 0 0 1-4.2 1.7 5.2 5.2 0 0 1-3.6-1.3l-6.2 3.9a11.3 11.3 0 0 1 0 2.6l6.2 3.9a5.2 5.2 0 0 1 3.6-1.3zm1332 811a6.1 6.1 0 0 1 4.2 1.7 5.7 5.7 0 0 1 1.7 4.2 5.7 5.7 0 0 1-1.7 4.1 6.1 6.1 0 0 1-4.2 1.7 5.7 5.7 0 0 1-4.1-1.7 6.2 6.2 0 0 1-1.6-5.4l-6.2-3.9a6.2 6.2 0 0 1-3.7 1.3 5.4 5.4 0 0 1-4.1-1.8 5.8 5.8 0 0 1 4.1-9.9 6.1 6.1 0 0 1 3.7 1.2l6.2-3.9a4.9 4.9 0 0 1-.1-1.2 5.4 5.4 0 0 1 1.7-4.2 5.7 5.7 0 0 1 4.1-1.7 6.1 6.1 0 0 1 4.2 1.7 5.7 5.7 0 0 1 1.7 4.2 5.7 5.7 0 0 1-1.7 4.1 6.1 6.1 0 0 1-4.2 1.7 5.2 5.2 0 0 1-3.6-1.3l-6.2 3.9a11.3 11.3 0 0 1 0 2.6l6.2 3.9a5.2 5.2 0 0 1 3.6-1.3z"/><path fill="#23d9b7" d="M1190.5 688.2a5.5 5.5 0 0 1 3.6 2.7 5.9 5.9 0 0 1 .6 4.5 5.6 5.6 0 0 1-2.7 3.5 5.9 5.9 0 0 1-4.5.6 5.6 5.6 0 0 1-3.5-2.7 5.9 5.9 0 0 1-.6-4.5c.1-.4.3-.8.4-1.2l-5-5.4a5 5 0 0 1-3.8.3 5.5 5.5 0 0 1-3.6-2.7 5.7 5.7 0 0 1-.6-4.4 6 6 0 0 1 2.8-3.6 5.6 5.6 0 0 1 4.4-.6 6 6 0 0 1 3.2 2.2l7-2.1a5.1 5.1 0 0 1 .2-1.3 6 6 0 0 1 2.8-3.6 5.2 5.2 0 0 1 4.4-.5 5.5 5.5 0 0 1 3.6 2.7 5.2 5.2 0 0 1 .5 4.4 5.5 5.5 0 0 1-2.7 3.6 5.8 5.8 0 0 1-7.6-1.6l-7 2.1a7.2 7.2 0 0 1-.7 2.5l5 5.4a5 5 0 0 1 3.8-.3z"/><path fill="#d7f205" d="M1671 351a9.5 9.5 0 0 1-6.4-7l-4.4-18.1a6.7 6.7 0 0 1 .2-3.7 6 6 0 0 1 1.9-3 6.5 6.5 0 0 1 3.3-1.7 7.3 7.3 0 0 1 3.6.1 7.2 7.2 0 0 1 3.1 2 6.7 6.7 0 0 1 1.8 3.3l3.7 15.8a4.4 4.4 0 0 1-.6 3.5 4.7 4.7 0 0 1-3 2.1 4.9 4.9 0 0 1-3.5-.7 4.7 4.7 0 0 1-2.1-3l-2.9-12.3a1.1 1.1 0 0 1 .1-.8.7.7 0 0 1 .6-.4l1.9-.5a1.1 1.1 0 0 1 .8.1.8.8 0 0 1 .4.6l3 12.5.4.5a.4.4 0 0 0 .5.1.5.5 0 0 0 .5-.3.5.5 0 0 0 0-.5l-3.7-15.8a3.2 3.2 0 0 0-1.4-2 2.9 2.9 0 0 0-2.4-.4 2.6 2.6 0 0 0-1.9 1.3 2.7 2.7 0 0 0-.4 2.3l4.3 18.1a5.6 5.6 0 0 0 2.5 3.5 5.2 5.2 0 0 0 4.2.8 5.1 5.1 0 0 0 3.4-2.3 5 5 0 0 0 .7-4.1l-3.5-14.9a.6.6 0 0 1 .1-.7c.1-.3.3-.4.6-.5l1.9-.4a.8.8 0 0 1 .8.1.7.7 0 0 1 .4.6l3.6 14.9a9 9 0 0 1-.2 4.9 9.3 9.3 0 0 1-2.6 4.1 8.8 8.8 0 0 1-4.4 2.2 8.2 8.2 0 0 1-4.9-.3z"/><path fill="#23d9b7" d="M637.2 797a9.4 9.4 0 0 1-2.1-4.5 8.7 8.7 0 0 1 .4-4.8l6.1-17.6a9.5 9.5 0 0 1 2.1-3.1 7.1 7.1 0 0 1 3.3-1.5 6.7 6.7 0 0 1 3.7.4 6.3 6.3 0 0 1 3 2.1 7.1 7.1 0 0 1 1.5 3.3 5.9 5.9 0 0 1-.3 3.7l-5.4 15.3a4.6 4.6 0 0 1-2.4 2.7 5 5 0 0 1-3.6.1 4.6 4.6 0 0 1-2.6-2.5 4.5 4.5 0 0 1-.1-3.6l4.1-12 .6-.6a.9.9 0 0 1 .7 0l1.9.6a1 1 0 0 1 .6.5 1.1 1.1 0 0 1 0 .8l-4.2 12a.9.9 0 0 0 0 .7.8.8 0 0 0 .4.4.6.6 0 0 0 .6 0l.3-.4 5.4-15.3a3.6 3.6 0 0 0-.1-2.5 3.1 3.1 0 0 0-1.8-1.6 3 3 0 0 0-2.3 0 3.1 3.1 0 0 0-1.6 1.8l-6.2 17.5a6.1 6.1 0 0 0 .2 4.4 5.9 5.9 0 0 0 3.1 2.9 5.5 5.5 0 0 0 4.2-.1 5.2 5.2 0 0 0 2.7-3.1l5.1-14.4a1 1 0 0 1 .5-.6 1.1 1.1 0 0 1 .8 0l1.9.6.6.5a1.1 1.1 0 0 1 0 .8l-5.1 14.4a8.4 8.4 0 0 1-2.8 4.1 10.4 10.4 0 0 1-4.4 2 9.1 9.1 0 0 1-4.9-.5 8.1 8.1 0 0 1-3.9-2.9zM1449 284.9a16.8 16.8 0 0 1 8.6-.8 16.2 16.2 0 0 1 7.9 3.5 15.4 15.4 0 0 1 5.1 7 16.2 16.2 0 0 1 .9 8.7 17.7 17.7 0 0 1-3.5 7.9 17 17 0 0 1-7 5.1 16.2 16.2 0 0 1-8.7.9 16.8 16.8 0 0 1-7.9-3.6 16.3 16.3 0 0 1-5.1-7 15.9 15.9 0 0 1-.9-8.6 16.4 16.4 0 0 1 3.6-7.9 15.8 15.8 0 0 1 7-5.2zm13.9 14.4a1.4 1.4 0 0 0 .2-1.6 1.4 1.4 0 0 0-1.2-1l-13.7-2.5a1.5 1.5 0 0 0-1.5.5 1.7 1.7 0 0 0-.3 1.7l5 13.1a1.5 1.5 0 0 0 1.3 1 1.4 1.4 0 0 0 1.5-.5z"/><path fill="#5207f2" d="M1752.9 606.6a10.8 10.8 0 0 1 4.8 3.9 11.2 11.2 0 0 1 2.2 5.8 11.6 11.6 0 0 1-.9 6.1 11.9 11.9 0 0 1-4 4.9 13.2 13.2 0 0 1-5.8 2.2 11.6 11.6 0 0 1-6.1-1 11.9 11.9 0 0 1-4.9-4 12.8 12.8 0 0 1-2.2-5.8 11.8 11.8 0 0 1 1-6.1 11 11 0 0 1 4-4.8 11.9 11.9 0 0 1 11.9-1.2zm-.3 14.3a1.3 1.3 0 0 0 1-.7 1.3 1.3 0 0 0-.1-1.2l-5.7-8.2a1 1 0 0 0-1-.5 1.3 1.3 0 0 0-1 .7l-4.1 9.2a1.1 1.1 0 0 0 .1 1.2 1.3 1.3 0 0 0 1.1.5z"/><path fill="#7d07f2" d="M690.4 530a12.2 12.2 0 0 1-5.6-3 12.8 12.8 0 0 1-3.3-5.3 11.3 11.3 0 0 1-.3-6.3 12.6 12.6 0 0 1 8.3-9 12.2 12.2 0 0 1 6.3-.2 12.1 12.1 0 0 1 5.6 2.9 11.9 11.9 0 0 1 3.3 5.3 11.6 11.6 0 0 1 .3 6.4 11.4 11.4 0 0 1-3 5.5 11.9 11.9 0 0 1-5.3 3.4 13.3 13.3 0 0 1-6.3.3zm-2.6-14.3a1.1 1.1 0 0 0-.8.8 1.2 1.2 0 0 0 .3 1.2l7.3 7a1.3 1.3 0 0 0 1.2.3 1.4 1.4 0 0 0 .8-.9l2.2-10a1.1 1.1 0 0 0-.3-1.1 1.2 1.2 0 0 0-1.2-.3z"/><path fill="#d7f205" d="M1422.4 836.4a10.9 10.9 0 0 1 5.8-1.7 11.5 11.5 0 0 1 6 1.3 12.9 12.9 0 0 1 4.5 4.2 10.9 10.9 0 0 1 1.7 5.8 11.9 11.9 0 0 1-1.3 5.9 11.4 11.4 0 0 1-4.2 4.5 12 12 0 0 1-5.8 1.8 11.5 11.5 0 0 1-6-1.4 10.8 10.8 0 0 1-4.4-4.1 10.5 10.5 0 0 1-1.8-5.9 11.2 11.2 0 0 1 1.4-5.9 11.7 11.7 0 0 1 4.1-4.5zm11.5 8.1a1.3 1.3 0 0 0 0-1.2 1 1 0 0 0-1-.5h-9.8a1 1 0 0 0-1 .6 1.1 1.1 0 0 0 .1 1.2l5.2 8.3a1.2 1.2 0 0 0 1 .6 1 1 0 0 0 1-.6z"/><path fill="#7d07f2" d="M1245.3 465.7l2.1-.4h1.8a11.1 11.1 0 0 1 6.1 1.6 15.7 15.7 0 0 1 4.2 4.3l5-.2a2.7 2.7 0 0 1 1.2.3 2.2 2.2 0 0 1 .9 1l2.5 4.6a1.4 1.4 0 0 1-.1 1.1 1 1 0 0 1-.9.6h-4.6l.9 1.8a.7.7 0 0 1 .1.5.8.8 0 0 1-.2.4l-3 3.1c0 .1-.2.2-.4.2h-.4l-1.9-.8.2 4.5a1.2 1.2 0 0 1-.6 1 1.4 1.4 0 0 1-1.1.1l-4.8-2.3a1.4 1.4 0 0 1-.9-.8 2.1 2.1 0 0 1-.4-1.2v-4.9a14.7 14.7 0 0 1-4.5-3.9 11.6 11.6 0 0 1-1.9-6.1v-1.8a14.9 14.9 0 0 1 .2-2.1q.1-.6.5-.6zm6.9 4.8a2.5 2.5 0 0 0-.8-1.6 2.3 2.3 0 0 0-1.6-.6 2 2 0 0 0-1.6.7 1.9 1.9 0 0 0-.6 1.6 1.9 1.9 0 0 0 .7 1.6 2 2 0 0 0 1.6.7 2.3 2.3 0 0 0 1.6-.8 2 2 0 0 0 .7-1.6z"/><path fill="#5207f2" d="M869.8 929.8a18.5 18.5 0 0 1 .1 2.3c0 .5-.1 1.2-.2 2.1a10.9 10.9 0 0 1-2.7 6.6 15.1 15.1 0 0 1-5.3 4l-.5 5.6a3.1 3.1 0 0 1-.6 1.3 1.5 1.5 0 0 1-1.1.8l-5.5 2.2a1.9 1.9 0 0 1-1.3-.2 1.3 1.3 0 0 1-.5-1.2l.5-5.1-2.1.8a.5.5 0 0 1-.5 0c-.2-.1-.4-.1-.4-.3l-3.1-3.7c-.1-.2-.2-.3-.2-.5a.7.7 0 0 1 .1-.5l1.2-1.9-5.1-.6a1 1 0 0 1-1-.7 1.1 1.1 0 0 1 .1-1.2l3.1-5.1a2.4 2.4 0 0 1 1.1-.9 2.2 2.2 0 0 1 1.4-.2l5.5.5a16.7 16.7 0 0 1 5-4.4 12.6 12.6 0 0 1 7-1.3l2.1.3 2.3.5c.4.2.6.4.6.8zm-6.4 6.9a2.5 2.5 0 0 0 1.9-.5 2.3 2.3 0 0 0 .9-1.8 2.6 2.6 0 0 0-.5-1.9 3.1 3.1 0 0 0-1.8-.9 2.3 2.3 0 0 0-1.9.6 2.6 2.6 0 0 0-.9 1.7 2.3 2.3 0 0 0 .6 1.9 2.2 2.2 0 0 0 1.7.9zM970.1 87.2a9 9 0 0 1-1.5-1.9 11.8 11.8 0 0 1-1.1-1.8 12.1 12.1 0 0 1-1.7-6.8 16.9 16.9 0 0 1 2-6.4l-2.8-4.9a2.3 2.3 0 0 1-.4-1.4 2.1 2.1 0 0 1 .5-1.3l3.2-5a1.3 1.3 0 0 1 1.2-.5 1.1 1.1 0 0 1 1 .6l2.6 4.4 1.3-1.8c.1-.2.2-.3.4-.3h.5l4.7 1.3a.5.5 0 0 1 .4.3.8.8 0 0 1 .2.4c.1.7.1 1.4.2 2.3l4.4-2.6a1.5 1.5 0 0 1 1.3 0 1.3 1.3 0 0 1 .6 1.1l.4 5.9a2.2 2.2 0 0 1-.3 1.4 2.4 2.4 0 0 1-1 1l-4.8 2.8a15.6 15.6 0 0 1-1.5 6.5 12 12 0 0 1-4.9 5.1l-1.9 1a8.5 8.5 0 0 1-2.2.9.6.6 0 0 1-.8-.3zm1.1-9.4a2.6 2.6 0 0 0-1.3 1.6 3.1 3.1 0 0 0 .3 1.9 2.1 2.1 0 0 0 1.6 1.2 2.5 2.5 0 0 0 1.9-.2 2.1 2.1 0 0 0 1.2-1.6 2.8 2.8 0 0 0-.2-2 2.8 2.8 0 0 0-1.6-1.2 2.5 2.5 0 0 0-1.9.3z"/><path fill="#23d9b7" d="M623.9 348a1.2 1.2 0 0 1 1.4.1 1.1 1.1 0 0 1 .5 1.2l-3.8 22.9a1.5 1.5 0 0 1-.6.9.9.9 0 0 1-1.1.1l-6.7-2.8-3.3 4.1a1.4 1.4 0 0 1-.9.5 1.7 1.7 0 0 1-1-.3 1.3 1.3 0 0 1-.4-1v-4.3l12.8-15.6a.2.2 0 0 0-.1-.4h-.4l-15.2 13.4-5.6-2.3a1.2 1.2 0 0 1-.8-1.1 1 1 0 0 1 .6-1.2zm1095.3 515.2a1.2 1.2 0 0 1 .7 1.2 1.3 1.3 0 0 1-.8 1.1l-5.7 2.3-15.2-13.4c-.2-.1-.3-.1-.4 0a.2.2 0 0 0-.1.4l12.8 15.6v4.3a1.3 1.3 0 0 1-.4 1 1.6 1.6 0 0 1-.9.3 1.4 1.4 0 0 1-1-.5l-3.3-4.1-6.7 2.8a.8.8 0 0 1-1-.1 1.3 1.3 0 0 1-.7-.9l-3.8-22.9a1.1 1.1 0 0 1 .5-1.2 1.2 1.2 0 0 1 1.4-.1zM169.2 89.1l7.1-2.5 6 17a1.2 1.2 0 0 1-.1 1 1.6 1.6 0 0 1-.7.7l-17.4 6.1h-1a1.4 1.4 0 0 1-.7-.8l-8.5-24a1.2 1.2 0 0 1 .1-1 1.1 1.1 0 0 1 .7-.6l10.4-3.7 2.5 7a1.2 1.2 0 0 0 .6.8 1.2 1.2 0 0 0 1 0zm-6.7 3.3a3.3 3.3 0 0 0-1.5 1.4 2.7 2.7 0 0 0-.1 2 2.6 2.6 0 0 0 1.4 1.5 2.7 2.7 0 0 0 2 .1 3.1 3.1 0 0 0 1.5-1.3 3 3 0 0 0 .1-2.1 2.3 2.3 0 0 0-1.4-1.5 2.7 2.7 0 0 0-2-.1zm15.2 8.6l-2.1-5.8-2.8-1.3a.3.3 0 0 0-.4 0l-.4.3-3.5 7.3-2.8-1.4h-.5l-.3.3-1.3 2.8.9 2.5zm-2.1-16.3a1.9 1.9 0 0 0-.7-.8l-6.9-3.2a1.1 1.1 0 0 0-1-.1h-.3l2.4 6.6 6.6-2.3z"/><path fill="#7d07f2" d="M792.3 149.6a2.2 2.2 0 0 1 1.6.1 2.2 2.2 0 0 1 1 1.3l3.4 11.8a1.8 1.8 0 0 1-.2 1.6 1.8 1.8 0 0 1-1.2 1h-.5a1.6 1.6 0 0 1-1.5-.2l-5.2-2.8.7 2.6a1.8 1.8 0 0 1-.2 1.6 1.8 1.8 0 0 1-1.2 1l-11.8 3.4a1.8 1.8 0 0 1-1.6-.2 2 2 0 0 1-1-1.2l-3.4-11.8a1.8 1.8 0 0 1 .2-1.6 1.8 1.8 0 0 1 1.2-1l11.8-3.4a2.2 2.2 0 0 1 1.6.1 2.2 2.2 0 0 1 1 1.3l.7 2.6 2.9-5.2a2.3 2.3 0 0 1 1.2-1zM349.2 666.2a1.5 1.5 0 0 1 1 1.2 1.8 1.8 0 0 1-.1 1.6l-5.7 11.2a1.8 1.8 0 0 1-1.2 1 1.8 1.8 0 0 1-1.6-.1l-.4-.2a2 2 0 0 1-1.1-1.3l-1.9-5.7-1.2 2.5a1.9 1.9 0 0 1-1.3 1 1.8 1.8 0 0 1-1.6-.1l-11.2-5.7a1.8 1.8 0 0 1-1-1.2 2.2 2.2 0 0 1 .1-1.6l5.7-11.2a1.9 1.9 0 0 1 1.2-1 1.8 1.8 0 0 1 1.6.1l11.2 5.7a1.9 1.9 0 0 1 1.1 1.2 1.8 1.8 0 0 1-.2 1.6l-1.2 2.5 5.7-1.9a2.2 2.2 0 0 1 1.6.1z"/><path fill="#d7f205" d="M915.9 700.2a12 12 0 0 1-4.2 5.3.5.5 0 0 1-.6-.1q-.1-.1 0-.6v-.3a4.5 4.5 0 0 0 .4-1.8 8.3 8.3 0 0 0-.6-2.7 7.2 7.2 0 0 1-5-3.5 7.1 7.1 0 0 1-.9-4.8 12.1 12.1 0 0 1 2.3-5.2 17.1 17.1 0 0 1 4.9-4.3 17.7 17.7 0 0 1 6.1-2.1 13.2 13.2 0 0 1 5.7.6 7.5 7.5 0 0 1 3.8 3.2 7.2 7.2 0 0 1 .8 4.8 11 11 0 0 1-2.3 5.2 17.1 17.1 0 0 1-4.9 4.3 16.4 16.4 0 0 1-5.5 2zm25.2-6.6l-1.5-.6a5.6 5.6 0 0 1-1.8-1.7 6.3 6.3 0 0 0-.1-4.5 6.3 6.3 0 0 0-2.7-3.3 9.6 9.6 0 0 0-4.9-1.2v.2a10.4 10.4 0 0 1 1.2 6.5 13.9 13.9 0 0 1-2.9 6.6 18.8 18.8 0 0 1-6.2 5.3 13.3 13.3 0 0 0 4.4-.2 13.8 13.8 0 0 0 4.6-1.8 13.6 13.6 0 0 0 4.3-3.6 10.8 10.8 0 0 0 6.1-.9l.2-.2a.4.4 0 0 0 .1-.3l-.4-.3h-.5zm171.5-482.4l-12.5-3.4a.2.2 0 0 0-.3.1l-2.3 8.4a6.6 6.6 0 0 0 2.3 7.2l2.2 1.8 2.9-.4a6.8 6.8 0 0 0 5.6-4.9l2.3-8.4c.1-.2 0-.3-.2-.4zm-3.8 8.3a5.2 5.2 0 0 1-4.2 3.7l-2 .2 3.3-12.2 4.8 1.3z"/><path fill="#7d07f2" d="M1193.1 977.6l-13.4 13.4a.4.4 0 0 0 0 .6l9 9a9.9 9.9 0 0 0 10.7 2.2l4-1.6 1.5-3.9a9.9 9.9 0 0 0-2.2-10.7l-9-9a.4.4 0 0 0-.6 0zm7.8 10.8a7.4 7.4 0 0 1 1.6 8l-1.1 2.8-13.1-13.1 5.1-5.1z"/><path fill="#5207f2" d="M1380.4 116.6a2.2 2.2 0 0 0 .3 1.6 3.1 3.1 0 0 0 1.5 1l12.4 2.3-5.6 29.9a1.9 1.9 0 0 1-.9 1.4 2.1 2.1 0 0 1-1.7.4l-30.7-5.7a2.2 2.2 0 0 1-1.4-.9 2.6 2.6 0 0 1-.3-1.7l7.8-42.4a2.8 2.8 0 0 1 1-1.4 1.8 1.8 0 0 1 1.6-.3l18.3 3.4zm4.1 10.2a1 1 0 0 0-.2-.9.8.8 0 0 0-.7-.4l-15.3-2.9a1.1 1.1 0 0 0-.8.2 1.2 1.2 0 0 0-.5.7v.7a1.4 1.4 0 0 0 .1.9 1.2 1.2 0 0 0 .8.4l15.3 2.9a.8.8 0 0 0 .8-.2 1.2 1.2 0 0 0 .5-.7zm-1.2 6.5v-.7a1.1 1.1 0 0 0-.1-.8 1.4 1.4 0 0 0-.8-.5l-15.3-2.8a1.1 1.1 0 0 0-.8.1 1.4 1.4 0 0 0-.5.8v.7a.8.8 0 0 0 .2.8c.1.3.4.4.7.5l15.3 2.8a1.1 1.1 0 0 0 .8-.1 1.4 1.4 0 0 0 .5-.8zm-1.1 5.9l.2-.7a2.9 2.9 0 0 0-.2-.9 1 1 0 0 0-.7-.4l-15.4-2.9a.8.8 0 0 0-.8.2 1.2 1.2 0 0 0-.5.7v.7a1 1 0 0 0 .2.9.8.8 0 0 0 .7.4l15.3 2.9a1.5 1.5 0 0 0 .9-.2 1 1 0 0 0 .3-.7zm13-21.2a2.5 2.5 0 0 0-.3-1.7l-7.3-10.6a2.2 2.2 0 0 0-1.4-.9h-.6l-2.2 11.7 11.7 2.1z"/><path fill="#d7f205" d="M383.4 424.5a1.4 1.4 0 0 0 .9.8 1.7 1.7 0 0 0 1.2-.1l7.7-4.4 10.5 18.7a1.3 1.3 0 0 1 .1 1.2 1.3 1.3 0 0 1-.7.9L384 452.3a1.3 1.3 0 0 1-1.2.2 1.6 1.6 0 0 1-1-.8L367 425.3a1.7 1.7 0 0 1-.1-1.2 1.3 1.3 0 0 1 .7-.9l11.4-6.4zm6.8 3.7a1 1 0 0 0-.5-.4h-.6l-9.5 5.4c-.2.1-.4.2-.4.4a.7.7 0 0 0 .1.6l.2.5a1 1 0 0 0 .5.4h.6l9.5-5.4c.2-.1.4-.2.4-.4s.1-.5-.1-.6zm2.3 4.1l-.3-.5c-.1-.1-.2-.3-.4-.3a.6.6 0 0 0-.6 0l-9.6 5.4a1 1 0 0 0-.4.5 1.3 1.3 0 0 0 .1.6l.3.4a.8.8 0 0 0 .4.4.7.7 0 0 0 .6-.1l9.6-5.3a1 1 0 0 0 .4-.5 1.3 1.3 0 0 0-.1-.6zm2 3.6l-.2-.4a1 1 0 0 0-.5-.4h-.6l-9.6 5.4c-.1.1-.3.2-.3.4a.6.6 0 0 0 0 .6l.3.5a.5.5 0 0 0 .5.3.6.6 0 0 0 .6 0l9.5-5.4a.7.7 0 0 0 .4-.5.7.7 0 0 0-.1-.5zm-2.5-17.3a1.6 1.6 0 0 0-.9-.7l-8.7-2.5a1.7 1.7 0 0 0-1.2.2l-.4.2 4.1 7.3 7.3-4.1z"/><path fill="#23d9b7" d="M121.8 927.8a1.3 1.3 0 0 0 1 .7 2 2 0 0 0 1.1-.3l7.1-5.1 12.3 16.9a1.4 1.4 0 0 1 .3 1.2 2.1 2.1 0 0 1-.6 1l-17.4 12.7a1.7 1.7 0 0 1-1.2.2 1.2 1.2 0 0 1-1-.6l-17.5-24a1.6 1.6 0 0 1-.2-1.2 1.2 1.2 0 0 1 .6-1l10.3-7.5zm7 2.8a.5.5 0 0 0-.5-.3h-.5l-8.7 6.4a.5.5 0 0 0-.3.5.4.4 0 0 0 .1.5l.3.5.5.3a.7.7 0 0 0 .6-.2l8.7-6.3a.5.5 0 0 0 .3-.5 1.3 1.3 0 0 0-.1-.6zm2.8 3.7l-.3-.4-.5-.3a.7.7 0 0 0-.6.2l-8.7 6.3a.5.5 0 0 0-.3.5.7.7 0 0 0 .1.6l.3.4a.5.5 0 0 0 .5.3.7.7 0 0 0 .6-.2l8.7-6.3a.5.5 0 0 0 .3-.5 1.3 1.3 0 0 0-.1-.6zm2.4 3.4l-.3-.5-.5-.3a.7.7 0 0 0-.6.2l-8.7 6.3a.5.5 0 0 0-.3.5 1.3 1.3 0 0 0 .1.6l.3.4c.2.2.3.3.5.3h.6l8.7-6.4a.5.5 0 0 0 .3-.5.7.7 0 0 0-.1-.6zm-4.5-16.6a1.1 1.1 0 0 0-1-.6l-8.7-1.4a1.3 1.3 0 0 0-1.2.3l-.3.2 4.8 6.6 6.7-4.8z"/></g></svg>