<?xml version="1.0" encoding="utf-8"?>
<!-- Generator: Adobe Illustrator 22.1.0, SVG Export Plug-In . SVG Version: 6.00 Build 0)  -->
<svg version="1.1" id="Layer_1" xmlns="http://www.w3.org/2000/svg" xmlns:xlink="http://www.w3.org/1999/xlink" x="0px" y="0px"
	 viewBox="0 0 160 156.3" style="enable-background:new 0 0 160 156.3;" xml:space="preserve">
<style type="text/css">
	.st0{fill:#2B9ED8;}
	.st1{fill:#FFFFFF;}
	.st2{fill:#E6E7E8;}
</style>
<g>
	<path class="st0" d="M39,43H4c-2.2,0-4-1.8-4-4V4c0-2.2,1.8-4,4-4h35c2.2,0,4,1.8,4,4v35C43,41.2,41.2,43,39,43z"/>
	<g>
		<path class="st1" d="M4,42.6c-2,0-3.6-1.6-3.6-3.6V13.4h42.2V39c0,2-1.6,3.6-3.6,3.6H4z"/>
		<path class="st2" d="M42.2,13.8V39c0,1.8-1.5,3.2-3.2,3.2H4c-1.8,0-3.2-1.5-3.2-3.2V13.8H42.2 M43,13H0v26c0,2.2,1.8,4,4,4h35
			c2.2,0,4-1.8,4-4V13L43,13z"/>
	</g>
	<g>
		<path class="st0" d="M19.6,22c-0.3,0-0.5-0.1-0.6-0.2c-0.2-0.2-0.3-0.4-0.3-0.6c0-0.2,0-0.4,0.1-0.5c0.1-0.1,0.2-0.3,0.4-0.3
			l2.7-1c0.1,0,0.3-0.1,0.3-0.1c0.3,0,0.5,0.1,0.6,0.3s0.2,0.4,0.2,0.7V32c0,0.2-0.1,0.5-0.3,0.6s-0.4,0.3-0.7,0.3
			c-0.2,0-0.4-0.1-0.6-0.3s-0.3-0.4-0.3-0.6V21.3l-1.3,0.5C19.9,21.9,19.7,22,19.6,22z"/>
	</g>
</g>
<g>
	<path class="st0" d="M97.7,43h-35c-2.2,0-4-1.8-4-4V4c0-2.2,1.8-4,4-4h35c2.2,0,4,1.8,4,4v35C101.7,41.2,99.9,43,97.7,43z"/>
	<g>
		<path class="st1" d="M62.7,42.6c-2,0-3.6-1.6-3.6-3.6V13.4h42.3V39c0,2-1.6,3.6-3.6,3.6H62.7z"/>
		<path class="st2" d="M100.9,13.8V39c0,1.8-1.5,3.2-3.2,3.2h-35c-1.8,0-3.2-1.5-3.2-3.2V13.8H100.9 M101.7,13h-43v26
			c0,2.2,1.8,4,4,4h35c2.2,0,4-1.8,4-4V13L101.7,13z"/>
	</g>
	<g>
		<path class="st0" d="M84.2,31.4c0.2,0.2,0.3,0.4,0.3,0.6s-0.1,0.5-0.3,0.6c-0.2,0.2-0.4,0.3-0.7,0.3H77c-0.3,0-0.5-0.1-0.6-0.3
			s-0.3-0.4-0.3-0.6c0-0.3,0.1-0.5,0.2-0.6l5-5.8c0.7-0.8,1.1-1.6,1.1-2.2c0-0.8-0.2-1.4-0.6-1.8c-0.4-0.5-0.9-0.7-1.6-0.7
			c-0.4,0-0.8,0.1-1.2,0.3s-0.6,0.5-0.9,0.9c-0.2,0.4-0.3,0.8-0.3,1.2c0,0.2-0.1,0.4-0.3,0.6c-0.2,0.2-0.4,0.3-0.6,0.3
			c-0.2,0-0.5-0.1-0.6-0.3c-0.2-0.2-0.3-0.4-0.3-0.6c0-0.8,0.2-1.5,0.5-2.1c0.4-0.6,0.9-1.1,1.5-1.5c0.6-0.4,1.3-0.5,2.1-0.5
			s1.5,0.2,2.1,0.5c0.6,0.3,1,0.8,1.4,1.5c0.3,0.6,0.5,1.4,0.5,2.2c0,0.5-0.1,1.1-0.4,1.6c-0.3,0.6-0.7,1.1-1.1,1.6l-4,4.6h4.9
			C83.8,31.1,84,31.2,84.2,31.4z"/>
	</g>
</g>
<g>
	<path class="st0" d="M156,43h-35c-2.2,0-4-1.8-4-4V4c0-2.2,1.8-4,4-4h35c2.2,0,4,1.8,4,4v35C160,41.2,158.2,43,156,43z"/>
	<g>
		<path class="st1" d="M121,42.6c-2,0-3.6-1.6-3.6-3.6V13.4h42.2V39c0,2-1.6,3.6-3.6,3.6H121z"/>
		<path class="st2" d="M159.2,13.8V39c0,1.8-1.5,3.2-3.2,3.2h-35c-1.8,0-3.2-1.5-3.2-3.2V13.8H159.2 M160,13h-43v26c0,2.2,1.8,4,4,4
			h35c2.2,0,4-1.8,4-4V13L160,13z"/>
	</g>
	<g>
		<path class="st0" d="M140.6,19.6c0.6,0.3,1,0.7,1.3,1.2c0.3,0.5,0.5,1.1,0.5,1.7c0,0.6-0.2,1.2-0.6,1.6c-0.4,0.5-0.9,0.8-1.5,1.1
			c0.9,0.3,1.6,0.8,2,1.4c0.4,0.6,0.7,1.4,0.7,2.2c0,0.8-0.2,1.4-0.6,2c-0.4,0.6-0.9,1.1-1.6,1.4c-0.7,0.3-1.4,0.5-2.1,0.5
			c-0.9,0-1.6-0.2-2.3-0.6c-0.7-0.4-1.2-0.9-1.6-1.5c-0.4-0.6-0.6-1.4-0.6-2.2c0-0.3,0.1-0.5,0.2-0.7s0.3-0.3,0.6-0.3
			c0.2,0,0.4,0.1,0.6,0.3s0.2,0.4,0.2,0.7c0,0.5,0.1,0.9,0.4,1.3s0.6,0.7,1,1c0.4,0.2,0.9,0.4,1.4,0.4c0.8,0,1.4-0.2,1.9-0.7
			c0.5-0.4,0.7-1,0.7-1.8c0-0.5-0.1-0.9-0.3-1.3c-0.2-0.4-0.5-0.7-0.9-0.9c-0.4-0.2-0.8-0.3-1.2-0.3c-0.3,0-0.5-0.1-0.6-0.3
			s-0.3-0.4-0.3-0.7c0-0.3,0.1-0.5,0.3-0.6s0.4-0.3,0.6-0.3c0.3,0,0.6-0.1,1-0.3c0.3-0.2,0.6-0.4,0.8-0.7c0.2-0.3,0.3-0.6,0.3-1
			c0-0.5-0.2-0.9-0.6-1.3c-0.4-0.4-0.9-0.5-1.4-0.5c-0.4,0-0.9,0.1-1.2,0.3c-0.4,0.2-0.7,0.4-0.9,0.7c-0.2,0.3-0.3,0.6-0.3,1
			c0,0.3-0.1,0.5-0.2,0.7c-0.2,0.2-0.3,0.3-0.6,0.3s-0.4-0.1-0.6-0.3c-0.2-0.2-0.2-0.4-0.2-0.6c0-0.7,0.2-1.3,0.5-1.8
			c0.4-0.5,0.8-1,1.4-1.3c0.6-0.3,1.3-0.5,2-0.5C139.4,19.2,140.1,19.3,140.6,19.6z"/>
	</g>
</g>
<g>
	<path class="st0" d="M39,99.7H4c-2.2,0-4-1.8-4-4v-35c0-2.2,1.8-4,4-4h35c2.2,0,4,1.8,4,4v35C43,97.9,41.2,99.7,39,99.7z"/>
	<g>
		<path class="st1" d="M4,99.3c-2,0-3.6-1.6-3.6-3.6V70h42.2v25.6c0,2-1.6,3.6-3.6,3.6H4z"/>
		<path class="st2" d="M42.2,70.4v25.3c0,1.8-1.5,3.2-3.2,3.2H4c-1.8,0-3.2-1.5-3.2-3.2V70.4H42.2 M43,69.7H0v26c0,2.2,1.8,4,4,4h35
			c2.2,0,4-1.8,4-4V69.7L43,69.7z"/>
	</g>
	<g>
		<path class="st0" d="M26.3,85c0.2,0.1,0.2,0.3,0.2,0.6c0,0.2-0.1,0.4-0.3,0.6c-0.2,0.2-0.4,0.2-0.6,0.2h-1.1v2.2
			c0,0.2-0.1,0.5-0.3,0.6s-0.4,0.3-0.6,0.3c-0.2,0-0.4-0.1-0.6-0.3c-0.2-0.2-0.2-0.4-0.2-0.6v-2.2H17c-0.3,0-0.5-0.1-0.7-0.3
			c-0.2-0.2-0.2-0.4-0.2-0.6c0-0.2,0.1-0.4,0.2-0.5l6.7-8.8c0.2-0.3,0.4-0.4,0.7-0.4c0.2,0,0.4,0.1,0.6,0.3s0.2,0.4,0.2,0.7v8.1h1.1
			C25.9,84.8,26.1,84.9,26.3,85z M22.9,84.8V79l-4.4,5.8H22.9z"/>
	</g>
</g>
<g>
	<path class="st0" d="M97.7,99.7h-35c-2.2,0-4-1.8-4-4v-35c0-2.2,1.8-4,4-4h35c2.2,0,4,1.8,4,4v35C101.7,97.9,99.9,99.7,97.7,99.7z"
		/>
	<g>
		<path class="st1" d="M62.7,99.3c-2,0-3.6-1.6-3.6-3.6V70h42.3v25.6c0,2-1.6,3.6-3.6,3.6H62.7z"/>
		<path class="st2" d="M100.9,70.4v25.3c0,1.8-1.5,3.2-3.2,3.2h-35c-1.8,0-3.2-1.5-3.2-3.2V70.4H100.9 M101.7,69.7h-43v26
			c0,2.2,1.8,4,4,4h35c2.2,0,4-1.8,4-4V69.7L101.7,69.7z"/>
	</g>
	<g>
		<path class="st0" d="M82.5,81.2c0.7,0.4,1.2,0.9,1.6,1.6c0.4,0.7,0.6,1.4,0.6,2.3c0,0.8-0.2,1.6-0.6,2.3c-0.4,0.7-0.9,1.2-1.6,1.6
			c-0.7,0.4-1.4,0.6-2.3,0.6c-0.8,0-1.6-0.2-2.3-0.6c-0.7-0.4-1.2-0.9-1.6-1.6c-0.4-0.7-0.6-1.4-0.6-2.3c0-0.3,0.1-0.5,0.2-0.6
			s0.4-0.3,0.6-0.3s0.5,0.1,0.7,0.3s0.3,0.4,0.3,0.6c0,0.5,0.1,1,0.4,1.4c0.2,0.4,0.6,0.7,1,1c0.4,0.2,0.9,0.4,1.4,0.4
			c0.5,0,1-0.1,1.4-0.4c0.4-0.2,0.7-0.6,1-1c0.2-0.4,0.4-0.9,0.4-1.4c0-0.5-0.1-1-0.4-1.4c-0.2-0.4-0.6-0.7-1-1
			c-0.4-0.2-0.9-0.4-1.4-0.4h-2.9c-0.3,0-0.5-0.1-0.6-0.3c-0.2-0.2-0.2-0.4-0.2-0.6v-4.7c0-0.3,0.1-0.5,0.2-0.7s0.4-0.3,0.6-0.3h5.9
			c0.2,0,0.5,0.1,0.6,0.3c0.2,0.2,0.3,0.4,0.3,0.6c0,0.2-0.1,0.4-0.3,0.6c-0.2,0.2-0.4,0.3-0.6,0.3h-5v3h2
			C81.1,80.6,81.8,80.8,82.5,81.2z"/>
	</g>
</g>
<g>
	<path class="st0" d="M156,99.7h-35c-2.2,0-4-1.8-4-4v-35c0-2.2,1.8-4,4-4h35c2.2,0,4,1.8,4,4v35C160,97.9,158.2,99.7,156,99.7z"/>
	<g>
		<path class="st1" d="M121,99.3c-2,0-3.6-1.6-3.6-3.6V70h42.2v25.6c0,2-1.6,3.6-3.6,3.6H121z"/>
		<path class="st2" d="M159.2,70.4v25.3c0,1.8-1.5,3.2-3.2,3.2h-35c-1.8,0-3.2-1.5-3.2-3.2V70.4H159.2 M160,69.7h-43v26
			c0,2.2,1.8,4,4,4h35c2.2,0,4-1.8,4-4V69.7L160,69.7z"/>
	</g>
	<g>
		<path class="st0" d="M140.8,81.8c0.6,0.4,1.1,0.9,1.5,1.5c0.4,0.6,0.5,1.4,0.5,2.2c0,0.8-0.2,1.5-0.5,2.1
			c-0.4,0.6-0.8,1.1-1.5,1.5c-0.6,0.4-1.3,0.5-2.1,0.5c-0.8,0-1.5-0.2-2.2-0.5c-0.6-0.4-1.1-0.9-1.5-1.5c-0.4-0.6-0.5-1.3-0.5-2.1
			c0-0.9,0.2-1.7,0.7-2.4l4-6.6c0.2-0.3,0.5-0.5,0.8-0.5c0.3,0,0.5,0.1,0.7,0.3c0.2,0.2,0.3,0.4,0.3,0.6c0,0.2,0,0.3-0.1,0.5l-2.4,4
			h0.3C139.5,81.2,140.2,81.4,140.8,81.8z M140.4,87.3c0.5-0.5,0.7-1.1,0.7-1.9s-0.2-1.4-0.7-1.9c-0.5-0.5-1-0.7-1.8-0.7
			c-0.7,0-1.3,0.2-1.8,0.7c-0.5,0.5-0.7,1.1-0.7,1.9s0.2,1.4,0.7,1.9c0.5,0.5,1,0.7,1.8,0.7S140,87.8,140.4,87.3z"/>
	</g>
</g>
<g>
	<path class="st0" d="M39,156.3H4c-2.2,0-4-1.8-4-4v-35c0-2.2,1.8-4,4-4h35c2.2,0,4,1.8,4,4v35C43,154.5,41.2,156.3,39,156.3z"/>
	<g>
		<path class="st1" d="M4,156c-2,0-3.6-1.6-3.6-3.6v-25.6h42.2v25.6c0,2-1.6,3.6-3.6,3.6H4z"/>
		<path class="st2" d="M42.2,127.1v25.3c0,1.8-1.5,3.2-3.2,3.2H4c-1.8,0-3.2-1.5-3.2-3.2v-25.3H42.2 M43,126.3H0v26c0,2.2,1.8,4,4,4
			h35c2.2,0,4-1.8,4-4V126.3L43,126.3z"/>
	</g>
	<g>
		<path class="st0" d="M17.5,134c-0.2-0.2-0.3-0.4-0.3-0.6s0.1-0.5,0.3-0.6s0.4-0.3,0.6-0.3h6.7c0.2,0,0.5,0.1,0.6,0.3
			s0.3,0.4,0.3,0.6c0,0.1,0,0.3-0.1,0.5L20,145.8c-0.1,0.2-0.2,0.3-0.4,0.4s-0.3,0.1-0.5,0.1c-0.2,0-0.4-0.1-0.6-0.3
			s-0.3-0.4-0.3-0.6c0-0.2,0.1-0.4,0.2-0.6l5-10.5h-5.3C17.9,134.3,17.7,134.2,17.5,134z"/>
	</g>
</g>
<g>
	<path class="st0" d="M97.7,156.3h-35c-2.2,0-4-1.8-4-4v-35c0-2.2,1.8-4,4-4h35c2.2,0,4,1.8,4,4v35
		C101.7,154.5,99.9,156.3,97.7,156.3z"/>
	<g>
		<path class="st1" d="M62.7,156c-2,0-3.6-1.6-3.6-3.6v-25.6h42.3v25.6c0,2-1.6,3.6-3.6,3.6H62.7z"/>
		<path class="st2" d="M100.9,127.1v25.3c0,1.8-1.5,3.2-3.2,3.2h-35c-1.8,0-3.2-1.5-3.2-3.2v-25.3H100.9 M101.7,126.3h-43v26
			c0,2.2,1.8,4,4,4h35c2.2,0,4-1.8,4-4V126.3L101.7,126.3z"/>
	</g>
	<g>
		<path class="st0" d="M83.7,140c0.3,0.6,0.5,1.3,0.5,2c0,0.8-0.2,1.5-0.5,2.2c-0.4,0.7-0.8,1.2-1.5,1.5c-0.6,0.4-1.3,0.6-2.1,0.6
			s-1.5-0.2-2.1-0.6c-0.6-0.4-1.1-0.9-1.5-1.5c-0.4-0.6-0.5-1.4-0.5-2.2c0-0.7,0.2-1.4,0.5-2c0.3-0.6,0.8-1.1,1.4-1.5
			c-0.4-0.3-0.7-0.7-1-1.1c-0.2-0.5-0.3-1-0.3-1.5c0-0.7,0.2-1.3,0.5-1.8c0.3-0.5,0.7-1,1.3-1.3c0.5-0.3,1.1-0.5,1.8-0.5
			c0.6,0,1.2,0.1,1.8,0.4c0.5,0.3,0.9,0.7,1.2,1.2c0.3,0.5,0.4,1.1,0.4,1.8c0,0.6-0.1,1.1-0.3,1.5c-0.2,0.5-0.5,0.8-1,1.1
			C82.9,138.9,83.3,139.4,83.7,140z M81.7,140.2c-0.4-0.5-1-0.7-1.6-0.7c-0.7,0-1.2,0.2-1.7,0.7c-0.4,0.5-0.7,1.1-0.7,1.8
			c0,0.5,0.1,0.9,0.3,1.3c0.2,0.4,0.5,0.7,0.8,0.9s0.7,0.3,1.2,0.3s0.8-0.1,1.2-0.4c0.3-0.2,0.6-0.6,0.8-1s0.3-0.8,0.3-1.3
			C82.4,141.3,82.2,140.7,81.7,140.2z M78.9,137.2c0.3,0.4,0.7,0.5,1.2,0.5c0.5,0,0.9-0.2,1.2-0.6c0.3-0.4,0.5-0.8,0.5-1.4
			c0-0.5-0.2-0.9-0.5-1.3c-0.3-0.3-0.7-0.5-1.2-0.5c-0.5,0-0.9,0.2-1.2,0.5c-0.3,0.3-0.5,0.8-0.5,1.3
			C78.4,136.4,78.5,136.9,78.9,137.2z"/>
	</g>
</g>
<g>
	<path class="st0" d="M156,156.3h-35c-2.2,0-4-1.8-4-4v-35c0-2.2,1.8-4,4-4h35c2.2,0,4,1.8,4,4v35C160,154.5,158.2,156.3,156,156.3z
		"/>
	<g>
		<path class="st1" d="M121,156c-2,0-3.6-1.6-3.6-3.6v-25.6h42.2v25.6c0,2-1.6,3.6-3.6,3.6H121z"/>
		<path class="st2" d="M159.2,127.1v25.3c0,1.8-1.5,3.2-3.2,3.2h-35c-1.8,0-3.2-1.5-3.2-3.2v-25.3H159.2 M160,126.3h-43v26
			c0,2.2,1.8,4,4,4h35c2.2,0,4-1.8,4-4V126.3L160,126.3z"/>
	</g>
	<g>
		<path class="st0" d="M136.2,140.3c-0.6-0.4-1.1-0.9-1.5-1.5c-0.4-0.6-0.5-1.4-0.5-2.2c0-0.8,0.2-1.5,0.5-2.1
			c0.4-0.6,0.8-1.1,1.5-1.5c0.6-0.4,1.3-0.5,2.1-0.5c0.8,0,1.5,0.2,2.2,0.5c0.6,0.4,1.1,0.9,1.5,1.5c0.4,0.6,0.5,1.3,0.5,2.1
			c0,0.9-0.2,1.7-0.7,2.4l-4,6.6c-0.2,0.3-0.5,0.5-0.8,0.5c-0.3,0-0.5-0.1-0.7-0.3s-0.3-0.4-0.3-0.6c0-0.2,0-0.3,0.1-0.5l2.4-4h-0.3
			C137.5,140.8,136.8,140.7,136.2,140.3z M136.6,134.8c-0.5,0.5-0.7,1.1-0.7,1.9s0.2,1.4,0.7,1.9c0.5,0.5,1,0.7,1.8,0.7
			c0.7,0,1.3-0.2,1.8-0.7c0.5-0.5,0.7-1.1,0.7-1.9s-0.2-1.4-0.7-1.9c-0.5-0.5-1-0.7-1.8-0.7S137,134.3,136.6,134.8z"/>
	</g>
</g>
</svg>
