<?xml version="1.0" encoding="utf-8"?>
<!-- Generator: Adobe Illustrator 22.1.0, SVG Export Plug-In . SVG Version: 6.00 Build 0)  -->
<svg version="1.1" id="Layer_1" xmlns="http://www.w3.org/2000/svg" xmlns:xlink="http://www.w3.org/1999/xlink" x="0px" y="0px"
	 viewBox="0 0 471.5 584.3" style="enable-background:new 0 0 471.5 584.3;" xml:space="preserve">
<style type="text/css">
	.st0{fill:#E6E7E8;}
	.st1{fill:#2B9ED8;}
	.st2{fill:#FFFFFF;}
	.st3{fill:none;}
	.st4{fill:#3558A7;}
	.st5{fill:#5FBDEB;}
	.st6{fill:#23282D;}
	.st7{fill:#BCBEC0;}
</style>
<g>
	<path class="st0" d="M471.5,584.3H0V21.5C0,9.6,9.6,0,21.5,0H450c11.8,0,21.5,9.6,21.5,21.5V584.3z M1.9,582.4h467.8V21.5
		c0-10.8-8.8-19.6-19.6-19.6H21.5c-10.8,0-19.6,8.8-19.6,19.6V582.4z"/>
	<g>
		<path class="st1" d="M470.6,83.6H0.9V21.1c0-11.1,9-20.1,20.1-20.1h429.4c11.1,0,20.1,9,20.1,20.1V83.6z"/>
		<path class="st0" d="M471.5,84.6H0V21.1C0,9.4,9.4,0,21.1,0h429.4c11.6,0,21.1,9.4,21.1,21.1V84.6z M1.9,82.7h467.8V21.1
			c0-10.6-8.6-19.2-19.2-19.2H21.1c-10.6,0-19.2,8.6-19.2,19.2V82.7z"/>
	</g>
	<path class="st0" d="M471.5,584.3H0v-83.7h471.5V584.3z M1.9,582.4h467.8v-80H1.9V582.4z"/>
	<g>
		<path class="st0" d="M22.6,514.5v1.8h-5.2v14.2h-2.2v-14.2h-5.2v-1.8H22.6z"/>
		<path class="st0" d="M25.9,533.9c-0.1,0.1-0.2,0.3-0.3,0.4c-0.1,0.1-0.3,0.1-0.5,0.1h-1.5l2.1-4.5l-4.7-10.7h1.7
			c0.2,0,0.3,0,0.4,0.1c0.1,0.1,0.2,0.2,0.2,0.3l3,7.1c0.1,0.2,0.1,0.3,0.2,0.5c0,0.2,0.1,0.3,0.1,0.5c0.1-0.2,0.1-0.3,0.2-0.5
			c0.1-0.2,0.1-0.3,0.2-0.5l2.9-7.1c0-0.1,0.1-0.2,0.2-0.3c0.1-0.1,0.2-0.1,0.4-0.1h1.6L25.9,533.9z"/>
		<path class="st0" d="M34,534.4v-15.2h1.2c0.3,0,0.5,0.1,0.5,0.4l0.2,1.3c0.5-0.6,1-1.1,1.7-1.4c0.6-0.4,1.3-0.5,2.2-0.5
			c0.6,0,1.2,0.1,1.8,0.4c0.5,0.3,1,0.6,1.4,1.1c0.4,0.5,0.7,1.1,0.9,1.8c0.2,0.7,0.3,1.6,0.3,2.5c0,0.8-0.1,1.6-0.3,2.3
			c-0.2,0.7-0.5,1.3-1,1.9c-0.4,0.5-0.9,0.9-1.5,1.2s-1.3,0.5-2.1,0.5c-0.7,0-1.3-0.1-1.8-0.3c-0.5-0.2-0.9-0.6-1.3-1v5H34z
			 M39.1,520.6c-0.6,0-1.2,0.1-1.7,0.4c-0.5,0.3-0.9,0.7-1.3,1.3v5.5c0.4,0.5,0.8,0.8,1.2,1c0.4,0.2,0.9,0.3,1.5,0.3
			c1.1,0,1.9-0.4,2.4-1.1c0.6-0.8,0.9-1.8,0.9-3.2c0-0.7-0.1-1.4-0.2-1.9c-0.1-0.5-0.3-1-0.6-1.3c-0.2-0.3-0.5-0.6-0.9-0.7
			C39.9,520.7,39.5,520.6,39.1,520.6z"/>
		<path class="st0" d="M50.9,519c0.7,0,1.3,0.1,1.9,0.3c0.6,0.2,1.1,0.6,1.5,1c0.4,0.4,0.7,1,1,1.6c0.2,0.6,0.4,1.3,0.4,2.2
			c0,0.3,0,0.5-0.1,0.6c-0.1,0.1-0.2,0.2-0.4,0.2h-7.5c0,0.7,0.1,1.3,0.3,1.9c0.2,0.5,0.4,1,0.7,1.3c0.3,0.4,0.7,0.6,1.1,0.8
			c0.4,0.2,0.9,0.3,1.5,0.3c0.5,0,0.9-0.1,1.3-0.2c0.4-0.1,0.7-0.2,0.9-0.4c0.3-0.1,0.5-0.3,0.7-0.4c0.2-0.1,0.3-0.2,0.5-0.2
			c0.2,0,0.3,0.1,0.4,0.2l0.6,0.7c-0.2,0.3-0.5,0.6-0.9,0.8c-0.3,0.2-0.7,0.4-1.1,0.5c-0.4,0.1-0.8,0.2-1.2,0.3
			c-0.4,0.1-0.8,0.1-1.2,0.1c-0.8,0-1.5-0.1-2.2-0.4s-1.2-0.7-1.7-1.2c-0.5-0.5-0.9-1.1-1.1-1.9c-0.3-0.8-0.4-1.6-0.4-2.6
			c0-0.8,0.1-1.5,0.4-2.2c0.2-0.7,0.6-1.3,1-1.8c0.5-0.5,1-0.9,1.7-1.2C49.3,519.1,50,519,50.9,519z M50.9,520.5
			c-1,0-1.7,0.3-2.3,0.8c-0.6,0.6-0.9,1.3-1,2.3h6.2c0-0.5-0.1-0.9-0.2-1.3c-0.1-0.4-0.3-0.7-0.6-1c-0.2-0.3-0.5-0.5-0.9-0.6
			C51.8,520.5,51.3,520.5,50.9,520.5z"/>
		<path class="st0" d="M70.7,530.5h-0.9c-0.2,0-0.4,0-0.5-0.1c-0.1-0.1-0.2-0.2-0.2-0.4l-0.2-1.1c-0.3,0.3-0.6,0.5-0.9,0.7
			c-0.3,0.2-0.6,0.4-0.9,0.5c-0.3,0.1-0.6,0.3-1,0.3s-0.7,0.1-1.2,0.1c-0.4,0-0.9-0.1-1.2-0.2c-0.4-0.1-0.7-0.3-1-0.6
			c-0.3-0.2-0.5-0.6-0.7-0.9c-0.2-0.4-0.3-0.8-0.3-1.3c0-0.4,0.1-0.9,0.4-1.3s0.6-0.8,1.2-1.1c0.5-0.3,1.3-0.6,2.2-0.8
			c0.9-0.2,2-0.3,3.3-0.3v-0.9c0-0.9-0.2-1.6-0.6-2c-0.4-0.5-0.9-0.7-1.7-0.7c-0.5,0-0.9,0.1-1.2,0.2c-0.3,0.1-0.6,0.3-0.9,0.4
			c-0.2,0.2-0.5,0.3-0.6,0.4c-0.2,0.1-0.3,0.2-0.5,0.2c-0.1,0-0.3,0-0.4-0.1c-0.1-0.1-0.2-0.2-0.2-0.3l-0.4-0.6
			c0.6-0.6,1.3-1.1,2-1.4c0.7-0.3,1.5-0.4,2.4-0.4c0.6,0,1.2,0.1,1.7,0.3c0.5,0.2,0.9,0.5,1.2,0.9s0.6,0.8,0.8,1.4
			c0.2,0.5,0.3,1.1,0.3,1.7V530.5z M65.6,529.3c0.4,0,0.7,0,1-0.1c0.3-0.1,0.6-0.2,0.8-0.3c0.3-0.1,0.5-0.3,0.7-0.5
			c0.2-0.2,0.5-0.4,0.7-0.6v-2.3c-0.9,0-1.7,0.1-2.3,0.2c-0.6,0.1-1.2,0.3-1.6,0.5c-0.4,0.2-0.7,0.4-0.9,0.7
			c-0.2,0.3-0.3,0.5-0.3,0.9c0,0.3,0,0.6,0.1,0.8c0.1,0.2,0.2,0.4,0.4,0.5c0.2,0.1,0.4,0.2,0.6,0.3
			C65.1,529.3,65.3,529.3,65.6,529.3z"/>
		<path class="st0" d="M78.1,530.5v-11.3h1.2c0.3,0,0.5,0.1,0.5,0.4l0.1,1.2c0.4-0.5,0.9-0.9,1.4-1.3c0.5-0.3,1.1-0.5,1.8-0.5
			c0.8,0,1.4,0.2,1.9,0.6c0.5,0.4,0.8,1,1,1.7c0.2-0.4,0.4-0.8,0.6-1.1c0.3-0.3,0.5-0.5,0.9-0.7c0.3-0.2,0.7-0.3,1-0.4
			c0.4-0.1,0.7-0.1,1.1-0.1c0.6,0,1.1,0.1,1.6,0.3c0.5,0.2,0.9,0.5,1.2,0.8c0.3,0.4,0.6,0.8,0.7,1.3c0.2,0.5,0.3,1.1,0.3,1.8v7.2h-2
			v-7.2c0-0.9-0.2-1.6-0.6-2c-0.4-0.5-1-0.7-1.7-0.7c-0.3,0-0.6,0.1-0.9,0.2c-0.3,0.1-0.6,0.3-0.8,0.5c-0.2,0.2-0.4,0.5-0.5,0.8
			c-0.1,0.3-0.2,0.7-0.2,1.2v7.2h-2v-7.2c0-0.9-0.2-1.6-0.5-2c-0.4-0.4-0.9-0.7-1.6-0.7c-0.5,0-0.9,0.1-1.4,0.4
			c-0.4,0.3-0.8,0.6-1.2,1.1v8.4H78.1z"/>
		<path class="st0" d="M100.9,519c0.7,0,1.3,0.1,1.9,0.3c0.6,0.2,1.1,0.6,1.5,1c0.4,0.4,0.7,1,1,1.6c0.2,0.6,0.4,1.3,0.4,2.2
			c0,0.3,0,0.5-0.1,0.6c-0.1,0.1-0.2,0.2-0.4,0.2h-7.5c0,0.7,0.1,1.3,0.3,1.9c0.2,0.5,0.4,1,0.7,1.3c0.3,0.4,0.7,0.6,1.1,0.8
			c0.4,0.2,0.9,0.3,1.5,0.3c0.5,0,0.9-0.1,1.3-0.2c0.4-0.1,0.7-0.2,0.9-0.4s0.5-0.3,0.7-0.4c0.2-0.1,0.3-0.2,0.5-0.2
			c0.2,0,0.3,0.1,0.4,0.2l0.6,0.7c-0.2,0.3-0.5,0.6-0.9,0.8c-0.3,0.2-0.7,0.4-1.1,0.5c-0.4,0.1-0.8,0.2-1.2,0.3
			c-0.4,0.1-0.8,0.1-1.2,0.1c-0.8,0-1.5-0.1-2.2-0.4c-0.7-0.3-1.2-0.7-1.7-1.2c-0.5-0.5-0.9-1.1-1.1-1.9c-0.3-0.8-0.4-1.6-0.4-2.6
			c0-0.8,0.1-1.5,0.4-2.2c0.2-0.7,0.6-1.3,1-1.8c0.5-0.5,1-0.9,1.7-1.2C99.4,519.1,100.1,519,100.9,519z M101,520.5
			c-1,0-1.7,0.3-2.3,0.8c-0.6,0.6-0.9,1.3-1,2.3h6.2c0-0.5-0.1-0.9-0.2-1.3c-0.1-0.4-0.3-0.7-0.6-1c-0.2-0.3-0.5-0.5-0.9-0.6
			C101.8,520.5,101.4,520.5,101,520.5z"/>
		<path class="st0" d="M114.6,521.1c-0.1,0.2-0.2,0.2-0.4,0.2c-0.1,0-0.2,0-0.4-0.1c-0.1-0.1-0.3-0.2-0.5-0.3
			c-0.2-0.1-0.4-0.2-0.7-0.3c-0.3-0.1-0.6-0.1-1-0.1c-0.3,0-0.6,0-0.9,0.1s-0.5,0.2-0.7,0.4c-0.2,0.1-0.3,0.3-0.4,0.5
			c-0.1,0.2-0.2,0.4-0.2,0.6c0,0.3,0.1,0.5,0.3,0.7c0.2,0.2,0.4,0.4,0.7,0.5c0.3,0.1,0.6,0.3,0.9,0.4c0.4,0.1,0.7,0.2,1.1,0.3
			c0.4,0.1,0.7,0.3,1.1,0.4s0.7,0.3,0.9,0.6c0.3,0.2,0.5,0.5,0.7,0.8c0.2,0.3,0.3,0.7,0.3,1.2c0,0.5-0.1,1-0.3,1.4
			c-0.2,0.4-0.5,0.8-0.8,1.2c-0.4,0.3-0.8,0.6-1.3,0.8c-0.5,0.2-1.1,0.3-1.8,0.3c-0.8,0-1.5-0.1-2.1-0.4c-0.6-0.3-1.2-0.6-1.6-1
			l0.5-0.8c0.1-0.1,0.1-0.2,0.2-0.2c0.1-0.1,0.2-0.1,0.3-0.1c0.1,0,0.3,0.1,0.4,0.2c0.1,0.1,0.3,0.2,0.5,0.3
			c0.2,0.1,0.5,0.2,0.8,0.3c0.3,0.1,0.7,0.2,1.1,0.2c0.4,0,0.7-0.1,1-0.2s0.5-0.2,0.7-0.4c0.2-0.2,0.3-0.4,0.4-0.6
			c0.1-0.2,0.1-0.5,0.1-0.7c0-0.3-0.1-0.6-0.3-0.8c-0.2-0.2-0.4-0.4-0.7-0.5c-0.3-0.1-0.6-0.3-0.9-0.4c-0.4-0.1-0.7-0.2-1.1-0.3
			c-0.4-0.1-0.7-0.3-1.1-0.4c-0.4-0.2-0.7-0.3-0.9-0.6c-0.3-0.2-0.5-0.5-0.7-0.9c-0.2-0.3-0.3-0.8-0.3-1.2c0-0.4,0.1-0.8,0.3-1.2
			c0.2-0.4,0.4-0.8,0.8-1.1c0.3-0.3,0.8-0.5,1.3-0.7c0.5-0.2,1.1-0.3,1.7-0.3c0.7,0,1.4,0.1,2,0.4s1.1,0.6,1.5,1L114.6,521.1z"/>
		<path class="st0" d="M124.4,521.1c-0.1,0.2-0.2,0.2-0.4,0.2c-0.1,0-0.2,0-0.4-0.1c-0.1-0.1-0.3-0.2-0.5-0.3
			c-0.2-0.1-0.4-0.2-0.7-0.3c-0.3-0.1-0.6-0.1-1-0.1c-0.3,0-0.6,0-0.9,0.1c-0.3,0.1-0.5,0.2-0.7,0.4c-0.2,0.1-0.3,0.3-0.4,0.5
			c-0.1,0.2-0.2,0.4-0.2,0.6c0,0.3,0.1,0.5,0.3,0.7c0.2,0.2,0.4,0.4,0.7,0.5c0.3,0.1,0.6,0.3,0.9,0.4c0.4,0.1,0.7,0.2,1.1,0.3
			c0.4,0.1,0.7,0.3,1.1,0.4s0.7,0.3,0.9,0.6c0.3,0.2,0.5,0.5,0.7,0.8c0.2,0.3,0.3,0.7,0.3,1.2c0,0.5-0.1,1-0.3,1.4
			c-0.2,0.4-0.5,0.8-0.8,1.2c-0.4,0.3-0.8,0.6-1.3,0.8c-0.5,0.2-1.1,0.3-1.8,0.3c-0.8,0-1.5-0.1-2.1-0.4c-0.6-0.3-1.2-0.6-1.6-1
			l0.5-0.8c0.1-0.1,0.1-0.2,0.2-0.2c0.1-0.1,0.2-0.1,0.3-0.1c0.1,0,0.3,0.1,0.4,0.2c0.1,0.1,0.3,0.2,0.5,0.3
			c0.2,0.1,0.5,0.2,0.8,0.3c0.3,0.1,0.7,0.2,1.1,0.2c0.4,0,0.7-0.1,1-0.2s0.5-0.2,0.7-0.4c0.2-0.2,0.3-0.4,0.4-0.6
			c0.1-0.2,0.1-0.5,0.1-0.7c0-0.3-0.1-0.6-0.3-0.8c-0.2-0.2-0.4-0.4-0.7-0.5c-0.3-0.1-0.6-0.3-0.9-0.4c-0.4-0.1-0.7-0.2-1.1-0.3
			c-0.4-0.1-0.7-0.3-1.1-0.4c-0.4-0.2-0.7-0.3-0.9-0.6c-0.3-0.2-0.5-0.5-0.7-0.9c-0.2-0.3-0.3-0.8-0.3-1.2c0-0.4,0.1-0.8,0.3-1.2
			c0.2-0.4,0.4-0.8,0.8-1.1c0.3-0.3,0.8-0.5,1.3-0.7c0.5-0.2,1.1-0.3,1.7-0.3c0.7,0,1.4,0.1,2,0.4c0.6,0.2,1.1,0.6,1.5,1
			L124.4,521.1z"/>
		<path class="st0" d="M135.9,530.5H135c-0.2,0-0.4,0-0.5-0.1c-0.1-0.1-0.2-0.2-0.2-0.4l-0.2-1.1c-0.3,0.3-0.6,0.5-0.9,0.7
			c-0.3,0.2-0.6,0.4-0.9,0.5c-0.3,0.1-0.6,0.3-1,0.3s-0.7,0.1-1.2,0.1c-0.4,0-0.9-0.1-1.2-0.2c-0.4-0.1-0.7-0.3-1-0.6
			c-0.3-0.2-0.5-0.6-0.7-0.9c-0.2-0.4-0.3-0.8-0.3-1.3c0-0.4,0.1-0.9,0.4-1.3c0.2-0.4,0.6-0.8,1.2-1.1c0.5-0.3,1.3-0.6,2.2-0.8
			c0.9-0.2,2-0.3,3.3-0.3v-0.9c0-0.9-0.2-1.6-0.6-2c-0.4-0.5-0.9-0.7-1.7-0.7c-0.5,0-0.9,0.1-1.2,0.2c-0.3,0.1-0.6,0.3-0.9,0.4
			c-0.2,0.2-0.5,0.3-0.6,0.4c-0.2,0.1-0.3,0.2-0.5,0.2c-0.1,0-0.3,0-0.4-0.1s-0.2-0.2-0.2-0.3l-0.4-0.6c0.6-0.6,1.3-1.1,2-1.4
			c0.7-0.3,1.5-0.4,2.4-0.4c0.6,0,1.2,0.1,1.7,0.3c0.5,0.2,0.9,0.5,1.2,0.9s0.6,0.8,0.8,1.4c0.2,0.5,0.3,1.1,0.3,1.7V530.5z
			 M130.7,529.3c0.4,0,0.7,0,1-0.1c0.3-0.1,0.6-0.2,0.8-0.3c0.3-0.1,0.5-0.3,0.7-0.5c0.2-0.2,0.5-0.4,0.7-0.6v-2.3
			c-0.9,0-1.7,0.1-2.3,0.2c-0.6,0.1-1.2,0.3-1.6,0.5c-0.4,0.2-0.7,0.4-0.9,0.7c-0.2,0.3-0.3,0.5-0.3,0.9c0,0.3,0,0.6,0.1,0.8
			c0.1,0.2,0.2,0.4,0.4,0.5c0.2,0.1,0.4,0.2,0.6,0.3C130.2,529.3,130.5,529.3,130.7,529.3z"/>
		<path class="st0" d="M142.7,519c0.5,0,1,0.1,1.4,0.2c0.4,0.1,0.8,0.3,1.2,0.5h3.1v0.7c0,0.2-0.2,0.4-0.5,0.5l-1.3,0.2
			c0.3,0.5,0.4,1,0.4,1.6c0,0.6-0.1,1.1-0.3,1.5c-0.2,0.5-0.5,0.8-0.9,1.2c-0.4,0.3-0.8,0.6-1.3,0.7c-0.5,0.2-1.1,0.3-1.7,0.3
			c-0.5,0-1-0.1-1.5-0.2c-0.2,0.2-0.4,0.3-0.5,0.5c-0.1,0.2-0.2,0.4-0.2,0.5c0,0.3,0.1,0.5,0.3,0.6c0.2,0.1,0.5,0.2,0.9,0.3
			c0.4,0.1,0.8,0.1,1.2,0.1c0.5,0,0.9,0,1.4,0c0.5,0,0.9,0,1.4,0.1c0.5,0.1,0.9,0.2,1.2,0.4c0.4,0.2,0.6,0.4,0.9,0.8
			c0.2,0.3,0.3,0.8,0.3,1.3c0,0.5-0.1,1-0.4,1.4c-0.2,0.5-0.6,0.9-1,1.2c-0.5,0.4-1,0.6-1.7,0.9c-0.7,0.2-1.4,0.3-2.2,0.3
			c-0.8,0-1.6-0.1-2.2-0.2c-0.6-0.2-1.1-0.4-1.5-0.7c-0.4-0.3-0.7-0.6-0.9-1c-0.2-0.4-0.3-0.7-0.3-1.1c0-0.6,0.2-1,0.5-1.4
			c0.4-0.4,0.8-0.7,1.5-0.9c-0.3-0.1-0.6-0.3-0.8-0.6c-0.2-0.2-0.3-0.6-0.3-1c0-0.2,0-0.3,0.1-0.5c0.1-0.2,0.2-0.3,0.3-0.5
			s0.3-0.3,0.5-0.5c0.2-0.2,0.4-0.3,0.6-0.4c-0.6-0.3-1-0.7-1.3-1.2c-0.3-0.5-0.5-1.1-0.5-1.8c0-0.6,0.1-1.1,0.3-1.5
			c0.2-0.5,0.5-0.8,0.9-1.2c0.4-0.3,0.8-0.6,1.4-0.7C141.5,519.1,142.1,519,142.7,519z M146.3,531.1c0-0.3-0.1-0.5-0.2-0.7
			c-0.2-0.2-0.4-0.3-0.6-0.4c-0.3-0.1-0.6-0.2-0.9-0.2c-0.4,0-0.7-0.1-1.1-0.1s-0.8,0-1.2,0c-0.4,0-0.8-0.1-1.2-0.2
			c-0.4,0.2-0.8,0.4-1,0.7c-0.3,0.3-0.4,0.6-0.4,1c0,0.3,0.1,0.5,0.2,0.7c0.1,0.2,0.3,0.4,0.6,0.6c0.3,0.2,0.6,0.3,1,0.4
			c0.4,0.1,0.9,0.1,1.4,0.1c0.5,0,1,0,1.4-0.1c0.4-0.1,0.8-0.2,1.1-0.4c0.3-0.2,0.5-0.4,0.7-0.7
			C146.2,531.7,146.3,531.4,146.3,531.1z M142.7,525c0.4,0,0.8-0.1,1.1-0.2c0.3-0.1,0.6-0.3,0.8-0.5c0.2-0.2,0.4-0.4,0.5-0.7
			c0.1-0.3,0.2-0.6,0.2-0.9c0-0.7-0.2-1.2-0.6-1.7c-0.4-0.4-1-0.6-1.8-0.6c-0.8,0-1.4,0.2-1.8,0.6c-0.4,0.4-0.6,1-0.6,1.7
			c0,0.3,0.1,0.6,0.2,0.9c0.1,0.3,0.3,0.5,0.5,0.7c0.2,0.2,0.5,0.4,0.8,0.5C142,524.9,142.3,525,142.7,525z"/>
		<path class="st0" d="M154.8,519c0.7,0,1.3,0.1,1.9,0.3c0.6,0.2,1.1,0.6,1.5,1c0.4,0.4,0.7,1,1,1.6c0.2,0.6,0.4,1.3,0.4,2.2
			c0,0.3,0,0.5-0.1,0.6c-0.1,0.1-0.2,0.2-0.4,0.2h-7.5c0,0.7,0.1,1.3,0.3,1.9c0.2,0.5,0.4,1,0.7,1.3c0.3,0.4,0.7,0.6,1.1,0.8
			c0.4,0.2,0.9,0.3,1.5,0.3c0.5,0,0.9-0.1,1.3-0.2c0.4-0.1,0.7-0.2,0.9-0.4s0.5-0.3,0.7-0.4c0.2-0.1,0.3-0.2,0.5-0.2
			c0.2,0,0.3,0.1,0.4,0.2l0.6,0.7c-0.2,0.3-0.5,0.6-0.9,0.8c-0.3,0.2-0.7,0.4-1.1,0.5c-0.4,0.1-0.8,0.2-1.2,0.3
			c-0.4,0.1-0.8,0.1-1.2,0.1c-0.8,0-1.5-0.1-2.2-0.4s-1.2-0.7-1.7-1.2c-0.5-0.5-0.9-1.1-1.1-1.9c-0.3-0.8-0.4-1.6-0.4-2.6
			c0-0.8,0.1-1.5,0.4-2.2c0.2-0.7,0.6-1.3,1-1.8c0.5-0.5,1-0.9,1.7-1.2C153.3,519.1,154,519,154.8,519z M154.9,520.5
			c-1,0-1.7,0.3-2.3,0.8c-0.6,0.6-0.9,1.3-1,2.3h6.2c0-0.5-0.1-0.9-0.2-1.3c-0.1-0.4-0.3-0.7-0.6-1c-0.2-0.3-0.5-0.5-0.9-0.6
			C155.7,520.5,155.3,520.5,154.9,520.5z"/>
		<path class="st0" d="M161.4,529.3c0-0.2,0-0.4,0.1-0.5s0.2-0.3,0.3-0.4c0.1-0.1,0.3-0.2,0.4-0.3c0.2-0.1,0.4-0.1,0.5-0.1
			c0.2,0,0.4,0,0.5,0.1c0.2,0.1,0.3,0.2,0.4,0.3c0.1,0.1,0.2,0.3,0.3,0.4c0.1,0.2,0.1,0.4,0.1,0.5c0,0.2,0,0.4-0.1,0.6
			c-0.1,0.2-0.2,0.3-0.3,0.4c-0.1,0.1-0.3,0.2-0.4,0.3c-0.2,0.1-0.4,0.1-0.5,0.1c-0.2,0-0.4,0-0.5-0.1c-0.2-0.1-0.3-0.2-0.4-0.3
			c-0.1-0.1-0.2-0.3-0.3-0.4C161.5,529.7,161.4,529.5,161.4,529.3z"/>
		<path class="st0" d="M166.2,529.3c0-0.2,0-0.4,0.1-0.5c0.1-0.2,0.2-0.3,0.3-0.4c0.1-0.1,0.3-0.2,0.4-0.3c0.2-0.1,0.4-0.1,0.5-0.1
			s0.4,0,0.5,0.1c0.2,0.1,0.3,0.2,0.4,0.3c0.1,0.1,0.2,0.3,0.3,0.4s0.1,0.4,0.1,0.5c0,0.2,0,0.4-0.1,0.6c-0.1,0.2-0.2,0.3-0.3,0.4
			c-0.1,0.1-0.3,0.2-0.4,0.3c-0.2,0.1-0.4,0.1-0.5,0.1s-0.4,0-0.5-0.1c-0.2-0.1-0.3-0.2-0.4-0.3c-0.1-0.1-0.2-0.3-0.3-0.4
			C166.2,529.7,166.2,529.5,166.2,529.3z"/>
		<path class="st0" d="M170.9,529.3c0-0.2,0-0.4,0.1-0.5c0.1-0.2,0.2-0.3,0.3-0.4c0.1-0.1,0.3-0.2,0.4-0.3c0.2-0.1,0.4-0.1,0.5-0.1
			c0.2,0,0.4,0,0.5,0.1c0.2,0.1,0.3,0.2,0.4,0.3c0.1,0.1,0.2,0.3,0.3,0.4c0.1,0.2,0.1,0.4,0.1,0.5c0,0.2,0,0.4-0.1,0.6
			c-0.1,0.2-0.2,0.3-0.3,0.4c-0.1,0.1-0.3,0.2-0.4,0.3c-0.2,0.1-0.4,0.1-0.5,0.1c-0.2,0-0.4,0-0.5-0.1c-0.2-0.1-0.3-0.2-0.4-0.3
			c-0.1-0.1-0.2-0.3-0.3-0.4C170.9,529.7,170.9,529.5,170.9,529.3z"/>
	</g>
	<circle class="st2" cx="44.5" cy="42.3" r="28.1"/>
	<g>
		<path class="st2" d="M97.4,44.6c0,1-0.1,2-0.4,2.8c-0.3,0.8-0.6,1.5-1.1,2.1c-0.5,0.6-1.1,1-1.8,1.3c-0.7,0.3-1.6,0.5-2.5,0.5
			c-0.8,0-1.7-0.1-2.6-0.4c0-0.3,0-0.5,0.1-0.8c0-0.2,0.1-0.5,0.1-0.7c0-0.1,0.1-0.3,0.2-0.4c0.1-0.1,0.2-0.1,0.4-0.1
			c0.2,0,0.4,0,0.6,0.1c0.3,0.1,0.6,0.1,1,0.1c0.6,0,1.1-0.1,1.5-0.3c0.4-0.2,0.8-0.4,1.1-0.8c0.3-0.4,0.5-0.8,0.7-1.4
			c0.2-0.6,0.2-1.2,0.2-2V32.4h2.5V44.6z"/>
		<path class="st2" d="M106.9,37.7c1,0,1.8,0.2,2.6,0.5c0.8,0.3,1.4,0.8,2,1.4s1,1.3,1.3,2.1c0.3,0.8,0.4,1.8,0.4,2.8
			c0,1-0.1,2-0.4,2.8c-0.3,0.8-0.7,1.5-1.3,2.1c-0.5,0.6-1.2,1-2,1.4c-0.8,0.3-1.7,0.5-2.6,0.5s-1.8-0.2-2.6-0.5
			c-0.8-0.3-1.4-0.8-2-1.4c-0.5-0.6-1-1.3-1.3-2.1c-0.3-0.8-0.4-1.8-0.4-2.8c0-1,0.1-2,0.4-2.8c0.3-0.8,0.7-1.6,1.3-2.1
			c0.5-0.6,1.2-1,2-1.4C105.1,37.8,105.9,37.7,106.9,37.7z M106.9,49.5c1.3,0,2.3-0.4,2.9-1.3c0.6-0.9,1-2.1,1-3.7
			c0-1.6-0.3-2.8-1-3.7c-0.6-0.9-1.6-1.3-2.9-1.3c-0.7,0-1.2,0.1-1.7,0.3c-0.5,0.2-0.9,0.6-1.2,1c-0.3,0.4-0.6,1-0.7,1.6
			s-0.2,1.3-0.2,2.1c0,0.8,0.1,1.5,0.2,2.1c0.2,0.6,0.4,1.1,0.7,1.6c0.3,0.4,0.7,0.7,1.2,1C105.7,49.4,106.2,49.5,106.9,49.5z"/>
		<path class="st2" d="M116.1,51.1V31.9h2.3v7.8c0.6-0.6,1.2-1.1,1.9-1.4c0.7-0.4,1.5-0.5,2.4-0.5c0.7,0,1.4,0.1,1.9,0.4
			c0.6,0.2,1,0.6,1.4,1c0.4,0.4,0.7,1,0.8,1.6c0.2,0.6,0.3,1.3,0.3,2v8.4h-2.3v-8.4c0-1-0.2-1.8-0.7-2.3s-1.2-0.8-2.1-0.8
			c-0.7,0-1.3,0.2-1.9,0.5c-0.6,0.3-1.1,0.8-1.7,1.3v9.7H116.1z"/>
		<path class="st2" d="M130.6,51.1V37.9h1.4c0.3,0,0.5,0.2,0.6,0.5l0.2,1.4c0.6-0.6,1.2-1.1,1.9-1.5c0.7-0.4,1.5-0.6,2.5-0.6
			c0.7,0,1.4,0.1,1.9,0.4c0.6,0.2,1,0.6,1.4,1c0.4,0.4,0.7,1,0.8,1.6c0.2,0.6,0.3,1.3,0.3,2v8.4h-2.3v-8.4c0-1-0.2-1.8-0.7-2.3
			c-0.5-0.6-1.2-0.8-2.1-0.8c-0.7,0-1.3,0.2-1.9,0.5c-0.6,0.3-1.1,0.8-1.7,1.3v9.7H130.6z"/>
		<path class="st2" d="M145.1,51.1V37.9h1.4c0.3,0,0.5,0.2,0.6,0.5l0.2,1.4c0.6-0.6,1.2-1.1,1.9-1.5c0.7-0.4,1.5-0.6,2.5-0.6
			c0.7,0,1.4,0.1,1.9,0.4c0.6,0.2,1,0.6,1.4,1c0.4,0.4,0.7,1,0.8,1.6c0.2,0.6,0.3,1.3,0.3,2v8.4h-2.3v-8.4c0-1-0.2-1.8-0.7-2.3
			s-1.2-0.8-2.1-0.8c-0.7,0-1.3,0.2-1.9,0.5c-0.6,0.3-1.1,0.8-1.7,1.3v9.7H145.1z"/>
		<path class="st2" d="M163,55c-0.1,0.2-0.2,0.3-0.3,0.4c-0.1,0.1-0.3,0.2-0.5,0.2h-1.7l2.4-5.2l-5.5-12.4h2c0.2,0,0.4,0.1,0.5,0.1
			c0.1,0.1,0.2,0.2,0.2,0.3l3.5,8.3c0.1,0.2,0.1,0.4,0.2,0.6c0.1,0.2,0.1,0.4,0.2,0.6c0.1-0.2,0.1-0.4,0.2-0.6
			c0.1-0.2,0.1-0.4,0.2-0.6l3.4-8.3c0.1-0.1,0.1-0.3,0.3-0.3c0.1-0.1,0.3-0.1,0.4-0.1h1.9L163,55z"/>
	</g>
	<rect x="0.9" y="83.6" class="st3" width="469.6" height="102.6"/>
	<g>
		<g>
			<path class="st3" d="M26.1,156.1c2.6-2.5,5.5-4.5,8.6-5.9c-5-3.2-8.4-8.8-8.4-15.3c0-10,8.1-18.1,18.1-18.1c1.1,0,1.4,0,1.4,0
				c10.8,0,19.6,11.7,19.6,21.8h-3.3c-1,4.9-3.9,9-8,11.6c3.1,1.4,6.1,3.4,8.7,5.9c5.9-5.2,9.7-12.7,9.7-21.2
				c0-15.5-12.6-28.1-28.1-28.1s-28.1,12.6-28.1,28.1C16.4,143.4,20.2,151,26.1,156.1z"/>
			<path class="st4" d="M62.3,138.6h3.3c0-10-8.8-21.8-19.6-21.8c0,0-0.3,0-1.4,0c-10,0-18.1,8.1-18.1,18.1c0,6.4,3.3,12,8.4,15.3
				c-3.1,1.4-6,3.4-8.6,5.9c4.9,4.3,11.4,6.9,18.4,6.9c7.1,0,13.5-2.6,18.4-6.9c-2.6-2.5-5.5-4.6-8.7-5.9
				C58.3,147.6,61.3,143.4,62.3,138.6z"/>
		</g>
		<path class="st0" d="M44.5,164c-16,0-29-13-29-29s13-29,29-29c16,0,29,13,29,29S60.6,164,44.5,164z M44.5,107.8
			c-15,0-27.2,12.2-27.2,27.2s12.2,27.2,27.2,27.2c15,0,27.2-12.2,27.2-27.2S59.5,107.8,44.5,107.8z"/>
	</g>
	<rect x="0.9" y="186.2" class="st3" width="469.6" height="102.6"/>
	<g>
		<g>
			<path class="st3" d="M445.4,258.7c-2.6-2.5-5.5-4.5-8.6-5.9c5-3.2,8.4-8.8,8.4-15.3c0-10-8.1-18.1-18.1-18.1c-1.1,0-1.4,0-1.4,0
				c-10.8,0-19.6,11.7-19.6,21.8h3.3c1,4.9,3.9,9,8,11.6c-3.1,1.4-6.1,3.4-8.7,5.9c-5.9-5.2-9.7-12.7-9.7-21.2
				c0-15.5,12.6-28.1,28.1-28.1s28.1,12.6,28.1,28.1C455.1,246,451.3,253.6,445.4,258.7z"/>
			<path class="st5" d="M409.2,241.2H406c0-10,8.8-21.8,19.6-21.8c0,0,0.3,0,1.4,0c10,0,18.1,8.1,18.1,18.1c0,6.4-3.3,12-8.4,15.3
				c3.1,1.4,6,3.4,8.6,5.9c-4.9,4.3-11.4,6.9-18.4,6.9c-7.1,0-13.5-2.6-18.5-6.9c2.6-2.5,5.5-4.6,8.7-5.9
				C413.2,250.2,410.2,246,409.2,241.2z"/>
		</g>
		<path class="st0" d="M427,266.6c-16,0-29-13-29-29c0-16,13-29,29-29c16,0,29,13,29,29C456,253.6,443,266.6,427,266.6z M427,210.4
			c-15,0-27.2,12.2-27.2,27.2c0,15,12.2,27.2,27.2,27.2c15,0,27.2-12.2,27.2-27.2C454.1,222.6,441.9,210.4,427,210.4z"/>
	</g>
	<rect x="0.9" y="288.9" class="st3" width="469.6" height="102.6"/>
	<g>
		<g>
			<path class="st3" d="M26.1,361.3c2.6-2.5,5.5-4.5,8.6-5.9c-5-3.2-8.4-8.8-8.4-15.3c0-10,8.1-18.1,18.1-18.1c1.1,0,1.4,0,1.4,0
				c10.8,0,19.6,11.7,19.6,21.8h-3.3c-1,4.9-3.9,9-8,11.6c3.1,1.4,6.1,3.4,8.7,5.9c5.9-5.2,9.7-12.7,9.7-21.2
				c0-15.5-12.6-28.1-28.1-28.1s-28.1,12.6-28.1,28.1C16.4,348.6,20.2,356.2,26.1,361.3z"/>
			<path class="st4" d="M62.3,343.8h3.3c0-10-8.8-21.8-19.6-21.8c0,0-0.3,0-1.4,0c-10,0-18.1,8.1-18.1,18.1c0,6.4,3.3,12,8.4,15.3
				c-3.1,1.4-6,3.4-8.6,5.9c4.9,4.3,11.4,6.9,18.4,6.9c7.1,0,13.5-2.6,18.4-6.9c-2.6-2.5-5.5-4.6-8.7-5.9
				C58.3,352.8,61.3,348.6,62.3,343.8z"/>
		</g>
		<path class="st0" d="M44.5,369.2c-16,0-29-13-29-29c0-16,13-29,29-29c16,0,29,13,29,29C73.6,356.2,60.6,369.2,44.5,369.2z
			 M44.5,313c-15,0-27.2,12.2-27.2,27.2c0,15,12.2,27.2,27.2,27.2c15,0,27.2-12.2,27.2-27.2C71.7,325.2,59.5,313,44.5,313z"/>
	</g>
	<g>
		<g>
			<path class="st3" d="M26.1,63.5c2.6-2.5,5.5-4.5,8.6-5.9c-5-3.2-8.4-8.8-8.4-15.3c0-10,8.1-18.1,18.1-18.1c1.1,0,1.4,0,1.4,0
				c10.8,0,19.6,11.7,19.6,21.8h-3.3c-1,4.9-3.9,9-8,11.6c3.1,1.4,6.1,3.4,8.7,5.9c5.9-5.2,9.7-12.7,9.7-21.2
				c0-15.5-12.6-28.1-28.1-28.1S16.4,26.8,16.4,42.3C16.4,50.7,20.2,58.3,26.1,63.5z"/>
			<path class="st4" d="M62.3,45.9h3.3c0-10-8.8-21.8-19.6-21.8c0,0-0.3,0-1.4,0c-10,0-18.1,8.1-18.1,18.1c0,6.4,3.3,12,8.4,15.3
				c-3.1,1.4-6,3.4-8.6,5.9c4.9,4.3,11.4,6.9,18.4,6.9c7.1,0,13.5-2.6,18.4-6.9c-2.6-2.5-5.5-4.6-8.7-5.9
				C58.3,54.9,61.3,50.8,62.3,45.9z"/>
		</g>
		<path class="st0" d="M44.5,71.3c-16,0-29-13-29-29c0-16,13-29,29-29c16,0,29,13,29,29C73.6,58.3,60.6,71.3,44.5,71.3z M44.5,15.1
			c-15,0-27.2,12.2-27.2,27.2c0,15,12.2,27.2,27.2,27.2c15,0,27.2-12.2,27.2-27.2C71.7,27.3,59.5,15.1,44.5,15.1z"/>
	</g>
	<path class="st0" d="M393.9,161.1H112.7c-13.6,0-24.6-11-24.6-24.6v0c0-13.6,11-24.6,24.6-24.6h281.2c13.6,0,24.6,11,24.6,24.6v0
		C418.5,150,407.5,161.1,393.9,161.1z"/>
	<path class="st1" d="M357.3,262.2H175c-13.6,0-24.6-11-24.6-24.6v0c0-13.6,11-24.6,24.6-24.6h182.3c13.6,0,24.6,11,24.6,24.6v0
		C381.9,251.1,370.9,262.2,357.3,262.2z"/>
	<g>
		<path class="st6" d="M120.8,142.9h-1.9v-6.2h-7.3v6.2h-1.9v-13.6h1.9v6.1h7.3v-6.1h1.9V142.9z"/>
		<path class="st6" d="M127.6,133.1c0.6,0,1.1,0.1,1.6,0.3c0.5,0.2,0.9,0.5,1.3,0.8c0.4,0.4,0.6,0.8,0.8,1.3
			c0.2,0.5,0.3,1.1,0.3,1.8c0,0.3,0,0.4-0.1,0.5c-0.1,0.1-0.2,0.1-0.3,0.1h-6.4c0,0.6,0.1,1.1,0.2,1.6s0.4,0.8,0.6,1.1
			c0.3,0.3,0.6,0.5,1,0.7c0.4,0.1,0.8,0.2,1.2,0.2c0.4,0,0.8,0,1.1-0.1c0.3-0.1,0.6-0.2,0.8-0.3c0.2-0.1,0.4-0.2,0.6-0.3
			c0.1-0.1,0.3-0.1,0.4-0.1c0.1,0,0.2,0.1,0.3,0.2l0.5,0.6c-0.2,0.3-0.5,0.5-0.8,0.7c-0.3,0.2-0.6,0.3-0.9,0.5
			c-0.3,0.1-0.7,0.2-1,0.3c-0.4,0.1-0.7,0.1-1.1,0.1c-0.7,0-1.3-0.1-1.8-0.3c-0.6-0.2-1-0.6-1.5-1c-0.4-0.4-0.7-1-1-1.6
			c-0.2-0.6-0.3-1.4-0.3-2.2c0-0.7,0.1-1.3,0.3-1.9c0.2-0.6,0.5-1.1,0.9-1.5c0.4-0.4,0.9-0.8,1.4-1
			C126.3,133.2,126.9,133.1,127.6,133.1z M127.7,134.3c-0.8,0-1.5,0.2-1.9,0.7c-0.5,0.5-0.8,1.1-0.9,2h5.2c0-0.4-0.1-0.8-0.2-1.1
			c-0.1-0.3-0.3-0.6-0.5-0.8c-0.2-0.2-0.5-0.4-0.8-0.6C128.4,134.4,128.1,134.3,127.7,134.3z"/>
		<path class="st6" d="M136.3,145.7c-0.1,0.1-0.1,0.2-0.2,0.3c-0.1,0.1-0.2,0.1-0.4,0.1h-1.3l1.8-3.8l-4-9.1h1.5
			c0.1,0,0.3,0,0.3,0.1c0.1,0.1,0.1,0.2,0.2,0.2l2.6,6.1c0.1,0.1,0.1,0.3,0.1,0.4c0,0.1,0.1,0.3,0.1,0.4c0-0.1,0.1-0.3,0.1-0.4
			c0-0.1,0.1-0.3,0.2-0.4l2.5-6c0-0.1,0.1-0.2,0.2-0.3c0.1-0.1,0.2-0.1,0.3-0.1h1.3L136.3,145.7z"/>
		<path class="st6" d="M156.5,129.3v1.5h-4.4v12.1h-1.8v-12.1h-4.4v-1.5H156.5z"/>
		<path class="st6" d="M160.4,130.2c0,0.2,0,0.3-0.1,0.5c-0.1,0.1-0.2,0.3-0.3,0.4c-0.1,0.1-0.2,0.2-0.4,0.3
			c-0.1,0.1-0.3,0.1-0.5,0.1s-0.3,0-0.5-0.1c-0.1-0.1-0.3-0.2-0.4-0.3c-0.1-0.1-0.2-0.2-0.3-0.4c-0.1-0.1-0.1-0.3-0.1-0.5
			c0-0.2,0-0.3,0.1-0.5c0.1-0.1,0.2-0.3,0.3-0.4c0.1-0.1,0.2-0.2,0.4-0.3c0.1-0.1,0.3-0.1,0.5-0.1s0.3,0,0.5,0.1
			c0.1,0.1,0.3,0.2,0.4,0.3c0.1,0.1,0.2,0.2,0.3,0.4C160.4,129.9,160.4,130.1,160.4,130.2z M160,133.2v9.6h-1.7v-9.6H160z"/>
		<path class="st6" d="M163,142.9v-9.6h1c0.2,0,0.4,0.1,0.5,0.4l0.1,1c0.4-0.4,0.8-0.8,1.2-1.1c0.4-0.3,1-0.4,1.5-0.4
			c0.7,0,1.2,0.2,1.6,0.5c0.4,0.4,0.7,0.8,0.9,1.5c0.1-0.3,0.3-0.6,0.5-0.9c0.2-0.3,0.5-0.5,0.7-0.6s0.6-0.3,0.9-0.4
			c0.3-0.1,0.6-0.1,0.9-0.1c0.5,0,1,0.1,1.4,0.2c0.4,0.2,0.7,0.4,1,0.7c0.3,0.3,0.5,0.7,0.6,1.1c0.1,0.5,0.2,1,0.2,1.6v6.1h-1.7
			v-6.1c0-0.8-0.2-1.3-0.5-1.7c-0.3-0.4-0.8-0.6-1.4-0.6c-0.3,0-0.5,0-0.8,0.1c-0.3,0.1-0.5,0.2-0.7,0.4c-0.2,0.2-0.3,0.4-0.5,0.7
			c-0.1,0.3-0.2,0.6-0.2,1v6.1h-1.7v-6.1c0-0.8-0.2-1.3-0.5-1.7c-0.3-0.4-0.8-0.6-1.4-0.6c-0.4,0-0.8,0.1-1.2,0.3
			c-0.4,0.2-0.7,0.5-1,0.9v7.2H163z"/>
		<path class="st6" d="M178.1,141.7c0-0.1,0-0.3,0.1-0.4c0.1-0.1,0.1-0.2,0.2-0.3s0.2-0.2,0.4-0.2c0.1-0.1,0.3-0.1,0.5-0.1
			c0.2,0,0.4,0,0.5,0.1c0.1,0.1,0.3,0.2,0.4,0.3c0.1,0.1,0.2,0.3,0.2,0.4c0.1,0.2,0.1,0.3,0.1,0.5c0,0.3,0,0.6-0.1,0.9
			c-0.1,0.3-0.2,0.6-0.4,0.9c-0.2,0.3-0.3,0.6-0.6,0.9c-0.2,0.3-0.5,0.5-0.8,0.8l-0.3-0.3c-0.1-0.1-0.1-0.2-0.1-0.3
			c0-0.1,0-0.2,0.1-0.3c0.1-0.1,0.1-0.2,0.2-0.3s0.2-0.3,0.3-0.4c0.1-0.2,0.2-0.3,0.3-0.5s0.1-0.4,0.2-0.6h-0.1
			c-0.2,0-0.3,0-0.4-0.1c-0.1-0.1-0.2-0.1-0.3-0.2c-0.1-0.1-0.2-0.2-0.2-0.4C178.1,142,178.1,141.9,178.1,141.7z"/>
		<path class="st6" d="M189.1,145.7c-0.1,0.1-0.1,0.2-0.2,0.3c-0.1,0.1-0.2,0.1-0.4,0.1h-1.3l1.8-3.8l-4-9.1h1.5
			c0.1,0,0.3,0,0.3,0.1c0.1,0.1,0.1,0.2,0.2,0.2l2.6,6.1c0.1,0.1,0.1,0.3,0.1,0.4c0,0.1,0.1,0.3,0.1,0.4c0-0.1,0.1-0.3,0.1-0.4
			c0-0.1,0.1-0.3,0.2-0.4l2.5-6c0-0.1,0.1-0.2,0.2-0.3c0.1-0.1,0.2-0.1,0.3-0.1h1.3L189.1,145.7z"/>
		<path class="st6" d="M199.6,133.1c0.7,0,1.3,0.1,1.9,0.4c0.6,0.2,1,0.6,1.4,1c0.4,0.4,0.7,1,0.9,1.6c0.2,0.6,0.3,1.3,0.3,2
			c0,0.8-0.1,1.4-0.3,2.1c-0.2,0.6-0.5,1.1-0.9,1.6c-0.4,0.4-0.9,0.8-1.4,1c-0.6,0.2-1.2,0.3-1.9,0.3c-0.7,0-1.3-0.1-1.9-0.3
			c-0.6-0.2-1-0.6-1.4-1c-0.4-0.4-0.7-0.9-0.9-1.6c-0.2-0.6-0.3-1.3-0.3-2.1c0-0.8,0.1-1.4,0.3-2c0.2-0.6,0.5-1.1,0.9-1.6
			c0.4-0.4,0.9-0.8,1.4-1C198.3,133.2,198.9,133.1,199.6,133.1z M199.6,141.7c0.9,0,1.7-0.3,2.1-1s0.7-1.5,0.7-2.7
			c0-1.1-0.2-2-0.7-2.7c-0.5-0.6-1.2-1-2.1-1c-0.5,0-0.9,0.1-1.3,0.2c-0.4,0.2-0.7,0.4-0.9,0.7c-0.2,0.3-0.4,0.7-0.5,1.1
			c-0.1,0.5-0.2,1-0.2,1.5s0.1,1.1,0.2,1.5c0.1,0.4,0.3,0.8,0.5,1.1c0.2,0.3,0.5,0.5,0.9,0.7C198.8,141.6,199.2,141.7,199.6,141.7z"
			/>
		<path class="st6" d="M207.8,133.2v6.1c0,0.7,0.2,1.3,0.5,1.7c0.3,0.4,0.8,0.6,1.5,0.6c0.5,0,1-0.1,1.4-0.4c0.4-0.2,0.8-0.6,1.2-1
			v-7.1h1.7v9.6h-1c-0.2,0-0.4-0.1-0.5-0.4l-0.1-1c-0.4,0.5-0.9,0.8-1.4,1.1c-0.5,0.3-1.1,0.4-1.8,0.4c-0.5,0-1-0.1-1.4-0.3
			c-0.4-0.2-0.7-0.4-1-0.7c-0.3-0.3-0.5-0.7-0.6-1.1c-0.1-0.4-0.2-0.9-0.2-1.5v-6.1H207.8z"/>
		<path class="st6" d="M223.8,133.1c0.4,0,0.8,0,1.2,0.1c0.4,0.1,0.7,0.2,1,0.4h2.6v0.6c0,0.2-0.1,0.3-0.4,0.4l-1.1,0.2
			c0.2,0.4,0.3,0.9,0.3,1.4c0,0.5-0.1,0.9-0.3,1.3s-0.4,0.7-0.8,1c-0.3,0.3-0.7,0.5-1.1,0.6c-0.4,0.1-0.9,0.2-1.4,0.2
			c-0.4,0-0.9-0.1-1.3-0.2c-0.2,0.1-0.4,0.3-0.5,0.4c-0.1,0.2-0.2,0.3-0.2,0.4c0,0.2,0.1,0.4,0.3,0.5c0.2,0.1,0.4,0.2,0.7,0.3
			c0.3,0.1,0.6,0.1,1,0.1c0.4,0,0.8,0,1.2,0s0.8,0,1.2,0.1c0.4,0.1,0.7,0.2,1,0.3s0.5,0.4,0.7,0.7s0.3,0.6,0.3,1.1
			c0,0.4-0.1,0.8-0.3,1.2c-0.2,0.4-0.5,0.7-0.9,1c-0.4,0.3-0.9,0.5-1.4,0.7c-0.6,0.2-1.2,0.3-1.9,0.3s-1.3-0.1-1.8-0.2
			c-0.5-0.1-1-0.3-1.3-0.6c-0.3-0.2-0.6-0.5-0.8-0.8c-0.2-0.3-0.3-0.6-0.3-1c0-0.5,0.2-0.9,0.5-1.2c0.3-0.3,0.7-0.6,1.2-0.8
			c-0.3-0.1-0.5-0.3-0.7-0.5c-0.2-0.2-0.2-0.5-0.2-0.8c0-0.1,0-0.3,0.1-0.4c0.1-0.1,0.1-0.3,0.2-0.4c0.1-0.1,0.2-0.3,0.4-0.4
			s0.3-0.2,0.5-0.4c-0.5-0.3-0.8-0.6-1.1-1.1c-0.3-0.4-0.4-1-0.4-1.5c0-0.5,0.1-0.9,0.3-1.3s0.4-0.7,0.8-1c0.3-0.3,0.7-0.5,1.2-0.6
			C222.8,133.2,223.3,133.1,223.8,133.1z M226.8,143.4c0-0.2-0.1-0.4-0.2-0.6s-0.3-0.3-0.5-0.3c-0.2-0.1-0.5-0.1-0.8-0.2
			c-0.3,0-0.6-0.1-0.9-0.1c-0.3,0-0.7,0-1,0c-0.3,0-0.7,0-1-0.1c-0.4,0.2-0.7,0.4-0.9,0.6c-0.2,0.2-0.3,0.5-0.3,0.9
			c0,0.2,0.1,0.4,0.2,0.6c0.1,0.2,0.3,0.3,0.5,0.5c0.2,0.1,0.5,0.2,0.9,0.3c0.3,0.1,0.8,0.1,1.2,0.1c0.5,0,0.9,0,1.2-0.1
			c0.4-0.1,0.7-0.2,0.9-0.4c0.2-0.2,0.4-0.3,0.6-0.6S226.8,143.6,226.8,143.4z M223.8,138.2c0.3,0,0.6,0,0.9-0.1
			c0.3-0.1,0.5-0.2,0.7-0.4c0.2-0.2,0.3-0.4,0.4-0.6c0.1-0.2,0.1-0.5,0.1-0.8c0-0.6-0.2-1.1-0.5-1.4c-0.4-0.3-0.9-0.5-1.6-0.5
			c-0.7,0-1.2,0.2-1.6,0.5c-0.4,0.3-0.5,0.8-0.5,1.4c0,0.3,0,0.5,0.1,0.8c0.1,0.2,0.2,0.4,0.4,0.6c0.2,0.2,0.4,0.3,0.7,0.4
			C223.1,138.1,223.4,138.2,223.8,138.2z"/>
		<path class="st6" d="M234.1,133.1c0.7,0,1.3,0.1,1.9,0.4c0.6,0.2,1,0.6,1.4,1c0.4,0.4,0.7,1,0.9,1.6c0.2,0.6,0.3,1.3,0.3,2
			c0,0.8-0.1,1.4-0.3,2.1c-0.2,0.6-0.5,1.1-0.9,1.6c-0.4,0.4-0.9,0.8-1.4,1c-0.6,0.2-1.2,0.3-1.9,0.3c-0.7,0-1.3-0.1-1.9-0.3
			c-0.6-0.2-1.1-0.6-1.4-1c-0.4-0.4-0.7-0.9-0.9-1.6s-0.3-1.3-0.3-2.1c0-0.8,0.1-1.4,0.3-2c0.2-0.6,0.5-1.1,0.9-1.6s0.9-0.8,1.4-1
			C232.8,133.2,233.4,133.1,234.1,133.1z M234.1,141.7c1,0,1.7-0.3,2.1-1c0.5-0.6,0.7-1.5,0.7-2.7c0-1.1-0.2-2-0.7-2.7
			c-0.5-0.6-1.2-1-2.1-1c-0.5,0-0.9,0.1-1.3,0.2c-0.4,0.2-0.6,0.4-0.9,0.7c-0.2,0.3-0.4,0.7-0.5,1.1c-0.1,0.5-0.2,1-0.2,1.5
			s0.1,1.1,0.2,1.5c0.1,0.4,0.3,0.8,0.5,1.1c0.2,0.3,0.5,0.5,0.9,0.7S233.7,141.7,234.1,141.7z"/>
		<path class="st6" d="M243.7,143c-0.8,0-1.3-0.2-1.8-0.6c-0.4-0.4-0.6-1-0.6-1.8v-5.9h-1.2c-0.1,0-0.2,0-0.3-0.1
			c-0.1-0.1-0.1-0.2-0.1-0.3v-0.7l1.6-0.2l0.4-3c0-0.1,0.1-0.2,0.1-0.2c0.1-0.1,0.2-0.1,0.3-0.1h0.9v3.3h2.8v1.2h-2.8v5.8
			c0,0.4,0.1,0.7,0.3,0.9c0.2,0.2,0.4,0.3,0.8,0.3c0.2,0,0.3,0,0.5-0.1c0.1,0,0.2-0.1,0.3-0.2c0.1-0.1,0.2-0.1,0.2-0.2
			c0.1,0,0.1-0.1,0.2-0.1c0.1,0,0.2,0.1,0.2,0.2l0.5,0.8c-0.3,0.3-0.6,0.5-1.1,0.6C244.6,142.9,244.2,143,243.7,143z"/>
		<path class="st6" d="M254.5,143c-0.8,0-1.3-0.2-1.8-0.6c-0.4-0.4-0.6-1-0.6-1.8v-5.9H251c-0.1,0-0.2,0-0.3-0.1
			c-0.1-0.1-0.1-0.2-0.1-0.3v-0.7l1.6-0.2l0.4-3c0-0.1,0.1-0.2,0.1-0.2c0.1-0.1,0.2-0.1,0.3-0.1h0.9v3.3h2.8v1.2h-2.8v5.8
			c0,0.4,0.1,0.7,0.3,0.9c0.2,0.2,0.4,0.3,0.8,0.3c0.2,0,0.3,0,0.5-0.1c0.1,0,0.2-0.1,0.3-0.2c0.1-0.1,0.2-0.1,0.2-0.2
			c0.1,0,0.1-0.1,0.2-0.1c0.1,0,0.2,0.1,0.2,0.2l0.5,0.8c-0.3,0.3-0.6,0.5-1.1,0.6C255.3,142.9,254.9,143,254.5,143z"/>
		<path class="st6" d="M258.6,142.9v-14h1.7v5.7c0.4-0.4,0.9-0.8,1.4-1c0.5-0.3,1.1-0.4,1.7-0.4c0.5,0,1,0.1,1.4,0.3
			c0.4,0.2,0.7,0.4,1,0.7c0.3,0.3,0.5,0.7,0.6,1.2c0.1,0.4,0.2,0.9,0.2,1.5v6.1H265v-6.1c0-0.7-0.2-1.3-0.5-1.7
			c-0.3-0.4-0.8-0.6-1.5-0.6c-0.5,0-1,0.1-1.4,0.4c-0.4,0.2-0.8,0.6-1.2,1v7.1H258.6z"/>
		<path class="st6" d="M276.3,142.9h-0.8c-0.2,0-0.3,0-0.4-0.1c-0.1-0.1-0.2-0.2-0.2-0.3l-0.2-0.9c-0.3,0.2-0.5,0.4-0.7,0.6
			c-0.2,0.2-0.5,0.3-0.8,0.5c-0.3,0.1-0.5,0.2-0.9,0.3c-0.3,0.1-0.6,0.1-1,0.1c-0.4,0-0.7-0.1-1-0.2c-0.3-0.1-0.6-0.3-0.9-0.5
			c-0.2-0.2-0.4-0.5-0.6-0.8c-0.1-0.3-0.2-0.7-0.2-1.1c0-0.4,0.1-0.7,0.3-1.1c0.2-0.4,0.5-0.7,1-0.9c0.5-0.3,1.1-0.5,1.8-0.7
			c0.8-0.2,1.7-0.3,2.8-0.3v-0.8c0-0.8-0.2-1.3-0.5-1.7c-0.3-0.4-0.8-0.6-1.4-0.6c-0.4,0-0.8,0.1-1,0.2c-0.3,0.1-0.5,0.2-0.7,0.4
			c-0.2,0.1-0.4,0.2-0.5,0.4c-0.1,0.1-0.3,0.2-0.4,0.2c-0.1,0-0.2,0-0.3-0.1c-0.1-0.1-0.2-0.1-0.2-0.2l-0.3-0.5
			c0.5-0.5,1.1-0.9,1.7-1.1c0.6-0.3,1.3-0.4,2-0.4c0.5,0,1,0.1,1.4,0.3c0.4,0.2,0.8,0.4,1.1,0.7c0.3,0.3,0.5,0.7,0.6,1.1
			s0.2,0.9,0.2,1.5V142.9z M271.9,141.8c0.3,0,0.6,0,0.8-0.1c0.2-0.1,0.5-0.1,0.7-0.3c0.2-0.1,0.4-0.2,0.6-0.4
			c0.2-0.2,0.4-0.3,0.6-0.5v-2c-0.8,0-1.4,0.1-2,0.1c-0.5,0.1-1,0.2-1.3,0.4c-0.3,0.2-0.6,0.3-0.7,0.6s-0.2,0.5-0.2,0.7
			c0,0.3,0,0.5,0.1,0.7c0.1,0.2,0.2,0.3,0.3,0.5c0.1,0.1,0.3,0.2,0.5,0.3C271.5,141.8,271.7,141.8,271.9,141.8z"/>
		<path class="st6" d="M281.8,143c-0.8,0-1.3-0.2-1.8-0.6c-0.4-0.4-0.6-1-0.6-1.8v-5.9h-1.2c-0.1,0-0.2,0-0.3-0.1
			c-0.1-0.1-0.1-0.2-0.1-0.3v-0.7l1.6-0.2l0.4-3c0-0.1,0.1-0.2,0.1-0.2c0.1-0.1,0.2-0.1,0.3-0.1h0.9v3.3h2.8v1.2h-2.8v5.8
			c0,0.4,0.1,0.7,0.3,0.9c0.2,0.2,0.4,0.3,0.8,0.3c0.2,0,0.3,0,0.5-0.1c0.1,0,0.2-0.1,0.3-0.2c0.1-0.1,0.2-0.1,0.2-0.2
			c0.1,0,0.1-0.1,0.2-0.1c0.1,0,0.2,0.1,0.2,0.2l0.5,0.8c-0.3,0.3-0.6,0.5-1.1,0.6C282.6,142.9,282.2,143,281.8,143z"/>
		<path class="st6" d="M289.6,142.9v-9.6h1c0.2,0,0.3,0,0.4,0.1c0.1,0.1,0.1,0.2,0.1,0.4l0.1,1.5c0.3-0.7,0.7-1.2,1.2-1.6
			c0.5-0.4,1.1-0.6,1.7-0.6c0.3,0,0.5,0,0.7,0.1c0.2,0.1,0.4,0.1,0.6,0.3l-0.2,1.3c0,0.2-0.1,0.2-0.3,0.2c-0.1,0-0.2,0-0.4-0.1
			c-0.2-0.1-0.4-0.1-0.8-0.1c-0.6,0-1.1,0.2-1.5,0.5c-0.4,0.3-0.7,0.8-1,1.5v6.1H289.6z"/>
		<path class="st6" d="M301.1,133.1c0.6,0,1.1,0.1,1.6,0.3c0.5,0.2,0.9,0.5,1.3,0.8c0.4,0.4,0.6,0.8,0.8,1.3
			c0.2,0.5,0.3,1.1,0.3,1.8c0,0.3,0,0.4-0.1,0.5c-0.1,0.1-0.2,0.1-0.3,0.1h-6.4c0,0.6,0.1,1.1,0.2,1.6c0.2,0.4,0.4,0.8,0.6,1.1
			c0.3,0.3,0.6,0.5,1,0.7c0.4,0.1,0.8,0.2,1.2,0.2c0.4,0,0.8,0,1.1-0.1c0.3-0.1,0.6-0.2,0.8-0.3c0.2-0.1,0.4-0.2,0.6-0.3
			s0.3-0.1,0.4-0.1c0.1,0,0.2,0.1,0.3,0.2l0.5,0.6c-0.2,0.3-0.5,0.5-0.8,0.7c-0.3,0.2-0.6,0.3-0.9,0.5c-0.3,0.1-0.7,0.2-1,0.3
			c-0.4,0.1-0.7,0.1-1.1,0.1c-0.7,0-1.3-0.1-1.8-0.3c-0.6-0.2-1-0.6-1.5-1c-0.4-0.4-0.7-1-1-1.6c-0.2-0.6-0.3-1.4-0.3-2.2
			c0-0.7,0.1-1.3,0.3-1.9c0.2-0.6,0.5-1.1,0.9-1.5c0.4-0.4,0.9-0.8,1.4-1C299.7,133.2,300.4,133.1,301.1,133.1z M301.1,134.3
			c-0.8,0-1.5,0.2-1.9,0.7c-0.5,0.5-0.8,1.1-0.9,2h5.2c0-0.4-0.1-0.8-0.2-1.1c-0.1-0.3-0.3-0.6-0.5-0.8c-0.2-0.2-0.5-0.4-0.8-0.6
			C301.8,134.4,301.5,134.3,301.1,134.3z"/>
		<path class="st6" d="M307.2,146.1v-12.9h1c0.2,0,0.4,0.1,0.5,0.4l0.1,1.1c0.4-0.5,0.9-0.9,1.4-1.2c0.5-0.3,1.1-0.5,1.8-0.5
			c0.6,0,1.1,0.1,1.5,0.3c0.4,0.2,0.8,0.5,1.2,0.9c0.3,0.4,0.6,0.9,0.7,1.5c0.2,0.6,0.3,1.3,0.3,2.1c0,0.7-0.1,1.4-0.3,2
			c-0.2,0.6-0.5,1.1-0.8,1.6c-0.4,0.4-0.8,0.8-1.3,1.1c-0.5,0.3-1.1,0.4-1.7,0.4c-0.6,0-1.1-0.1-1.5-0.3c-0.4-0.2-0.8-0.5-1.1-0.8
			v4.3H307.2z M311.5,134.4c-0.5,0-1,0.1-1.4,0.4s-0.8,0.6-1.1,1.1v4.7c0.3,0.4,0.7,0.7,1,0.9c0.4,0.2,0.8,0.3,1.2,0.3
			c0.9,0,1.6-0.3,2.1-1c0.5-0.6,0.7-1.6,0.7-2.7c0-0.6-0.1-1.2-0.2-1.6c-0.1-0.4-0.3-0.8-0.5-1.1c-0.2-0.3-0.5-0.5-0.8-0.6
			S311.9,134.4,311.5,134.4z"/>
		<path class="st6" d="M321.6,133.1c0.7,0,1.3,0.1,1.9,0.4c0.6,0.2,1,0.6,1.4,1c0.4,0.4,0.7,1,0.9,1.6c0.2,0.6,0.3,1.3,0.3,2
			c0,0.8-0.1,1.4-0.3,2.1c-0.2,0.6-0.5,1.1-0.9,1.6c-0.4,0.4-0.9,0.8-1.4,1c-0.6,0.2-1.2,0.3-1.9,0.3c-0.7,0-1.3-0.1-1.9-0.3
			c-0.6-0.2-1.1-0.6-1.4-1c-0.4-0.4-0.7-0.9-0.9-1.6c-0.2-0.6-0.3-1.3-0.3-2.1c0-0.8,0.1-1.4,0.3-2c0.2-0.6,0.5-1.1,0.9-1.6
			c0.4-0.4,0.9-0.8,1.4-1C320.2,133.2,320.9,133.1,321.6,133.1z M321.6,141.7c1,0,1.7-0.3,2.1-1s0.7-1.5,0.7-2.7
			c0-1.1-0.2-2-0.7-2.7c-0.5-0.6-1.2-1-2.1-1c-0.5,0-0.9,0.1-1.3,0.2c-0.4,0.2-0.6,0.4-0.9,0.7c-0.2,0.3-0.4,0.7-0.5,1.1
			c-0.1,0.5-0.2,1-0.2,1.5s0.1,1.1,0.2,1.5c0.1,0.4,0.3,0.8,0.5,1.1c0.2,0.3,0.5,0.5,0.9,0.7C320.7,141.6,321.1,141.7,321.6,141.7z"
			/>
		<path class="st6" d="M328.2,142.9v-9.6h1c0.2,0,0.3,0,0.4,0.1c0.1,0.1,0.1,0.2,0.1,0.4l0.1,1.5c0.3-0.7,0.7-1.2,1.2-1.6
			c0.5-0.4,1.1-0.6,1.7-0.6c0.3,0,0.5,0,0.7,0.1c0.2,0.1,0.4,0.1,0.6,0.3l-0.2,1.3c0,0.2-0.1,0.2-0.3,0.2c-0.1,0-0.2,0-0.4-0.1
			c-0.2-0.1-0.4-0.1-0.8-0.1c-0.6,0-1.1,0.2-1.5,0.5c-0.4,0.3-0.7,0.8-1,1.5v6.1H328.2z"/>
		<path class="st6" d="M338.8,143c-0.8,0-1.3-0.2-1.8-0.6c-0.4-0.4-0.6-1-0.6-1.8v-5.9h-1.2c-0.1,0-0.2,0-0.3-0.1
			c-0.1-0.1-0.1-0.2-0.1-0.3v-0.7l1.6-0.2l0.4-3c0-0.1,0.1-0.2,0.1-0.2c0.1-0.1,0.2-0.1,0.3-0.1h0.9v3.3h2.8v1.2h-2.8v5.8
			c0,0.4,0.1,0.7,0.3,0.9c0.2,0.2,0.4,0.3,0.8,0.3c0.2,0,0.3,0,0.5-0.1c0.1,0,0.2-0.1,0.3-0.2c0.1-0.1,0.2-0.1,0.2-0.2
			c0.1,0,0.1-0.1,0.2-0.1c0.1,0,0.2,0.1,0.2,0.2l0.5,0.8c-0.3,0.3-0.6,0.5-1.1,0.6C339.7,142.9,339.3,143,338.8,143z"/>
		<path class="st6" d="M346.7,142.9v-9.6h1c0.2,0,0.3,0,0.4,0.1c0.1,0.1,0.1,0.2,0.1,0.4l0.1,1.5c0.3-0.7,0.7-1.2,1.2-1.6
			c0.5-0.4,1.1-0.6,1.7-0.6c0.3,0,0.5,0,0.7,0.1c0.2,0.1,0.4,0.1,0.6,0.3l-0.2,1.3c0,0.2-0.1,0.2-0.3,0.2c-0.1,0-0.2,0-0.4-0.1
			c-0.2-0.1-0.4-0.1-0.8-0.1c-0.6,0-1.1,0.2-1.5,0.5c-0.4,0.3-0.7,0.8-1,1.5v6.1H346.7z"/>
		<path class="st6" d="M358.1,133.1c0.6,0,1.1,0.1,1.6,0.3c0.5,0.2,0.9,0.5,1.3,0.8c0.4,0.4,0.6,0.8,0.8,1.3
			c0.2,0.5,0.3,1.1,0.3,1.8c0,0.3,0,0.4-0.1,0.5c-0.1,0.1-0.2,0.1-0.3,0.1h-6.4c0,0.6,0.1,1.1,0.2,1.6c0.2,0.4,0.4,0.8,0.6,1.1
			c0.3,0.3,0.6,0.5,1,0.7c0.4,0.1,0.8,0.2,1.2,0.2c0.4,0,0.8,0,1.1-0.1c0.3-0.1,0.6-0.2,0.8-0.3c0.2-0.1,0.4-0.2,0.6-0.3
			s0.3-0.1,0.4-0.1c0.1,0,0.2,0.1,0.3,0.2l0.5,0.6c-0.2,0.3-0.5,0.5-0.8,0.7c-0.3,0.2-0.6,0.3-0.9,0.5c-0.3,0.1-0.7,0.2-1,0.3
			c-0.4,0.1-0.7,0.1-1.1,0.1c-0.7,0-1.3-0.1-1.8-0.3c-0.6-0.2-1-0.6-1.5-1c-0.4-0.4-0.7-1-1-1.6c-0.2-0.6-0.3-1.4-0.3-2.2
			c0-0.7,0.1-1.3,0.3-1.9c0.2-0.6,0.5-1.1,0.9-1.5c0.4-0.4,0.9-0.8,1.4-1C356.8,133.2,357.4,133.1,358.1,133.1z M358.2,134.3
			c-0.8,0-1.5,0.2-1.9,0.7c-0.5,0.5-0.8,1.1-0.9,2h5.2c0-0.4-0.1-0.8-0.2-1.1c-0.1-0.3-0.3-0.6-0.5-0.8c-0.2-0.2-0.5-0.4-0.8-0.6
			C358.9,134.4,358.5,134.3,358.2,134.3z"/>
		<path class="st6" d="M371.3,142.9h-0.8c-0.2,0-0.3,0-0.4-0.1c-0.1-0.1-0.2-0.2-0.2-0.3l-0.2-0.9c-0.3,0.2-0.5,0.4-0.7,0.6
			c-0.2,0.2-0.5,0.3-0.8,0.5c-0.3,0.1-0.5,0.2-0.9,0.3c-0.3,0.1-0.6,0.1-1,0.1c-0.4,0-0.7-0.1-1-0.2c-0.3-0.1-0.6-0.3-0.9-0.5
			c-0.2-0.2-0.4-0.5-0.6-0.8c-0.1-0.3-0.2-0.7-0.2-1.1c0-0.4,0.1-0.7,0.3-1.1c0.2-0.4,0.5-0.7,1-0.9c0.5-0.3,1.1-0.5,1.8-0.7
			c0.8-0.2,1.7-0.3,2.8-0.3v-0.8c0-0.8-0.2-1.3-0.5-1.7c-0.3-0.4-0.8-0.6-1.4-0.6c-0.4,0-0.8,0.1-1,0.2c-0.3,0.1-0.5,0.2-0.7,0.4
			c-0.2,0.1-0.4,0.2-0.5,0.4c-0.1,0.1-0.3,0.2-0.4,0.2c-0.1,0-0.2,0-0.3-0.1c-0.1-0.1-0.2-0.1-0.2-0.2l-0.3-0.5
			c0.5-0.5,1.1-0.9,1.7-1.1c0.6-0.3,1.3-0.4,2-0.4c0.5,0,1,0.1,1.4,0.3c0.4,0.2,0.8,0.4,1.1,0.7c0.3,0.3,0.5,0.7,0.6,1.1
			c0.1,0.4,0.2,0.9,0.2,1.5V142.9z M366.9,141.8c0.3,0,0.6,0,0.8-0.1c0.2-0.1,0.5-0.1,0.7-0.3c0.2-0.1,0.4-0.2,0.6-0.4
			c0.2-0.2,0.4-0.3,0.6-0.5v-2c-0.8,0-1.4,0.1-2,0.1c-0.5,0.1-1,0.2-1.3,0.4c-0.3,0.2-0.6,0.3-0.7,0.6s-0.2,0.5-0.2,0.7
			c0,0.3,0,0.5,0.1,0.7c0.1,0.2,0.2,0.3,0.3,0.5c0.1,0.1,0.3,0.2,0.5,0.3C366.5,141.8,366.7,141.8,366.9,141.8z"/>
		<path class="st6" d="M380.7,142.9c-0.2,0-0.4-0.1-0.5-0.4l-0.2-1.2c-0.4,0.5-0.9,0.9-1.4,1.2c-0.5,0.3-1.1,0.5-1.8,0.5
			c-0.6,0-1.1-0.1-1.5-0.3c-0.4-0.2-0.8-0.5-1.1-0.9c-0.3-0.4-0.6-0.9-0.7-1.5c-0.2-0.6-0.3-1.3-0.3-2.1c0-0.7,0.1-1.4,0.3-2
			c0.2-0.6,0.5-1.1,0.8-1.6c0.4-0.4,0.8-0.8,1.3-1.1c0.5-0.3,1.1-0.4,1.7-0.4c0.6,0,1.1,0.1,1.5,0.3c0.4,0.2,0.8,0.5,1.1,0.8v-5.3
			h1.7v14H380.7z M377.4,141.6c0.6,0,1-0.1,1.4-0.4c0.4-0.3,0.8-0.6,1.1-1.1v-4.7c-0.3-0.4-0.7-0.7-1-0.9c-0.4-0.2-0.8-0.3-1.2-0.3
			c-0.9,0-1.6,0.3-2.1,1c-0.5,0.6-0.7,1.6-0.7,2.7c0,0.6,0.1,1.2,0.2,1.6c0.1,0.4,0.3,0.8,0.5,1.1c0.2,0.3,0.5,0.5,0.8,0.6
			C376.6,141.6,377,141.6,377.4,141.6z"/>
		<path class="st6" d="M387.3,145.7c-0.1,0.1-0.1,0.2-0.2,0.3c-0.1,0.1-0.2,0.1-0.4,0.1h-1.3l1.8-3.8l-4-9.1h1.5
			c0.1,0,0.3,0,0.3,0.1c0.1,0.1,0.1,0.2,0.2,0.2l2.6,6.1c0.1,0.1,0.1,0.3,0.1,0.4c0,0.1,0.1,0.3,0.1,0.4c0-0.1,0.1-0.3,0.1-0.4
			c0-0.1,0.1-0.3,0.2-0.4l2.5-6c0-0.1,0.1-0.2,0.2-0.3c0.1-0.1,0.2-0.1,0.3-0.1h1.3L387.3,145.7z"/>
		<path class="st6" d="M393.2,130.5c0.2-0.2,0.4-0.4,0.7-0.5c0.2-0.2,0.5-0.3,0.8-0.4c0.3-0.1,0.6-0.2,0.9-0.3s0.7-0.1,1.1-0.1
			c0.5,0,1,0.1,1.4,0.2s0.8,0.4,1.1,0.6c0.3,0.3,0.6,0.6,0.7,1c0.2,0.4,0.3,0.8,0.3,1.3c0,0.5-0.1,0.9-0.2,1.2
			c-0.1,0.3-0.3,0.7-0.5,0.9c-0.2,0.3-0.5,0.5-0.7,0.7c-0.3,0.2-0.5,0.4-0.7,0.5c-0.2,0.2-0.4,0.3-0.6,0.5c-0.2,0.2-0.3,0.4-0.3,0.6
			l-0.2,1.5h-1.2l-0.1-1.6v-0.1c0-0.3,0.1-0.5,0.2-0.7c0.1-0.2,0.3-0.4,0.5-0.6c0.2-0.2,0.5-0.4,0.7-0.5c0.2-0.2,0.5-0.4,0.7-0.6
			s0.4-0.5,0.5-0.7c0.1-0.3,0.2-0.6,0.2-1c0-0.3-0.1-0.5-0.2-0.7c-0.1-0.2-0.3-0.4-0.4-0.6c-0.2-0.2-0.4-0.3-0.6-0.4
			c-0.3-0.1-0.5-0.1-0.8-0.1c-0.4,0-0.7,0-1,0.1c-0.3,0.1-0.5,0.2-0.7,0.3c-0.2,0.1-0.3,0.2-0.5,0.3c-0.1,0.1-0.2,0.1-0.3,0.1
			c-0.2,0-0.3-0.1-0.4-0.2L393.2,130.5z M395,141.8c0-0.2,0-0.3,0.1-0.5c0.1-0.1,0.1-0.3,0.2-0.4c0.1-0.1,0.2-0.2,0.4-0.3
			c0.1-0.1,0.3-0.1,0.5-0.1c0.2,0,0.3,0,0.5,0.1c0.1,0.1,0.3,0.1,0.4,0.3s0.2,0.2,0.3,0.4c0.1,0.1,0.1,0.3,0.1,0.5
			c0,0.2,0,0.3-0.1,0.5c-0.1,0.1-0.1,0.3-0.3,0.4c-0.1,0.1-0.2,0.2-0.4,0.3c-0.1,0.1-0.3,0.1-0.5,0.1c-0.2,0-0.3,0-0.5-0.1
			c-0.1-0.1-0.3-0.1-0.4-0.3c-0.1-0.1-0.2-0.2-0.2-0.4C395.1,142.2,395,142,395,141.8z"/>
	</g>
	<path class="st0" d="M170.8,364.8h-58.1c-13.6,0-24.6-11-24.6-24.6v0c0-13.6,11-24.6,24.6-24.6h58.1c13.6,0,24.6,11,24.6,24.6v0
		C195.4,353.8,184.4,364.8,170.8,364.8z"/>
	<g>
		<path class="st6" d="M111.7,341.5v5.1h-1.8V333h4c0.9,0,1.6,0.1,2.2,0.3c0.6,0.2,1.2,0.5,1.6,0.8c0.4,0.4,0.7,0.8,0.9,1.3
			c0.2,0.5,0.3,1.1,0.3,1.7c0,0.6-0.1,1.2-0.3,1.7c-0.2,0.5-0.5,1-1,1.4c-0.4,0.4-1,0.7-1.6,0.9c-0.6,0.2-1.4,0.3-2.2,0.3H111.7z
			 M111.7,340h2.2c0.5,0,1-0.1,1.4-0.2c0.4-0.1,0.7-0.3,1-0.6c0.3-0.3,0.5-0.5,0.6-0.9c0.1-0.3,0.2-0.7,0.2-1.1c0-0.9-0.3-1.5-0.8-2
			c-0.5-0.5-1.3-0.7-2.4-0.7h-2.2V340z"/>
		<path class="st6" d="M124.6,336.8c0.6,0,1.1,0.1,1.6,0.3c0.5,0.2,0.9,0.5,1.3,0.8c0.4,0.4,0.6,0.8,0.8,1.3
			c0.2,0.5,0.3,1.1,0.3,1.8c0,0.3,0,0.4-0.1,0.5c-0.1,0.1-0.2,0.1-0.3,0.1h-6.4c0,0.6,0.1,1.1,0.2,1.6c0.2,0.4,0.4,0.8,0.6,1.1
			c0.3,0.3,0.6,0.5,1,0.7c0.4,0.1,0.8,0.2,1.2,0.2c0.4,0,0.8,0,1.1-0.1c0.3-0.1,0.6-0.2,0.8-0.3c0.2-0.1,0.4-0.2,0.6-0.3
			c0.1-0.1,0.3-0.1,0.4-0.1c0.1,0,0.2,0.1,0.3,0.2l0.5,0.6c-0.2,0.3-0.5,0.5-0.8,0.7c-0.3,0.2-0.6,0.3-0.9,0.5
			c-0.3,0.1-0.7,0.2-1,0.3c-0.4,0.1-0.7,0.1-1.1,0.1c-0.7,0-1.3-0.1-1.8-0.3c-0.6-0.2-1-0.6-1.5-1c-0.4-0.4-0.7-1-1-1.6
			c-0.2-0.6-0.3-1.4-0.3-2.2c0-0.7,0.1-1.3,0.3-1.9c0.2-0.6,0.5-1.1,0.9-1.5c0.4-0.4,0.9-0.8,1.4-1
			C123.3,336.9,123.9,336.8,124.6,336.8z M124.6,338c-0.8,0-1.5,0.2-1.9,0.7c-0.5,0.5-0.8,1.1-0.9,2h5.2c0-0.4-0.1-0.8-0.2-1.1
			c-0.1-0.3-0.3-0.6-0.5-0.8c-0.2-0.2-0.5-0.4-0.8-0.6C125.4,338.1,125,338,124.6,338z"/>
		<path class="st6" d="M130.7,346.6V337h1c0.2,0,0.3,0,0.4,0.1c0.1,0.1,0.1,0.2,0.1,0.4l0.1,1.5c0.3-0.7,0.7-1.2,1.2-1.6
			c0.5-0.4,1.1-0.6,1.7-0.6c0.3,0,0.5,0,0.7,0.1c0.2,0.1,0.4,0.1,0.6,0.3l-0.2,1.3c0,0.2-0.1,0.2-0.3,0.2c-0.1,0-0.2,0-0.4-0.1
			s-0.4-0.1-0.8-0.1c-0.6,0-1.1,0.2-1.5,0.5c-0.4,0.3-0.7,0.8-1,1.5v6.1H130.7z"/>
		<path class="st6" d="M138.8,346.6v-8.2l-1.1-0.1c-0.1,0-0.2-0.1-0.3-0.1c-0.1-0.1-0.1-0.2-0.1-0.3v-0.7h1.5v-0.9
			c0-0.6,0.1-1,0.2-1.5c0.2-0.4,0.4-0.8,0.7-1.1c0.3-0.3,0.6-0.5,1-0.7c0.4-0.2,0.9-0.2,1.4-0.2c0.4,0,0.8,0.1,1.2,0.2l0,0.8
			c0,0.1-0.1,0.2-0.2,0.2c-0.1,0-0.2,0-0.4,0h-0.3c-0.3,0-0.6,0-0.8,0.1c-0.2,0.1-0.4,0.2-0.6,0.4c-0.2,0.2-0.3,0.4-0.4,0.7
			c-0.1,0.3-0.1,0.6-0.1,1v0.9h2.8v1.2h-2.7v8.2H138.8z"/>
		<path class="st6" d="M148.6,336.8c0.6,0,1.1,0.1,1.6,0.3c0.5,0.2,0.9,0.5,1.3,0.8c0.4,0.4,0.6,0.8,0.8,1.3
			c0.2,0.5,0.3,1.1,0.3,1.8c0,0.3,0,0.4-0.1,0.5c-0.1,0.1-0.2,0.1-0.3,0.1h-6.4c0,0.6,0.1,1.1,0.2,1.6s0.4,0.8,0.6,1.1
			c0.3,0.3,0.6,0.5,1,0.7c0.4,0.1,0.8,0.2,1.2,0.2c0.4,0,0.8,0,1.1-0.1c0.3-0.1,0.6-0.2,0.8-0.3c0.2-0.1,0.4-0.2,0.6-0.3
			c0.1-0.1,0.3-0.1,0.4-0.1c0.1,0,0.2,0.1,0.3,0.2l0.5,0.6c-0.2,0.3-0.5,0.5-0.8,0.7c-0.3,0.2-0.6,0.3-0.9,0.5
			c-0.3,0.1-0.7,0.2-1,0.3c-0.4,0.1-0.7,0.1-1.1,0.1c-0.7,0-1.3-0.1-1.8-0.3c-0.6-0.2-1-0.6-1.5-1c-0.4-0.4-0.7-1-1-1.6
			c-0.2-0.6-0.3-1.4-0.3-2.2c0-0.7,0.1-1.3,0.3-1.9c0.2-0.6,0.5-1.1,0.9-1.5c0.4-0.4,0.9-0.8,1.4-1
			C147.3,336.9,147.9,336.8,148.6,336.8z M148.6,338c-0.8,0-1.5,0.2-1.9,0.7c-0.5,0.5-0.8,1.1-0.9,2h5.2c0-0.4-0.1-0.8-0.2-1.1
			c-0.1-0.3-0.3-0.6-0.5-0.8c-0.2-0.2-0.5-0.4-0.8-0.6C149.4,338.1,149,338,148.6,338z"/>
		<path class="st6" d="M161.3,338.7c-0.1,0.1-0.1,0.1-0.2,0.2c-0.1,0-0.1,0.1-0.2,0.1c-0.1,0-0.2,0-0.3-0.1
			c-0.1-0.1-0.3-0.2-0.4-0.3c-0.2-0.1-0.4-0.2-0.6-0.3c-0.2-0.1-0.5-0.1-0.9-0.1c-0.5,0-0.9,0.1-1.2,0.3c-0.4,0.2-0.7,0.4-0.9,0.7
			c-0.2,0.3-0.4,0.7-0.6,1.1c-0.1,0.4-0.2,1-0.2,1.5c0,0.6,0.1,1.1,0.2,1.6c0.1,0.5,0.3,0.8,0.6,1.1c0.2,0.3,0.5,0.5,0.9,0.7
			c0.3,0.2,0.7,0.2,1.2,0.2c0.4,0,0.8,0,1-0.1c0.3-0.1,0.5-0.2,0.7-0.3c0.2-0.1,0.3-0.2,0.4-0.3c0.1-0.1,0.2-0.1,0.3-0.1
			c0.1,0,0.3,0.1,0.3,0.2l0.5,0.6c-0.4,0.5-0.9,0.9-1.6,1.1c-0.6,0.2-1.3,0.4-2,0.4c-0.6,0-1.2-0.1-1.7-0.3c-0.5-0.2-1-0.5-1.3-1
			c-0.4-0.4-0.7-0.9-0.9-1.6c-0.2-0.6-0.3-1.3-0.3-2.1c0-0.7,0.1-1.4,0.3-2c0.2-0.6,0.5-1.1,0.9-1.6c0.4-0.4,0.9-0.8,1.4-1
			c0.6-0.2,1.2-0.4,1.9-0.4c0.7,0,1.3,0.1,1.8,0.3c0.5,0.2,1,0.5,1.4,0.9L161.3,338.7z"/>
		<path class="st6" d="M166.5,346.7c-0.8,0-1.3-0.2-1.8-0.6c-0.4-0.4-0.6-1-0.6-1.8v-5.9H163c-0.1,0-0.2,0-0.3-0.1
			c-0.1-0.1-0.1-0.2-0.1-0.3v-0.7l1.6-0.2l0.4-3c0-0.1,0.1-0.2,0.1-0.2c0.1-0.1,0.2-0.1,0.3-0.1h0.9v3.3h2.8v1.2h-2.8v5.8
			c0,0.4,0.1,0.7,0.3,0.9c0.2,0.2,0.4,0.3,0.8,0.3c0.2,0,0.3,0,0.5-0.1c0.1,0,0.2-0.1,0.3-0.2c0.1-0.1,0.2-0.1,0.2-0.2
			s0.1-0.1,0.2-0.1c0.1,0,0.2,0.1,0.2,0.2l0.5,0.8c-0.3,0.3-0.6,0.5-1.1,0.6C167.4,346.6,167,346.7,166.5,346.7z"/>
		<path class="st6" d="M171.4,345.5c0-0.2,0-0.3,0.1-0.5c0.1-0.1,0.1-0.3,0.2-0.4c0.1-0.1,0.2-0.2,0.4-0.3c0.1-0.1,0.3-0.1,0.5-0.1
			s0.3,0,0.5,0.1c0.1,0.1,0.3,0.1,0.4,0.3c0.1,0.1,0.2,0.2,0.3,0.4c0.1,0.1,0.1,0.3,0.1,0.5c0,0.2,0,0.3-0.1,0.5
			c-0.1,0.1-0.1,0.3-0.3,0.4c-0.1,0.1-0.2,0.2-0.4,0.3c-0.1,0.1-0.3,0.1-0.5,0.1s-0.3,0-0.5-0.1c-0.1-0.1-0.3-0.1-0.4-0.3
			c-0.1-0.1-0.2-0.2-0.2-0.4C171.4,345.9,171.4,345.7,171.4,345.5z M173.4,333v5.4c0,0.3,0,0.6,0,0.8c0,0.3,0,0.5,0,0.8
			c0,0.3,0,0.6-0.1,0.8c0,0.3-0.1,0.6-0.1,0.9H172c0-0.3-0.1-0.6-0.1-0.9c0-0.3-0.1-0.6-0.1-0.8c0-0.3,0-0.5,0-0.8
			c0-0.3,0-0.6,0-0.8V333H173.4z"/>
	</g>
	<g>
		<g>
			<path class="st2" d="M173.6,238.5v5.4h-1.8v-5.4l-5-8.2h1.6c0.2,0,0.3,0,0.4,0.1c0.1,0.1,0.2,0.2,0.2,0.3l3.1,5.3
				c0.1,0.2,0.2,0.4,0.3,0.6c0.1,0.2,0.2,0.4,0.2,0.6c0.1-0.2,0.1-0.4,0.2-0.6c0.1-0.2,0.2-0.4,0.3-0.6l3.1-5.3
				c0.1-0.1,0.1-0.2,0.2-0.3c0.1-0.1,0.2-0.1,0.4-0.1h1.6L173.6,238.5z"/>
			<path class="st2" d="M182.3,234.2c0.6,0,1.1,0.1,1.6,0.3c0.5,0.2,0.9,0.5,1.3,0.8c0.4,0.4,0.6,0.8,0.8,1.3
				c0.2,0.5,0.3,1.1,0.3,1.8c0,0.3,0,0.4-0.1,0.5c-0.1,0.1-0.2,0.1-0.3,0.1h-6.4c0,0.6,0.1,1.1,0.2,1.6s0.4,0.8,0.6,1.1
				c0.3,0.3,0.6,0.5,1,0.7c0.4,0.1,0.8,0.2,1.2,0.2c0.4,0,0.8,0,1.1-0.1c0.3-0.1,0.6-0.2,0.8-0.3c0.2-0.1,0.4-0.2,0.6-0.3
				c0.1-0.1,0.3-0.1,0.4-0.1c0.1,0,0.2,0.1,0.3,0.2l0.5,0.6c-0.2,0.3-0.5,0.5-0.8,0.7c-0.3,0.2-0.6,0.3-0.9,0.5
				c-0.3,0.1-0.7,0.2-1,0.3c-0.4,0.1-0.7,0.1-1.1,0.1c-0.7,0-1.3-0.1-1.8-0.3c-0.6-0.2-1-0.6-1.5-1c-0.4-0.4-0.7-1-1-1.6
				c-0.2-0.6-0.3-1.4-0.3-2.2c0-0.7,0.1-1.3,0.3-1.9c0.2-0.6,0.5-1.1,0.9-1.5c0.4-0.4,0.9-0.8,1.4-1S181.6,234.2,182.3,234.2z
				 M182.4,235.4c-0.8,0-1.5,0.2-1.9,0.7c-0.5,0.5-0.8,1.1-0.9,2h5.2c0-0.4-0.1-0.8-0.2-1.1c-0.1-0.3-0.3-0.6-0.5-0.8
				c-0.2-0.2-0.5-0.4-0.8-0.6C183.1,235.5,182.7,235.4,182.4,235.4z"/>
			<path class="st2" d="M195.5,244h-0.8c-0.2,0-0.3,0-0.4-0.1c-0.1-0.1-0.2-0.2-0.2-0.3l-0.2-0.9c-0.3,0.2-0.5,0.4-0.7,0.6
				c-0.2,0.2-0.5,0.3-0.8,0.5c-0.3,0.1-0.5,0.2-0.9,0.3c-0.3,0.1-0.6,0.1-1,0.1c-0.4,0-0.7-0.1-1-0.2c-0.3-0.1-0.6-0.3-0.9-0.5
				c-0.2-0.2-0.4-0.5-0.6-0.8c-0.1-0.3-0.2-0.7-0.2-1.1c0-0.4,0.1-0.7,0.3-1.1c0.2-0.4,0.5-0.7,1-0.9c0.5-0.3,1.1-0.5,1.8-0.7
				c0.8-0.2,1.7-0.3,2.8-0.3v-0.8c0-0.8-0.2-1.3-0.5-1.7c-0.3-0.4-0.8-0.6-1.4-0.6c-0.4,0-0.8,0.1-1,0.2c-0.3,0.1-0.5,0.2-0.7,0.4
				c-0.2,0.1-0.4,0.2-0.5,0.4c-0.1,0.1-0.3,0.2-0.4,0.2c-0.1,0-0.2,0-0.3-0.1c-0.1-0.1-0.2-0.1-0.2-0.2l-0.3-0.5
				c0.5-0.5,1.1-0.9,1.7-1.1c0.6-0.3,1.3-0.4,2-0.4c0.5,0,1,0.1,1.4,0.3c0.4,0.2,0.8,0.4,1.1,0.7s0.5,0.7,0.6,1.1s0.2,0.9,0.2,1.5
				V244z M191.1,242.9c0.3,0,0.6,0,0.8-0.1c0.2-0.1,0.5-0.1,0.7-0.3c0.2-0.1,0.4-0.2,0.6-0.4c0.2-0.2,0.4-0.3,0.6-0.5v-2
				c-0.8,0-1.4,0.1-2,0.1c-0.5,0.1-1,0.2-1.3,0.4c-0.3,0.2-0.6,0.3-0.7,0.6c-0.2,0.2-0.2,0.5-0.2,0.7c0,0.3,0,0.5,0.1,0.7
				c0.1,0.2,0.2,0.3,0.3,0.5c0.1,0.1,0.3,0.2,0.5,0.3C190.7,242.9,190.9,242.9,191.1,242.9z"/>
			<path class="st2" d="M198.1,244v-14h1.7v5.7c0.4-0.4,0.9-0.8,1.4-1c0.5-0.3,1.1-0.4,1.7-0.4c0.5,0,1,0.1,1.4,0.3
				c0.4,0.2,0.7,0.4,1,0.7s0.5,0.7,0.6,1.2c0.1,0.4,0.2,0.9,0.2,1.5v6.1h-1.7v-6.1c0-0.7-0.2-1.3-0.5-1.7c-0.3-0.4-0.8-0.6-1.5-0.6
				c-0.5,0-1,0.1-1.4,0.4c-0.4,0.2-0.8,0.6-1.2,1v7.1H198.1z"/>
			<path class="st2" d="M214.8,244h-1.8v-13.6h1.8V244z"/>
			<path class="st2" d="M219.3,229.6c0.2,0.3,0.3,0.6,0.4,0.9c0.1,0.3,0.1,0.6,0.1,0.9c0,0.6-0.1,1.1-0.4,1.6
				c-0.3,0.5-0.7,1-1.2,1.4l-0.5-0.3c-0.1,0-0.1-0.1-0.1-0.1c0,0,0-0.1,0-0.1c0-0.1,0-0.2,0.1-0.2c0.1-0.1,0.2-0.3,0.3-0.4
				c0.1-0.1,0.2-0.3,0.3-0.4c0.1-0.2,0.1-0.3,0.2-0.5c0-0.2,0.1-0.4,0.1-0.5c0-0.2,0-0.4-0.1-0.6c-0.1-0.2-0.2-0.4-0.3-0.7
				c0-0.1-0.1-0.1-0.1-0.2c0-0.2,0.1-0.3,0.3-0.3L219.3,229.6z"/>
			<path class="st2" d="M222.2,244v-9.6h1c0.2,0,0.4,0.1,0.5,0.4l0.1,1c0.4-0.4,0.8-0.8,1.2-1.1c0.4-0.3,1-0.4,1.5-0.4
				c0.7,0,1.2,0.2,1.6,0.5c0.4,0.4,0.7,0.8,0.9,1.5c0.1-0.3,0.3-0.6,0.5-0.9c0.2-0.3,0.5-0.5,0.7-0.6c0.3-0.2,0.6-0.3,0.9-0.4
				c0.3-0.1,0.6-0.1,0.9-0.1c0.5,0,1,0.1,1.4,0.2c0.4,0.2,0.7,0.4,1,0.7c0.3,0.3,0.5,0.7,0.6,1.1c0.1,0.5,0.2,1,0.2,1.6v6.1h-1.7
				v-6.1c0-0.8-0.2-1.3-0.5-1.7c-0.3-0.4-0.8-0.6-1.4-0.6c-0.3,0-0.5,0-0.8,0.1c-0.2,0.1-0.5,0.2-0.7,0.4c-0.2,0.2-0.3,0.4-0.5,0.7
				c-0.1,0.3-0.2,0.6-0.2,1v6.1h-1.7v-6.1c0-0.8-0.2-1.3-0.5-1.7c-0.3-0.4-0.8-0.6-1.4-0.6c-0.4,0-0.8,0.1-1.2,0.3
				c-0.4,0.2-0.7,0.5-1,0.9v7.2H222.2z"/>
			<path class="st2" d="M247,235.9c-0.1,0.1-0.2,0.2-0.4,0.2c-0.1,0-0.2,0-0.3-0.1c-0.1-0.1-0.3-0.1-0.4-0.2
				c-0.2-0.1-0.4-0.2-0.6-0.2c-0.2-0.1-0.5-0.1-0.9-0.1c-0.3,0-0.5,0-0.8,0.1c-0.2,0.1-0.4,0.2-0.6,0.3c-0.2,0.1-0.3,0.3-0.4,0.4
				c-0.1,0.2-0.1,0.4-0.1,0.5c0,0.2,0.1,0.5,0.2,0.6c0.1,0.2,0.3,0.3,0.6,0.4c0.2,0.1,0.5,0.2,0.8,0.3c0.3,0.1,0.6,0.2,0.9,0.3
				c0.3,0.1,0.6,0.2,0.9,0.3c0.3,0.1,0.6,0.3,0.8,0.5c0.2,0.2,0.4,0.4,0.6,0.7c0.1,0.3,0.2,0.6,0.2,1c0,0.4-0.1,0.9-0.2,1.2
				c-0.2,0.4-0.4,0.7-0.7,1c-0.3,0.3-0.7,0.5-1.1,0.7c-0.4,0.2-1,0.2-1.6,0.2c-0.7,0-1.3-0.1-1.8-0.3c-0.5-0.2-1-0.5-1.4-0.8
				l0.4-0.6c0.1-0.1,0.1-0.1,0.2-0.2c0.1,0,0.2-0.1,0.3-0.1c0.1,0,0.2,0,0.4,0.1c0.1,0.1,0.3,0.2,0.5,0.3c0.2,0.1,0.4,0.2,0.7,0.3
				c0.3,0.1,0.6,0.1,1,0.1c0.3,0,0.6,0,0.9-0.1c0.2-0.1,0.5-0.2,0.6-0.3c0.2-0.1,0.3-0.3,0.4-0.5c0.1-0.2,0.1-0.4,0.1-0.6
				c0-0.3-0.1-0.5-0.2-0.7c-0.1-0.2-0.3-0.3-0.6-0.4c-0.2-0.1-0.5-0.2-0.8-0.3c-0.3-0.1-0.6-0.2-0.9-0.3c-0.3-0.1-0.6-0.2-0.9-0.3
				c-0.3-0.1-0.6-0.3-0.8-0.5c-0.2-0.2-0.4-0.4-0.6-0.7c-0.1-0.3-0.2-0.6-0.2-1c0-0.4,0.1-0.7,0.2-1.1c0.2-0.3,0.4-0.6,0.7-0.9
				c0.3-0.3,0.6-0.5,1.1-0.6c0.4-0.2,0.9-0.2,1.5-0.2c0.6,0,1.2,0.1,1.7,0.3c0.5,0.2,0.9,0.5,1.3,0.8L247,235.9z"/>
			<path class="st2" d="M253.5,234.2c0.6,0,1.1,0.1,1.6,0.3c0.5,0.2,0.9,0.5,1.3,0.8c0.4,0.4,0.6,0.8,0.8,1.3
				c0.2,0.5,0.3,1.1,0.3,1.8c0,0.3,0,0.4-0.1,0.5c-0.1,0.1-0.2,0.1-0.3,0.1h-6.4c0,0.6,0.1,1.1,0.2,1.6c0.2,0.4,0.4,0.8,0.6,1.1
				c0.3,0.3,0.6,0.5,1,0.7c0.4,0.1,0.8,0.2,1.2,0.2c0.4,0,0.8,0,1.1-0.1c0.3-0.1,0.6-0.2,0.8-0.3c0.2-0.1,0.4-0.2,0.6-0.3
				s0.3-0.1,0.4-0.1c0.1,0,0.2,0.1,0.3,0.2l0.5,0.6c-0.2,0.3-0.5,0.5-0.8,0.7c-0.3,0.2-0.6,0.3-0.9,0.5c-0.3,0.1-0.7,0.2-1,0.3
				c-0.4,0.1-0.7,0.1-1.1,0.1c-0.7,0-1.3-0.1-1.8-0.3c-0.6-0.2-1-0.6-1.5-1c-0.4-0.4-0.7-1-1-1.6c-0.2-0.6-0.3-1.4-0.3-2.2
				c0-0.7,0.1-1.3,0.3-1.9c0.2-0.6,0.5-1.1,0.9-1.5c0.4-0.4,0.9-0.8,1.4-1S252.8,234.2,253.5,234.2z M253.5,235.4
				c-0.8,0-1.5,0.2-1.9,0.7c-0.5,0.5-0.8,1.1-0.9,2h5.2c0-0.4-0.1-0.8-0.2-1.1c-0.1-0.3-0.3-0.6-0.5-0.8c-0.2-0.2-0.5-0.4-0.8-0.6
				C254.3,235.5,253.9,235.4,253.5,235.4z"/>
			<path class="st2" d="M259.6,244v-9.6h1c0.2,0,0.4,0.1,0.5,0.4l0.1,1c0.4-0.5,0.9-0.8,1.4-1.1c0.5-0.3,1.1-0.4,1.8-0.4
				c0.5,0,1,0.1,1.4,0.3c0.4,0.2,0.7,0.4,1,0.7c0.3,0.3,0.5,0.7,0.6,1.2c0.1,0.4,0.2,0.9,0.2,1.5v6.1H266v-6.1
				c0-0.7-0.2-1.3-0.5-1.7c-0.3-0.4-0.8-0.6-1.5-0.6c-0.5,0-1,0.1-1.4,0.4c-0.4,0.2-0.8,0.6-1.2,1v7.1H259.6z"/>
			<path class="st2" d="M277,244c-0.2,0-0.4-0.1-0.5-0.4l-0.2-1.2c-0.4,0.5-0.9,0.9-1.4,1.2c-0.5,0.3-1.1,0.5-1.8,0.5
				c-0.6,0-1.1-0.1-1.5-0.3c-0.4-0.2-0.8-0.5-1.1-0.9c-0.3-0.4-0.6-0.9-0.7-1.5c-0.2-0.6-0.3-1.3-0.3-2.1c0-0.7,0.1-1.4,0.3-2
				c0.2-0.6,0.5-1.1,0.8-1.6c0.4-0.4,0.8-0.8,1.3-1.1c0.5-0.3,1.1-0.4,1.7-0.4c0.6,0,1.1,0.1,1.5,0.3c0.4,0.2,0.8,0.5,1.1,0.8V230
				h1.7v14H277z M273.7,242.7c0.6,0,1-0.1,1.4-0.4c0.4-0.3,0.8-0.6,1.1-1.1v-4.7c-0.3-0.4-0.7-0.7-1-0.9c-0.4-0.2-0.8-0.3-1.2-0.3
				c-0.9,0-1.6,0.3-2.1,1c-0.5,0.6-0.7,1.6-0.7,2.7c0,0.6,0.1,1.2,0.2,1.6c0.1,0.4,0.3,0.8,0.5,1.1c0.2,0.3,0.5,0.5,0.8,0.6
				C273,242.7,273.3,242.7,273.7,242.7z"/>
			<path class="st2" d="M283.1,231.3c0,0.2,0,0.3-0.1,0.5c-0.1,0.1-0.2,0.3-0.3,0.4c-0.1,0.1-0.2,0.2-0.4,0.3
				c-0.1,0.1-0.3,0.1-0.5,0.1c-0.2,0-0.3,0-0.5-0.1c-0.1-0.1-0.3-0.2-0.4-0.3c-0.1-0.1-0.2-0.2-0.3-0.4c-0.1-0.1-0.1-0.3-0.1-0.5
				s0-0.3,0.1-0.5c0.1-0.1,0.2-0.3,0.3-0.4s0.2-0.2,0.4-0.3c0.1-0.1,0.3-0.1,0.5-0.1c0.2,0,0.3,0,0.5,0.1c0.1,0.1,0.3,0.2,0.4,0.3
				s0.2,0.2,0.3,0.4C283,231,283.1,231.2,283.1,231.3z M282.7,234.3v9.6H281v-9.6H282.7z"/>
			<path class="st2" d="M285.7,244v-9.6h1c0.2,0,0.4,0.1,0.5,0.4l0.1,1c0.4-0.5,0.9-0.8,1.4-1.1c0.5-0.3,1.1-0.4,1.8-0.4
				c0.5,0,1,0.1,1.4,0.3c0.4,0.2,0.7,0.4,1,0.7c0.3,0.3,0.5,0.7,0.6,1.2c0.1,0.4,0.2,0.9,0.2,1.5v6.1H292v-6.1
				c0-0.7-0.2-1.3-0.5-1.7c-0.3-0.4-0.8-0.6-1.5-0.6c-0.5,0-1,0.1-1.4,0.4c-0.4,0.2-0.8,0.6-1.2,1v7.1H285.7z"/>
			<path class="st2" d="M299.5,234.2c0.4,0,0.8,0,1.2,0.1c0.4,0.1,0.7,0.2,1,0.4h2.6v0.6c0,0.2-0.1,0.3-0.4,0.4l-1.1,0.2
				c0.2,0.4,0.3,0.9,0.3,1.4c0,0.5-0.1,0.9-0.3,1.3s-0.4,0.7-0.8,1c-0.3,0.3-0.7,0.5-1.1,0.6c-0.4,0.1-0.9,0.2-1.4,0.2
				c-0.4,0-0.9-0.1-1.3-0.2c-0.2,0.1-0.4,0.3-0.5,0.4c-0.1,0.2-0.2,0.3-0.2,0.4c0,0.2,0.1,0.4,0.3,0.5c0.2,0.1,0.4,0.2,0.7,0.3
				c0.3,0.1,0.6,0.1,1,0.1c0.4,0,0.8,0,1.2,0c0.4,0,0.8,0,1.2,0.1c0.4,0.1,0.7,0.2,1,0.3c0.3,0.2,0.5,0.4,0.7,0.7
				c0.2,0.3,0.3,0.6,0.3,1.1c0,0.4-0.1,0.8-0.3,1.2c-0.2,0.4-0.5,0.7-0.9,1c-0.4,0.3-0.9,0.5-1.4,0.7c-0.6,0.2-1.2,0.3-1.9,0.3
				s-1.3-0.1-1.8-0.2c-0.5-0.1-1-0.3-1.3-0.6c-0.3-0.2-0.6-0.5-0.8-0.8c-0.2-0.3-0.3-0.6-0.3-1c0-0.5,0.1-0.9,0.5-1.2
				c0.3-0.3,0.7-0.6,1.2-0.8c-0.3-0.1-0.5-0.3-0.6-0.5c-0.2-0.2-0.2-0.5-0.2-0.8c0-0.1,0-0.3,0.1-0.4c0.1-0.1,0.1-0.3,0.2-0.4
				c0.1-0.1,0.2-0.3,0.4-0.4c0.2-0.1,0.3-0.2,0.5-0.4c-0.5-0.3-0.8-0.6-1.1-1.1c-0.3-0.4-0.4-1-0.4-1.5c0-0.5,0.1-0.9,0.3-1.3
				s0.4-0.7,0.8-1c0.3-0.3,0.7-0.5,1.2-0.6C298.5,234.2,299,234.2,299.5,234.2z M302.5,244.4c0-0.2-0.1-0.4-0.2-0.6
				s-0.3-0.3-0.5-0.3c-0.2-0.1-0.5-0.1-0.8-0.2c-0.3,0-0.6-0.1-0.9-0.1c-0.3,0-0.7,0-1,0c-0.3,0-0.7,0-1-0.1
				c-0.4,0.2-0.7,0.4-0.9,0.6c-0.2,0.2-0.3,0.5-0.3,0.9c0,0.2,0.1,0.4,0.2,0.6c0.1,0.2,0.3,0.3,0.5,0.5c0.2,0.1,0.5,0.2,0.9,0.3
				c0.3,0.1,0.8,0.1,1.2,0.1c0.5,0,0.9,0,1.2-0.1c0.4-0.1,0.7-0.2,0.9-0.4c0.2-0.2,0.4-0.3,0.6-0.6S302.5,244.7,302.5,244.4z
				 M299.5,239.3c0.3,0,0.6,0,0.9-0.1c0.3-0.1,0.5-0.2,0.7-0.4c0.2-0.2,0.3-0.4,0.4-0.6c0.1-0.2,0.1-0.5,0.1-0.8
				c0-0.6-0.2-1.1-0.5-1.4c-0.4-0.3-0.9-0.5-1.6-0.5c-0.7,0-1.2,0.2-1.6,0.5c-0.4,0.3-0.5,0.8-0.5,1.4c0,0.3,0,0.5,0.1,0.8
				c0.1,0.2,0.2,0.4,0.4,0.6c0.2,0.2,0.4,0.3,0.7,0.4C298.9,239.2,299.1,239.3,299.5,239.3z"/>
			<path class="st2" d="M311.9,231.3c0,0.2,0,0.3-0.1,0.5c-0.1,0.1-0.2,0.3-0.3,0.4c-0.1,0.1-0.2,0.2-0.4,0.3
				c-0.1,0.1-0.3,0.1-0.5,0.1c-0.2,0-0.3,0-0.5-0.1c-0.1-0.1-0.3-0.2-0.4-0.3c-0.1-0.1-0.2-0.2-0.3-0.4c-0.1-0.1-0.1-0.3-0.1-0.5
				s0-0.3,0.1-0.5c0.1-0.1,0.2-0.3,0.3-0.4s0.2-0.2,0.4-0.3c0.1-0.1,0.3-0.1,0.5-0.1c0.2,0,0.3,0,0.5,0.1c0.1,0.1,0.3,0.2,0.4,0.3
				c0.1,0.1,0.2,0.2,0.3,0.4C311.8,231,311.9,231.2,311.9,231.3z M311.5,234.3v9.6h-1.7v-9.6H311.5z"/>
			<path class="st2" d="M317.4,244.1c-0.8,0-1.3-0.2-1.8-0.6c-0.4-0.4-0.6-1-0.6-1.8v-5.9h-1.2c-0.1,0-0.2,0-0.3-0.1
				c-0.1-0.1-0.1-0.2-0.1-0.3v-0.7l1.6-0.2l0.4-3c0-0.1,0.1-0.2,0.1-0.2c0.1-0.1,0.2-0.1,0.3-0.1h0.9v3.3h2.8v1.2h-2.8v5.8
				c0,0.4,0.1,0.7,0.3,0.9c0.2,0.2,0.4,0.3,0.8,0.3c0.2,0,0.3,0,0.5-0.1c0.1,0,0.2-0.1,0.3-0.2c0.1-0.1,0.2-0.1,0.2-0.2
				c0.1,0,0.1-0.1,0.2-0.1c0.1,0,0.2,0.1,0.2,0.2l0.5,0.8c-0.3,0.3-0.6,0.5-1.1,0.6C318.3,244,317.8,244.1,317.4,244.1z"/>
			<path class="st2" d="M325.2,244v-9.6h1c0.2,0,0.4,0.1,0.5,0.4l0.1,1c0.4-0.5,0.9-0.8,1.4-1.1c0.5-0.3,1.1-0.4,1.8-0.4
				c0.5,0,1,0.1,1.4,0.3c0.4,0.2,0.7,0.4,1,0.7c0.3,0.3,0.5,0.7,0.6,1.2c0.1,0.4,0.2,0.9,0.2,1.5v6.1h-1.7v-6.1
				c0-0.7-0.2-1.3-0.5-1.7c-0.3-0.4-0.8-0.6-1.5-0.6c-0.5,0-1,0.1-1.4,0.4c-0.4,0.2-0.8,0.6-1.2,1v7.1H325.2z"/>
			<path class="st2" d="M339.7,234.2c0.7,0,1.3,0.1,1.9,0.4c0.6,0.2,1,0.6,1.4,1c0.4,0.4,0.7,1,0.9,1.6c0.2,0.6,0.3,1.3,0.3,2
				c0,0.8-0.1,1.4-0.3,2.1c-0.2,0.6-0.5,1.1-0.9,1.6c-0.4,0.4-0.9,0.8-1.4,1c-0.6,0.2-1.2,0.3-1.9,0.3c-0.7,0-1.3-0.1-1.9-0.3
				c-0.6-0.2-1.1-0.6-1.4-1c-0.4-0.4-0.7-0.9-0.9-1.6c-0.2-0.6-0.3-1.3-0.3-2.1c0-0.8,0.1-1.4,0.3-2c0.2-0.6,0.5-1.1,0.9-1.6
				s0.9-0.8,1.4-1C338.4,234.3,339,234.2,339.7,234.2z M339.7,242.8c1,0,1.7-0.3,2.1-1c0.5-0.6,0.7-1.5,0.7-2.7c0-1.1-0.2-2-0.7-2.7
				c-0.5-0.6-1.2-1-2.1-1c-0.5,0-0.9,0.1-1.3,0.2c-0.4,0.2-0.6,0.4-0.9,0.7c-0.2,0.3-0.4,0.7-0.5,1.1c-0.1,0.5-0.2,1-0.2,1.5
				c0,0.6,0.1,1.1,0.2,1.5c0.1,0.4,0.3,0.8,0.5,1.1c0.2,0.3,0.5,0.5,0.9,0.7C338.8,242.7,339.2,242.8,339.7,242.8z"/>
			<path class="st2" d="M345.1,234.3h1.3c0.1,0,0.3,0,0.3,0.1c0.1,0.1,0.1,0.2,0.2,0.2l1.8,6.2c0.1,0.2,0.1,0.4,0.1,0.7
				c0,0.2,0.1,0.4,0.1,0.6c0.1-0.2,0.1-0.4,0.2-0.6c0.1-0.2,0.1-0.4,0.2-0.7l2-6.2c0-0.1,0.1-0.2,0.2-0.2c0.1-0.1,0.2-0.1,0.3-0.1
				h0.7c0.1,0,0.2,0,0.3,0.1c0.1,0.1,0.1,0.1,0.2,0.2l2,6.2c0.1,0.2,0.1,0.4,0.2,0.7c0.1,0.2,0.1,0.4,0.2,0.6c0-0.2,0.1-0.4,0.1-0.7
				c0.1-0.2,0.1-0.4,0.2-0.6l1.9-6.2c0-0.1,0.1-0.2,0.2-0.3c0.1-0.1,0.2-0.1,0.3-0.1h1.3l-3.1,9.6h-1.3c-0.2,0-0.3-0.1-0.3-0.3
				l-2.1-6.5c-0.1-0.1-0.1-0.3-0.1-0.4c0-0.1-0.1-0.3-0.1-0.4c0,0.1-0.1,0.3-0.1,0.4s-0.1,0.3-0.1,0.4l-2.2,6.5
				c-0.1,0.2-0.2,0.3-0.4,0.3h-1.3L345.1,234.3z"/>
			<path class="st2" d="M359.8,242.9c0-0.2,0-0.3,0.1-0.5c0.1-0.1,0.1-0.3,0.2-0.4c0.1-0.1,0.2-0.2,0.4-0.3c0.1-0.1,0.3-0.1,0.5-0.1
				c0.2,0,0.3,0,0.5,0.1c0.1,0.1,0.3,0.1,0.4,0.3s0.2,0.2,0.3,0.4c0.1,0.1,0.1,0.3,0.1,0.5c0,0.2,0,0.3-0.1,0.5
				c-0.1,0.1-0.1,0.3-0.3,0.4c-0.1,0.1-0.2,0.2-0.4,0.3c-0.1,0.1-0.3,0.1-0.5,0.1c-0.2,0-0.3,0-0.5-0.1c-0.1-0.1-0.3-0.1-0.4-0.3
				c-0.1-0.1-0.2-0.2-0.2-0.4C359.8,243.2,359.8,243.1,359.8,242.9z"/>
		</g>
	</g>
	<path class="st2" d="M442,42.3l6.5-6.5c0.6-0.6,0.6-1.5,0-2c-0.6-0.6-1.5-0.6-2,0l-6.5,6.5l-6.5-6.5c-0.6-0.6-1.5-0.6-2,0
		c-0.6,0.6-0.6,1.5,0,2l6.5,6.5l-6.5,6.5c-0.6,0.6-0.6,1.5,0,2c0.3,0.3,0.6,0.4,1,0.4s0.7-0.1,1-0.4l6.5-6.5l6.5,6.5
		c0.3,0.3,0.6,0.4,1,0.4s0.7-0.1,1-0.4c0.6-0.6,0.6-1.5,0-2L442,42.3z"/>
	<g>
		<path class="st7" d="M83,563.4c-0.2-1-0.2-1.9,0-2.9c0.3-1,0.7-1.8,1.4-2.5l7.6-7.8c0.5-0.5,1.2-0.9,1.9-1.1
			c0.7-0.2,1.4-0.2,2.1,0c0.7,0.2,1.3,0.6,1.9,1.1c0.5,0.5,0.9,1.2,1.1,1.9c0.2,0.7,0.2,1.4,0,2.1c-0.2,0.7-0.5,1.3-1.1,1.9
			l-6.7,6.8c-0.5,0.6-1.2,0.8-2,0.8s-1.4-0.3-1.9-0.8c-0.5-0.5-0.8-1.2-0.8-2c0-0.8,0.3-1.4,0.8-1.9l5.2-5.4
			c0.1-0.1,0.3-0.2,0.4-0.2c0.2,0,0.3,0,0.4,0.2l0.8,0.8c0.1,0.1,0.2,0.3,0.2,0.4s-0.1,0.3-0.2,0.4l-5.2,5.4
			c-0.1,0.1-0.1,0.2-0.1,0.3c0,0.1,0,0.2,0.1,0.3c0.1,0.1,0.2,0.1,0.3,0.1s0.2,0,0.3-0.1l6.7-6.8c0.4-0.4,0.5-0.8,0.5-1.3
			s-0.2-0.9-0.5-1.3c-0.4-0.4-0.8-0.5-1.3-0.5c-0.5,0-0.9,0.2-1.3,0.5l-7.6,7.8c-0.6,0.7-0.9,1.4-0.9,2.3c0,0.9,0.3,1.7,0.9,2.3
			c0.6,0.6,1.4,1,2.2,1s1.6-0.3,2.2-0.9l6.3-6.4c0.1-0.1,0.3-0.2,0.4-0.2c0.2,0,0.3,0.1,0.4,0.2l0.8,0.8c0.1,0.1,0.2,0.3,0.2,0.4
			s-0.1,0.3-0.2,0.4l-6.3,6.4c-0.7,0.7-1.5,1.2-2.5,1.5c-1,0.2-1.9,0.2-2.9,0c-0.9-0.3-1.8-0.7-2.5-1.5
			C83.7,565.2,83.2,564.4,83,563.4z"/>
	</g>
	<g>
		<path class="st7" d="M134.4,557.2c1.1,0.2,2,0.8,2.7,1.6c0.7,0.9,1.1,1.8,1.1,2.9c0,0.9-0.2,1.6-0.6,2.3c-0.4,0.7-1,1.3-1.7,1.7
			c-0.7,0.4-1.5,0.6-2.3,0.6H120c-0.9,0-1.8-0.2-2.6-0.7c-0.8-0.5-1.4-1.1-1.9-1.9c-0.5-0.8-0.7-1.7-0.7-2.6c0-1.1,0.3-2.1,1-3
			s1.5-1.5,2.5-1.9V556c0-1,0.3-2,0.8-2.9c0.5-0.9,1.2-1.6,2.1-2.1c0.9-0.5,1.9-0.8,2.9-0.8c1.1,0,2,0.3,2.9,0.8
			c0.9,0.5,1.6,1.2,2.1,2.1c0.6-0.4,1.2-0.6,1.9-0.6c1,0,1.8,0.3,2.5,1s1,1.5,1,2.5C134.6,556.4,134.5,556.8,134.4,557.2z"/>
	</g>
	<g>
		<path class="st2" d="M405,34.4c0.6,0,1.1,0.2,1.5,0.6c0.4,0.4,0.6,0.9,0.6,1.5v12.6c0,0.6-0.2,1.1-0.6,1.5
			c-0.4,0.4-0.9,0.6-1.5,0.6h-0.5c-0.6,0-1.1-0.2-1.5-0.6l-4.3-4.3v2.8c0,0.6-0.2,1.1-0.6,1.5c-0.4,0.4-0.9,0.6-1.5,0.6H384
			c-0.6,0-1.1-0.2-1.5-0.6c-0.4-0.4-0.6-0.9-0.6-1.5V36.5c0-0.6,0.2-1.1,0.6-1.5c0.4-0.4,0.9-0.6,1.5-0.6h12.6
			c0.6,0,1.1,0.2,1.5,0.6c0.4,0.4,0.6,0.9,0.6,1.5v2.8L403,35c0.4-0.4,0.9-0.6,1.5-0.6H405z"/>
	</g>
	<g>
		<path class="st2" d="M206.8,44.5c0,0.3-0.1,0.5-0.3,0.7c-0.2,0.2-0.5,0.3-0.7,0.3h-6v6c0,0.3-0.1,0.5-0.3,0.7
			c-0.2,0.2-0.5,0.3-0.7,0.3h-3.3c-0.3,0-0.5-0.1-0.7-0.3c-0.2-0.2-0.3-0.5-0.3-0.7v-6h-6c-0.3,0-0.5-0.1-0.7-0.3
			c-0.2-0.2-0.3-0.5-0.3-0.7v-3.3c0-0.3,0.1-0.5,0.3-0.7c0.2-0.2,0.5-0.3,0.7-0.3h6v-6c0-0.3,0.1-0.5,0.3-0.7
			c0.2-0.2,0.5-0.3,0.7-0.3h3.3c0.3,0,0.5,0.1,0.7,0.3c0.2,0.2,0.3,0.5,0.3,0.7v6h6c0.3,0,0.5,0.1,0.7,0.3c0.2,0.2,0.3,0.5,0.3,0.7
			V44.5z"/>
	</g>
	<g>
		<g>
			<path class="st7" d="M47.3,566.9c-0.5,0-1-0.2-1.3-0.6c-0.4-0.4-0.6-0.8-0.6-1.3v-11.4c0-0.5,0.2-1,0.6-1.3
				c0.4-0.4,0.8-0.6,1.3-0.6h16.4c0.5,0,1,0.2,1.3,0.6c0.4,0.4,0.6,0.8,0.6,1.3v11.4c0,0.5-0.2,1-0.6,1.3c-0.4,0.4-0.8,0.6-1.3,0.6
				H47.3z M48.3,554.7c-0.4,0.4-0.7,1-0.7,1.6c0,0.6,0.2,1.1,0.7,1.6c0.4,0.4,1,0.6,1.6,0.6s1.1-0.2,1.6-0.6c0.4-0.4,0.7-1,0.7-1.6
				c0-0.6-0.2-1.1-0.7-1.6c-0.4-0.4-1-0.6-1.6-0.6S48.7,554.2,48.3,554.7z M63.1,564.4V560l-3.5-3.5c-0.1-0.1-0.2-0.1-0.3-0.1
				c-0.1,0-0.2,0-0.3,0.1l-5.4,5.4l-2.2-2.2c-0.1-0.1-0.2-0.1-0.3-0.1c-0.1,0-0.2,0-0.3,0.1l-2.8,2.8v1.9H63.1z"/>
		</g>
	</g>
	<g>
		<g>
			<path class="st7" d="M28.2,554.4c0,0.1,0,0.2-0.1,0.3c-0.1,0.1-0.2,0.1-0.3,0.1H12.3c-0.1,0-0.2,0-0.3-0.1
				c-0.1-0.1-0.1-0.2-0.1-0.3V553c0-0.5,0.2-0.9,0.5-1.2c0.3-0.3,0.8-0.5,1.2-0.5h1.7v-1.9c0-0.1,0-0.2,0.1-0.3
				c0.1-0.1,0.2-0.1,0.3-0.1h1.5c0.1,0,0.2,0,0.3,0.1c0.1,0.1,0.1,0.2,0.1,0.3v1.9h4.7v-1.9c0-0.1,0-0.2,0.1-0.3s0.2-0.1,0.3-0.1
				h1.5c0.1,0,0.2,0,0.3,0.1c0.1,0.1,0.1,0.2,0.1,0.3v1.9h1.7c0.5,0,0.9,0.2,1.2,0.5c0.3,0.3,0.5,0.8,0.5,1.2V554.4z M12.3,556
				c-0.1,0-0.2,0-0.3,0.1c-0.1,0.1-0.1,0.2-0.1,0.3v9.5c0,0.5,0.2,0.9,0.5,1.2c0.3,0.3,0.8,0.5,1.2,0.5h12.8c0.5,0,0.9-0.2,1.2-0.5
				c0.3-0.3,0.5-0.8,0.5-1.2v-9.5c0-0.1,0-0.2-0.1-0.3c-0.1-0.1-0.2-0.1-0.3-0.1H12.3z"/>
		</g>
	</g>
</g>
</svg>
