<?xml version="1.0" encoding="utf-8"?>
<!-- Generator: Adobe Illustrator 22.1.0, SVG Export Plug-In . SVG Version: 6.00 Build 0)  -->
<svg version="1.1" id="Layer_1" xmlns="http://www.w3.org/2000/svg" xmlns:xlink="http://www.w3.org/1999/xlink" x="0px" y="0px"
	 viewBox="0 0 564.9 191.8" style="enable-background:new 0 0 564.9 191.8;" xml:space="preserve">
<style type="text/css">
	.st0{fill:none;stroke:#231F20;stroke-width:0.5;stroke-miterlimit:10;}
	.st1{fill:#FFFFFF;}
</style>
<g>
	<path class="st0" d="M152.8,13.6"/>
	<path class="st1" d="M133.3,0h-104C13.1,0,0,13.1,0,29.2v104c0,16.2,13.1,29.2,29.2,29.2h74.8l29.2,29.2v-29.2
		c16.2,0,29.2-13.1,29.2-29.2v-104C162.5,13.1,149.4,0,133.3,0z M26.2,19.2c0-2.8,2.3-5.1,5.1-5.1h14.3c2.8,0,5.1,2.3,5.1,5.1v8.2
		c0,2.8-2.3,5.1-5.1,5.1H31.3c-2.8,0-5.1-2.3-5.1-5.1V19.2z M128.9,48.7l-96,94.5c-2.5,2.5-6.7,0.7-6.7-2.8l0.2-94.5
		c0-2.2,1.8-3.9,3.9-3.9h16.4c2.2,0,3.9,1.8,3.9,3.9V83c0,3.5,4.3,5.3,6.7,2.8l42.7-42.7c0.7-0.7,1.7-1.2,2.8-1.2h23.3
		C129.7,42,131.4,46.2,128.9,48.7z"/>
	<g>
		<path class="st1" d="M182.8,20.7h2.8v23.5h-2.8V20.7z"/>
		<path class="st1" d="M192.1,20.7h2.7l14.9,19.5V20.7h2.6v23.5h-2.7l-14.9-19.5v19.5h-2.6V20.7z"/>
		<path class="st1" d="M218.7,20.7h2.7l14.9,19.5V20.7h2.6v23.5h-2.7l-14.9-19.5v19.5h-2.6V20.7z"/>
		<path class="st1" d="M245.3,20.7h14.5v2.4h-11.7v7.9h10.5v2.4h-10.5v8.5h12.2v2.4h-15V20.7z"/>
		<path class="st1" d="M265.9,20.7h6.7c2.4,0,4.4,0.6,5.9,2c1.5,1.3,2.2,3,2.2,5.1c0,1.4-0.4,2.7-1.2,3.9c-0.8,1.1-1.9,2-3.3,2.5
			l6.8,10h-3.3l-6.2-9.4c-0.1,0-0.5,0-1,0h-3.9v9.4h-2.7V20.7z M268.6,32.5h3.4c1.9,0,3.4-0.4,4.4-1.2c1-0.8,1.5-2,1.5-3.5
			c0-1.5-0.5-2.7-1.4-3.5c-1-0.8-2.3-1.2-4.2-1.2h-3.7V32.5z"/>
	</g>
	<g>
		<path class="st1" d="M182.6,56.5h16.5l26.7,75l26.7-75h15.9l-35,91.1h-16.1L182.6,56.5z"/>
		<path class="st1" d="M318.5,149.5c-8.6,0-16.5-2-23.7-5.9c-7.2-4-12.9-9.6-17.3-16.8c-4.3-7.3-6.5-15.5-6.5-24.7
			c0-8.5,2-16.3,6-23.5c4-7.2,9.6-13,16.9-17.4c7.3-4.4,15.5-6.6,24.6-6.6c8.7,0,16.7,2,23.9,5.9s12.9,9.6,17.3,16.8
			c4.3,7.3,6.5,15.5,6.5,24.7c0,8.5-2,16.3-6,23.5c-4,7.2-9.6,13-17,17.4C335.8,147.3,327.6,149.5,318.5,149.5z M318.5,136
			c5.9,0,11.3-1.4,16.1-4.2c4.8-2.8,8.7-6.8,11.6-12c2.9-5.2,4.3-11.1,4.3-17.9c0-6.3-1.3-12-4-17.2c-2.6-5.2-6.4-9.2-11.3-12.3
			c-4.9-3-10.5-4.6-16.7-4.6c-5.9,0-11.3,1.4-16.1,4.3c-4.8,2.8-8.7,6.9-11.5,12c-2.8,5.2-4.3,11.1-4.3,17.7c0,6.3,1.3,12,4,17.2
			c2.6,5.2,6.4,9.2,11.3,12.3C306.7,134.5,312.2,136,318.5,136z"/>
		<path class="st1" d="M380.9,56.5h15v91.1h-15V56.5z"/>
		<path class="st1" d="M458.8,148.9c-9.2,0-17.4-1.9-24.6-5.6c-7.2-3.8-12.9-9.1-17.1-16.2c-4.2-7-6.3-15.2-6.3-24.4
			c0-9,2-17.1,6.1-24.3c4-7.2,9.8-12.8,17.3-17c7.5-4.2,16.1-6.2,25.8-6.2c5,0,10,0.7,15,2c5.1,1.4,9.4,3.2,13.1,5.4l-2.5,12.9
			c-5-2.4-9.5-4.2-13.6-5.3c-4.1-1.1-8.3-1.7-12.4-1.7c-6.4,0-12.1,1.4-17.1,4.1c-5,2.7-8.9,6.6-11.8,11.7c-2.9,5.1-4.3,11-4.3,17.7
			c0,6.6,1.3,12.4,4,17.4c2.7,5,6.5,8.9,11.6,11.7c5.1,2.8,11,4.2,17.9,4.2c4.2,0,8.7-0.6,13.5-1.8c4.8-1.2,9.4-2.9,13.8-5l1.6,13.1
			C479.7,146.5,469.7,148.9,458.8,148.9z"/>
		<path class="st1" d="M504.7,56.5h58.4V69h-44v25.8h39.2v12.6h-39.2V135h45.8v12.6h-60.2V56.5z"/>
	</g>
</g>
</svg>
