<?xml version="1.0" encoding="utf-8"?>
<!-- Generator: Adobe Illustrator 22.1.0, SVG Export Plug-In . SVG Version: 6.00 Build 0)  -->
<svg version="1.1" id="Layer_1" xmlns="http://www.w3.org/2000/svg" xmlns:xlink="http://www.w3.org/1999/xlink" x="0px" y="0px"
	 viewBox="0 0 471.8 258" style="enable-background:new 0 0 471.8 258;" xml:space="preserve">
<style type="text/css">
	.st0{fill:#397ABE;}
	.st1{fill:#E84024;}
	.st2{fill:#2151A1;}
	.st3{fill:none;stroke:#2151A1;stroke-width:2.5601;stroke-miterlimit:10;}
	.st4{fill:none;stroke:#2151A1;stroke-width:2.5601;stroke-miterlimit:10;stroke-dasharray:13.9639,13.9639;}
	.st5{fill:none;stroke:#2151A1;stroke-width:2.5601;stroke-miterlimit:10;stroke-dasharray:11.6233,11.6233;}
	.st6{fill:none;}
</style>
<g>
	<path class="st0" d="M32.7,1.6L0,22.9L22.6,41l33-20.4L32.7,1.6z M0,59.1l32.7,21.3l22.9-19.1L22.6,41L0,59.1z M55.6,61.4
		l22.9,19.1l32.7-21.3L88.5,41L55.6,61.4z"/>
	<path class="st0" d="M111.1,22.9L78.4,1.6L55.6,20.7l33,20.4L111.1,22.9z M55.6,65.5l-22.9,19l-9.8-6.4v7.2L55.6,105l32.8-19.6
		v-7.2l-9.8,6.4L55.6,65.5z"/>
</g>
<polygon class="st1" points="386.9,82.5 386.9,20.3 441.9,0 471.8,9.6 471.8,93.2 441.9,102.2 386.9,82.5 441.9,89.1 441.9,16.7 
	406,25.1 406,74.1 386.9,82.5 "/>
<g>
	<path class="st2" d="M376.7,230.6c0-14-10.3-25.6-23.8-27.5c0.1-1.2,0.2-2.5,0.2-3.7c0-18.9-16.2-34.1-36.1-34.1
		c-6.3,0-12.2,1.5-17.3,4.2c-8.4-11.9-22-19.7-37.4-19.7c-23.8,0-43.3,18.4-45.8,42c-18.2,0.3-32.9,15.1-32.9,33.4
		c0,16.1,11.4,29.6,26.6,32.7c0.3,0.1,0.6,0.1,0.9,0.1l141.7,0.3c0.3,0,0.5,0,0.8-0.1C366.7,255.8,376.7,244.4,376.7,230.6z"/>
	<path class="st2" d="M175.3,221.9c0-20,16.1-32.9,36-36.5c2.7-25.8,24.1-43,50.2-43c16.9,0,30.7,6.6,39.8,19.6
		c4.5-2.4,11.1-3.7,17-3.7c-4.4-26.4-27-48.3-53.4-48.3c-19.6,0-36.7,11.1-46,27.7c-6-3.3-13-5.1-20.4-5.1
		c-22.8,0-41.4,17.5-41.4,39.1c0,3,0.4,5.8,1,8.6c-17.4,1.4-31.1,15.9-31.1,33.7c0,18.7,15.2,33.8,33.8,33.8h25.3
		C179.5,241.2,175.3,232,175.3,221.9z"/>
</g>
<g>
	<g>
		<path class="st3" d="M142.9,181.6c-1.8-1.1-3.6-2.3-5.4-3.5"/>
		<path class="st4" d="M126.2,170c-20.1-15.5-37.6-34.6-51.3-56.6"/>
		<path class="st3" d="M71.3,107.4c-1.1-1.8-2.1-3.7-3.1-5.6"/>
	</g>
</g>
<g>
	<g>
		<path class="st3" d="M443.3,106.8c-1.1,1.9-2.2,3.7-3.3,5.5"/>
		<path class="st5" d="M433.7,122c-16.8,24.3-38.2,44.5-62.6,59.8"/>
		<path class="st3" d="M366.1,184.9c-1.8,1.1-3.7,2.1-5.6,3.2"/>
	</g>
</g>
<g>
	<path class="st6" d="M443.3,106.8"/>
</g>
<g>
	<path class="st6" d="M68.2,101.8"/>
</g>
</svg>
