<?xml version="1.0" encoding="utf-8"?>
<!-- Generator: Adobe Illustrator 22.1.0, SVG Export Plug-In . SVG Version: 6.00 Build 0)  -->
<svg version="1.1" id="Layer_1" xmlns="http://www.w3.org/2000/svg" xmlns:xlink="http://www.w3.org/1999/xlink" x="0px" y="0px"
	 viewBox="0 0 243.4 243.4" style="enable-background:new 0 0 243.4 243.4;" xml:space="preserve">
<style type="text/css">
	.st0{fill:#FFFFFF;}
</style>
<g>
	<path class="st0" d="M121.7,243.4C54.6,243.4,0,188.8,0,121.7S54.6,0,121.7,0s121.7,54.6,121.7,121.7S188.8,243.4,121.7,243.4z
		 M121.7,18C64.5,18,18,64.5,18,121.7s46.5,103.7,103.7,103.7s103.7-46.5,103.7-103.7S178.9,18,121.7,18z"/>
	<g>
		<path class="st0" d="M121.7,141.8c-2.4,0-5.4-1.1-8.9-3.3c-2-1.1-4.9-3.1-8.6-6.1l-2.8-1.9c-22.7-16.6-38.1-28.1-46.2-34.3
			l-1.9-1.4c-1.7-1.3-2.5-3-2.5-5.3v-5.3c0-3.7,1.3-6.8,3.9-9.4c2.6-2.6,5.7-3.9,9.4-3.9h115.2c3.7,0,6.8,1.3,9.4,3.9
			c2.6,2.6,3.9,5.7,3.9,9.4v5.3c0,2.2-0.8,4-2.5,5.3l-1.4,1.1c-7.9,6.3-23.5,17.8-46.8,34.6l-2.8,1.9c-3.7,3-6.6,5-8.6,6.1
			C127.1,140.7,124.1,141.8,121.7,141.8z M189.8,106.1c-6.6,5.2-20.9,15.6-42.6,31.3l-2.8,2.2c-4.2,3.3-7.8,5.7-10.5,7.2
			c-4.4,2.6-8.5,3.9-12.2,3.9s-7.8-1.2-12.2-3.6c-2.6-1.5-6.1-3.9-10.5-7.2l-2.8-2.5c-22.3-16.2-36.5-26.7-42.6-31.3
			c-0.6-0.4-1.2-0.4-1.8-0.1s-1,0.8-1,1.5V164c0,3.7,1.3,6.8,3.9,9.4c2.6,2.6,5.7,3.9,9.4,3.9h115.2c3.7,0,6.8-1.3,9.4-3.9
			c2.6-2.6,3.9-5.7,3.9-9.4v-56.5c0-0.7-0.3-1.3-1-1.7C191,105.5,190.4,105.6,189.8,106.1z"/>
	</g>
</g>
</svg>
