<?xml version="1.0" encoding="utf-8"?>
<!-- Generator: Adobe Illustrator 22.1.0, SVG Export Plug-In . SVG Version: 6.00 Build 0)  -->
<svg version="1.1" id="Layer_1" xmlns="http://www.w3.org/2000/svg" xmlns:xlink="http://www.w3.org/1999/xlink" x="0px" y="0px"
	 viewBox="0 0 243.4 243.4" style="enable-background:new 0 0 243.4 243.4;" xml:space="preserve">
<style type="text/css">
	.st0{fill:#FFFFFF;}
</style>
<path class="st0" d="M121.7,0C54.6,0,0,54.6,0,121.7s54.6,121.7,121.7,121.7s121.7-54.6,121.7-121.7S188.8,0,121.7,0z M136.4,224.3
	v-69.5H164l4.5-34.4h-32.1V96.7c0-5.5,1-9.6,3-12.1c2.5-3,7.2-4.5,14-4.5h18.1V49.4c-6.8-1-15.6-1.5-26.5-1.5
	c-13.4,0-24.1,4-32.1,11.9s-12.1,19.1-12.1,33.4v27.2h-29v34.4h29.1v68.5C53.7,213.7,18,171.8,18,121.7C18,64.5,64.5,18,121.7,18
	s103.7,46.5,103.7,103.7C225.4,173.9,186.7,217.2,136.4,224.3z"/>
</svg>
