<?xml version="1.0" encoding="utf-8"?>
<!-- Generator: Adobe Illustrator 22.1.0, SVG Export Plug-In . SVG Version: 6.00 Build 0)  -->
<svg version="1.1" id="Layer_1" xmlns="http://www.w3.org/2000/svg" xmlns:xlink="http://www.w3.org/1999/xlink" x="0px" y="0px"
	 viewBox="0 0 1728 720" style="enable-background:new 0 0 1728 720;" xml:space="preserve">
<style type="text/css">
	.st0{fill:#2D9DD8;}
	.st1{fill:#3659A7;}
	.st2{fill:#3558A7;}
	.st3{fill:#FFFFFF;}
	.st4{fill:#60BCEA;}
	.st5{fill:#E6E7E8;}
	.st6{fill:none;stroke:#5FBDEB;stroke-width:2;stroke-linecap:round;stroke-miterlimit:10;}
	.st7{fill:none;stroke:#5FBDEB;stroke-width:2;stroke-linecap:round;stroke-miterlimit:10;stroke-dasharray:11.8602,11.8602;}
	.st8{fill:none;stroke:#5FBDEB;stroke-width:2;stroke-linecap:round;stroke-miterlimit:10;stroke-dasharray:11.9603,11.9603;}
</style>
<path class="st0" d="M1675.7,0c-0.9,0.1-1.9,0.2-2.8,0.2h-1428c-1,0-2-0.1-3-0.2H0v720h1728V0H1675.7z"/>
<path class="st1" d="M1627.6,698.8h-327.8c-11.2,0-17.9-12.5-11.6-21.8l28.2-41.6c2.6-3.8,6.9-6.1,11.6-6.1h271.4
	c4.6,0,9,2.3,11.6,6.1l28.2,41.6C1645.5,686.2,1638.8,698.8,1627.6,698.8z"/>
<path class="st2" d="M1660.7,582.8h-376.3c-8,0-14.5-6.5-14.5-14.5V335.8c0-8,6.5-14.5,14.5-14.5h376.3c8,0,14.5,6.5,14.5,14.5
	v232.6C1675.2,576.4,1668.7,582.8,1660.7,582.8z"/>
<path class="st3" d="M1648.8,562.1h-352.5c-2.9,0-5.2-2.3-5.2-5.2V347.3c0-2.9,2.3-5.2,5.2-5.2h352.5c2.9,0,5.2,2.3,5.2,5.2v209.6
	C1654,559.8,1651.7,562.1,1648.8,562.1z"/>
<g>
	<path class="st2" d="M1178.7,454.1l-58.7-16.2c-4.3-1.2-8.8,1.3-9.9,5.6l-32,116.2c-1.2,4.3,1.3,8.8,5.6,9.9l58.7,16.2
		c4.3,1.2,8.8-1.3,9.9-5.6l32-116.2C1185.5,459.7,1183,455.3,1178.7,454.1z M1153.7,538.7l-4.3,15.6l-2.4,8.7
		c-0.9,3.3-4.3,5.2-7.6,4.3l-43.9-12.1c-3.3-0.9-5.2-4.3-4.3-7.6l14.8-53.5l3.4-12.5l6.9-25c0.9-3.3,4.3-5.2,7.6-4.3l43.9,12.1
		c3.3,0.9,5.2,4.3,4.3,7.6L1153.7,538.7z"/>
	<path class="st3" d="M1167.8,464.4l-43.9-12.1c-3.3-0.9-6.7,1-7.6,4.3l-6.9,25l34.7,9.6c1.6,0.4,2.5,2.1,2.1,3.7l-1.9,6.7
		c-0.4,1.6-2.1,2.5-3.7,2.1l-34.7-9.6l-14.8,53.5c-0.9,3.3,1,6.7,4.3,7.6l43.9,12.1c3.3,0.9,6.7-1,7.6-4.3l2.4-8.7l-34.2-9.4
		c-1.9-0.5-3-2.4-2.4-4.3l2.4-8.9c0.5-1.9,2.4-3,4.3-2.4l34.2,9.4l18.4-66.7C1173.1,468.7,1171.1,465.3,1167.8,464.4z"/>
	<path class="st4" d="M1144.3,501.6l1.9-6.7c0.4-1.6-0.5-3.2-2.1-3.7l-34.7-9.6l-3.4,12.5l34.7,9.6
		C1142.3,504.1,1143.9,503.2,1144.3,501.6z"/>
	<path class="st4" d="M1115.3,531.8l-2.4,8.9c-0.5,1.9,0.6,3.8,2.4,4.3l34.2,9.4l4.3-15.6l-34.2-9.4
		C1117.7,528.8,1115.8,529.9,1115.3,531.8z"/>
</g>
<path class="st1" d="M1148.6,553.9c0,0-26.5,0-40.1,40.6c0,0-20.6,56-68.3,56c-23.4,0-54.2-19.5-79.3-42.5
	c-27.1-24.8-64.7-36.4-80.9-40.8c24.2-17.9,41.7-44.3,47.9-74.9h22.2c0-68.3-59.8-148.4-133.5-148.4c-0.3,0-2.1,0-9.8,0
	c-68.3,0-123.7,55.4-123.7,123.7c0,49.7,29.4,92.6,71.7,112.2c-52.4,26.7-88,79-88,139.1h450.6c0,0,31.9-31.9,50.1-92.5
	C1167.4,626.3,1184.5,553.9,1148.6,553.9z M964.1,620.2c0.2,0.3,0.4,0.5,0.6,0.8C964.5,620.7,964.3,620.4,964.1,620.2z"/>
<path class="st4" d="M1296.3,342.1c-2.9,0-5.2,2.3-5.2,5.2v209.6c0,2.9,2.3,5.2,5.2,5.2h70.8v-220H1296.3z M1363.2,426.8h-40.5
	c-1.6,0-2.8,1.3-2.8,2.8v12c0,1.6,1.3,2.8,2.8,2.8h40.5v110.7c0,1.4-1.1,2.5-2.5,2.5H1297c-1.4,0-2.5-1.1-2.5-2.5v-88.9h38.4
	c1.6,0,2.8-1.3,2.8-2.8v-3.5c0-1.6-1.3-2.8-2.8-2.8h-38.4v-43.4h39.8c1.7,0,3.1-1.4,3.1-3.1v-4.4c0-1.7-1.4-3.1-3.1-3.1h-39.8v-25.7
	c0-1.4,1.1-2.5,2.5-2.5h63.7c1.4,0,2.5,1.1,2.5,2.5V426.8z"/>
<path class="st5" d="M1291.1,356.5v-9.2c0-2.9,2.3-5.2,5.2-5.2h352.5c2.9,0,5.2,2.3,5.2,5.2v9.2H1291.1z"/>
<path class="st0" d="M1355.1,718.7H1728c0-94-77.8-170.7-175.8-176c49.3-14.3,85.3-59.7,85.3-113.6c0-65.3-53-118.3-118.3-118.3
	c-7.4,0-9.1,0-9.4,0c-70.5,0-127.7,76.6-127.7,141.9h21.2c9.9,48.7,49.7,86.6,99.4,93.5C1418.4,563.2,1355.1,633.9,1355.1,718.7z"/>
<g>
	<path class="st4" d="M1317.4,0.2c-0.4,4.8,0.2,9.6,1.9,14.3c2.1,5.9,5.5,10.9,10.4,15.1c6.4,5.5,13.8,8.3,22.1,8.5
		c8.3,0.1,15.7-2.3,22.2-7.3c1.6,2.9,3.7,5.4,6.2,7.5c5.6,4.8,12,6.9,19.2,6.3c7.2-0.5,13.2-3.6,18-9.2c3.5-4,5.5-8.7,6.2-13.9
		c7.5,1.4,15,0.8,22.5-1.7c7.5-2.5,13.8-6.8,19-12.8c1.8-2.1,3.4-4.4,4.8-6.7H1317.4z"/>
</g>
<g>
	<path class="st4" d="M1106.7,309c1.5,0,2.8,0.4,4,1.4c1.2,0.9,1.9,2.1,2.2,3.6c0.2,1.1,0.2,2.2-0.2,3.3c-0.3,1.1-0.9,2-1.8,2.7
		c-0.8,0.7-1.8,1.2-2.9,1.5l-17.8,3.8c-1.3,0.3-2.5,0.2-3.7-0.2c-1.2-0.4-2.2-1.1-3.1-2c-0.9-0.9-1.4-2-1.7-3.3
		c-0.3-1.5-0.2-2.9,0.4-4.3c0.6-1.4,1.5-2.5,2.8-3.2l-0.1-0.4c-0.3-1.4-0.2-2.7,0.2-4.1s1.2-2.5,2.2-3.4c1-0.9,2.3-1.6,3.7-1.9
		c1.4-0.3,2.8-0.2,4.1,0.2c1.3,0.5,2.5,1.2,3.4,2.2c0.7-0.7,1.5-1.1,2.4-1.3c1.3-0.3,2.5-0.1,3.6,0.7c1.1,0.7,1.8,1.7,2.1,3
		C1106.8,307.8,1106.8,308.4,1106.7,309z"/>
</g>
<g>
	<path class="st4" d="M912.8,28.7c6.5-0.9,12.6,0.4,18.2,3.8c5.7,3.4,9.6,8.3,11.8,14.6c1.7,4.8,2.1,9.7,1.1,14.5
		c-0.9,4.9-3,9.2-6.3,12.9c-3.2,3.8-7.3,6.5-12.1,8.1l-75.9,26.4c-5.4,1.9-10.8,2.3-16.3,1.1c-5.5-1.1-10.3-3.5-14.6-7.1
		c-4.3-3.6-7.3-8.1-9.2-13.5c-2.2-6.3-2.3-12.7-0.4-19.2c1.9-6.5,5.4-11.7,10.5-15.8l-0.6-1.7c-2.1-5.9-2.5-11.9-1.3-18.1
		c1.2-6.1,3.8-11.5,7.9-16.3c4.1-4.7,9.1-8.1,15.1-10.2c6-2.1,12-2.5,18.2-1.2c6.1,1.3,11.5,3.9,16.1,7.8c2.5-3.4,5.8-5.7,9.8-7.1
		c5.5-1.9,10.9-1.6,16,0.9c5.2,2.5,8.7,6.5,10.7,12C912.4,23.5,912.8,26.1,912.8,28.7z"/>
</g>
<g>
	<path class="st4" d="M1119.4,170.5c3.8,1,6.8,3,9.2,6.2c2.3,3.1,3.4,6.7,3.2,10.7c-0.2,3-1,5.8-2.6,8.2c-1.6,2.5-3.7,4.4-6.3,5.7
		s-5.4,1.9-8.5,1.8l-47.6-2.4c-3.4-0.2-6.4-1.2-9.2-3c-2.8-1.8-4.9-4.2-6.4-7.1c-1.5-2.9-2.2-6.1-2.1-9.4c0.2-4,1.6-7.5,4-10.6
		c2.5-3.1,5.6-5.2,9.3-6.3l0.1-1c0.2-3.7,1.3-7.1,3.3-10.2c2-3.1,4.7-5.5,8-7.2c3.3-1.7,6.8-2.4,10.6-2.3c3.8,0.2,7.2,1.3,10.3,3.4
		c3.1,2.1,5.5,4.7,7.1,7.9c2.1-1.3,4.5-1.8,7-1.7c3.5,0.2,6.3,1.5,8.6,4.1c2.3,2.5,3.4,5.5,3.2,9
		C1120.4,167.6,1120,169.1,1119.4,170.5z"/>
</g>
<g>
	<path class="st4" d="M1071.1,278.5c1.5-1.3,3.3-1.8,5.3-1.6c2,0.2,3.6,1.1,4.9,2.6c1.3,1.5,1.8,3.3,1.6,5.3c-0.2,2-1.1,3.6-2.6,4.9
		c-1.5,1.3-3.3,1.8-5.3,1.6c-2-0.2-3.6-1.1-4.9-2.6c-0.4-0.4-0.6-0.9-0.9-1.3l-9,1.2c-0.3,1.6-1.2,3-2.5,4.1
		c-1.5,1.3-3.3,1.8-5.3,1.6c-2-0.2-3.6-1.1-4.9-2.6c-1.3-1.5-1.8-3.3-1.6-5.3c0.2-2,1.1-3.6,2.6-4.9c1.3-1.1,2.8-1.6,4.5-1.7
		l2.8-8.6c-0.4-0.3-0.8-0.7-1.1-1.1c-1.3-1.5-1.8-3.3-1.6-5.3c0.2-2,1.1-3.6,2.6-4.9c1.5-1.3,3.3-1.8,5.3-1.6c2,0.2,3.6,1.1,4.9,2.6
		c1.3,1.5,1.8,3.3,1.6,5.3c-0.2,2-1.1,3.6-2.6,4.9c-1.3,1.1-2.8,1.6-4.5,1.7l-2.8,8.6c0.8,0.7,1.5,1.5,2,2.4l9-1.2
		C1068.9,280.9,1069.8,279.6,1071.1,278.5z"/>
</g>
<g>
	<path class="st4" d="M1224.9,119.6c0.4-0.1,0.7,0,1.1,0.1c0.4,0.2,0.6,0.5,0.8,0.8l3.3,7.8c0.1,0.3,0.2,0.7,0.1,1
		c-0.1,0.3-0.3,0.7-0.6,0.9l-4.2,3.4c1.3,2.7,2.9,5.1,5.1,7.3c2.1,2.1,4.5,3.8,7.3,5.1l3.4-4.2c0.3-0.3,0.6-0.5,0.9-0.6
		c0.3-0.1,0.7-0.1,1,0.1l7.8,3.3c0.4,0.1,0.7,0.4,0.8,0.8c0.2,0.4,0.2,0.7,0.1,1.1l-1.7,7.3c0,0.4-0.2,0.7-0.6,1
		c-0.3,0.2-0.7,0.3-1,0.3c-5.9,0-11.3-1.5-16.3-4.4c-4.9-2.9-8.8-6.8-11.6-11.6c-2.9-5-4.4-10.5-4.4-16.3c0-0.4,0.1-0.7,0.3-1
		s0.6-0.5,1-0.6L1224.9,119.6z"/>
</g>
<g>
	<path class="st4" d="M1128.4,241c0.5,0.1,0.9,0.3,1.1,0.6c0.3,0.4,0.4,0.8,0.4,1.2c0,6.8-1.7,13.1-5.1,18.9
		c-3.3,5.6-7.8,10.1-13.5,13.5c-5.8,3.4-12.1,5.1-18.9,5.1c-0.4,0-0.8-0.1-1.2-0.4c-0.4-0.3-0.6-0.6-0.6-1.1l-1.9-8.4
		c-0.1-0.4-0.1-0.9,0.2-1.3s0.5-0.7,1-0.9l9-3.9c0.4-0.2,0.8-0.2,1.2-0.1c0.4,0.1,0.8,0.3,1.1,0.6l4,4.8c3.2-1.5,6-3.4,8.4-5.9
		c2.4-2.5,4.4-5.3,5.8-8.4l-4.8-4c-0.3-0.3-0.5-0.7-0.6-1.1c-0.1-0.4-0.1-0.8,0.1-1.2l3.9-9c0.2-0.4,0.5-0.8,0.9-1
		c0.4-0.2,0.9-0.3,1.3-0.2L1128.4,241z"/>
</g>
<g>
	<path class="st4" d="M1156.8,351.7c0.4,0,0.7,0.1,0.9,0.5c0.2,0.4,0.2,0.7,0,1l-10.2,14.5c-0.2,0.2-0.4,0.4-0.8,0.4
		c-0.3,0-0.6-0.1-0.8-0.3l-3.6-4.1l-3.6,1.7c-0.3,0.1-0.5,0.1-0.8,0c-0.3-0.1-0.4-0.3-0.5-0.6c-0.1-0.2-0.1-0.5,0.1-0.8l1.4-2.9
		l13.9-6.5c0.1-0.1,0.2-0.2,0.1-0.3c-0.1-0.1-0.2-0.2-0.3-0.2l-14.9,4.2l-3.1-3.5c-0.3-0.3-0.3-0.7-0.2-1c0.1-0.4,0.4-0.6,0.9-0.6
		L1156.8,351.7z"/>
</g>
<g>
	<path class="st4" d="M1362.1,46.2c2,0,3.5,0.9,4.5,2.7c1,1.8,0.9,3.6-0.3,5.3l-54.2,72.1c-0.9,1.2-2.2,1.9-3.9,1.9
		c-1.7,0.1-2.9-0.5-3.8-1.8l-17.9-21.4l-18.8,8.1c-1.4,0.7-2.8,0.6-4.1,0c-1.3-0.7-2.2-1.6-2.7-2.9c-0.5-1.3-0.4-2.6,0.4-4.1
		l7.6-14.6l72-30.9c0.6-0.3,0.8-0.8,0.5-1.5c-0.3-0.7-0.7-1-1.4-0.9l-76.5,19l-15.2-18.1c-1.3-1.6-1.6-3.4-0.7-5.3
		c0.8-1.9,2.3-2.8,4.5-2.8L1362.1,46.2z"/>
</g>
<g>
	<path class="st4" d="M917.5,123.7c1.1-0.1,1.9,0.3,2.5,1.2c0.5,0.9,0.5,1.9-0.1,2.8l-7,10.2l-40.8-6c-0.4,0-0.6,0.1-0.7,0.5
		c-0.1,0.4,0,0.6,0.4,0.7l39,12.4l4.7,7.2c0.5,0.7,0.6,1.4,0.4,2.1c-0.2,0.7-0.6,1.2-1.2,1.6c-0.6,0.4-1.3,0.5-2.1,0.2l-10.2-3.2
		l-8.2,12c-0.4,0.7-1,1.1-1.9,1.1c-0.9,0.1-1.6-0.2-2.1-0.8l-31.9-34.7c-0.7-0.8-0.9-1.7-0.4-2.7c0.4-1,1.2-1.5,2.2-1.6L917.5,123.7
		z"/>
</g>
<g>
	<path class="st4" d="M959.9,203.1c-1-0.5-1.7-1.2-2.1-2.3c-0.4-1-0.3-2.1,0.1-3.1l10.2-21.8c0.5-1,1.2-1.7,2.3-2.1
		c1-0.4,2.1-0.3,3.1,0.1l31.6,14.7c1,0.5,1.7,1.2,2.1,2.3s0.3,2.1-0.1,3.1l-10.2,21.8c-0.5,1-1.2,1.7-2.3,2.1
		c-1,0.4-2.1,0.3-3.1-0.1L959.9,203.1z M992.5,212.4l4-8.5l-3.6-9.8c-0.1-0.2-0.2-0.4-0.5-0.5s-0.5-0.1-0.7-0.1l-15.1,5.5l-2.3-6.2
		c-0.1-0.2-0.2-0.4-0.5-0.5c-0.3-0.1-0.5-0.1-0.7-0.1l-8,2.9l-1.7,3.6L992.5,212.4z M972.8,180.3c-1.2,0.4-2.1,1.2-2.7,2.4
		c-0.5,1.2-0.6,2.4-0.1,3.6c0.4,1.2,1.2,2.1,2.4,2.7c1.2,0.5,2.4,0.6,3.6,0.1c1.2-0.4,2.1-1.2,2.7-2.4c0.5-1.2,0.6-2.4,0.1-3.6
		s-1.2-2.1-2.4-2.7C975.2,179.9,974.1,179.9,972.8,180.3z"/>
</g>
<g>
	<path class="st4" d="M790.3,10.1l-38.5-9.9h-52.8l-13.1,50.9c-0.7,2.5-0.3,4.9,1,7.1c1.3,2.2,3.2,3.7,5.8,4.3l78.8,20.4
		c2.5,0.7,4.9,0.3,7.1-1c2.2-1.3,3.7-3.2,4.3-5.8L797,21.6c0.7-2.5,0.3-4.9-1-7.1C794.7,12.2,792.8,10.8,790.3,10.1z M707.5,11.4
		c0.8-2.9,2.4-5.1,5.1-6.7c2.6-1.5,5.4-1.9,8.3-1.2s5.1,2.4,6.7,5.1c1.5,2.6,1.9,5.4,1.2,8.3c-0.8,2.9-2.4,5.1-5.1,6.7
		c-2.6,1.5-5.4,1.9-8.3,1.2s-5.1-2.4-6.7-5.1C707.1,17.1,706.7,14.3,707.5,11.4z M771.6,70l-72.8-18.8l2.3-9.1L718.3,32
		c0.5-0.3,1-0.3,1.7-0.2c0.6,0.2,1.1,0.5,1.4,1l7.9,13.4L761.7,27c0.5-0.3,1-0.3,1.7-0.2c0.6,0.2,1.1,0.5,1.4,1l12.4,21L771.6,70z"
		/>
</g>
<g>
	<path class="st4" d="M1174.5,304.4c-0.8,1-1.8,1.6-3.1,1.7c-1.3,0.1-2.4-0.2-3.4-1l-21.5-17.1c-1-0.8-1.6-1.8-1.7-3.1
		c-0.1-1.3,0.2-2.4,1-3.4l24.8-31.1c0.8-1,1.8-1.6,3.1-1.7c1.3-0.1,2.4,0.2,3.4,1l21.5,17.1c1,0.8,1.6,1.8,1.7,3.1
		c0.1,1.3-0.2,2.4-1,3.4L1174.5,304.4z M1152.7,284c0.2,1.5,0.8,2.7,2,3.6c1.1,0.9,2.5,1.3,3.9,1.1c1.5-0.2,2.7-0.8,3.6-2
		c0.9-1.1,1.3-2.5,1.1-3.9c-0.2-1.5-0.8-2.7-2-3.6c-1.1-0.9-2.5-1.3-3.9-1.1s-2.7,0.8-3.6,2C1152.9,281.2,1152.5,282.5,1152.7,284z
		 M1193.5,270.7l-8.4-6.7l-11.8,1.3c-0.3,0-0.5,0.2-0.7,0.4c-0.2,0.2-0.3,0.5-0.3,0.8l2.1,18.3l-7.5,0.9c-0.3,0-0.5,0.2-0.7,0.4
		c-0.2,0.2-0.3,0.5-0.3,0.8l1.1,9.7l3.6,2.9L1193.5,270.7z"/>
</g>
<g>
	<path class="st4" d="M1173.7,153.7c0.6,0.4,1.3,0.6,2.1,0.4c0.7-0.1,1.3-0.5,1.7-1.2l8.7-12.9l31.1,20.9c0.6,0.4,1,1,1.2,1.7
		c0.1,0.7,0,1.4-0.4,2.1l-21.4,31.8c-0.4,0.6-1,1-1.7,1.2c-0.7,0.1-1.4,0-2.1-0.4l-43.9-29.6c-0.6-0.4-1-1-1.2-1.7
		c-0.1-0.7,0-1.4,0.4-2.1l12.8-18.9L1173.7,153.7z M1182.6,137.7c-0.6-0.4-1.3-0.6-2.1-0.4l-15.5,3c-0.7,0.1-1.3,0.5-1.7,1.2
		l-0.4,0.6l12.1,8.2l8.2-12.1L1182.6,137.7z M1187.3,154.1c-0.3-0.2-0.7-0.3-1-0.2c-0.4,0.1-0.7,0.3-0.9,0.6l-10.7,15.9
		c-0.2,0.3-0.3,0.7-0.2,1c0.1,0.4,0.3,0.7,0.6,0.9l0.8,0.5c0.3,0.2,0.7,0.3,1,0.2c0.4-0.1,0.7-0.3,0.9-0.6l10.7-15.9
		c0.2-0.3,0.3-0.7,0.2-1c-0.1-0.4-0.3-0.7-0.6-0.9L1187.3,154.1z M1194.1,158.7l-0.8-0.5c-0.3-0.2-0.7-0.3-1-0.2
		c-0.4,0.1-0.7,0.3-0.9,0.6l-10.7,15.9c-0.2,0.3-0.3,0.7-0.2,1c0.1,0.4,0.3,0.7,0.6,0.9l0.8,0.5c0.3,0.2,0.7,0.3,1,0.2
		c0.4-0.1,0.7-0.3,0.9-0.6l10.7-15.9c0.2-0.3,0.3-0.7,0.2-1C1194.6,159.2,1194.4,158.9,1194.1,158.7z M1200.1,162.7l-0.8-0.5
		c-0.3-0.2-0.7-0.3-1-0.2c-0.4,0.1-0.7,0.3-0.9,0.6l-10.7,15.9c-0.2,0.3-0.3,0.7-0.2,1c0.1,0.4,0.3,0.7,0.6,0.9l0.8,0.5
		c0.3,0.2,0.7,0.3,1,0.2c0.4-0.1,0.7-0.3,0.9-0.6l10.7-15.9c0.2-0.3,0.3-0.7,0.2-1C1200.7,163.3,1200.5,163,1200.1,162.7z"/>
</g>
<g>
	<path class="st4" d="M1149.6,219c0-3,1-5.8,3.1-8.4c2.1-2.5,4.9-4.6,8.4-6c3.5-1.5,7.4-2.2,11.5-2.2c4.2,0,8,0.7,11.5,2.2
		c3.5,1.5,6.3,3.5,8.4,6c2.1,2.5,3.1,5.3,3.1,8.4c0,1.9-0.4,3.7-1.2,5.4c-0.8,1.7-2,3.3-3.5,4.7c0.3,1.9,0.8,3.5,1.5,4.7
		c0.4,0.7,1.1,1.5,2.1,2.3l0.6,0.6c0.4,0.4,0.5,0.7,0.5,0.9s-0.2,0.4-0.4,0.5c-0.2,0.1-0.4,0.2-0.6,0.2c-4.3-0.4-8.1-1.9-11.4-4.5
		c-3.4,1.3-6.9,1.9-10.7,1.9c-4.2,0-8-0.7-11.6-2.2c-3.5-1.5-6.4-3.5-8.4-6C1150.6,224.9,1149.6,222.1,1149.6,219z"/>
</g>
<g>
	<path class="st4" d="M1077.2,131.9c-4.3,3.5-9.7,5.9-16.2,7.2c-6.5,1.3-13.2,1.2-20.2-0.2c-6.4-1.3-12.1-3.6-17.3-6.9
		c-6.3,3.2-13.2,4.4-20.6,3.6c-0.4-0.1-0.7-0.2-1-0.5c-0.3-0.2-0.4-0.6-0.4-0.9c0-0.4,0.4-0.8,1.1-1.3l1.3-0.7
		c1.9-1.1,3.3-2.2,4.3-3.2c1.6-1.8,3-4.3,4.2-7.4c-2-2.9-3.4-6-4.2-9.1c-0.8-3.1-0.9-6.3-0.2-9.4c1.1-5.1,3.8-9.4,8.1-12.9
		c4.4-3.5,9.8-5.9,16.2-7.2c6.4-1.3,13.1-1.2,20.1,0.2c7,1.4,13.2,4,18.6,7.7c5.4,3.7,9.4,8.1,12,13c2.6,5,3.4,10,2.3,15.1
		C1084.3,124,1081.6,128.3,1077.2,131.9z"/>
</g>
<g>
	<path class="st4" d="M1126.2,350.5c-1,1.7-2.5,3.2-4.5,4.4c-2,1.2-4.2,2-6.7,2.4c-2.3,0.4-4.5,0.3-6.6-0.2
		c-1.7,1.8-3.8,3.1-6.4,3.8c-0.1,0-0.3,0-0.4,0c-0.1,0-0.2-0.1-0.3-0.3c-0.1-0.1,0-0.3,0.2-0.6l0.3-0.4c0.5-0.6,0.8-1.1,1-1.6
		c0.3-0.8,0.5-1.8,0.5-3c-1-0.7-1.9-1.6-2.5-2.5c-0.7-0.9-1.1-2-1.2-3.1c-0.3-1.8,0.1-3.6,1.1-5.3c1-1.7,2.5-3.2,4.5-4.4
		c2-1.2,4.2-2,6.7-2.4c2.5-0.4,4.9-0.3,7.1,0.3c2.3,0.6,4.1,1.5,5.6,2.8c1.5,1.3,2.4,2.9,2.7,4.7
		C1127.5,347,1127.2,348.8,1126.2,350.5z"/>
</g>
<g>
	<path class="st4" d="M640.3,18c3.2,0.1,5.9-1.1,8.2-3.4l14.1-14.4H649l-7.5,7.6c-0.3,0.4-0.7,0.6-1.1,0.6c-0.5,0-0.9-0.2-1.2-0.5
		c-0.4-0.4-0.5-0.8-0.5-1.4c0.1-0.6,0.2-1,0.5-1.4l4.8-4.9h-13.1c-1.2,1.8-1.8,3.9-1.9,6.2c-0.1,3.2,1,5.9,3.2,8.2
		C634.4,16.8,637.1,18,640.3,18z"/>
	<path class="st4" d="M665.3,0.2l-19.9,20.3c-2.5,2.6-5.6,3.9-9.2,3.9s-6.7-1.3-9.3-4c-2.6-2.7-3.8-5.9-3.8-9.7c0-3.8,1.3-7,3.9-9.7
		l0.8-0.8H616c-0.7,1.4-1.3,2.9-1.7,4.5c-1.1,4-1.1,8-0.1,12c1,4,2.9,7.5,5.7,10.4c2.9,3,6.3,5.1,10.3,6.1c3.9,1.1,7.9,1.1,11.9,0.1
		c4-1,7.4-3,10.3-6l26-26.6c0.2-0.2,0.3-0.3,0.4-0.5H665.3z"/>
</g>
<g>
	<path class="st4" d="M968.5,64.2c-1-4-1-8,0.1-12c1.1-4,3-7.4,6-10.3l31.6-32.5c2.2-2.2,4.8-3.7,7.8-4.5c3-0.8,5.9-0.8,8.8,0
		c2.9,0.8,5.5,2.3,7.7,4.5s3.7,4.8,4.5,7.8c0.8,3,0.8,5.9,0,8.9c-0.8,3-2.2,5.6-4.5,7.8l-27.6,28.2c-2.2,2.3-4.9,3.4-8.2,3.4
		c-3.2-0.1-5.9-1.2-8.1-3.5c-2.2-2.3-3.2-5-3.2-8.2c0.1-3.2,1.2-5.9,3.4-8.1l21.6-22.2c0.5-0.4,1.1-0.6,1.7-0.7
		c0.7-0.1,1.2,0.2,1.7,0.7l3.5,3.3c0.5,0.5,0.8,1.1,0.8,1.7c0,0.7-0.3,1.2-0.8,1.7l-21.7,22.2c-0.3,0.4-0.5,0.9-0.5,1.4
		c0,0.6,0.1,1,0.5,1.4c0.4,0.4,0.8,0.5,1.2,0.5s0.8-0.2,1.1-0.6l27.6-28.1c1.5-1.6,2.3-3.5,2.3-5.6s-0.7-3.9-2.2-5.4
		c-1.5-1.5-3.2-2.3-5.2-2.3s-3.8,0.8-5.3,2.3l-31.7,32.3c-2.6,2.7-3.9,6-3.9,9.7c0,3.8,1.3,7,3.8,9.7c2.6,2.7,5.7,4,9.3,4
		c3.6,0,6.7-1.3,9.2-3.9l26-26.6c0.5-0.5,1.1-0.8,1.7-0.8s1.2,0.3,1.7,0.8l3.5,3.3c0.5,0.5,0.8,1.1,0.8,1.7c0,0.7-0.3,1.2-0.8,1.7
		l-26,26.6c-2.9,3-6.4,5-10.3,6c-4,1-7.9,1-11.9-0.1c-3.9-1.1-7.3-3.1-10.3-6.1C971.4,71.7,969.5,68.2,968.5,64.2z"/>
</g>
<g>
	<path class="st4" d="M1053,245.1c-2.1,0.1-4.1-0.3-5.9-1.2c-1.9-0.9-3.4-2.2-4.5-4l-12.9-18.7c-0.9-1.3-1.4-2.7-1.5-4.3
		c-0.1-1.5,0.2-3,0.9-4.4c0.7-1.4,1.7-2.5,3-3.4c1.3-0.9,2.7-1.4,4.3-1.4c1.5-0.1,3,0.2,4.4,0.9c1.4,0.7,2.5,1.6,3.4,3l11.2,16.4
		c0.9,1.3,1.2,2.8,0.9,4.4c-0.3,1.6-1.2,2.8-2.5,3.6c-1.3,0.8-2.8,1.1-4.3,0.8c-1.6-0.3-2.8-1.2-3.7-2.5l-8.8-12.8
		c-0.1-0.3-0.2-0.6-0.2-0.9c0-0.3,0.2-0.6,0.5-0.8l2-1.4c0.3-0.2,0.6-0.3,0.9-0.2c0.3,0.1,0.6,0.2,0.8,0.5l8.8,12.9
		c0.2,0.2,0.4,0.3,0.7,0.4c0.3,0.1,0.5,0,0.7-0.1c0.2-0.1,0.3-0.3,0.4-0.5s0-0.4-0.2-0.6l-11.2-16.4c-0.6-0.9-1.5-1.5-2.5-1.7
		c-1-0.2-2,0-2.9,0.5c-0.9,0.6-1.4,1.4-1.6,2.4c-0.2,1,0,1.9,0.6,2.8l12.9,18.8c1.1,1.6,2.6,2.5,4.4,2.9c1.9,0.4,3.6,0,5.1-1
		c1.6-1,2.5-2.4,2.9-4.2c0.4-1.8,0-3.4-1-4.9l-10.6-15.4c-0.2-0.3-0.3-0.6-0.2-0.9c0.1-0.3,0.2-0.6,0.5-0.8l2-1.4
		c0.3-0.2,0.6-0.3,0.9-0.2c0.3,0.1,0.6,0.2,0.8,0.5l10.6,15.4c1.2,1.7,1.9,3.6,2,5.7s-0.3,4-1.2,5.8c-0.9,1.8-2.2,3.3-4,4.5
		C1057,244.4,1055.1,245,1053,245.1z"/>
</g>
<g>
	<path class="st4" d="M1149.6,394.4c-1.2,0.5-2.4,0.6-3.7,0.4c-1.3-0.2-2.4-0.6-3.4-1.4l-11.1-8.4c-0.8-0.6-1.3-1.3-1.7-2.2
		c-0.4-0.9-0.5-1.8-0.3-2.7c0.1-0.9,0.5-1.8,1.1-2.5c0.6-0.8,1.3-1.3,2.2-1.7c0.9-0.3,1.8-0.5,2.7-0.3c0.9,0.1,1.8,0.5,2.6,1.1
		l9.7,7.4c0.8,0.6,1.2,1.4,1.4,2.4c0.1,1-0.1,1.9-0.8,2.6c-0.6,0.7-1.4,1.2-2.4,1.3c-1,0.1-1.8-0.1-2.6-0.7l-7.6-5.8
		c-0.1-0.1-0.2-0.3-0.3-0.5c0-0.2,0-0.4,0.1-0.6l0.9-1.2c0.1-0.2,0.3-0.3,0.5-0.3c0.2,0,0.4,0,0.6,0.2l7.6,5.8
		c0.1,0.1,0.3,0.1,0.5,0.1c0.2,0,0.3-0.1,0.4-0.2c0.1-0.1,0.1-0.3,0.1-0.4c0-0.1-0.1-0.2-0.2-0.3l-9.7-7.4c-0.6-0.4-1.2-0.6-1.8-0.5
		c-0.6,0.1-1.2,0.4-1.6,0.9c-0.4,0.5-0.6,1.1-0.5,1.7c0.1,0.6,0.4,1.1,0.9,1.5l11.1,8.5c0.9,0.7,2,1,3.1,0.8
		c1.2-0.1,2.1-0.7,2.8-1.5c0.7-0.9,1-1.9,0.9-3c-0.1-1.1-0.7-2-1.6-2.7l-9.1-6.9c-0.2-0.1-0.3-0.3-0.3-0.5c0-0.2,0-0.4,0.2-0.6
		l0.9-1.2c0.1-0.2,0.3-0.3,0.5-0.3c0.2,0,0.4,0,0.6,0.2l9.1,6.9c1,0.8,1.8,1.8,2.2,2.9c0.5,1.2,0.6,2.4,0.4,3.6
		c-0.2,1.2-0.7,2.4-1.5,3.4C1151.8,393.3,1150.8,394,1149.6,394.4z"/>
</g>
<g>
	<path class="st4" d="M1150,326.8c0.3,0.4,0.3,0.8,0.3,1.2c-0.1,0.4-0.3,0.8-0.7,1l-8.2,5.5c-0.4,0.3-0.8,0.3-1.2,0.3
		c-0.4-0.1-0.8-0.3-1.1-0.7l-0.2-0.3c-0.3-0.4-0.3-0.8-0.3-1.2l0.9-4.7l-1.8,1.2c-0.4,0.3-0.8,0.3-1.2,0.3c-0.4-0.1-0.8-0.3-1-0.7
		l-5.5-8.2c-0.3-0.4-0.3-0.8-0.3-1.2c0.1-0.4,0.3-0.8,0.7-1.1l8.2-5.5c0.4-0.3,0.8-0.3,1.2-0.3c0.4,0.1,0.8,0.3,1.1,0.7l5.5,8.2
		c0.3,0.4,0.3,0.8,0.3,1.2c-0.1,0.4-0.3,0.8-0.7,1.1l-1.8,1.2l4.7,0.9c0.4,0.1,0.8,0.3,1,0.7L1150,326.8z"/>
</g>
<g>
	<path class="st4" d="M941.5,124.3c1.1-0.3,2.1-0.2,3.1,0.4l10.3,5.7l-1.5-5.2c-0.3-1.1-0.2-2.1,0.4-3.1c0.5-1,1.4-1.6,2.5-1.9
		l23.6-6.7c1.1-0.3,2.1-0.2,3.1,0.4c1,0.5,1.6,1.4,1.9,2.5l6.7,23.6c0.3,1.1,0.2,2.1-0.4,3.1c-0.5,1-1.4,1.6-2.5,1.9l-23.6,6.7
		c-1.1,0.3-2.1,0.2-3.1-0.4c-1-0.5-1.6-1.4-1.9-2.5l-1.5-5.2l-5.7,10.3c-0.5,1-1.4,1.6-2.5,1.9l-1,0.3c-1.1,0.3-2.1,0.2-3.1-0.4
		c-1-0.5-1.6-1.4-1.9-2.5l-6.7-23.6c-0.3-1.1-0.2-2.1,0.4-3.1c0.5-1,1.4-1.6,2.5-1.9L941.5,124.3z"/>
</g>
<g>
	<path class="st4" d="M1218.3,7.4l-2.9-0.7c-3.3-0.8-6.3-0.3-9.2,1.4l-29.9,18.3l3.8-15.7c0.8-3.3,0.3-6.3-1.4-9.2
		c-0.3-0.5-0.6-0.9-0.9-1.3h-94.8l-14.1,58.5c-0.8,3.3-0.3,6.3,1.4,9.2c1.7,2.8,4.2,4.7,7.5,5.4l70.7,17c3.3,0.8,6.3,0.3,9.2-1.4
		c2.8-1.7,4.7-4.2,5.4-7.5l3.8-15.7l18.3,29.9c1.7,2.8,4.2,4.7,7.5,5.4l2.9,0.7c3.3,0.8,6.3,0.3,9.2-1.4c2.8-1.7,4.7-4.2,5.4-7.5
		l17-70.7c0.8-3.3,0.3-6.3-1.4-9.2C1224.1,10,1221.6,8.2,1218.3,7.4z"/>
</g>
<g>
	<g>
		<path class="st6" d="M1525.1,6.2c-1.8,0.8-3.7,1.6-5.5,2.4"/>
		<path class="st7" d="M1508.8,13.4c-99.5,45.4-187,112.1-258,200.5c-2.3,3.5-3.5,5.8-5.8,9.2c-13.8,16.1-21.9,32.2-34.5,49.5
			c-2.3,3.5-2.3,6.9-4.6,10.4c-26.7,44.8-44.4,90.6-57,139.3"/>
		<path class="st6" d="M1147.5,428c-0.5,1.9-1,3.9-1.4,5.8c-0.5-0.8,1.4-6.1,0,0c-1.1-1.7-2.2-3.4-3.3-5"/>
		<path class="st8" d="M1136,419c-11.7-16.2-24.8-31.7-37.2-48.5c-5.8-6.9-11.5-12.7-17.3-18.4c-1.2-1.2-1.2-3.5-2.3-4.6
			C926.7,178.9,734,57.1,516,8.6"/>
		<path class="st6" d="M510.1,7.4c-2-0.4-3.9-0.8-5.9-1.2"/>
	</g>
</g>
</svg>
