<svg xmlns="http://www.w3.org/2000/svg"><symbol id="email" viewBox="0 0 256 256"><path d="M128 224a96 96 0 1 1 96-96 96.2 96.2 0 0 1-96 96zm0-177.8a81.8 81.8 0 1 0 81.8 81.8A81.9 81.9 0 0 0 128 46.2z"/><path d="M128 143.9c-1.9 0-4.3-.9-7-2.6a49.8 49.8 0 0 1-6.8-4.9l-2.2-1.5q-26.9-19.7-36.5-27l-1.5-1.1a5 5 0 0 1-1.9-4.2v-4.2a10.3 10.3 0 0 1 3-7.4 10.4 10.4 0 0 1 7.5-3.1h90.8a10.4 10.4 0 0 1 7.5 3.1 10.3 10.3 0 0 1 3 7.4v4.2a5.1 5.1 0 0 1-1.9 4.2l-1.1.8q-9.5 7.5-37 27.3l-2.2 1.5a49.8 49.8 0 0 1-6.8 4.9c-2.6 1.7-5 2.6-6.9 2.6zm53.7-28.2c-5.2 4.1-16.5 12.3-33.6 24.7l-2.2 1.7a62.7 62.7 0 0 1-8.3 5.7 18.6 18.6 0 0 1-9.6 3.1 20.2 20.2 0 0 1-9.6-2.9 71 71 0 0 1-8.3-5.6l-2.2-2c-17.6-12.8-28.8-21.1-33.6-24.7a1.4 1.4 0 0 0-1.4-.1 1.3 1.3 0 0 0-.8 1.2v44.6a10.3 10.3 0 0 0 3 7.4 10.4 10.4 0 0 0 7.5 3.1h90.8a10.4 10.4 0 0 0 7.5-3.1 10.3 10.3 0 0 0 3-7.4v-44.6a1.3 1.3 0 0 0-.8-1.3 1.1 1.1 0 0 0-1.4.2z"/></symbol><symbol id="facebook" viewBox="0 0 256 256"><path d="M128 32a96 96 0 1 0 96 96 96.2 96.2 0 0 0-96-96zm11.6 176.9v-54.8h21.8l3.5-27.1h-25.3v-18.7q0-6.6 2.4-9.6c1.9-2.3 5.6-3.5 11-3.5h14.3V71a147 147 0 0 0-20.9-1.2c-10.6 0-19 3.1-25.3 9.4s-9.6 15-9.6 26.3V127H88.6v27.1h23v54a81.9 81.9 0 1 1 28 .8z"/></symbol><symbol id="file" viewBox="0 0 256 256"><path d="M139.6 84.6a8.4 8.4 0 0 0 2.5 6.2 8.2 8.2 0 0 0 6.1 2.5h49.2v118.5a8.5 8.5 0 0 1-2.6 6.2 8.1 8.1 0 0 1-6.1 2.5H67.3a8.1 8.1 0 0 1-6.1-2.5 8.5 8.5 0 0 1-2.6-6.2V44.2a8.5 8.5 0 0 1 2.6-6.2 8.1 8.1 0 0 1 6.1-2.5h72.3zm23.1 36.2a4 4 0 0 0-1.3-3.1 4.2 4.2 0 0 0-3-1.3H97.6a4.2 4.2 0 0 0-3 1.3 4 4 0 0 0-1.3 3.1v2.9a4.4 4.4 0 0 0 4.3 4.3h60.8a4.4 4.4 0 0 0 4.3-4.3zm0 26v-2.9a4.2 4.2 0 0 0-1.3-3.1 4.1 4.1 0 0 0-3-1.2H97.6a4.1 4.1 0 0 0-3 1.2 4.2 4.2 0 0 0-1.3 3.1v2.9a4.2 4.2 0 0 0 1.3 3.1 4.1 4.1 0 0 0 3 1.2h60.8a4.1 4.1 0 0 0 3-1.2 4.2 4.2 0 0 0 1.3-3.1zm0 23.1V167a4.4 4.4 0 0 0-4.3-4.3H97.6a4.4 4.4 0 0 0-4.3 4.3v2.9a4.2 4.2 0 0 0 1.3 3.1 4.1 4.1 0 0 0 3 1.2h60.8a4.1 4.1 0 0 0 3-1.2 4.2 4.2 0 0 0 1.3-3.1zm34.7-90.3a8.5 8.5 0 0 0-2.6-6.2L159.4 38a8.2 8.2 0 0 0-6.1-2.5h-2.2v46.3h46.3z"/></symbol><symbol id="google" viewBox="0 0 256 256"><path fill="#4285f4" d="M58 219l35-60.7h140.1L198 219H58z"/><path fill="#fbbc05" d="M163 158.3h70.1L163 37H93l70 121.3z"/><path fill="#34a853" d="M22.9 158.3L58 219l70-121.3L93 37 22.9 158.3z"/></symbol><symbol id="cloud" viewBox="0 0 256 256"><path d="M244 133.4a50.1 50.1 0 0 0-29.2-17.6 41.6 41.6 0 0 0 2.4-14 38.2 38.2 0 0 0-38.4-38.4 37.2 37.2 0 0 0-21.2 6.4 64.5 64.5 0 0 0-23.2-23.2 61.6 61.6 0 0 0-32.2-8.8A63.4 63.4 0 0 0 70 46.4a64.1 64.1 0 0 0-32 55.4v3.2a57.1 57.1 0 0 0-27.6 21 57.1 57.1 0 0 0-3 62.2 58.7 58.7 0 0 0 21 21 55.6 55.6 0 0 0 28.8 7.8h147.2a51.3 51.3 0 0 0 25.8-6.8 48.9 48.9 0 0 0 18.6-18.6 51.3 51.3 0 0 0 6.8-25.8 49.3 49.3 0 0 0-11.6-32.4zm-72.6 7.8h-23.2v39.1a4.7 4.7 0 0 1-4.6 4.6h-31.2a4.7 4.7 0 0 1-4.6-4.6v-39.1H84.6a4.6 4.6 0 0 1-3.4-7.7l43.4-47.7a4.6 4.6 0 0 1 6.8 0l43.4 47.7a4.6 4.6 0 0 1-3.4 7.7z"/></symbol><symbol id="dropbox" viewBox="0 0 256 256"><path fill="#007af5" d="M68.6 103.3L128 141l-59.4 37.8-59.3-38.2 59.3-37.8L9.3 65l59.3-37.7L128 65zm59.4 49.4l59.4 38.3-59.4 37.7L68.6 191zm59.4-49.9L128 65l59.4-37.7L246.7 65l-59.3 38.3 59.3 37.7-59.3 37.8-59.4-38.2z"/></symbol><symbol id="image" viewBox="0 0 256 256"><path d="M151.2 92.9h49v118.4a8.4 8.4 0 0 1-2.5 6.2 8.2 8.2 0 0 1-6.1 2.5H70.3a8.1 8.1 0 0 1-6.1-2.5 8.5 8.5 0 0 1-2.6-6.2V43.8a8.3 8.3 0 0 1 2.6-6.1 8.1 8.1 0 0 1 6.1-2.5h72.2v49.1a8.5 8.5 0 0 0 8.7 8.6zm-48.8 5.8A17.2 17.2 0 0 0 85.1 116a17.1 17.1 0 0 0 5 12.3 16.5 16.5 0 0 0 12.1 5.1 17.1 17.1 0 0 0 12.3-5.1 16.5 16.5 0 0 0 5.2-12.3 16.1 16.1 0 0 0-5.2-12.2 16.8 16.8 0 0 0-12.1-5.1zm75.1 86.6v-40.4l-14.4-14.4a4.2 4.2 0 0 0-2.9-1.1 5.7 5.7 0 0 0-3.3 1.1L119.7 168l-14.4-14.4a5.3 5.3 0 0 0-3.1-1.1 4 4 0 0 0-2.7 1.1L85.1 168v17.3zm22.7-106.1a8.2 8.2 0 0 0-2.5-6.1l-35.4-35.4a8.1 8.1 0 0 0-6.1-2.5H154v46.2h46.2z"/></symbol><symbol id="linkedin" viewBox="0 0 256 256"><path d="M128 224a96 96 0 1 1 96-96 96.2 96.2 0 0 1-96 96zm0-177.8a81.8 81.8 0 1 0 81.8 81.8A81.9 81.9 0 0 0 128 46.2z"/><path d="M79.3 98.7a11.7 11.7 0 0 1-3.8-8.9 11.9 11.9 0 0 1 3.8-8.9 12.1 12.1 0 0 1 8.9-3.8 13 13 0 0 1 12.7 12.7 12.1 12.1 0 0 1-3.8 8.9 11.9 11.9 0 0 1-8.9 3.8 11.7 11.7 0 0 1-8.9-3.8zm-2.2 83.5v-70.1h21.8v70.1zm81.6 0V148c0-5.6-.5-9.7-1.4-12.3-1.8-4.2-5.1-6.3-10.1-6.3s-8.6 1.9-10.6 5.6-2.4 7-2.4 12.4v34.7h-21.5v-70h20.8v9.6h.3a17.9 17.9 0 0 1 7.5-7.7 22.1 22.1 0 0 1 13-3.8q15.3 0 21.3 9.6c3.2 5.1 4.7 13.1 4.7 23.9v38.4h-21.6z"/></symbol><symbol id="mail" viewBox="0 0 256 256"><path d="M128 152.3c-3.3 0-7.5-1.6-12.4-4.7a95.2 95.2 0 0 1-12-8.5l-3.9-2.7Q52 101.4 35 88.3l-2.7-2a8.5 8.5 0 0 1-3.5-7.3v-7.4A18.4 18.4 0 0 1 47.4 53h161.3a18.3 18.3 0 0 1 13.2 5.4 18 18 0 0 1 5.4 13.2V79a8.8 8.8 0 0 1-3.5 7.3l-1.9 1.6c-11.2 8.8-33 24.9-65.6 48.5l-3.8 2.7c-5.2 4.1-9.2 7-12.1 8.5-4.9 3.1-9 4.7-12.4 4.7zm95.4-50.1q-14 11-59.7 43.9l-3.9 3.1a101.2 101.2 0 0 1-14.7 10c-6.2 3.7-11.9 5.5-17.1 5.5s-10.8-1.7-17-5.1a127.6 127.6 0 0 1-14.8-10.1l-3.8-3.4q-46.9-34.2-59.8-43.9a2.7 2.7 0 0 0-2.5-.2 2.1 2.1 0 0 0-1.3 2.2v79.1a18.3 18.3 0 0 0 5.4 13.2 18 18 0 0 0 13.2 5.4h161.3a18.4 18.4 0 0 0 18.6-18.6v-79.1a2.4 2.4 0 0 0-1.4-2.3 1.9 1.9 0 0 0-2.5.3z"/></symbol><symbol id="iv" viewBox="0 0 256 256"><path d="M180.1 43.2h-104a29.3 29.3 0 0 0-29.3 29.2v104A29.2 29.2 0 0 0 76 205.6h74.8l22.7 22.8a3.8 3.8 0 0 0 6.5-2.7v-20.1a29.2 29.2 0 0 0 29.2-29.2v-104a29.1 29.1 0 0 0-29.1-29.2zM79.7 66.7a4.7 4.7 0 0 1 4.8-4.7h13.2a4.8 4.8 0 0 1 4.8 4.7v7.6a4.8 4.8 0 0 1-4.8 4.8H84.5a4.7 4.7 0 0 1-4.8-4.8zm95.4 27.4l-89.2 87.8a3.6 3.6 0 0 1-6.2-2.6l.2-87.8a3.6 3.6 0 0 1 3.6-3.6h15.3a3.6 3.6 0 0 1 3.6 3.6V126a3.7 3.7 0 0 0 6.2 2.6l39.6-39.7a4.1 4.1 0 0 1 2.6-1.1h21.7a3.7 3.7 0 0 1 2.6 6.3z"/></symbol><symbol id="msg" viewBox="0 0 256 256"><path d="M68.8 160A77.7 77.7 0 0 1 29 175.8h-.3a2.9 2.9 0 0 1-2.9-2.2c-.2-.9.4-2 1.8-3.2l1.8-1.8c3.6-3.1 6.1-5.9 7.5-8.6s4.2-9.5 5.4-16.4c-11-10.3-16.5-22.1-16.5-35.5 0-10.5 3.6-20.2 10.8-29.2s16.9-16 29.2-21.3a100.6 100.6 0 0 1 40.3-7.9 100.5 100.5 0 0 1 40.2 7.9c12.3 5.3 22.1 12.4 29.2 21.3s10.8 18.8 10.8 29.4-3.6 20.4-10.8 29.4-16.9 16-29.2 21.3a102.2 102.2 0 0 1-40.2 7.8 100.8 100.8 0 0 1-37.3-6.8zm159.7 43.7a40.4 40.4 0 0 1-6.8-7.8 45.7 45.7 0 0 1-4.6-15.1c7.9-7.4 12.6-15.7 14.3-25.1a39.2 39.2 0 0 0-4.8-27c-4.9-8.7-12.6-16.1-23.1-22v1.4c0 14.6-4.7 27.8-14 39.8s-21.4 20.4-37.1 27a119.9 119.9 0 0 1-50.6 9.1 80.1 80.1 0 0 0 24.8 13.1 98.2 98.2 0 0 0 31 4.8 101 101 0 0 0 34.8-6c10.5 8.1 22.8 12.8 36.9 14.3a3.2 3.2 0 0 0 1.6-.6 2.5 2.5 0 0 0 1.2-1.6c.3-.7-.2-1.5-1.4-2.5l-.4-.3z"/></symbol><symbol id="paper-clip" viewBox="0 0 256 256"><path d="M51.9 177a53.8 53.8 0 0 1 .2-27.6 51.5 51.5 0 0 1 13.7-23.8l72.6-74.7a39.2 39.2 0 0 1 38.2-10.4 40 40 0 0 1 17.7 10.4 38 38 0 0 1 10.2 17.9 41.8 41.8 0 0 1 0 20.5 38 38 0 0 1-10.2 17.9l-63.6 64.9a24.1 24.1 0 0 1-18.7 7.8 24.9 24.9 0 0 1-18.6-8 25.4 25.4 0 0 1-7.3-18.7 25.9 25.9 0 0 1 7.8-18.6l49.7-51a6.5 6.5 0 0 1 4-1.6 4.6 4.6 0 0 1 3.9 1.6l8 7.6a5.3 5.3 0 0 1 0 8l-50 51a6.6 6.6 0 0 0-1.2 3.3 3.6 3.6 0 0 0 1.1 3.2 3.7 3.7 0 0 0 2.7 1.2 3.1 3.1 0 0 0 2.6-1.4l63.6-64.6a18.1 18.1 0 0 0 5.2-12.8 17.4 17.4 0 0 0-5-12.5 16.2 16.2 0 0 0-12-5.3 16.8 16.8 0 0 0-12.2 5.3l-72.9 74.3a32.4 32.4 0 0 0-.2 44.6 28.8 28.8 0 0 0 21.4 9.2 28.4 28.4 0 0 0 21.2-9l59.7-61.2a5.6 5.6 0 0 1 8 0l8 7.7a5.6 5.6 0 0 1 1.7 4 5.8 5.8 0 0 1-1.7 4l-59.8 61.1a49.5 49.5 0 0 1-23.7 13.9 53.7 53.7 0 0 1-27.3-.2 50.1 50.1 0 0 1-23.6-14.1A51.8 51.8 0 0 1 51.9 177z"/></symbol><symbol id="office" viewBox="0 0 256 256"><path fill="#ea3e23" d="M199.5 205.4V49.5l-55.8-16.1L43.3 71.1H43v112.7l34.3-13.4V78.7l66.4-15.8-.1 134.8-100.5-13.9L143.6 221l55.9-15.5v-.1z"/></symbol><symbol id="plane" viewBox="0 0 256 256"><path d="M207.9 36.1a9 9 0 0 1 13 9.1l-26.1 156.9a8.7 8.7 0 0 1-4.6 6.2 7.5 7.5 0 0 1-7.4.4l-45.4-18.9-22.9 27.9a7.7 7.7 0 0 1-6.3 3.3 9.6 9.6 0 0 1-6.6-2.4c-1.8-1.5-2.7-3.8-2.7-6.7v-29l87.5-106.8a1.8 1.8 0 0 0-.3-2.7 2.1 2.1 0 0 0-2.9-.2L78.9 165.1l-38.5-16a8.3 8.3 0 0 1-5.4-7.6c-.3-3.7 1.3-6.3 4.7-8z"/></symbol><symbol id="play" viewBox="0 0 256 256"><path d="M128 41.9a84.2 84.2 0 0 1 43.1 11.6 87.5 87.5 0 0 1 31.4 31.4 85.9 85.9 0 0 1 0 86.2 87.5 87.5 0 0 1-31.4 31.4 85.9 85.9 0 0 1-86.2 0 87.5 87.5 0 0 1-31.4-31.4 85.9 85.9 0 0 1 0-86.2 87.5 87.5 0 0 1 31.4-31.4A84.2 84.2 0 0 1 128 41.9zm40.3 94.4a7.8 7.8 0 0 0 4.1-7.3 8 8 0 0 0-4.1-7.3l-61.1-37.1a8.3 8.3 0 0 0-12.5 7.3v72.2a8.3 8.3 0 0 0 12.5 7.3z"/></symbol><symbol id="rocket" viewBox="0 0 256 256"><path d="M218.4 41.9a97.7 97.7 0 0 1 2.2 16q.3 5.1.3 14.1c0 17.5-4.4 32.7-13.4 45.8-7.5 11.2-18.5 21.4-33 30.9v37.8a17.3 17.3 0 0 1-2.6 9.2 16.3 16.3 0 0 1-7.3 6.4L129 220.2a8.6 8.6 0 0 1-8.5-.7 8 8 0 0 1-4.2-7.2v-34.6l-13.8 6.6a4.8 4.8 0 0 1-3.4.3 5.6 5.6 0 0 1-3.1-1.4l-23.3-23.3a5.3 5.3 0 0 1-1.4-3 5.7 5.7 0 0 1 .4-3.5c1.9-3.9 4.1-8.5 6.5-13.8H43.7a8 8 0 0 1-7.3-4.2 8.1 8.1 0 0 1-.3-8.5l17.8-36a16.1 16.1 0 0 1 6.3-6.9 17.5 17.5 0 0 1 9.3-2.5h37.8q14.1-22.2 30.5-33.1c13.3-8.9 28.7-13.4 46.1-13.4 6.3 0 11 .1 14.2.4a86.7 86.7 0 0 1 15.9 2.1 5.2 5.2 0 0 1 4.4 4.4zm-38.1 51.2a17.4 17.4 0 0 0 17.4-17.4A17.5 17.5 0 1 0 167.9 88a16.8 16.8 0 0 0 12.4 5.1z"/></symbol><symbol id="skype" viewBox="0 0 256 256"><path fill="#00aff0" d="M218.8 147.9a48.7 48.7 0 0 1 10.4 30.7 49.6 49.6 0 0 1-6.7 25.3 50.3 50.3 0 0 1-18.6 18.6 49.6 49.6 0 0 1-25.3 6.7 48.7 48.7 0 0 1-30.7-10.4 111.6 111.6 0 0 1-19.9 1.8 90 90 0 0 1-46.5-12.4 92.3 92.3 0 0 1-33.7-33.7A90 90 0 0 1 35.4 128a116.8 116.8 0 0 1 1.8-19.9 48.7 48.7 0 0 1-10.4-30.7 49.6 49.6 0 0 1 6.7-25.3 50.3 50.3 0 0 1 18.6-18.6 49.6 49.6 0 0 1 25.3-6.7 48.7 48.7 0 0 1 30.7 10.4 111.6 111.6 0 0 1 19.9-1.8 90 90 0 0 1 46.5 12.4 92.3 92.3 0 0 1 33.7 33.7 90 90 0 0 1 12.4 46.5 116.8 116.8 0 0 1-1.8 19.9zM130.7 189c13.6 0 25.2-3.2 34.8-9.5s15.8-17 15.8-29.4c0-10.2-4.5-18.5-13.5-24.8-6.4-4.2-15.5-7.7-27.6-10.4l-7.2-1.4c-9.4-2.4-15.4-4.2-18.1-5.4s-5.9-4.5-5.9-8.1c0-6.6 6.3-10 19-10a32.7 32.7 0 0 1 13.6 2.7 77.4 77.4 0 0 1 8.1 5.9q3.2 3.6 5.4 4.5a14.1 14.1 0 0 0 17-2.2 14.8 14.8 0 0 0 3.8-10.4c0-7.2-5.3-13.3-15.8-18.1s-21.5-6.8-34.6-6.8-24.2 2.7-33.2 8.2-15.8 16.1-15.8 28.4q0 12.8 6.3 20.4c3.3 4.5 8.7 8.1 16.3 10.8 4.5 1.8 12.2 3.9 23 6.4l9.1 2.2c6.6 1.5 10.8 2.9 12.6 4.1a8.7 8.7 0 0 1 5 8.1c0 3.6-1.8 6.6-5.4 8.8s-8.4 3.4-14.3 3.4a29.3 29.3 0 0 1-15.6-4.1 48.9 48.9 0 0 1-9.9-8.1 33.6 33.6 0 0 0-6.3-5.9 14.3 14.3 0 0 0-7.7-2.2c-4.2 0-7.5 1.3-9.7 3.8a14 14 0 0 0-3.4 9.7c0 5.5 2.4 10.4 7.2 14.9s11.5 8.1 19.9 10.7a94.9 94.9 0 0 0 27.1 3.8z"/></symbol><symbol id="twiiter" viewBox="0 0 256 256"><path d="M128 224a96 96 0 1 1 96-96 96.2 96.2 0 0 1-96 96zm0-177.8a81.8 81.8 0 1 0 81.8 81.8A81.9 81.9 0 0 0 128 46.2z"/><path d="M177.7 112.4a65.3 65.3 0 0 1-7.9 31.1 63.9 63.9 0 0 1-22.6 25.4c-10.7 7-22.8 10.5-36.6 10.5a65.9 65.9 0 0 1-36.2-10.5l5.6.2a47.3 47.3 0 0 0 29.5-10.1 21.7 21.7 0 0 1-13.8-4.6 23.4 23.4 0 0 1-8.2-11.5 31 31 0 0 0 4.2.2 27 27 0 0 0 6.3-.7 24 24 0 0 1-13.5-8.2 22.9 22.9 0 0 1-5.3-14.9v-.5a22.2 22.2 0 0 0 10.5 3.2 26 26 0 0 1-7.6-8.5 22.2 22.2 0 0 1-2.9-11.4 21.5 21.5 0 0 1 3.4-11.7 65.2 65.2 0 0 0 21.4 17.5 67 67 0 0 0 27.1 7.2 35 35 0 0 1-.5-5.4 22.5 22.5 0 0 1 3.2-11.8A23 23 0 0 1 154 86.2a23.1 23.1 0 0 1 9.5 2 28.1 28.1 0 0 1 7.7 5.4 47.4 47.4 0 0 0 15.1-5.6 23.3 23.3 0 0 1-10.3 13 50.8 50.8 0 0 0 13.4-3.8 49.7 49.7 0 0 1-11.9 12.3 16.5 16.5 0 0 1 .2 2.9z"/></symbol><symbol id="video" viewBox="0 0 256 256"><path d="M211.9 67.5a15.4 15.4 0 0 1 15.4 15.4v92.7a15 15 0 0 1-4.5 10.9 14.8 14.8 0 0 1-10.9 4.5H208a14.8 14.8 0 0 1-10.9-4.5L165.6 155v20.6a15.4 15.4 0 0 1-15.5 15.4H57.5A15.4 15.4 0 0 1 42 175.6V82.9A14.8 14.8 0 0 1 46.5 72a15 15 0 0 1 11-4.5h92.6a15 15 0 0 1 11 4.5 14.8 14.8 0 0 1 4.5 10.9v20.6L197.1 72a14.8 14.8 0 0 1 10.9-4.5z"/></symbol><symbol id="soc-share" viewBox="0 0 256 256"><path d="M174.5 152.2a34.8 34.8 0 0 1 34.9 34.9 34.7 34.7 0 0 1-34.9 34.8 34.7 34.7 0 0 1-34.9-34.8 45.6 45.6 0 0 1 .7-7.6l-37-23.3a33.7 33.7 0 0 1-21.8 7.6A34.7 34.7 0 0 1 46.6 129a34.8 34.8 0 0 1 34.9-34.9 34.2 34.2 0 0 1 21.8 7.6l37-23.2a46.7 46.7 0 0 1-.7-7.6A34.8 34.8 0 0 1 174.5 36a34.8 34.8 0 0 1 34.9 34.9 34.7 34.7 0 0 1-34.9 34.8 33.7 33.7 0 0 1-21.8-7.6l-37 23.2a43.7 43.7 0 0 1 0 15.3l37 23.2a34.2 34.2 0 0 1 21.8-7.6z"/></symbol><symbol id="shield" viewBox="0 0 256 256"><path d="M201.6 36H55.4a2.9 2.9 0 0 0-3 3v97.5A76.7 76.7 0 0 0 99 207.1l30.1 12.9 29.3-12.8a76.6 76.6 0 0 0 46.2-70.4V39a2.9 2.9 0 0 0-3-3zm-16.9 100.8a56.8 56.8 0 0 1-34.2 52.2l-21.5 9.3V55.9h55.7z"/></symbol></svg>