<?xml version="1.0" encoding="utf-8"?>
<!-- Generator: Adobe Illustrator 22.1.0, SVG Export Plug-In . SVG Version: 6.00 Build 0)  -->
<svg version="1.1" id="Layer_1" xmlns="http://www.w3.org/2000/svg" xmlns:xlink="http://www.w3.org/1999/xlink" x="0px" y="0px"
	 viewBox="0 0 243.4 243.4" style="enable-background:new 0 0 243.4 243.4;" xml:space="preserve">
<style type="text/css">
	.st0{fill:#FFFFFF;}
</style>
<g>
	<path class="st0" d="M121.7,243.4C54.6,243.4,0,188.8,0,121.7S54.6,0,121.7,0s121.7,54.6,121.7,121.7S188.8,243.4,121.7,243.4z
		 M121.7,18C64.5,18,18,64.5,18,121.7s46.5,103.7,103.7,103.7s103.7-46.5,103.7-103.7S178.9,18,121.7,18z"/>
	<g>
		<path class="st0" d="M59.9,84.6c-3.2-3.2-4.8-6.9-4.8-11.3s1.6-8.1,4.8-11.3s6.9-4.8,11.3-4.8s8.1,1.6,11.3,4.8s4.8,6.9,4.8,11.3
			s-1.6,8.1-4.8,11.3c-3.2,3.2-6.9,4.8-11.3,4.8S63.1,87.8,59.9,84.6z M57.2,190.4v-88.8h27.6v88.8H57.2z M160.6,190.4V147
			c0-7.1-0.6-12.3-1.8-15.5c-2.2-5.3-6.4-8-12.8-8c-6.3,0-10.8,2.4-13.4,7.1c-2,3.6-3,8.8-3,15.7v44h-27.3v-88.8h26.4v12.2h0.3
			c2-4,5.2-7.2,9.5-9.8c4.8-3.2,10.3-4.8,16.6-4.8c12.9,0,21.9,4.1,27,12.2c4,6.5,5.9,16.6,5.9,30.3v48.7h-27.4V190.4z"/>
	</g>
</g>
</svg>
