<svg xmlns="http://www.w3.org/2000/svg" width="147.3" height="168.9" viewBox="0 0 147.3 168.9"><path d="M120.9 0H26.6A26.5 26.5 0 0 0 0 26.5v94.3a26.5 26.5 0 0 0 26.4 26.5h67.9l20.6 20.6a3.4 3.4 0 0 0 4.9 0 3.5 3.5 0 0 0 1-2.4v-18.2a26.5 26.5 0 0 0 26.5-26.4V26.5A26.4 26.4 0 0 0 121 0z"/><path fill="#fff" d="M29.8 24.4a4 4 0 0 1 4-4h11.3a4 4 0 0 1 4.1 4v6.5a4 4 0 0 1-4.1 4H33.8a4 4 0 0 1-4-4zM111 47.7l-75.9 74.7a3.1 3.1 0 0 1-4.4 0 3.1 3.1 0 0 1-.9-2.2l.2-74.7a3.1 3.1 0 0 1 3.1-3.1H46a3.1 3.1 0 0 1 3.1 3.1v29.3a3.2 3.2 0 0 0 3.1 3.2 3.6 3.6 0 0 0 2.2-.9l33.8-33.8a2.8 2.8 0 0 1 2.2-.9h18.4a3.1 3.1 0 0 1 2.2 5.3z"/></svg>