<svg xmlns="http://www.w3.org/2000/svg" width="564.9" height="186.3" viewBox="0 0 564.9 186.3"><path fill="#fff" d="M133.3 0h-104A29.3 29.3 0 0 0 0 29.2v104a29.2 29.2 0 0 0 29.2 29.2H104l22.7 22.7a3.8 3.8 0 0 0 6.5-2.6v-20.1a29.2 29.2 0 0 0 29.2-29.2v-104A29.1 29.1 0 0 0 133.3 0zM32.9 26.9a4.4 4.4 0 0 1 4.4-4.4h12.5a4.4 4.4 0 0 1 4.4 4.4v7.2a4.4 4.4 0 0 1-4.4 4.4H37.3a4.4 4.4 0 0 1-4.4-4.4zm89.5 25.7L38.7 135a3.4 3.4 0 0 1-5.8-2.5V50.2a3.4 3.4 0 0 1 3.4-3.4h14.4a3.4 3.4 0 0 1 3.4 3.4v32.3A3.5 3.5 0 0 0 60 85l37.2-37.3a3.5 3.5 0 0 1 2.4-1h20.3a3.4 3.4 0 0 1 2.5 5.9zm60.4-31.9h2.8v23.5h-2.8zm9.3 0h2.7l14.9 19.5V20.7h2.6v23.5h-2.7l-14.9-19.5v19.5h-2.6zm26.6 0h2.7l14.9 19.5V20.7h2.6v23.5h-2.7l-14.9-19.5v19.5h-2.6zm26.6 0h14.5v2.4h-11.7V31h10.5v2.4h-10.5v8.5h12.2v2.4h-15V20.7zm20.6 0h6.7a8.3 8.3 0 0 1 5.9 2 6.4 6.4 0 0 1 2.2 5.1 6.7 6.7 0 0 1-4.5 6.4l6.8 10h-3.3l-6.2-9.4h-4.9v9.4h-2.7zm2.7 11.8h3.4a7 7 0 0 0 4.4-1.2 4.3 4.3 0 0 0 1.5-3.5 4.5 4.5 0 0 0-1.4-3.5 6.4 6.4 0 0 0-4.2-1.2h-3.7v9.4zm-86 24h16.5l26.7 75 26.7-75h15.9l-35 91.1h-16.1zm135.9 93a49 49 0 0 1-23.7-5.9 46.4 46.4 0 0 1-17.3-16.8 47.7 47.7 0 0 1-6.5-24.7 47.5 47.5 0 0 1 6-23.5 46.2 46.2 0 0 1 16.9-17.4 46.7 46.7 0 0 1 24.6-6.6 49.5 49.5 0 0 1 23.9 5.9 45.7 45.7 0 0 1 17.3 16.8 47.7 47.7 0 0 1 6.5 24.7 47.5 47.5 0 0 1-6 23.5 45.8 45.8 0 0 1-17 17.4 47.3 47.3 0 0 1-24.7 6.6zm0-13.5a30.8 30.8 0 0 0 27.7-16.2 35.9 35.9 0 0 0 4.3-17.9 36.6 36.6 0 0 0-4-17.2 30.4 30.4 0 0 0-11.3-12.3 31.5 31.5 0 0 0-16.7-4.6 30.6 30.6 0 0 0-16.1 4.3 30.9 30.9 0 0 0-11.5 12 38.8 38.8 0 0 0-.3 34.9 30.4 30.4 0 0 0 11.3 12.3 29.1 29.1 0 0 0 16.6 4.7zm62.4-79.5h15v91.1h-15zm77.9 92.4a53.1 53.1 0 0 1-24.6-5.6 42.3 42.3 0 0 1-17.1-16.2c-4.2-7-6.3-15.2-6.3-24.4a48.2 48.2 0 0 1 6.1-24.3 43.6 43.6 0 0 1 17.3-17c7.5-4.2 16.1-6.2 25.8-6.2a59.5 59.5 0 0 1 15 2 52.7 52.7 0 0 1 13.1 5.4l-2.5 12.9a80.1 80.1 0 0 0-13.6-5.3 48.1 48.1 0 0 0-12.4-1.7 35.4 35.4 0 0 0-17.1 4.1 29.5 29.5 0 0 0-11.8 11.7 35.2 35.2 0 0 0-4.3 17.7 36 36 0 0 0 4 17.4 28.4 28.4 0 0 0 11.6 11.7 36.4 36.4 0 0 0 17.9 4.2 55.8 55.8 0 0 0 13.5-1.8 73.3 73.3 0 0 0 13.8-5l1.6 13.1a62.2 62.2 0 0 1-30 7.3zm45.9-92.4h58.4V69h-44v25.8h39.2v12.6h-39.2V135h45.8v12.6h-60.2z"/></svg>
