<?xml version="1.0" encoding="utf-8"?>
<!-- Generator: Adobe Illustrator 22.1.0, SVG Export Plug-In . SVG Version: 6.00 Build 0)  -->
<svg version="1.1" id="Layer_1" xmlns="http://www.w3.org/2000/svg" xmlns:xlink="http://www.w3.org/1999/xlink" x="0px" y="0px"
	 viewBox="0 0 159.2 139.3" style="enable-background:new 0 0 159.2 139.3;" xml:space="preserve">
<style type="text/css">
	.st0{fill:#F6D33F;}
</style>
<g>
	<path class="st0" d="M5.7,25.6c-1.7,0-3-0.5-4.1-1.6S0,21.6,0,19.9V5.7c0-1.7,0.5-3,1.6-4.1S4,0,5.7,0h147.8c1.7,0,3,0.5,4.1,1.6
		c1.1,1.1,1.6,2.4,1.6,4.1v14.2c0,1.7-0.5,3-1.6,4.1c-1.1,1.1-2.4,1.6-4.1,1.6H5.7z M5.7,82.4c-1.7,0-3-0.5-4.1-1.6S0,78.4,0,76.8
		V62.5c0-1.7,0.5-3,1.6-4.1s2.4-1.6,4.1-1.6h147.8c1.7,0,3,0.5,4.1,1.6c1.1,1.1,1.6,2.4,1.6,4.1v14.2c0,1.7-0.5,3-1.6,4.1
		c-1.1,1.1-2.4,1.6-4.1,1.6H5.7z M5.7,139.3c-1.7,0-3-0.5-4.1-1.6S0,135.3,0,133.6v-14.2c0-1.7,0.5-3,1.6-4.1s2.4-1.6,4.1-1.6h147.8
		c1.7,0,3,0.5,4.1,1.6c1.1,1.1,1.6,2.4,1.6,4.1v14.2c0,1.7-0.5,3-1.6,4.1c-1.1,1.1-2.4,1.6-4.1,1.6H5.7z"/>
</g>
</svg>
