<?xml version="1.0" encoding="utf-8"?>
<!-- Generator: Adobe Illustrator 22.1.0, SVG Export Plug-In . SVG Version: 6.00 Build 0)  -->
<svg version="1.1" id="Layer_1" xmlns="http://www.w3.org/2000/svg" xmlns:xlink="http://www.w3.org/1999/xlink" x="0px" y="0px"
	 viewBox="0 0 921 176.4" style="enable-background:new 0 0 921 176.4;" xml:space="preserve">
<style type="text/css">
	.st0{fill:#3558A7;}
	.st1{fill:#FFFFFF;}
</style>
<g>
	<g>
		<path class="st0" d="M6.4,154.5c-1.7,0-3.1-0.4-4.4-1.7c-2.6-2.6-2.6-6.5-0.4-9.2c0.4-0.4,7.4-7.9,20.5-17.9
			c3.1-2.2,7-1.7,9.2,1.3s1.7,7-1.3,9.2c-12.2,9.2-18.8,16.2-19.2,16.2C9.9,153.7,8.1,154.5,6.4,154.5z"/>
		<path class="st0" d="M505.8,176.4c-2.2,0-3.9,0-6.1,0c-12.7,0-25.3-0.9-37.5-2.6c-3.5-0.4-6.1-3.9-5.7-7.4
			c0.4-3.5,3.9-6.1,7.4-5.7c11.8,1.7,24,2.6,36.2,2.6c4.8,0,9.6,0,14.4,0l0,0c3.5,0,6.5,3.1,6.5,6.5c0,3.5-2.6,6.5-6.5,6.5
			C511.5,176.4,508.9,176.4,505.8,176.4z M565.6,172.9c-3.1,0-6.1-2.6-6.5-5.7c-0.4-3.5,2.2-7,5.7-7.4c17.5-2.2,34.5-5.2,49.8-9.6
			c3.5-0.9,7,1.3,7.9,4.8c0.9,3.5-1.3,7-4.8,7.9c-16.2,4.4-33.6,7.9-51.5,10C566.5,172.9,566,172.9,565.6,172.9z M412.4,162
			c-0.9,0-1.3,0-2.2-0.4c-15.3-4.8-30.6-10.9-48.5-19.6c-3.5-1.3-4.8-5.2-3.1-8.7c1.3-3.5,5.2-4.8,8.7-3.1
			c17.5,8.3,32.7,14,47.1,18.8c3.5,1.3,5.2,4.8,4.4,8.3C418.1,160.2,415.4,162,412.4,162z M318.1,120.5c-0.9,0-1.7,0-3.1-0.9
			c-13.5-6.5-29.7-14-46.7-20.1c-3.5-1.3-5.2-4.8-3.9-8.3c1.3-3.5,4.8-5.2,8.3-3.9c17.9,6.5,34.1,14,48,21c3.1,1.7,4.8,5.7,3.1,8.7
			C322.9,119.2,320.7,120.5,318.1,120.5z M70.1,110.4c-2.6,0-4.8-1.3-6.1-3.5c-1.7-3.1,0-7,3.1-8.7c16.2-7.9,32.7-14,49.8-18.3
			c3.5-0.9,7,1.3,7.9,4.8c0.9,3.5-1.3,7-4.8,7.9c-16.2,4.4-31.9,10-47.1,17.5C72.3,110.4,71,110.4,70.1,110.4z M221.2,86.9
			c-0.4,0-0.4,0-0.9,0c-8.7-1.3-17.5-2.2-26.2-2.6c-8.3-0.4-16.2,0-24,0c-3.5,0-6.5-2.6-7-6.1c0-3.5,2.6-6.5,6.1-7
			c8.3-0.4,16.6-0.4,25.3-0.4c9.2,0.4,18.8,1.3,27.5,2.6c3.5,0.4,6.1,3.9,5.7,7.4C226.8,84.7,224.2,86.9,221.2,86.9z"/>
		<path class="st0" d="M665.1,144.9c-2.2,0-4.8-1.3-5.7-3.5c-1.7-3.1-0.4-7,3.1-8.7c14-7,21-12.7,21-12.7c2.6-2.2,7-2.2,9.2,0.9
			c2.2,2.6,2.2,7-0.9,9.2c-0.4,0.4-7.9,6.5-23.6,14.8C667.3,144.5,666,144.9,665.1,144.9z"/>
	</g>
	<g>
		<g>
			<polygon class="st1" points="710.5,43.7 851.1,6.1 686.5,101.7 			"/>
			<path class="st0" d="M835.8,12.7L690.9,96.9l21-51.5L835.8,12.7 M866,0L708.8,41.5L682.2,107L866,0L866,0z"/>
		</g>
		<g>
			<polygon class="st0" points="710.1,90.8 866,0 921,10 730.6,126.6 			"/>
		</g>
	</g>
</g>
</svg>
