<?xml version="1.0" encoding="utf-8"?>
<!-- Generator: Adobe Illustrator 22.1.0, SVG Export Plug-In . SVG Version: 6.00 Build 0)  -->
<svg version="1.1" id="Layer_1" xmlns="http://www.w3.org/2000/svg" xmlns:xlink="http://www.w3.org/1999/xlink" x="0px" y="0px"
	 viewBox="0 0 1008 414.5" style="enable-background:new 0 0 1008 414.5;" xml:space="preserve">
<style type="text/css">
	.st0{fill:#2B9ED8;}
	.st1{fill:#3558A7;}
	.st2{fill:#FFFFFF;}
	.st3{fill:#5FBDEB;}
	.st4{fill:none;stroke:#5FBDEB;stroke-width:3;stroke-linecap:round;stroke-miterlimit:10;stroke-dasharray:16,20;}
</style>
<rect class="st0" width="1008" height="414.5"/>
<g>
	<polygon class="st1" points="832.8,228 832.9,182.3 925.4,160.6 	"/>
	<polygon class="st1" points="839.5,163.4 925.4,160.6 866.4,138.5 	"/>
	<g>
		<polygon class="st2" points="925.5,161.2 951.4,172.8 868,203 		"/>
		<path class="st1" d="M925.5,161.8l24.6,11l-79,28.6L925.5,161.8 M925.4,160.6l-60.6,44.1l87.9-31.8L925.4,160.6L925.4,160.6z"/>
	</g>
	<g>
		<polygon class="st2" points="840.6,163.8 920.4,161.3 852.9,177.1 		"/>
		<path class="st1" d="M915.4,161.9l-62.3,14.6l-11.4-12.2L915.4,161.9 M925.4,160.6l-85.9,2.8l13.2,14.3L925.4,160.6L925.4,160.6z"
			/>
	</g>
</g>
<g>
	<path class="st3" d="M550.1,327.1c-0.1,0-0.3,0-0.4,0.1c-0.1,0.1-0.2,0.2-0.3,0.3c0,0.1,0,0.3,0.1,0.4s0.2,0.2,0.3,0.3
		c0.1,0,0.3,0,0.4,0c0.1-0.1,0.2-0.2,0.2-0.3c0-0.1,0-0.3,0-0.4C550.4,327.2,550.3,327.1,550.1,327.1z"/>
	<path class="st3" d="M411.5,273.2c0.2,0.1,0.3,0.1,0.5,0.1s0.3-0.1,0.3-0.3c0.1-0.1,0.1-0.3,0.1-0.4s-0.1-0.3-0.3-0.4
		c-0.1-0.1-0.3-0.1-0.4-0.1s-0.3,0.1-0.4,0.3c-0.1,0.2-0.1,0.3-0.1,0.5C411.2,273,411.3,273.1,411.5,273.2z"/>
	<path class="st3" d="M320,318.4c-0.5,0-1,0.2-1.3,0.5c-0.4,0.4-0.5,0.8-0.5,1.3s0.2,1,0.5,1.3c0.4,0.4,0.8,0.5,1.3,0.5
		s1-0.2,1.3-0.5c0.4-0.4,0.5-0.8,0.5-1.3s-0.2-1-0.5-1.3S320.5,318.4,320,318.4z"/>
	<path class="st3" d="M190.4,218.8l-4.3-2.6c-0.3-0.2-0.6-0.2-1-0.1c-0.3,0.1-0.6,0.3-0.8,0.6l-9,15.2c-0.2,0.4-0.2,0.8-0.1,1.2
		l4.5,10.5c0.1,0.3,0.4,0.5,0.7,0.7c0.3,0.1,0.7,0.1,1,0l4.6-1.9c0.3-0.1,0.6-0.4,0.7-0.7c0.1-0.3,0.2-0.6,0-1l-3.3-7.6l7.4-12.5
		c0.2-0.3,0.2-0.6,0.1-1S190.7,219,190.4,218.8z"/>
	<path class="st3" d="M299.4,356.8l-5.9-2.8l-2.1-11.2c-0.1-0.3-0.2-0.5-0.4-0.6c-0.2-0.2-0.5-0.2-0.7-0.2l-3.9,0.7
		c-0.3,0.1-0.5,0.2-0.6,0.4c-0.2,0.2-0.2,0.5-0.2,0.7l2.6,13.7c0.1,0.3,0.2,0.6,0.6,0.7l8.2,3.9c0.2,0.1,0.5,0.1,0.8,0
		s0.5-0.3,0.6-0.5l1.7-3.5c0.1-0.2,0.1-0.5,0.1-0.8C299.9,357.1,299.7,356.9,299.4,356.8z"/>
	<path class="st3" d="M405.1,274.9c0.1,0.1,0.3,0.1,0.5,0.1s0.3-0.1,0.4-0.3c0.1-0.1,0.1-0.3,0.1-0.4s-0.1-0.3-0.3-0.4
		c-0.1-0.1-0.3-0.1-0.5-0.1s-0.3,0.1-0.4,0.3c-0.1,0.2-0.1,0.3-0.1,0.5C404.9,274.7,405,274.8,405.1,274.9z"/>
	<path class="st3" d="M544.7,325.4c-0.1,0-0.3,0-0.4,0.1c-0.1,0.1-0.2,0.2-0.3,0.3c0,0.1,0,0.3,0,0.4c0.1,0.1,0.2,0.2,0.3,0.3
		c0.1,0,0.3,0,0.4,0c0.1-0.1,0.2-0.2,0.2-0.3c0-0.1,0-0.3,0-0.4C544.9,325.5,544.8,325.5,544.7,325.4z"/>
	<path class="st3" d="M447.5,319v-3.8c0-0.2-0.1-0.4-0.2-0.5c-0.2-0.2-0.3-0.3-0.6-0.3h-9.9v-3.8c0-0.2-0.1-0.4-0.3-0.5
		c-0.1-0.1-0.3-0.2-0.5-0.2h-3.8l-2.3,2.3l12.2,12.2L447.5,319z"/>
	<path class="st3" d="M274.4,291c-0.2-0.1-0.4-0.1-0.7,0c-0.2,0.1-0.4,0.2-0.5,0.4l-6.9,13.1l-5.4-2.8c-0.2-0.1-0.4-0.1-0.7,0
		c-0.2,0.1-0.4,0.2-0.5,0.4L256,309l1.1,3.5l28.2-8.7l-2.5-8.2L274.4,291z"/>
	<path class="st3" d="M441.4,308.5c0.9,0,1.7-0.3,2.3-0.9c0.6-0.6,0.9-1.4,0.9-2.3s-0.3-1.7-0.9-2.3c-0.6-0.6-1.4-1-2.3-1
		s-1.7,0.3-2.3,1c-0.6,0.6-1,1.4-1,2.3s0.3,1.6,0.9,2.3C439.7,308.2,440.5,308.5,441.4,308.5z"/>
	<path class="st3" d="M337.5,70.3c0.7,0.4,1.4,0.5,2.2,0.3c0.8-0.2,1.3-0.6,1.8-1.3c0.4-0.7,0.5-1.4,0.3-2.2
		c-0.2-0.8-0.6-1.4-1.3-1.8c-0.7-0.4-1.4-0.5-2.2-0.3c-0.8,0.2-1.4,0.6-1.8,1.3c-0.4,0.7-0.5,1.4-0.3,2.2
		C336.4,69.3,336.8,69.8,337.5,70.3z"/>
	<path class="st3" d="M324.8,201.9c0.5-1,0.6-2,0.2-3.1s-1.1-1.8-2.1-2.3s-2-0.5-3-0.2c-1.1,0.4-1.8,1.1-2.3,2.1s-0.5,2-0.1,3.1
		s1.1,1.8,2.1,2.3s2,0.5,3,0.2C323.5,203.6,324.3,202.9,324.8,201.9z"/>
	<path class="st3" d="M335.6,198.6c-0.2-0.1-0.5-0.1-0.7,0c-0.3,0.1-0.5,0.3-0.6,0.5l-5.2,11.1l-4.3-2c-0.3-0.1-0.5-0.1-0.8,0
		c-0.2,0.1-0.4,0.2-0.5,0.4l-2,4.3l1.4,3.8l20.2-7.2l-3.2-8.8L335.6,198.6z"/>
	<path class="st3" d="M463.1,242.7v-12.8c0-0.3-0.1-0.6-0.3-0.8s-0.5-0.3-0.8-0.3h-4.4c-0.3,0-0.6,0.1-0.8,0.3s-0.3,0.5-0.3,0.8
		v15.6c0,0.4,0.2,0.7,0.5,0.9l8.2,5.9c0.2,0.2,0.5,0.2,0.8,0.2c0.3-0.1,0.6-0.2,0.7-0.5l2.6-3.5c0.2-0.2,0.3-0.5,0.2-0.8
		c0-0.3-0.2-0.6-0.4-0.7L463.1,242.7z"/>
	<path class="st3" d="M340.4,73.7c-0.2,0-0.3,0.1-0.4,0.3l-1.7,2.9l0.7,2.8l14.9-3.8l-1.6-6.5l-2.9-1.7c-0.1-0.1-0.3-0.1-0.5-0.1
		s-0.4,0.2-0.5,0.3l-4.5,7.6l-2.9-1.7C340.8,73.6,340.6,73.6,340.4,73.7z"/>
	<path class="st3" d="M259.8,298c0.6-1.1,0.7-2.1,0.3-3.3c-0.3-1.1-1-2-2.1-2.5c-1.1-0.6-2.1-0.7-3.3-0.3c-1.1,0.3-2,1-2.5,2.1
		c-0.6,1.1-0.7,2.1-0.3,3.3c0.3,1.1,1,2,2.1,2.5c1.1,0.6,2.1,0.7,3.3,0.3S259.2,299.1,259.8,298z"/>
	<path class="st3" d="M426,86.1c1.8,0,3.2-0.6,4.5-1.9c1.2-1.2,1.8-2.7,1.8-4.5s-0.6-3.2-1.9-4.5c-1.2-1.2-2.7-1.8-4.5-1.8
		s-3.2,0.6-4.5,1.9c-1.2,1.2-1.8,2.7-1.8,4.5s0.6,3.2,1.9,4.5C422.7,85.5,424.2,86.1,426,86.1z"/>
	<path class="st3" d="M224.2,99.1c0.5,0.4,1,0.4,1.6,0.2l12.5-5.5c0.6-0.3,0.9-0.7,1-1.3c0.1-0.6-0.2-1.1-0.7-1.5l-11-8.4
		c-0.5-0.4-1-0.4-1.6-0.2c-0.6,0.3-0.9,0.7-1,1.3l-1.5,13.9C223.4,98.2,223.7,98.7,224.2,99.1z"/>
	<path class="st3" d="M289.2,61.8l20.8-5.2c0.9-0.2,1.6-0.8,1.8-1.8c0.3-0.9,0.1-1.8-0.6-2.5l-14.8-15.9c-0.7-0.7-1.5-0.9-2.4-0.7
		s-1.6,0.8-1.8,1.8l-6,21.1c-0.3,0.9-0.1,1.8,0.6,2.5C287.4,61.8,288.3,62,289.2,61.8z"/>
	<path class="st3" d="M238.3,157.6l-2.2-1.3c-0.2-0.1-0.3-0.1-0.5-0.1s-0.3,0.1-0.4,0.3l-4.5,7.6c-0.1,0.2-0.1,0.4,0,0.6l2.3,5.3
		c0.1,0.2,0.2,0.3,0.4,0.3c0.2,0.1,0.3,0.1,0.5,0l2.3-1c0.2-0.1,0.3-0.2,0.4-0.3c0.1-0.2,0.1-0.3,0-0.5l-1.7-3.8l3.7-6.2
		c0.1-0.2,0.1-0.3,0.1-0.5S238.4,157.7,238.3,157.6z"/>
	<path class="st3" d="M474,169.6l-10.6-2.6c-0.5-0.1-0.9,0-1.2,0.4c-0.3,0.4-0.4,0.8-0.3,1.3l3.3,10.6c0.1,0.5,0.5,0.8,0.9,0.9
		c0.5,0.1,0.9,0,1.2-0.4l7.3-7.9c0.3-0.4,0.4-0.8,0.3-1.3S474.5,169.7,474,169.6z"/>
	<path class="st3" d="M540.4,414.2c0-5.5,1.5-10.7,4.3-15.6c2.9-4.8,6.7-8.6,11.6-11.3c4.9-2.7,10.1-4,15.6-4s10.7,1.5,15.6,4.3
		c4.8,2.9,8.6,6.7,11.3,11.6c2.6,4.8,3.9,9.8,4,15.3H787C456,276.3,479,0,479,0h-46.2L425,24.9c-1.6,5-4.3,9.2-8.1,12.6
		c-3.9,3.4-8.3,5.6-13.3,6.6s-10,0.7-14.9-1c-4.8-1.7-8.9-4.5-12.3-8.4s-5.6-8.4-6.7-13.4s-0.8-10,0.8-14.9l2-6.3h-166
		c0.1,0.2,0.3,0.4,0.4,0.6c5.4,8,8.2,17.3,8.3,27.8c0,3.8,0,6.6-0.2,8.5c-0.1,3.2-0.5,6.4-1.3,9.6c-0.3,1.5-1.2,2.3-2.6,2.6
		c-3.2,0.7-6.4,1.2-9.6,1.4c-2,0.2-4.9,0.2-8.5,0.3c-10.5,0.1-19.7-2.6-27.6-8c-6.7-4.5-13-11.1-18.7-19.8l-22.8,0.1
		c-2,0-3.9-0.5-5.6-1.5s-3-2.5-3.9-4.4l-9-17.3H24c30,230.2,298.1,414.5,298.1,414.5h218.4C540.4,414.4,540.4,414.3,540.4,414.2z
		 M651.4,384.7c0.1,0,0.1,0.1,0.2,0.1l2,6.1c0.1,0.4,0.1,0.8-0.1,1.1c-0.2,0.4-0.5,0.6-0.9,0.7l-12.4,4c-0.4,0.1-0.8,0.1-1.1-0.1
		c-0.4-0.2-0.6-0.5-0.7-0.9l-2-6.1c0-0.1,0-0.1,0.1-0.2s0.1-0.1,0.2,0c0.8,0.3,2.7,0.9,5.7,1.9l0.4,0.2c0.6,0.2,1.1,0.3,1.4,0.4
		c0.6,0.1,1,0.1,1.4,0s0.8-0.4,1.2-0.8c0.2-0.3,0.5-0.6,0.9-1.1l0.2-0.3c1.8-2.4,3-4.1,3.5-4.8C651.2,384.7,651.3,384.7,651.4,384.7
		z M635.5,386.1c0.2-0.4,0.5-0.6,0.9-0.7l12.4-4c0.4-0.1,0.8-0.1,1.2,0.1s0.6,0.5,0.7,0.9l0.2,0.6c0.1,0.2,0,0.5-0.1,0.7l-0.1,0.2
		c-0.6,1-1.9,2.7-3.9,5.4l-0.2,0.3c-0.3,0.4-0.5,0.8-0.7,1c-0.3,0.4-0.6,0.6-0.8,0.7c-0.3,0.1-0.6,0.1-1.1-0.1
		c-0.3,0-0.6-0.2-1.1-0.4l-0.4-0.1c-3-1-5.1-1.7-6.2-2.1l-0.3-0.1c-0.2-0.1-0.4-0.2-0.5-0.5l-0.2-0.6
		C635.3,386.8,635.3,386.4,635.5,386.1z M584.2,340.7c0-0.6,0.4-1.1,1-1.3c1.3-0.5,2.7-0.9,4.1-1.2c0.9-0.2,2.1-0.4,3.7-0.6
		c4.5-0.7,8.7-0.1,12.4,1.7c3.2,1.5,6.3,4,9.3,7.4l9.8-1.4c0.9-0.1,1.7,0,2.5,0.3s1.4,0.9,1.9,1.6l6.1,8.5c0.4,0.7,0.5,1.5,0.1,2.2
		c-0.3,0.8-0.9,1.2-1.7,1.4l-9,1.3c0.9,1.4,1.7,2.5,2.2,3.3c0.2,0.2,0.2,0.5,0.2,0.9s-0.1,0.6-0.3,0.9l-5.1,6.9
		c-0.2,0.2-0.4,0.4-0.7,0.5s-0.6,0.1-0.9,0c-1.1-0.4-2.4-0.7-3.8-1.2l1.3,9c0.1,0.8-0.1,1.5-0.8,2s-1.4,0.7-2.2,0.4l-10-3.2
		c-0.8-0.3-1.5-0.7-2-1.4c-0.5-0.7-0.9-1.4-1-2.3l-1.4-9.8c-4.2-1.9-7.4-4.1-9.8-6.7c-2.8-3.1-4.6-6.9-5.3-11.5
		c-0.2-1.6-0.4-2.9-0.4-3.7C584.1,343.6,584.1,342.1,584.2,340.7z M117.4,135.2c-1.8,3.3-4.5,6-7.9,8c-3.3,1.9-6.9,2.9-10.8,2.9
		s-7.5-0.9-10.9-2.8c-3.4-1.9-6.1-4.4-8.1-7.7l-22.4-36c-1.5-2.5-2.3-5.2-2.4-8.1c-0.1-2.9,0.6-5.6,2-8s3.3-4.5,5.8-6
		c2.5-1.5,5.2-2.3,8.1-2.3s5.6,0.6,8.1,2s4.6,3.3,6.1,5.8l19.5,31.4c1.6,2.5,2,5.3,1.3,8.2c-0.8,2.9-2.4,5.1-5,6.6
		c-2.5,1.5-5.2,1.8-8.1,1.1c-2.9-0.8-5.1-2.4-6.6-4.9l-15.3-24.6c-0.3-0.5-0.3-1.1-0.2-1.7c0.1-0.6,0.4-1.1,1-1.4l3.8-2.4
		c0.6-0.3,1.2-0.4,1.7-0.3c0.6,0.1,1.1,0.5,1.4,1.1l15.3,24.7c0.3,0.4,0.7,0.6,1.2,0.8c0.5,0.2,0.9,0.1,1.3-0.1s0.6-0.6,0.8-1
		c0.1-0.4,0-0.8-0.3-1.2L77.5,87.8c-1.1-1.7-2.7-2.8-4.6-3.3s-3.7-0.2-5.4,0.8c-1.7,1-2.8,2.4-3.2,4.2c-0.5,1.8-0.2,3.6,0.9,5.3
		l22.3,36.1c1.9,3,4.5,4.9,8,5.8c3.4,0.8,6.6,0.4,9.6-1.3s4.9-4.3,5.7-7.5c0.8-3.3,0.3-6.4-1.5-9.3L90.9,88.9
		c-0.3-0.6-0.4-1.2-0.3-1.7c0.1-0.6,0.5-1.1,1.1-1.4l3.8-2.4c0.6-0.3,1.2-0.4,1.7-0.3c0.6,0.1,1.1,0.5,1.4,1.1l18.3,29.6
		c2.1,3.3,3.1,6.9,3.2,10.8C120.2,128.3,119.2,131.8,117.4,135.2z M132,48.4c-1.7,2.1-4.1,3.9-7.1,5.1c-3,1.3-6.3,1.9-9.8,1.9
		c-3.2,0-6.2-0.5-9.1-1.6c-2.8,2.2-6,3.4-9.6,3.8c-0.2,0-0.4,0-0.5-0.1s-0.3-0.2-0.3-0.4s0.1-0.4,0.4-0.7l0.5-0.5
		c0.8-0.7,1.4-1.4,1.8-2c0.6-1,1-2.4,1.3-4c-1.3-1.2-2.2-2.6-3-4c-0.7-1.4-1.1-3-1.1-4.5c0-2.6,0.9-4.9,2.6-7.1
		c1.8-2.1,4.1-3.9,7.1-5.1c3-1.3,6.2-1.9,9.8-1.9s6.8,0.6,9.8,1.9s5.4,3,7.1,5.1c1.8,2.1,2.6,4.5,2.6,7.1S133.8,46.3,132,48.4z
		 M202.6,244.6c-2.4,4-5.6,7.2-9.7,9.4c-4.1,2.2-8.4,3.4-13.1,3.3c-4.6,0-9-1.2-13-3.6s-7.2-5.6-9.4-9.7c-2.2-4.1-3.4-8.4-3.3-13.1
		c0-4.6,1.2-9,3.6-13c2.4-4,5.6-7.2,9.7-9.4c4.1-2.2,8.4-3.4,13.1-3.3c4.6,0,9,1.2,13,3.6c4,2.4,7.2,5.6,9.4,9.7
		c2.2,4.1,3.4,8.4,3.3,13.1C206.2,236.2,205,240.6,202.6,244.6z M210.4,114.8c-1,3.5-3.2,6.2-6.4,7.9c-3.2,1.7-6.6,2.1-10.1,1.1
		c-3-0.9-5.4-2.6-7.1-5.1l-16,4.5c-0.2,2-0.7,3.8-1.6,5.6l11,12.5c2.8-1.2,5.8-1.3,8.8-0.4c3.5,1,6.2,3.2,7.9,6.4s2.1,6.6,1.1,10.1
		s-3.2,6.2-6.4,7.9s-6.6,2.1-10.1,1.1s-6.2-3.2-7.9-6.4s-2.1-6.6-1.1-10.1c0.3-1,0.6-1.9,1.1-2.7l-11-12.5c-2.8,1.2-5.8,1.3-8.8,0.4
		c-3.5-1-6.2-3.2-7.9-6.4s-2.1-6.6-1.1-10.1s3.2-6.2,6.4-7.9c3.2-1.7,6.6-2.1,10.1-1.1c3,0.9,5.4,2.6,7.1,5.1l16-4.5
		c0.1-0.9,0.3-1.9,0.6-2.9c1-3.5,3.2-6.2,6.4-7.9s6.6-2.1,10.1-1.1s6.2,3.2,7.9,6.4S211.4,111.3,210.4,114.8z M211,50.8L211,50.8
		L211,50.8L211,50.8z M553.1,332.1c0.4-0.2,0.7-0.2,1.1-0.1c0.4,0.1,0.7,0.4,0.9,0.7c0.2,0.3,0.3,0.7,0.1,1l-1.7,5.6
		c-0.1,0.4-0.4,0.7-0.7,0.8c-0.4,0.2-0.7,0.2-1.1,0.1c-0.4-0.1-0.6-0.3-0.8-0.7c-0.2-0.3-0.2-0.7-0.1-1.1l1.7-5.5
		C552.5,332.6,552.7,332.3,553.1,332.1z M552.3,323.9c0.1,0.1,0.1,0.2,0,0.3l-1.4,1.4c0.8,0.8,1.3,1.7,1.6,2.7s0.3,2,0,3l-11.9-3.7
		c0.3-1,0.9-1.8,1.7-2.5s1.8-1.1,2.8-1.3l-0.4-2c0-0.1,0-0.2,0.2-0.2c0.1,0,0.2,0,0.2,0.1l0.4,2c0.9-0.1,1.9,0,2.8,0.3
		c0.9,0.3,1.7,0.7,2.4,1.3l1.5-1.4C552.1,323.8,552.2,323.8,552.3,323.9z M481.3,175.2c-0.5,2.3-1.6,4.3-3.1,6s-3.5,3-5.8,3.7
		s-4.5,0.8-6.8,0.3s-4.3-1.6-6-3.1s-3-3.5-3.7-5.8s-0.8-4.5-0.3-6.8s1.6-4.3,3.1-6c1.6-1.7,3.5-3,5.8-3.7s4.5-0.8,6.8-0.3
		s4.3,1.6,6,3.1c1.7,1.6,3,3.5,3.7,5.8S481.8,172.9,481.3,175.2z M411.3,73.4c0.1-1.9,0.3-3.9,0.8-5.8c0.2-0.9,0.7-1.4,1.6-1.6
		c1.9-0.5,3.9-0.7,5.8-0.8c1.2-0.1,2.9-0.1,5.1-0.2c6.3,0,11.9,1.6,16.6,4.8c4.1,2.7,7.8,6.7,11.3,11.9l13.7-0.1
		c1.2,0,2.4,0.3,3.4,0.9s1.8,1.5,2.3,2.6l6.7,12.9c0.4,1.1,0.4,2.1-0.2,3.1s-1.5,1.5-2.6,1.5l-12.5,0.1c1,2.1,1.8,3.8,2.4,5
		c0.2,0.3,0.2,0.8,0.1,1.3s-0.3,0.9-0.5,1.1l-8.4,8.5c-0.3,0.3-0.6,0.4-1.1,0.5s-0.9,0-1.3-0.1c-1.4-0.7-3.1-1.5-5-2.3l0.1,12.5
		c0,1.1-0.5,2-1.5,2.6s-2,0.7-3.1,0.1l-13.1-6.4c-1.1-0.5-1.9-1.3-2.5-2.3s-0.9-2.1-0.9-3.4l-0.1-13.7c-5.4-3.4-9.4-7.1-12-11
		c-3.3-4.8-4.9-10.4-5-16.7C411.2,76.2,411.2,74.5,411.3,73.4z M374.3,151c0-0.5,0.2-0.9,0.5-1.3c0.4-0.4,0.8-0.5,1.3-0.5H392
		c0.5,0,0.9,0.2,1.3,0.5c0.4,0.4,0.5,0.8,0.5,1.3v0.7c0,0.3-0.1,0.5-0.3,0.7l-0.2,0.2c-1.1,0.9-3.3,2.5-6.5,4.8l-0.4,0.3
		c-0.5,0.4-0.9,0.7-1.2,0.8c-0.5,0.3-0.9,0.5-1.2,0.5s-0.7-0.2-1.2-0.5c-0.3-0.2-0.7-0.4-1.2-0.8l-0.4-0.3c-3.1-2.3-5.3-3.9-6.4-4.7
		l-0.3-0.2c-0.2-0.2-0.3-0.4-0.3-0.7V151H374.3z M374.3,154.2c0-0.1,0-0.2,0.1-0.2s0.2,0,0.2,0c0.8,0.6,2.8,2.1,5.9,4.3l0.4,0.3
		c0.6,0.5,1.1,0.8,1.5,1c0.6,0.3,1.2,0.5,1.7,0.5s1.1-0.2,1.7-0.5c0.4-0.2,0.9-0.5,1.5-1l0.4-0.3c3-2.2,5-3.6,5.9-4.3
		c0.1-0.1,0.2-0.1,0.2,0c0.1,0.1,0.1,0.1,0.1,0.2v7.8c0,0.5-0.2,0.9-0.5,1.3c-0.4,0.4-0.8,0.5-1.3,0.5h-15.9c-0.5,0-0.9-0.2-1.3-0.5
		c-0.4-0.4-0.5-0.8-0.5-1.3v-7.8H374.3z M344.3,52.5c0.4-0.1,0.8,0,1.1,0.2l7.2,4.3c0.3,0.2,0.6,0.5,0.7,0.9l0.1,0.3l-7.5,1.9
		l-1.9-7.5L344.3,52.5z M329.6,56.7c0.2-0.3,0.5-0.6,0.9-0.7l11.7-2.9l2,7.9c0.1,0.4,0.3,0.7,0.7,0.9c0.3,0.2,0.7,0.3,1.1,0.2l7.9-2
		l4.8,19.1c0.1,0.4,0,0.8-0.2,1.1c-0.2,0.3-0.5,0.6-0.9,0.7L338,85.9c-0.4,0.1-0.8,0-1.1-0.2c-0.3-0.2-0.6-0.5-0.7-0.9l-6.8-27
		C329.3,57.4,329.4,57,329.6,56.7z M329.9,129.4c1.5-0.1,2.7,0.4,3.8,1.4c0.9,0.9,1.5,1.9,1.6,3.1l6.5,1.3c0.2-0.3,0.4-0.6,0.7-0.9
		c1-1.1,2.2-1.6,3.7-1.7c1.5-0.1,2.7,0.4,3.8,1.4c1.1,1,1.6,2.2,1.7,3.7s-0.4,2.7-1.4,3.8s-2.2,1.6-3.7,1.7
		c-1.5,0.1-2.7-0.4-3.8-1.4c-0.9-0.9-1.5-1.9-1.6-3.1l-6.5-1.3c-0.4,0.7-0.9,1.2-1.6,1.7l1.7,6.4c1.2,0.1,2.3,0.6,3.2,1.4
		c1.1,1,1.6,2.2,1.7,3.7s-0.4,2.7-1.4,3.8s-2.2,1.6-3.7,1.7c-1.5,0.1-2.7-0.4-3.8-1.4c-1.1-1-1.6-2.2-1.7-3.7s0.4-2.7,1.4-3.8
		c0.3-0.3,0.6-0.6,0.9-0.8l-1.7-6.4c-1.2-0.1-2.3-0.6-3.2-1.4c-1.1-1-1.6-2.2-1.7-3.7s0.4-2.7,1.4-3.8
		C327.3,130.1,328.5,129.5,329.9,129.4z M295.4,232.4c0.1,0.2,0.1,0.5,0.1,0.8c-0.1,0.3-0.2,0.6-0.3,0.7l-5.5,5.6
		c-0.2,0.2-0.4,0.3-0.7,0.4c-0.3,0.1-0.6,0-0.8-0.1c-0.9-0.5-2-1-3.3-1.5v8.3c0,0.8-0.3,1.3-1,1.7s-1.3,0.4-2,0.1l-8.6-4.2
		c-0.7-0.3-1.2-0.8-1.7-1.5c-0.4-0.7-0.6-1.4-0.6-2.2v-9c-3.5-2.2-6.2-4.7-7.9-7.3c-2.2-3.2-3.3-6.8-3.3-11c0-1.5,0-2.6,0.1-3.4
		c0.1-1.3,0.2-2.5,0.5-3.8c0.1-0.6,0.5-0.9,1-1c1.3-0.3,2.5-0.5,3.8-0.5c0.8-0.1,1.9-0.1,3.4-0.1c4.2,0,7.8,1,11,3.2
		c2.7,1.8,5.1,4.4,7.4,7.9h9c0.8,0,1.6,0.2,2.2,0.6c0.7,0.4,1.2,1,1.5,1.7l4.4,8.5c0.3,0.7,0.2,1.4-0.2,2c-0.4,0.7-1,1-1.7,1h-8.3
		C294.5,230.5,295,231.6,295.4,232.4z M279.4,153.8c-0.4,0.7-1.1,1.1-2,1.2c-0.9,0.1-1.6-0.1-2.1-0.7L265,143.8l-9.5,5.1
		c-0.7,0.4-1.4,0.5-2.1,0.2c-0.7-0.3-1.2-0.8-1.5-1.4c-0.3-0.6-0.3-1.4,0-2.2l3.3-8l36.3-19.4c0.3-0.2,0.4-0.4,0.2-0.8
		c-0.2-0.3-0.4-0.5-0.8-0.4l-39.2,13.4l-8.8-8.8c-0.8-0.8-1-1.7-0.6-2.7c0.3-1,1.1-1.6,2.2-1.7l57.4-7.6c1.1-0.1,1.9,0.3,2.5,1.2
		s0.6,1.8,0.1,2.8L279.4,153.8z M304.8,295.4l1-9.7c0-0.1,0.1-0.2,0.2-0.2s0.2,0,0.3,0.1c1,0.9,3.2,2.9,6.8,6.1l0.4,0.5
		c0.7,0.6,1.3,1.1,1.7,1.4c0.7,0.5,1.4,0.8,2,0.8s1.4-0.1,2.2-0.4c0.5-0.2,1.1-0.6,1.9-1l0.5-0.3c4-2.3,6.6-3.8,7.9-4.6
		c0.1-0.1,0.2-0.1,0.3,0c0.1,0.1,0.1,0.2,0.1,0.3l-1,9.7c-0.1,0.6-0.3,1.1-0.8,1.5s-1.1,0.6-1.7,0.5l-19.8-2.1
		c-0.6-0.1-1.1-0.3-1.5-0.8C304.9,296.6,304.7,296,304.8,295.4z M329.9,286l-0.3,0.2c-1.5,0.9-4.4,2.6-8.7,5.1l-0.5,0.3
		c-0.7,0.4-1.2,0.7-1.6,0.9c-0.6,0.3-1.2,0.5-1.6,0.4c-0.4,0-0.9-0.3-1.5-0.7c-0.3-0.2-0.8-0.6-1.4-1.2l-0.4-0.4
		c-3.6-3.3-6-5.5-7.3-6.7l-0.3-0.3c-0.3-0.3-0.4-0.6-0.3-0.9l0.1-0.9c0.1-0.6,0.3-1.1,0.8-1.5s1.1-0.6,1.7-0.5l19.8,2.1
		c0.6,0.1,1.1,0.3,1.5,0.8s0.6,1.1,0.5,1.7l-0.1,0.9C330.4,285.6,330.2,285.8,329.9,286z M322.3,225.4c-0.5,0.2-1,0.2-1.5-0.1
		c-0.5-0.2-0.8-0.6-1-1.1l-13.1-36.6c-0.2-0.5-0.2-1,0.1-1.5c0.2-0.5,0.6-0.8,1.1-1l15.8-5.6l3.8,10.7c0.2,0.5,0.5,0.9,1,1.1
		c0.5,0.2,1,0.3,1.5,0.1l10.7-3.8l9.2,25.9c0.2,0.5,0.2,1-0.1,1.5c-0.2,0.5-0.6,0.8-1.1,1L322.3,225.4z M326.2,178.4l0.5-0.2
		c0.5-0.2,1-0.2,1.5,0.1l10.5,5c0.5,0.2,0.8,0.6,1,1.1l0.2,0.5l-10.1,3.6L326.2,178.4z M273.7,43.7c1.3-4.5,3.6-8.4,7-11.6
		s7.3-5.4,11.8-6.6s9-1.1,13.6,0.2c4.5,1.3,8.4,3.6,11.6,7c3.2,3.4,5.4,7.3,6.6,11.8s1.1,9-0.2,13.6c-1.3,4.5-3.6,8.4-7,11.6
		s-7.3,5.4-11.8,6.6s-9,1.1-13.6-0.2c-4.5-1.3-8.4-3.6-11.6-7s-5.4-7.3-6.6-11.8C272.4,52.7,272.4,48.2,273.7,43.7z M260.7,92.9
		c0.2-0.7,0.5-1.3,1-1.8l5.4-5.6c0.4-0.4,0.8-0.6,1.3-0.8c0.5-0.1,1-0.1,1.5,0s0.9,0.4,1.3,0.8s0.6,0.8,0.8,1.3c0.1,0.5,0.1,1,0,1.5
		s-0.4,1-0.8,1.3l-4.7,4.8c-0.4,0.4-0.8,0.6-1.4,0.6s-1-0.2-1.4-0.6s-0.6-0.9-0.5-1.4s0.2-1,0.6-1.4l3.7-3.8
		c0.1-0.1,0.2-0.1,0.3-0.1c0.1,0,0.2,0,0.3,0.1l0.6,0.6c0.1,0.1,0.1,0.2,0.1,0.3c0,0.1,0,0.2-0.1,0.3l-3.7,4
		c-0.1,0.1-0.1,0.2-0.1,0.2s0,0.2,0.1,0.2c0.1,0.1,0.1,0.1,0.2,0.1s0.1,0,0.2-0.1l4.7-4.8c0.3-0.3,0.4-0.6,0.4-1s-0.1-0.7-0.4-0.9
		c-0.2-0.3-0.5-0.4-0.9-0.4c-0.3,0-0.6,0.1-0.9,0.4l-5.4,5.5c-0.4,0.5-0.7,1-0.7,1.7c0,0.6,0.2,1.2,0.7,1.7c0.4,0.5,1,0.7,1.6,0.7
		s1.1-0.2,1.6-0.7l4.4-4.5c0.1-0.1,0.2-0.1,0.3-0.1s0.2,0,0.3,0.1l0.6,0.6c0.1,0.1,0.1,0.2,0.1,0.3c0,0.1,0,0.2-0.1,0.3l-4.4,4.5
		c-0.5,0.5-1.1,0.9-1.8,1c-0.7,0.2-1.4,0.2-2,0c-0.7-0.2-1.3-0.5-1.8-1s-0.8-1.1-1-1.8S260.5,93.6,260.7,92.9z M215.5,98.1
		c-1.2-2.7-1.7-5.5-1.4-8.5s1.4-5.7,3.1-8c1.8-2.4,4-4.2,6.7-5.4c2.7-1.2,5.5-1.7,8.5-1.4c3,0.3,5.7,1.4,8,3.1
		c2.4,1.8,4.2,4,5.4,6.7s1.7,5.5,1.4,8.5s-1.4,5.7-3.1,8c-1.8,2.4-4,4.2-6.7,5.4c-2.7,1.2-5.5,1.7-8.5,1.4c-3-0.3-5.7-1.4-8-3.1
		C218.5,103,216.7,100.8,215.5,98.1z M244.4,170.5c-1.2,2-2.8,3.6-4.8,4.7c-2,1.1-4.2,1.7-6.5,1.7s-4.5-0.6-6.5-1.8
		s-3.6-2.8-4.7-4.8c-1.1-2-1.7-4.2-1.7-6.5s0.6-4.5,1.8-6.5s2.8-3.6,4.8-4.7c2-1.1,4.2-1.7,6.5-1.7s4.5,0.6,6.5,1.8s3.6,2.8,4.7,4.8
		c1.1,2,1.7,4.2,1.7,6.5S245.6,168.4,244.4,170.5z M254.7,317.2c-0.9-0.5-1.5-1.2-1.8-2.2l-6.5-21.1c-0.3-1-0.2-1.9,0.3-2.8
		s1.2-1.5,2.2-1.8l30.5-9.4c1-0.3,1.9-0.2,2.8,0.3s1.5,1.2,1.8,2.2l6.5,21.1c0.3,1,0.2,1.9-0.3,2.8s-1.2,1.5-2.2,1.8l-30.5,9.4
		C256.5,317.7,255.6,317.6,254.7,317.2z M310,361.6c-1.2,3.4-3.2,6.4-6,8.8s-6,3.9-9.6,4.6s-7.2,0.4-10.6-0.8
		c-3.4-1.2-6.4-3.2-8.8-6s-3.9-6-4.6-9.6s-0.4-7.2,0.8-10.6c1.2-3.4,3.2-6.4,6-8.8s6-3.9,9.6-4.6s7.2-0.4,10.6,0.8
		c3.4,1.2,6.4,3.2,8.8,6s3.9,6,4.6,9.6S311.2,358.1,310,361.6z M319.4,328.1v4c0,0.4-0.1,0.7-0.3,1c-0.2,0.3-0.4,0.5-0.8,0.7
		l-3.8,1.9c-0.3,0.1-0.6,0.1-0.9-0.1s-0.4-0.4-0.4-0.8v-3.7c-0.6,0.3-1.1,0.5-1.5,0.7c-0.1,0.1-0.2,0.1-0.4,0
		c-0.1,0-0.3-0.1-0.3-0.2l-2.5-2.5c-0.1-0.1-0.1-0.2-0.2-0.3c0-0.1,0-0.3,0-0.4c0.2-0.4,0.4-0.9,0.7-1.5h-3.7
		c-0.3,0-0.6-0.1-0.8-0.4c-0.2-0.3-0.2-0.6,0-0.9l1.9-3.8c0.2-0.3,0.4-0.6,0.7-0.7c0.3-0.2,0.6-0.3,1-0.3h4c1-1.6,2.1-2.8,3.3-3.5
		c1.4-1,3.1-1.4,4.9-1.4c0.7,0,1.2,0,1.5,0c0.6,0,1.1,0.1,1.7,0.2c0.3,0.1,0.4,0.2,0.5,0.5c0.1,0.6,0.2,1.1,0.2,1.7
		c0,0.4,0,0.9,0,1.5c0,1.9-0.5,3.5-1.4,4.9C322.1,325.9,321,327,319.4,328.1z M376.4,393c-1.8,2.6-4.2,4.2-7.3,4.8
		c-3.1,0.6-6,0-8.5-1.7c-2.6-1.8-4.2-4.2-4.8-7.3c-0.2-0.9-0.2-1.7-0.2-2.5l-13.3-5.2c-1.7,2-3.9,3.3-6.5,3.8c-3.1,0.6-6,0-8.5-1.7
		c-2.6-1.8-4.2-4.2-4.8-7.3c-0.6-3.1,0-6,1.7-8.5c1.8-2.6,4.2-4.2,7.3-4.8c2.6-0.5,5.1-0.1,7.5,1.1l10.4-9.7
		c-0.3-0.7-0.5-1.5-0.7-2.4c-0.6-3.1,0-6,1.7-8.5s4.2-4.2,7.3-4.8c3.1-0.6,5.9,0,8.5,1.7c2.6,1.8,4.2,4.2,4.8,7.3
		c0.6,3.1,0,6-1.7,8.5c-1.8,2.6-4.2,4.2-7.3,4.8c-2.6,0.5-5.1,0.1-7.5-1.1l-10.4,9.7c0.6,1.6,0.9,3.2,0.9,4.9l13.3,5.2
		c1.7-2,3.9-3.3,6.5-3.8c3.1-0.6,6,0,8.5,1.7c2.6,1.8,4.2,4.2,4.8,7.3C378.7,387.6,378.1,390.4,376.4,393z M383.8,239.3
		c-0.5,1.9-1.4,3.5-2.8,4.9L363.6,262c-1.4,1.5-3.1,2.2-5.1,2.1c-2,0-3.7-0.8-5.1-2.2s-2-3.1-2-5.1s0.7-3.7,2.1-5.1l13.6-14
		c0.3-0.3,0.7-0.4,1.1-0.4s0.8,0.1,1.1,0.4l2.2,2.1c0.3,0.3,0.5,0.7,0.5,1.1s-0.2,0.8-0.5,1.1l-13.7,14c-0.2,0.3-0.3,0.6-0.3,0.9
		s0.1,0.6,0.3,0.9c0.2,0.2,0.5,0.3,0.8,0.3s0.5-0.1,0.7-0.4l17.4-17.7c1-1,1.4-2.2,1.4-3.5s-0.5-2.5-1.4-3.4s-2-1.4-3.3-1.4
		s-2.4,0.5-3.3,1.4l-20,20.4c-1.6,1.7-2.5,3.8-2.5,6.1c0,2.4,0.8,4.4,2.4,6.1s3.6,2.5,5.9,2.5s4.2-0.8,5.8-2.5l16.4-16.7
		c0.3-0.3,0.7-0.5,1.1-0.5s0.8,0.2,1.1,0.5l2.2,2.1c0.3,0.3,0.5,0.7,0.5,1.1s-0.2,0.8-0.5,1.1L366,269.9c-1.8,1.9-4,3.2-6.5,3.8
		s-5,0.6-7.5,0c-2.5-0.7-4.6-2-6.5-3.9c-1.8-1.8-3-4-3.6-6.6s-0.6-5.1,0-7.6c0.7-2.5,1.9-4.7,3.8-6.5l19.9-20.5
		c1.4-1.4,3-2.3,4.9-2.9c1.9-0.5,3.7-0.5,5.6,0c1.8,0.5,3.5,1.5,4.9,2.9s2.3,3,2.8,4.9C384.2,235.5,384.2,237.4,383.8,239.3z
		 M391,229.5l-27.9-53.8c-0.6-1.3-0.5-2.4,0.4-3.5s2-1.5,3.3-1.3l72.3,15.6c1.4,0.2,2.3,1,2.6,2.3s0,2.5-1.1,3.4l-12.1,10.3
		L380,181.4c-0.4-0.1-0.8,0-1,0.4c-0.3,0.4-0.2,0.8,0.2,1l44.2,28.4l3.4,10.5c0.3,1.1,0.3,2-0.2,2.8s-1.2,1.3-2.1,1.6
		s-1.8,0.2-2.7-0.4l-11.6-7.5L396,230.4c-0.7,0.7-1.6,1-2.7,0.7S391.4,230.4,391,229.5z M402.9,270.3c-0.1-0.1-0.1-0.2,0-0.3
		c0.1-0.1,0.2-0.1,0.3,0l1.7,1.7c0.9-0.7,1.8-1.2,2.9-1.5s2.1-0.4,3.2-0.2l0.6-2.3c0-0.1,0.1-0.2,0.2-0.2s0.2,0.1,0.2,0.3l-0.5,2.3
		c1.2,0.3,2.3,0.8,3.2,1.6c0.9,0.8,1.5,1.8,1.8,3l-14,3.8c-0.3-1.2-0.3-2.3,0.1-3.5s1-2.2,2-3L402.9,270.3z M404,358
		c-0.1,0.4-0.3,0.8-0.7,1.1l-4.1,4.2c-0.3,0.3-0.7,0.5-1.2,0.5s-0.9-0.2-1.2-0.5c-0.3-0.3-0.5-0.7-0.5-1.2s0.2-0.9,0.5-1.2l3.2-3.3
		c0.1-0.1,0.2-0.1,0.3-0.1c0.1,0,0.2,0,0.3,0.1l0.5,0.5c0.1,0.1,0.1,0.2,0.1,0.3c0,0.1,0,0.2-0.1,0.3l-3.2,3.3
		c0,0.1-0.1,0.1-0.1,0.2s0,0.1,0.1,0.2s0.1,0.1,0.2,0.1s0.1,0,0.2-0.1l4.1-4.1c0.2-0.2,0.3-0.5,0.3-0.8s-0.1-0.6-0.3-0.8
		c-0.2-0.2-0.5-0.3-0.8-0.3s-0.6,0.1-0.8,0.3l-4.7,4.8c-0.4,0.4-0.6,0.9-0.6,1.4s0.2,1,0.6,1.4s0.8,0.6,1.4,0.6c0.5,0,1-0.2,1.4-0.6
		l3.8-3.9c0.1-0.1,0.2-0.1,0.3-0.1s0.2,0,0.3,0.1l0.5,0.5c0.1,0.1,0.1,0.2,0.1,0.3c0,0.1,0,0.2-0.1,0.3l-3.8,3.9
		c-0.4,0.4-0.9,0.7-1.5,0.9s-1.2,0.1-1.7,0c-0.6-0.2-1.1-0.5-1.5-0.9s-0.7-0.9-0.8-1.5s-0.1-1.2,0-1.8s0.4-1.1,0.9-1.5l4.6-4.8
		c0.3-0.3,0.7-0.5,1.1-0.7s0.9-0.1,1.3,0s0.8,0.3,1.1,0.7c0.3,0.3,0.5,0.7,0.7,1.1C404.1,357.1,404.1,357.5,404,358z M404,288.2
		c-0.2,0.4-0.6,0.6-1,0.8c-0.4,0.1-0.9,0.1-1.3-0.1s-0.7-0.5-0.8-1l-1.8-6.5c-0.1-0.4,0-0.8,0.2-1.2c0.3-0.4,0.6-0.6,1-0.8
		c0.4-0.1,0.8-0.1,1.2,0.1c0.4,0.2,0.7,0.5,0.8,0.9l1.8,6.5C404.3,287.4,404.3,287.9,404,288.2z M419.1,286.7
		c-0.3,0.4-0.6,0.7-1,0.8l-1.1,0.3l0.9,3.4c0.2,0.7,0,1.2-0.4,1.6c-0.5,0.4-1,0.5-1.5,0.4c-0.6-0.1-0.9-0.5-1.1-1.2l-0.9-3.4
		l-2.1,0.6l0.9,3.4c0.2,0.6,0,1.2-0.4,1.6s-0.9,0.6-1.5,0.4c-0.6-0.1-1-0.5-1.2-1.2l-0.9-3.4l-1.1,0.3c-0.4,0.1-0.9,0.1-1.3-0.2
		c-0.4-0.2-0.7-0.6-0.8-1.1l-2.7-10.1l13.9-3.8l2.7,10.1C419.4,285.8,419.4,286.3,419.1,286.7z M422.3,283.3c-0.3,0.4-0.6,0.6-1,0.8
		c-0.4,0.1-0.8,0.1-1.2-0.1c-0.4-0.2-0.7-0.5-0.8-1l-1.8-6.5c-0.1-0.4-0.1-0.9,0.2-1.3c0.2-0.4,0.6-0.6,1-0.7s0.9-0.1,1.3,0.1
		s0.7,0.5,0.8,0.9l1.8,6.5C422.6,282.5,422.5,282.9,422.3,283.3z M423,313.6c0-0.4,0.2-0.8,0.5-1.1l22.1-22.1
		c0.3-0.3,0.7-0.5,1.1-0.5s0.8,0.2,1.1,0.5l9.5,9.5l-6.5,6.5c-0.3,0.3-0.5,0.7-0.5,1.1s0.2,0.8,0.5,1.1l6.5,6.5l-15.6,15.6
		c-0.3,0.3-0.7,0.5-1.1,0.5s-0.8-0.2-1.1-0.5l-16-16C423.1,314.4,423,314.1,423,313.6z M458.9,301.4l0.3,0.3
		c0.3,0.3,0.5,0.7,0.5,1.1v9.3c0,0.4-0.2,0.8-0.5,1.1l-0.3,0.3l-6.1-6.1L458.9,301.4z M472.2,340.1l-6.7,40.3
		c-0.1,0.7-0.5,1.2-1.2,1.6s-1.3,0.4-1.9,0.1l-11.7-4.8l-5.9,7.2c-0.4,0.6-1,0.8-1.6,0.8c-0.7,0-1.2-0.2-1.7-0.6s-0.7-1-0.7-1.7
		v-7.5l22.5-27.4c0.2-0.2,0.2-0.5-0.1-0.7c-0.2-0.2-0.5-0.2-0.7,0L435.7,371l-9.9-4.1c-0.9-0.4-1.3-1-1.4-2
		c-0.1-0.9,0.3-1.6,1.2-2.1l43.2-25c0.8-0.4,1.6-0.4,2.4,0.1S472.3,339.2,472.2,340.1z M471.2,262.7c-3.5,2.1-7.4,3.1-11.5,3.1
		s-8-1-11.5-3.1s-6.3-4.9-8.4-8.4s-3.1-7.4-3.1-11.5s1-8,3.1-11.5s4.9-6.3,8.4-8.4c3.5-2.1,7.4-3.1,11.5-3.1s8,1,11.5,3.1
		s6.3,4.9,8.4,8.4s3.1,7.4,3.1,11.5s-1,8-3.1,11.5C477.5,257.9,474.7,260.7,471.2,262.7z M483.6,398.8c-0.1,0.3-0.3,0.4-0.6,0.5
		c-0.3,0.1-0.6,0.1-0.8,0c-0.3-0.1-0.5-0.3-0.6-0.6l-1.5-4c-0.1-0.3-0.1-0.5,0.1-0.8c0.1-0.3,0.3-0.4,0.6-0.5c0.3-0.1,0.5-0.1,0.8,0
		s0.4,0.3,0.5,0.5l1.5,4C483.7,398.3,483.7,398.5,483.6,398.8z M489.2,387.7c0.6,0.5,1.1,1,1.3,1.8l-8.6,3.3
		c-0.3-0.7-0.3-1.4-0.2-2.2c0.2-0.8,0.5-1.4,1.1-2l-1.1-1c-0.1-0.1-0.1-0.1,0-0.2s0.1-0.1,0.2,0l1.2,0.9c0.5-0.5,1.1-0.9,1.7-1.1
		c0.7-0.3,1.3-0.4,2-0.3l0.2-1.5c0-0.1,0-0.1,0.1-0.1s0.1,0.1,0.1,0.2L487,387C487.8,387,488.5,387.3,489.2,387.7z M493,396.8
		c-0.1,0.3-0.3,0.5-0.6,0.6l-0.7,0.3l0.8,2.1c0.2,0.4,0.1,0.8-0.2,1s-0.6,0.4-0.9,0.4c-0.4,0-0.6-0.3-0.8-0.7l-0.8-2.1l-1.3,0.5
		l0.8,2.1c0.2,0.4,0.1,0.7-0.1,1s-0.6,0.4-0.9,0.4s-0.6-0.2-0.8-0.7l-0.8-2.1l-0.7,0.3c-0.3,0.1-0.6,0.1-0.8,0
		c-0.3-0.1-0.5-0.3-0.6-0.6l-2.4-6.2l8.5-3.3l2.4,6.2C493.1,396.3,493.1,396.6,493,396.8z M494.8,394.5c-0.1,0.3-0.3,0.4-0.6,0.5
		c-0.3,0.1-0.5,0.1-0.8,0s-0.5-0.3-0.6-0.6l-1.5-4c-0.1-0.3-0.1-0.5,0-0.8s0.3-0.4,0.6-0.5c0.3-0.1,0.6-0.1,0.8,0
		c0.3,0.1,0.5,0.3,0.6,0.5l1.5,4C494.9,393.9,494.9,394.2,494.8,394.5z M508.6,362.5c-0.2,0.3-0.5,0.4-0.8,0.5l-17.1,3
		c-0.3,0.1-0.6,0-0.9-0.2s-0.4-0.5-0.5-0.8l-4.1-23.7c-0.1-0.3,0-0.7,0.2-0.9c0.2-0.3,0.5-0.4,0.8-0.5l10.2-1.8l1.2,6.9
		c0.1,0.3,0.2,0.6,0.5,0.8c0.3,0.2,0.6,0.3,0.9,0.2l6.9-1.2l2.9,16.7C508.9,361.9,508.8,362.2,508.6,362.5z M498,337.8l0.3-0.1
		c0.3-0.1,0.6,0,0.9,0.2l5.9,4.1c0.3,0.2,0.4,0.5,0.5,0.8l0.1,0.3l-6.5,1.1L498,337.8z M507,293.9c-1.3,2.2-3,3.9-5.1,5.1
		s-4.5,1.9-7,1.9s-4.9-0.6-7-1.9c-2.2-1.3-3.9-3-5.1-5.1c-1.3-2.2-1.9-4.5-1.9-7s0.6-4.9,1.9-7s3-3.9,5.1-5.1c2.2-1.3,4.5-1.9,7-1.9
		s4.9,0.6,7,1.9s3.9,3,5.1,5.1c1.3,2.2,1.9,4.5,1.9,7S508.3,291.7,507,293.9z M514,207.3c-0.1,0.1-0.3,0.2-0.4,0.2
		c-3.4,0.2-6.4-0.4-9.3-1.9c-2.4,1.4-5.1,2.4-7.9,2.9c-3.2,0.5-6.2,0.5-9.1-0.2s-5.3-1.9-7.2-3.5s-3-3.7-3.4-6s0-4.6,1.3-6.8
		s3.1-4.1,5.6-5.7s5.3-2.7,8.5-3.2s6.2-0.5,9.1,0.2s5.3,1.9,7.2,3.5c1.9,1.7,3.1,3.7,3.5,6c0.2,1.4,0.2,2.8-0.3,4.3
		c-0.4,1.4-1.1,2.8-2,4.1c0.5,1.4,1.1,2.6,1.8,3.4c0.4,0.5,1,1,1.9,1.5l0.6,0.3c0.3,0.2,0.5,0.4,0.5,0.6
		C514.2,207.1,514.1,207.2,514,207.3z M519.9,279.6c-1.7-2.4-2.6-5.2-2.7-8.4c0-1.2,0-2,0-2.6c0-1,0.1-2,0.3-2.9
		c0.1-0.4,0.3-0.7,0.8-0.8c1-0.2,1.9-0.4,2.9-0.5c0.6-0.1,1.5-0.1,2.6-0.1c3.2-0.1,6,0.7,8.5,2.2c2.1,1.3,4,3.3,5.8,5.9l6.9-0.2
		c0.6,0,1.2,0.1,1.7,0.4s0.9,0.7,1.2,1.3l3.5,6.4c0.2,0.5,0.2,1.1-0.1,1.6s-0.7,0.8-1.3,0.8l-6.3,0.2c0.5,1.1,0.9,1.9,1.3,2.5
		c0.1,0.2,0.1,0.4,0.1,0.6s-0.1,0.4-0.3,0.6l-4.2,4.4c-0.1,0.1-0.3,0.2-0.6,0.3c-0.2,0.1-0.5,0-0.6,0c-0.7-0.3-1.6-0.7-2.6-1.1
		l0.2,6.3c0,0.6-0.2,1-0.7,1.4c-0.5,0.3-1,0.4-1.6,0.1l-6.7-3.1c-0.5-0.3-1-0.6-1.3-1.1s-0.5-1.1-0.5-1.7l-0.2-6.9
		C523.3,283.4,521.2,281.6,519.9,279.6z M539.5,329l-1.7,5.6c-0.1,0.4-0.3,0.7-0.7,0.8c-0.3,0.2-0.7,0.2-1.1,0.1
		c-0.4-0.1-0.7-0.3-0.9-0.7c-0.2-0.3-0.3-0.7-0.1-1.1l1.7-5.6c0.1-0.4,0.3-0.6,0.7-0.8c0.4-0.2,0.7-0.2,1.1-0.1
		c0.4,0.1,0.6,0.3,0.8,0.7C539.6,328.3,539.6,328.6,539.5,329z M538.7,386c0,0.4-0.2,0.8-0.5,1.1s-0.7,0.5-1.1,0.5h-13.7
		c-0.4,0-0.8-0.2-1.1-0.5s-0.5-0.7-0.5-1.1v-6.7c0-0.1,0-0.1,0.1-0.2c0.1,0,0.1,0,0.2,0c0.7,0.5,2.4,1.8,5.1,3.7l0.3,0.3
		c0.5,0.4,0.9,0.7,1.3,0.9c0.5,0.3,1,0.4,1.5,0.4s0.9-0.2,1.5-0.5c0.3-0.2,0.7-0.5,1.3-0.9l0.3-0.3c2.6-1.9,4.3-3.1,5.1-3.7
		c0.1-0.1,0.1-0.1,0.2,0c0.1,0,0.1,0.1,0.1,0.2L538.7,386L538.7,386z M538.7,377.1c0,0.3-0.1,0.5-0.3,0.6l-0.2,0.1
		c-0.9,0.7-2.8,2.1-5.6,4.1l-0.3,0.2c-0.4,0.4-0.8,0.6-1,0.7c-0.4,0.3-0.8,0.4-1.1,0.4s-0.6-0.1-1.1-0.4c-0.2-0.1-0.6-0.4-1-0.7
		l-0.3-0.2c-2.7-2-4.5-3.3-5.5-4.1l-0.2-0.2c-0.2-0.2-0.3-0.4-0.3-0.6v-0.6c0-0.4,0.2-0.8,0.5-1.1s0.7-0.5,1.1-0.5h13.7
		c0.4,0,0.8,0.2,1.1,0.5s0.5,0.7,0.5,1.1L538.7,377.1L538.7,377.1z M539,343.1c-0.4-0.3-0.5-0.8-0.3-1.4l0.9-2.9l-1-0.3
		c-0.4-0.1-0.7-0.4-0.9-0.7c-0.2-0.4-0.2-0.7-0.1-1.2l2.7-8.6l11.9,3.7l-2.7,8.6c-0.1,0.4-0.4,0.7-0.7,0.9c-0.4,0.2-0.7,0.2-1.1,0.1
		l-1-0.3l-0.9,2.9c-0.2,0.6-0.5,0.9-1,1s-1-0.1-1.3-0.4c-0.4-0.3-0.5-0.8-0.3-1.4l0.9-2.9l-1.8-0.6l-0.9,2.9c-0.2,0.5-0.5,0.9-1,1
		C539.9,343.6,539.4,343.5,539,343.1z"/>
	<path class="st3" d="M493,353c0.7-0.1,1.2-0.5,1.6-1c0.4-0.6,0.6-1.2,0.4-1.9c-0.1-0.7-0.5-1.2-1-1.6c-0.6-0.4-1.2-0.5-1.8-0.4
		c-0.7,0.1-1.2,0.5-1.6,1c-0.4,0.6-0.5,1.2-0.4,1.9c0.1,0.7,0.5,1.2,1,1.6C491.8,352.9,492.4,353.1,493,353z"/>
	<path class="st3" d="M501.6,351.1c-0.1-0.1-0.3-0.1-0.4-0.1c-0.2,0-0.3,0.1-0.4,0.2l-4.3,6.2l-2.4-1.7c-0.2-0.1-0.3-0.1-0.5-0.1
		s-0.3,0.1-0.4,0.2l-1.7,2.4l0.4,2.4l13.1-2.3l-1-5.7L501.6,351.1z"/>
	<path class="st3" d="M399.3,10.7c0.6,0.2,1.1,0.2,1.6-0.1s0.8-0.7,0.9-1.3l3-9.3h-4.6l-2.4,7.5c-0.1,0.6,0,1.3,0.2,1.9
		C398.3,10.1,398.7,10.5,399.3,10.7z"/>
	<path class="st3" d="M392.7,31.6c4.4,1.5,8.6,1.3,12.6-0.8c4-2,6.7-5.2,8.1-9.6L420.1,0h-2.6l-4.1,12.9c-1.2,3.8-3.6,6.6-7.2,8.4
		s-7.3,2-11,0.7s-6.4-3.7-8.1-7.3s-2-7.2-0.8-10.9l1.2-3.8H385l-3.1,9.9c-1.4,4.5-1,8.9,1.1,13.1S388.3,30,392.7,31.6z"/>
	<path class="st3" d="M183.1,18.9c-2,2.1-3,4.5-3,7.5c0,2.9,1.1,5.4,3.1,7.4c2.1,2,4.5,3,7.5,3c2.9,0,5.4-1.1,7.4-3.1s3-4.5,3-7.5
		c0-2.9-1.1-5.4-3.1-7.4c-2.1-2-4.5-3-7.5-3C187.6,15.8,185.1,16.8,183.1,18.9z"/>
	<path class="st3" d="M527.8,271.6c0-0.9-0.4-1.6-1-2.2s-1.4-0.9-2.3-0.9c-0.9,0-1.6,0.4-2.2,1c-0.6,0.6-0.9,1.4-0.9,2.3
		s0.4,1.6,1,2.2s1.4,0.9,2.3,0.9c0.9,0,1.6-0.4,2.2-1C527.6,273.2,527.9,272.5,527.8,271.6z"/>
	<path class="st3" d="M592.6,351.7c1,0.8,2.1,1,3.4,0.8c1.3-0.2,2.3-0.8,3-1.8c0.8-1,1-2.1,0.8-3.4s-0.8-2.3-1.8-3s-2.1-1-3.4-0.8
		c-1.3,0.2-2.3,0.8-3,1.8s-1,2.1-0.8,3.4C591,349.9,591.6,351,592.6,351.7z"/>
	<path class="st3" d="M501.4,285.8l-10-6.1c-0.5-0.3-0.9-0.3-1.4,0s-0.7,0.7-0.7,1.2v11.8c0,0.5,0.2,0.9,0.7,1.2s0.9,0.3,1.4,0
		l10-5.7c0.5-0.3,0.7-0.7,0.7-1.2C502.1,286.5,501.9,286.1,501.4,285.8z"/>
	<path class="st3" d="M487.3,388.8c0.1,0,0.2,0,0.3,0c0.1,0,0.2-0.1,0.2-0.2s0-0.2,0-0.3c0-0.1-0.1-0.2-0.2-0.2
		c-0.1-0.1-0.2-0.1-0.3,0c-0.1,0-0.2,0.1-0.2,0.2s-0.1,0.2,0,0.3S487.2,388.8,487.3,388.8z"/>
	<path class="st3" d="M483.7,389.6c-0.1-0.1-0.2-0.1-0.3,0s-0.2,0.1-0.2,0.2s0,0.2,0,0.3s0.1,0.2,0.2,0.2s0.2,0,0.3,0
		s0.2-0.1,0.2-0.2s0-0.2,0-0.3C483.9,389.7,483.8,389.7,483.7,389.6z"/>
	<path class="st3" d="M269.3,209.8c-1.2,0-2.1,0.4-2.9,1.2s-1.2,1.8-1.2,3s0.4,2.1,1.2,2.9s1.8,1.2,3,1.2s2.1-0.4,2.9-1.2
		s1.2-1.8,1.2-3s-0.4-2.1-1.2-2.9S270.5,209.7,269.3,209.8z"/>
	<path class="st3" d="M584.6,400.5c-0.1-0.4-0.3-0.7-0.7-0.9l-5.2-3.1c-0.4-0.2-0.7-0.3-1.1-0.2c-0.4,0.1-0.7,0.3-0.9,0.7
		l-10.3,17.5h10.5l7.6-12.8C584.7,401.3,584.7,400.9,584.6,400.5z"/>
</g>
<path class="st4" d="M472.2,20.2c0,0-3.2,231.1,358.5,157.9"/>
</svg>
