<?xml version="1.0" encoding="utf-8"?>
<!-- Generator: Adobe Illustrator 22.1.0, SVG Export Plug-In . SVG Version: 6.00 Build 0)  -->
<svg version="1.1" id="Layer_1" xmlns="http://www.w3.org/2000/svg" xmlns:xlink="http://www.w3.org/1999/xlink" x="0px" y="0px"
	 viewBox="0 0 1744.2 717.2" style="enable-background:new 0 0 1744.2 717.2;" xml:space="preserve">
<style type="text/css">
	.st0{fill:#2B9ED8;}
	.st1{fill:#5FBDEB;}
	.st2{fill:#3558A7;}
	.st3{fill:#FFFFFF;}
</style>
<rect class="st0" width="1744.2" height="717.2"/>
<g>
	<path class="st1" d="M51.2,260.2c2.1,0,3.6-0.7,5-2.1c1.4-1.4,2.1-3.1,2.1-5.2s-0.7-3.6-2.1-5c-1.4-1.4-3.1-2.1-5.2-2.1
		s-3.6,0.7-5,2.1c-1.4,1.4-2.1,3.1-2.1,5.2c0,2.1,0.7,3.6,2.1,5C47.4,259.6,49.1,260.2,51.2,260.2z"/>
	<path class="st1" d="M84.3,473.3l-18.5-4.5c-0.9-0.2-1.6,0-2.1,0.7s-0.7,1.4-0.5,2.2l5.7,18.3c0.2,0.9,0.9,1.4,1.6,1.6
		c0.9,0.2,1.6,0,2.1-0.7l12.6-13.7c0.5-0.7,0.7-1.4,0.5-2.2C85.5,474.1,85,473.4,84.3,473.3z"/>
	<path class="st1" d="M137.9,235.5c1.7,0.9,3.5,0.9,5.2,0.3c1.7-0.7,3.1-1.9,4-3.6c0.9-1.7,1-3.5,0.3-5.4c-0.7-1.9-1.9-3.1-3.6-4
		c-1.7-0.9-3.5-0.9-5.2-0.3c-1.9,0.7-3.1,1.9-4,3.6c-0.9,1.7-0.9,3.5-0.2,5.4C135,233.3,136.2,234.6,137.9,235.5z"/>
	<path class="st1" d="M34.6,405.2l-6.4,11.9l1.9,6.1l48.8-15.1L74.6,394l-14.7-7.8c-0.3-0.2-0.7-0.2-1.2,0c-0.3,0.2-0.7,0.3-0.9,0.7
		l-11.9,22.7l-9.3-4.8c-0.3-0.2-0.7-0.2-1.2,0C35,404.7,34.8,404.9,34.6,405.2z"/>
	<path class="st1" d="M667.9,19.7c0.2,0.2,0.5,0.2,0.7,0c0.2-0.2,0.3-0.2,0.5-0.3c0.2-0.2,0.2-0.3,0.2-0.7c0-0.3-0.2-0.3-0.3-0.5
		c-0.2-0.2-0.5-0.2-0.7-0.2c-0.2,0-0.3,0.2-0.5,0.5c-0.2,0.3-0.2,0.5-0.2,0.7S667.6,19.6,667.9,19.7z"/>
	<path class="st1" d="M320.6,27.2c-1.2-1.2-2.6-1.6-4.2-1.2s-2.8,1.4-3.1,3.1l-10.6,36.7c-0.5,1.6-0.2,3.1,1,4.3
		c1.2,1.2,2.6,1.6,4.2,1.2l36-9c1.6-0.3,2.8-1.4,3.1-3.1c0.5-1.6,0.2-3.1-1-4.3L320.6,27.2z"/>
	<path class="st1" d="M138.8,440.2c0.9,0,1.7-0.3,2.2-0.9c0.7-0.7,0.9-1.4,0.9-2.2s-0.3-1.7-0.9-2.2c-0.7-0.7-1.4-0.9-2.2-0.9
		c-0.9,0-1.7,0.3-2.2,0.9c-0.7,0.7-0.9,1.4-0.9,2.2s0.3,1.7,0.9,2.2C137.2,439.9,137.9,440.2,138.8,440.2z"/>
	<path class="st1" d="M65.2,599.7v-22.1c0-0.5-0.2-1-0.5-1.4c-0.3-0.3-0.9-0.5-1.4-0.5h-7.6c-0.5,0-1,0.2-1.4,0.5
		c-0.3,0.3-0.5,0.9-0.5,1.4v27c0,0.7,0.3,1.2,0.9,1.6l14.2,10.2c0.3,0.3,0.9,0.3,1.4,0.3c0.5-0.2,1-0.3,1.2-0.9l4.5-6.1
		c0.3-0.3,0.5-0.9,0.3-1.4c0-0.5-0.3-1-0.7-1.2L65.2,599.7z"/>
	<path class="st1" d="M30.3,402.1c1.9-0.5,3.5-1.7,4.3-3.6c0.9-1.9,1.2-3.6,0.5-5.7c-0.5-1.9-1.7-3.5-3.6-4.3
		c-1.9-1-3.6-1.2-5.7-0.5c-1.9,0.5-3.5,1.7-4.3,3.6c-1,1.9-1.2,3.6-0.5,5.7c0.5,1.9,1.7,3.5,3.6,4.3
		C26.5,402.5,28.4,402.7,30.3,402.1z"/>
	<path class="st1" d="M202.1,405.9c0.2,0,0.3,0,0.5,0c0.2,0,0.3-0.2,0.3-0.3c0-0.2,0-0.3,0-0.5c0-0.2-0.2-0.3-0.3-0.3
		c-0.2-0.2-0.3-0.2-0.5,0c-0.2,0-0.3,0.2-0.3,0.3s-0.2,0.3,0,0.5C201.9,405.8,201.9,405.9,202.1,405.9z"/>
	<path class="st1" d="M131.7,674.5l-17.3-10.6c-0.9-0.5-1.6-0.5-2.4,0c-0.9,0.5-1.2,1.2-1.2,2.1v20.4c0,0.9,0.3,1.6,1.2,2.1
		c0.9,0.5,1.6,0.5,2.4,0l17.3-9.9c0.9-0.5,1.2-1.2,1.2-2.1C132.7,675.5,132.4,674.8,131.7,674.5z"/>
	<path class="st1" d="M171.7,644.4c-1.6,0-2.8,0.7-3.8,1.7s-1.6,2.4-1.6,4s0.7,2.8,1.7,3.8c1,1,2.4,1.6,4,1.6c1.6,0,2.8-0.7,3.8-1.7
		c1-1,1.6-2.4,1.6-4c0-1.6-0.7-2.8-1.7-3.8S173.2,644.4,171.7,644.4z"/>
	<path class="st1" d="M195.9,407.3c-0.2-0.2-0.3-0.2-0.5,0c-0.2,0.2-0.3,0.2-0.3,0.3c0,0.2,0,0.3,0,0.5c0,0.2,0.2,0.3,0.3,0.3
		s0.3,0,0.5,0s0.3-0.2,0.3-0.3s0-0.3,0-0.5C196.2,407.5,196,407.5,195.9,407.3z"/>
	<path class="st1" d="M589,43.8c-0.3-0.2-0.5-0.2-0.9-0.2l-12.6,3.6l-1.4-4.8c-0.2-0.3-0.3-0.5-0.5-0.7s-0.5-0.2-0.7-0.2l-4.8,1.4
		l-2.2,3.8L585.7,58l5-8.7l-1.4-4.8C589.4,44.1,589.2,44,589,43.8z"/>
	<path class="st1" d="M18.5,716h-6.6l-1.2,1.2h9.2c0-0.3-0.2-0.7-0.3-0.9C19.2,716,18.9,716,18.5,716z"/>
	<path class="st1" d="M15.4,21.5c0.5,0.2,0.9,0.2,1.2-0.2c0.3-0.2,0.5-0.5,0.7-0.9c0.2-0.3,0-0.7-0.3-1L5.2,0H1.6l12.8,20.8
		C14.7,21.1,15.1,21.3,15.4,21.5z"/>
	<path class="st1" d="M203.3,142.4c1.4,0,2.6-0.5,3.6-1.6c1-1,1.6-2.2,1.6-3.6s-0.5-2.6-1.6-3.6c-1-1-2.2-1.6-3.6-1.6
		c-1.4,0-2.6,0.5-3.6,1.6c-1,1-1.6,2.2-1.6,3.6s0.5,2.6,1.6,3.6C200.7,141.9,201.9,142.4,203.3,142.4z"/>
	<path class="st1" d="M31.8,712c1-1,1.6-2.4,1.6-4c0-1.6-0.5-2.9-1.6-4c-1-1-2.4-1.7-4-1.7s-2.9,0.5-4,1.7c-1,1-1.7,2.4-1.7,4
		c0,1.6,0.5,2.8,1.6,4c1,1,2.4,1.6,4,1.7C29.4,713.6,30.6,713.1,31.8,712z"/>
	<path class="st1" d="M15.7,35.5c3.1,0.7,6.1,0.3,8.8-1.2c2.8-1.6,4.5-4,5.2-6.9c0.7-2.9,0.3-5.9-1.4-8.5L17,0h-2.1l9.3,15.1
		c1.6,2.2,1.9,4.8,1.2,7.6c-0.7,2.8-2.2,4.7-4.5,6.1c-2.4,1.4-4.8,1.7-7.4,1c-2.6-0.7-4.7-2.2-6.1-4.5L0,13.3v3.1l8.5,13.7
		C10.2,32.9,12.6,34.6,15.7,35.5z"/>
	<path class="st1" d="M26.8,0l8.8,14.4c1.9,3.1,2.9,6.4,2.9,9.9s-0.9,6.9-2.6,9.9c-1.7,3.1-4.2,5.5-7.3,7.3
		c-2.9,1.7-6.4,2.6-9.9,2.6c-3.6,0-6.9-0.9-10-2.6s-5.5-4.2-7.4-7.1L0,32.2v143.3c2.1-3.1,4.7-5.7,8-7.4c3.5-1.9,7.3-2.9,11.2-2.9
		s7.8,1,11.2,3.1c3.5,2.1,6.2,4.8,8.1,8.3s2.9,7.3,2.9,11.2c0,4-1,7.8-3.1,11.2c-2.1,3.5-4.8,6.2-8.3,8.1c-3.5,1.9-7.3,2.9-11.2,2.9
		s-7.8-1-11.2-3.1c-3.1-1.9-5.5-4.3-7.4-7.3v517.5l0,0l35-35c0.5-0.5,1.2-0.9,1.9-0.9c0.7,0,1.4,0.3,1.9,0.9l16.4,16.4L44.1,710
		c-0.5,0.5-0.9,1.2-0.9,1.9s0.3,1.4,0.9,1.9l3.3,3.3h5.4l-5.4-5.4L58,701.1l0.5,0.5c0.5,0.5,0.9,1.2,0.9,1.9v13.3h192.6
		c0,0-104.2-383.6,294.7-598.9c145-77.7,320.1-107.8,461.3-118H26.8z M256.3,132c0.3-0.7,0.9-1,1.6-1.2l21.5-6.9
		c0.7-0.2,1.4-0.2,2.1,0.2c0.7,0.3,1,0.9,1.2,1.6l0.3,1c0.2,0.3,0,0.9-0.2,1.2l-0.2,0.3c-1,1.7-3.3,4.7-6.7,9.3l-0.3,0.5
		c-0.5,0.7-0.9,1.4-1.2,1.7c-0.5,0.7-1,1-1.4,1.2c-0.5,0.2-1,0.2-1.9-0.2c-0.5,0-1-0.3-1.9-0.7l-0.7-0.2c-5.2-1.7-8.8-2.9-10.7-3.6
		l-0.5-0.2c-0.3-0.2-0.7-0.3-0.9-0.9l-0.3-1C255.9,133.2,255.9,132.5,256.3,132z M283.4,129.8c0-0.2,0.2-0.2,0.3-0.2
		s0.2,0.2,0.3,0.2l3.5,10.6c0.2,0.7,0.2,1.4-0.2,1.9c-0.3,0.7-0.9,1-1.6,1.2l-21.5,6.9c-0.7,0.2-1.4,0.2-1.9-0.2
		c-0.7-0.3-1-0.9-1.2-1.6l-3.5-10.6c0-0.2,0-0.2,0.2-0.3c0.2-0.2,0.2-0.2,0.3,0c1.4,0.5,4.7,1.6,9.9,3.3l0.7,0.3
		c1,0.3,1.9,0.5,2.4,0.7c1,0.2,1.7,0.2,2.4,0c0.7-0.2,1.4-0.7,2.1-1.4c0.3-0.5,0.9-1,1.6-1.9l0.3-0.5
		C280.5,133.9,282.4,131.2,283.4,129.8z M167.2,79.4c-1.2-2.4-1.9-5.2-1.9-7.8c0-4.5,1.6-8.5,4.5-12.3c3.1-3.6,7.1-6.7,12.3-8.8
		c5.2-2.2,10.7-3.3,17-3.3s11.8,1,17,3.3c5.2,2.2,9.3,5.2,12.3,8.8c3.1,3.6,4.5,7.8,4.5,12.3c0,4.5-1.6,8.5-4.5,12.3
		c-2.9,3.8-7.1,6.7-12.3,8.8C210.8,95,205,96,199,96c-5.5,0-10.7-0.9-15.7-2.8c-4.8,3.8-10.4,5.9-16.6,6.6c-0.3,0-0.7,0-0.9-0.2
		s-0.5-0.3-0.5-0.7s0.2-0.7,0.7-1.2l0.9-0.9c1.4-1.2,2.4-2.4,3.1-3.5c1-1.7,1.7-4.2,2.2-6.9C170.1,84.3,168.4,81.8,167.2,79.4z
		 M160.9,152.4l5.2-10.6c0.3-0.9,1-1.6,1.9-2.1c0.9-0.5,1.7-0.7,2.8-0.7h11.1c2.8-4.3,5.7-7.6,9-9.7c4-2.6,8.5-4,13.5-4
		c1.9,0,3.3,0,4.2,0.2c1.6,0,3.1,0.3,4.7,0.7c0.7,0.2,1.2,0.5,1.2,1.2c0.3,1.6,0.5,3.1,0.7,4.7c0,1,0.2,2.4,0.2,4.2
		c0,5.2-1.4,9.5-4,13.5c-2.2,3.3-5.4,6.2-9.7,9v11.1c0,1-0.2,1.9-0.7,2.8c-0.5,0.9-1.2,1.4-2.1,1.9l-10.4,5.4
		c-0.9,0.3-1.7,0.3-2.4-0.2c-0.9-0.5-1.2-1.2-1.2-2.1v-10.2c-1.7,0.9-3.1,1.4-4,1.9c-0.3,0.2-0.7,0.2-1,0.2c-0.3,0-0.7-0.2-0.9-0.3
		l-6.7-6.7c-0.2-0.2-0.3-0.5-0.3-0.9c0-0.3,0-0.7,0.2-1c0.5-1.2,1.2-2.4,1.9-4h-10.2c-0.9,0-1.6-0.3-2.1-1.2
		C160.6,154.2,160.6,153.3,160.9,152.4z M150.2,191.4c0.9-0.3,1.7-0.3,2.6,0.2l18.2,8.7c0.9,0.3,1.4,1,1.7,1.9l0.3,0.9l-17.3,6.1
		l-6.2-17.5L150.2,191.4z M151.8,211.8c0.3,0.9,0.9,1.6,1.7,1.9c0.9,0.3,1.7,0.5,2.6,0.2l18.5-6.6l15.9,44.8
		c0.3,0.9,0.3,1.7-0.2,2.6c-0.3,0.9-1,1.4-1.9,1.7l-45.9,16.4c-0.9,0.3-1.7,0.3-2.6-0.2c-0.9-0.3-1.4-1-1.7-1.9l-22.7-63.3
		c-0.3-0.9-0.3-1.7,0.2-2.6c0.3-0.9,1-1.4,1.9-1.7l27.3-9.7L151.8,211.8z M33.7,105.2c-6.1-1.7-10.7-5.5-13.7-11.1
		c-2.9-5.5-3.6-11.4-1.9-17.5S23.7,65.9,29.2,63c5.5-2.9,11.4-3.6,17.5-1.9c5.2,1.6,9.3,4.5,12.3,8.8l27.7-7.8c0.2-1.6,0.5-3.3,1-5
		c1.7-6.1,5.5-10.7,11.1-13.7c5.5-2.9,11.4-3.6,17.5-1.9c6.1,1.7,10.7,5.5,13.7,11.1c2.9,5.5,3.6,11.4,1.9,17.5
		c-1.7,6.1-5.5,10.7-11.1,13.7c-5.5,2.9-11.4,3.6-17.5,1.9c-5.2-1.6-9.3-4.5-12.3-8.8l-27.7,7.8c-0.3,3.5-1.2,6.6-2.8,9.7l19,21.6
		c4.8-2.1,10-2.2,15.2-0.7c6.1,1.7,10.7,5.5,13.7,11.1c2.9,5.5,3.6,11.4,1.9,17.5c-1.7,6.1-5.5,10.7-11.1,13.7
		c-5.5,2.9-11.4,3.5-17.6,1.7c-6.1-1.7-10.7-5.5-13.7-11.1s-3.6-11.4-1.9-17.5c0.5-1.7,1-3.3,1.9-4.7l-19-21.6
		C44,106.4,38.9,106.6,33.7,105.2z M124.4,457c-0.2,0.2-0.3,0.2-0.7,0c-0.2,0-0.5-0.2-0.5-0.3l-4.3-4.3c-0.2-0.2-0.2-0.3-0.3-0.5
		c0-0.2,0-0.5,0-0.7c0.3-0.7,0.7-1.6,1.2-2.6h-6.4c-0.5,0-1-0.2-1.4-0.7c-0.3-0.5-0.3-1,0-1.6l3.3-6.6c0.3-0.5,0.7-1,1.2-1.2
		c0.5-0.3,1-0.5,1.7-0.5h6.9c1.7-2.8,3.6-4.8,5.7-6.1c2.4-1.7,5.4-2.4,8.5-2.4c1.2,0,2.1,0,2.6,0c1,0,1.9,0.2,2.9,0.3
		c0.5,0.2,0.7,0.3,0.9,0.9c0.2,1,0.3,1.9,0.3,2.9c0,0.7,0,1.6,0,2.6c0,3.3-0.9,6.1-2.4,8.5c-1.4,2.1-3.5,4-6.1,5.7v6.9
		c0,0.7-0.2,1.2-0.5,1.7c-0.3,0.5-0.7,0.9-1.4,1.2l-6.6,3.3c-0.5,0.2-1,0.2-1.6-0.2c-0.5-0.3-0.7-0.7-0.7-1.4v-6.4
		C126,456.3,125.1,456.8,124.4,457z M34.4,245.7c0.2-2.2,0.3-4.3,0.9-6.6c0.2-1,0.9-1.6,1.7-1.7c2.2-0.5,4.3-0.9,6.6-0.9
		c1.4-0.2,3.3-0.2,5.9-0.2c7.3,0,13.5,1.7,19,5.5c4.7,3.1,8.8,7.6,12.8,13.7h15.6c1.4,0,2.8,0.3,3.8,1c1.2,0.7,2.1,1.7,2.6,2.9
		l7.6,14.7c0.5,1.2,0.3,2.4-0.3,3.5c-0.7,1.2-1.7,1.7-2.9,1.7H93.3c1,2.4,2.1,4.3,2.8,5.7c0.2,0.3,0.2,0.9,0.2,1.4
		c-0.2,0.5-0.3,1-0.5,1.2l-9.5,9.7c-0.3,0.3-0.7,0.5-1.2,0.7s-1,0-1.4-0.2c-1.6-0.9-3.5-1.7-5.7-2.6v14.4c0,1.4-0.5,2.2-1.7,2.9
		c-1.2,0.7-2.2,0.7-3.5,0.2l-14.9-7.3c-1.2-0.5-2.1-1.4-2.9-2.6c-0.7-1.2-1-2.4-1-3.8v-15.6c-6.1-3.8-10.7-8.1-13.7-12.6
		c-3.8-5.5-5.7-11.8-5.7-19C34.3,249,34.3,247.1,34.4,245.7z M96.7,482.9c-0.9,4-2.8,7.4-5.4,10.4c-2.6,2.9-6.1,5.2-10,6.4
		c-4,1.2-7.8,1.4-11.8,0.5c-4-0.9-7.4-2.8-10.4-5.4c-2.9-2.6-5.2-6.1-6.4-10s-1.4-7.8-0.5-11.8s2.8-7.4,5.4-10.4
		c2.8-2.9,6.1-5.2,10-6.4c4-1.2,7.8-1.4,11.8-0.5c4,0.9,7.4,2.8,10.4,5.4c2.9,2.8,5.2,6.1,6.4,10C97.4,475.2,97.8,479.1,96.7,482.9z
		 M11.8,386.4c0.9-1.6,2.1-2.6,3.8-3.1L68.3,367c1.7-0.5,3.3-0.3,4.8,0.5c1.6,0.9,2.6,2.1,3.1,3.8l11.2,36.5
		c0.5,1.7,0.3,3.3-0.5,4.8s-2.1,2.6-3.8,3.1l-52.8,16.3c-1.7,0.5-3.3,0.3-4.8-0.5c-1.6-0.9-2.6-2.1-3.1-3.8l-11.2-36.5
		C10.7,389.5,10.9,387.9,11.8,386.4z M79.4,634.5c-6.1,3.6-12.8,5.4-19.9,5.4s-13.8-1.7-19.9-5.4c-6.1-3.6-10.9-8.5-14.5-14.5
		c-3.6-6.1-5.4-12.8-5.4-19.9s1.7-13.8,5.4-19.9c3.6-6.1,8.5-10.9,14.5-14.5c6.1-3.6,12.8-5.4,19.9-5.4s13.8,1.7,19.9,5.4
		c6.1,3.6,10.9,8.5,14.5,14.5c3.6,6.1,5.4,12.8,5.4,19.9S97.6,613.9,94,620C90.3,626,85.5,630.9,79.4,634.5z M141.2,688.3
		c-2.2,3.8-5.2,6.7-8.8,8.8c-3.6,2.1-7.8,3.3-12.1,3.3c-4.3,0-8.5-1-12.1-3.3c-3.8-2.2-6.7-5.2-8.8-8.8c-2.2-3.8-3.3-7.8-3.3-12.1
		c0-4.3,1-8.5,3.3-12.1c2.2-3.6,5.2-6.7,8.8-8.8c3.8-2.2,7.8-3.3,12.1-3.3c4.3,0,8.5,1,12.1,3.3c3.6,2.2,6.7,5.2,8.8,8.8
		c2.2,3.8,3.3,7.8,3.3,12.1C144.5,680.5,143.4,684.7,141.2,688.3z M153.3,538.7c-0.2,0.2-0.5,0.3-0.7,0.3
		c-5.9,0.3-11.1-0.7-16.1-3.3c-4.2,2.4-8.8,4.2-13.7,5c-5.5,0.9-10.7,0.9-15.7-0.3c-5-1.2-9.2-3.3-12.5-6.1
		c-3.3-2.8-5.2-6.4-5.9-10.4c-0.7-4,0-8,2.2-11.8c2.2-3.8,5.4-7.1,9.7-9.9c4.3-2.8,9.2-4.7,14.7-5.5c5.5-0.9,10.7-0.9,15.7,0.3
		c5,1.2,9.2,3.3,12.5,6.1c3.3,2.9,5.4,6.4,6.1,10.4c0.3,2.4,0.3,4.8-0.5,7.4c-0.7,2.4-1.9,4.8-3.5,7.1c0.9,2.4,1.9,4.5,3.1,5.9
		c0.7,0.9,1.7,1.7,3.3,2.6l1,0.5c0.5,0.3,0.9,0.7,0.9,1C153.7,538.1,153.5,538.5,153.3,538.7z M154.5,398.3c-0.2,1-0.5,1.9-1.4,2.6
		c-0.9,0.7-1.9,1-2.9,0.9l-34.3-3.5c-1-0.2-1.9-0.5-2.6-1.4c-0.7-0.9-1-1.9-0.9-2.9l1.7-16.8c0-0.2,0.2-0.3,0.3-0.3s0.3,0,0.5,0.2
		c1.7,1.6,5.5,5,11.8,10.6l0.7,0.9c1.2,1,2.2,1.9,2.9,2.4c1.2,0.9,2.4,1.4,3.5,1.4c1,0,2.4-0.2,3.8-0.7c0.9-0.3,1.9-1,3.3-1.7
		l0.9-0.5c6.9-4,11.4-6.6,13.7-8c0.2-0.2,0.3-0.2,0.5,0c0.2,0.2,0.2,0.3,0.2,0.5L154.5,398.3z M156.9,374.8l-0.2,1.6
		c0,0.7-0.3,1.2-0.9,1.6l-0.5,0.3c-2.6,1.6-7.6,4.5-15.1,8.8l-0.9,0.5c-1.2,0.7-2.1,1.2-2.8,1.6c-1,0.5-2.1,0.9-2.8,0.7
		c-0.7,0-1.6-0.5-2.6-1.2c-0.5-0.3-1.4-1-2.4-2.1l-0.7-0.7c-6.2-5.7-10.4-9.5-12.6-11.6l-0.5-0.5c-0.5-0.5-0.7-1-0.5-1.6l0.2-1.6
		c0.2-1,0.5-1.9,1.4-2.6c0.9-0.7,1.9-1,2.9-0.9l34.3,3.6c1,0.2,1.9,0.5,2.6,1.4C156.8,372.7,157.1,373.6,156.9,374.8z M218,667.6
		c-0.5,0.9-1.2,1.4-2.2,1.4l-10.9,0.3c0.9,1.9,1.6,3.3,2.2,4.3c0.2,0.3,0.2,0.7,0.2,1c0,0.3-0.2,0.7-0.5,1l-7.3,7.6
		c-0.2,0.2-0.5,0.3-1,0.5c-0.3,0.2-0.9,0-1,0c-1.2-0.5-2.8-1.2-4.5-1.9l0.3,10.9c0,1-0.3,1.7-1.2,2.4c-0.9,0.5-1.7,0.7-2.8,0.2
		l-11.6-5.4c-0.9-0.5-1.7-1-2.2-1.9c-0.5-0.9-0.9-1.9-0.9-2.9l-0.3-11.9c-4.8-2.9-8.3-6.1-10.7-9.3c-2.9-4.2-4.5-9-4.7-14.5
		c0-2.1,0-3.5,0-4.5c0-1.7,0.2-3.5,0.5-5c0.2-0.7,0.5-1.2,1.4-1.4c1.7-0.3,3.3-0.7,5-0.9c1-0.2,2.6-0.2,4.5-0.2
		c5.5-0.2,10.4,1.2,14.7,3.8c3.6,2.2,6.9,5.7,10,10.2l11.9-0.3c1,0,2.1,0.2,2.9,0.7c0.9,0.5,1.6,1.2,2.1,2.2l6.1,11.1
		C218.7,665.8,218.5,666.7,218,667.6z M205.4,404c1,0.9,1.9,1.7,2.2,3.1l-14.9,5.7c-0.5-1.2-0.5-2.4-0.3-3.8
		c0.3-1.4,0.9-2.4,1.9-3.5l-1.9-1.7c-0.2-0.2-0.2-0.2,0-0.3c0.2-0.2,0.2-0.2,0.3,0l2.1,1.6c0.9-0.9,1.9-1.6,2.9-1.9
		c1.2-0.5,2.2-0.7,3.5-0.5l0.3-2.6c0-0.2,0-0.2,0.2-0.2s0.2,0.2,0.2,0.3l-0.3,2.6C203,402.8,204.4,403.2,205.4,404z M212,418.4
		c0.2,0.5,0.2,1,0,1.6c-0.2,0.5-0.5,0.9-1,1l-1.2,0.5l1.4,3.6c0.3,0.7,0.2,1.4-0.3,1.7c-0.5,0.3-1,0.7-1.6,0.7c-0.7,0-1-0.5-1.4-1.2
		l-1.4-3.6l-2.2,0.9l1.4,3.6c0.3,0.7,0.2,1.2-0.2,1.7c-0.3,0.5-1,0.7-1.6,0.7s-1-0.3-1.4-1.2l-1.4-3.6l-1.2,0.5
		c-0.5,0.2-1,0.2-1.4,0c-0.5-0.2-0.9-0.5-1-1l-4.2-10.7l14.7-5.7L212,418.4z M209,407.5c0.2-0.5,0.5-0.7,1-0.9c0.5-0.2,1-0.2,1.4,0
		c0.5,0.2,0.9,0.5,1,0.9l2.6,6.9c0.2,0.5,0.2,0.9,0,1.4c-0.2,0.5-0.5,0.7-1,0.9c-0.5,0.2-0.9,0.2-1.4,0c-0.5-0.2-0.9-0.5-1-1
		l-2.6-6.9C208.9,408.4,208.9,407.8,209,407.5z M193.1,414.9l2.6,6.9c0.2,0.5,0.2,0.9,0,1.4c-0.2,0.5-0.5,0.7-1,0.9
		c-0.5,0.2-1,0.2-1.4,0c-0.5-0.2-0.9-0.5-1-1l-2.6-6.9c-0.2-0.5-0.2-0.9,0.2-1.4c0.2-0.5,0.5-0.7,1-0.9c0.5-0.2,0.9-0.2,1.4,0
		C192.6,414.2,192.9,414.4,193.1,414.9z M249.2,296.8c-0.9,3.3-2.4,6.1-4.8,8.5L214.2,336c-2.4,2.6-5.4,3.8-8.8,3.6
		c-3.5,0-6.4-1.4-8.8-3.8s-3.5-5.4-3.5-8.8c0-3.5,1.2-6.4,3.6-8.8l23.5-24.2c0.5-0.5,1.2-0.7,1.9-0.7c0.7,0,1.4,0.2,1.9,0.7l3.8,3.6
		c0.5,0.5,0.9,1.2,0.9,1.9c0,0.7-0.3,1.4-0.9,1.9l-23.7,24.2c-0.3,0.5-0.5,1-0.5,1.6c0,0.5,0.2,1,0.5,1.6c0.3,0.3,0.9,0.5,1.4,0.5
		c0.5,0,0.9-0.2,1.2-0.7l30.1-30.6c1.7-1.7,2.4-3.8,2.4-6.1s-0.9-4.3-2.4-5.9c-1.6-1.6-3.5-2.4-5.7-2.4s-4.2,0.9-5.7,2.4l-34.6,35.3
		c-2.8,2.9-4.3,6.6-4.3,10.6c0,4.2,1.4,7.6,4.2,10.6c2.8,2.9,6.2,4.3,10.2,4.3c4,0,7.3-1.4,10-4.3l28.4-28.9
		c0.5-0.5,1.2-0.9,1.9-0.9c0.7,0,1.4,0.3,1.9,0.9l3.8,3.6c0.5,0.5,0.9,1.2,0.9,1.9c0,0.7-0.3,1.4-0.9,1.9l-28.4,28.9
		c-3.1,3.3-6.9,5.5-11.2,6.6c-4.3,1-8.7,1-13,0c-4.3-1.2-8-3.5-11.2-6.7c-3.1-3.1-5.2-6.9-6.2-11.4s-1-8.8,0-13.2
		c1.2-4.3,3.3-8.1,6.6-11.2l34.4-35.5c2.4-2.4,5.2-4,8.5-5c3.3-0.9,6.4-0.9,9.7,0c3.1,0.9,6.1,2.6,8.5,5s4,5.2,4.8,8.5
		C249.9,290.4,249.9,293.6,249.2,296.8z M347.6,215.4l-20.9,17.8l-83.9-36.5c-0.7-0.2-1.4,0-1.7,0.7c-0.5,0.7-0.3,1.4,0.3,1.7
		l76.5,49.1l5.9,18.2c0.5,1.9,0.5,3.5-0.3,4.8c-0.9,1.4-2.1,2.2-3.6,2.8c-1.6,0.5-3.1,0.3-4.7-0.7l-20.1-13l-24.6,21.1
		c-1.2,1.2-2.8,1.7-4.7,1.2c-1.9-0.5-3.3-1.4-4.2-2.9l-48.3-92.9c-1-2.2-0.9-4.2,0.7-6.1c1.6-1.9,3.5-2.6,5.7-2.2l125.1,27
		c2.4,0.3,4,1.7,4.5,4S349.4,213.9,347.6,215.4z M368.6,64.5c-2.2,7.8-6.2,14.5-12.1,20.1C350.6,90.2,343.8,94,336,96
		s-15.6,1.9-23.5-0.3c-7.8-2.2-14.5-6.2-20.1-12.1s-9.3-12.6-11.4-20.4c-2.1-7.8-1.9-15.6,0.3-23.5c2.2-7.8,6.2-14.5,12.1-20.1
		c5.9-5.5,12.6-9.3,20.4-11.4c7.8-2.1,15.6-1.9,23.5,0.3c7.8,2.2,14.5,6.2,20.1,12.1s9.3,12.6,11.4,20.4S370.8,56.8,368.6,64.5z
		 M421.5,49.8c-0.2,0.7-0.5,1.4-1.2,1.9l-7.1,7.3c-0.5,0.5-1.2,0.9-2.1,0.9c-0.9,0-1.6-0.3-2.1-0.9c-0.5-0.5-0.9-1.2-0.9-2.1
		s0.3-1.6,0.9-2.1l5.5-5.7c0.2-0.2,0.3-0.2,0.5-0.2c0.2,0,0.3,0,0.5,0.2l0.9,0.9c0.2,0.2,0.2,0.3,0.2,0.5s0,0.3-0.2,0.5l-5.5,5.7
		c0,0.2-0.2,0.2-0.2,0.3c0,0.2,0,0.2,0.2,0.3c0.2,0.2,0.2,0.2,0.3,0.2c0.2,0,0.2,0,0.3-0.2l7.1-7.1c0.3-0.3,0.5-0.9,0.5-1.4
		s-0.2-1-0.5-1.4c-0.3-0.3-0.9-0.5-1.4-0.5s-1,0.2-1.4,0.5l-8.1,8.3c-0.7,0.7-1,1.6-1,2.4s0.3,1.7,1,2.4c0.7,0.7,1.4,1,2.4,1
		c0.9,0,1.7-0.3,2.4-1l6.6-6.7c0.2-0.2,0.3-0.2,0.5-0.2s0.3,0,0.5,0.2l0.9,0.9c0.2,0.2,0.2,0.3,0.2,0.5s0,0.3-0.2,0.5l-6.6,6.7
		c-0.7,0.7-1.6,1.2-2.6,1.6c-1,0.3-2.1,0.2-2.9,0c-1-0.3-1.9-0.9-2.6-1.6c-0.7-0.7-1.2-1.6-1.4-2.6c-0.2-1-0.2-2.1,0-3.1
		c0.2-1,0.7-1.9,1.6-2.6l8-8.3c0.5-0.5,1.2-0.9,1.9-1.2c0.7-0.3,1.6-0.2,2.2,0c0.7,0.2,1.4,0.5,1.9,1.2c0.5,0.5,0.9,1.2,1.2,1.9
		C421.7,48.3,421.7,49.1,421.5,49.8z M539.5,19l-11.6,69.7c-0.2,1.2-0.9,2.1-2.1,2.8c-1.2,0.7-2.2,0.7-3.3,0.2l-20.2-8.3l-10.2,12.5
		c-0.7,1-1.7,1.4-2.8,1.4c-1.2,0-2.1-0.3-2.9-1c-0.9-0.7-1.2-1.7-1.2-2.9v-13l39.1-47.6c0.3-0.3,0.3-0.9-0.2-1.2
		c-0.3-0.3-0.9-0.3-1.2,0l-46.4,40.8l-17.1-7.1c-1.6-0.7-2.2-1.7-2.4-3.5c-0.2-1.6,0.5-2.8,2.1-3.6l74.8-43.3
		c1.4-0.7,2.8-0.7,4.2,0.2C539.4,15.9,539.7,17.3,539.5,19z M654.6,22.5c0.5-1.7,1.6-3.3,2.9-4.5l-2.4-2.4c-0.2-0.2-0.2-0.3,0-0.5
		s0.3-0.2,0.3,0l2.4,2.4c1.2-1,2.8-1.7,4.3-2.2c1.6-0.3,3.1-0.5,4.7-0.3l0.9-3.5c0-0.2,0.2-0.2,0.3-0.2s0.3,0.2,0.2,0.3l-0.9,3.3
		c1.9,0.3,3.5,1.2,4.8,2.4s2.2,2.8,2.8,4.5l-20.8,5.7C653.9,26,653.9,24.2,654.6,22.5z M587.6,66.4c-0.3,0.5-0.7,0.9-1.2,1
		c-0.5,0.2-1,0.2-1.6-0.2l-26.1-14.9c-0.5-0.3-0.9-0.7-1-1.2c-0.2-0.5-0.2-1,0.2-1.6l20.4-36.2c0.3-0.5,0.7-0.9,1.2-1
		c0.5-0.2,1-0.2,1.6,0.2l15.6,8.8L590.6,32c-0.3,0.5-0.3,1-0.2,1.6c0.2,0.5,0.5,1,1,1.2l10.6,6.1L587.6,66.4z M603.7,37.9l-0.3,0.5
		l-10-5.7l5.7-10l0.5,0.3c0.5,0.3,0.9,0.7,1,1.2l3.3,12.1C604.1,36.9,604.1,37.4,603.7,37.9z M639.9,64.2c0,0.7-0.3,1.4-0.9,1.9
		c-0.5,0.5-1.2,0.9-1.9,0.9h-23.7c-0.7,0-1.4-0.3-1.9-0.9c-0.5-0.5-0.9-1.2-0.9-1.9V52.6c0-0.2,0-0.2,0.2-0.3c0.2,0,0.2,0,0.3,0
		c1.2,0.9,4.2,3.1,8.8,6.4l0.5,0.5c0.9,0.7,1.6,1.2,2.2,1.6c0.9,0.5,1.7,0.7,2.6,0.7c0.9,0,1.6-0.3,2.6-0.9c0.5-0.3,1.2-0.9,2.2-1.6
		l0.5-0.5c4.5-3.3,7.4-5.4,8.8-6.4c0.2-0.2,0.2-0.2,0.3,0c0.2,0,0.2,0.2,0.2,0.3v11.8H639.9z M639.9,48.8c0,0.5-0.2,0.9-0.5,1
		L639,50c-1.6,1.2-4.8,3.6-9.7,7.1l-0.5,0.3c-0.7,0.7-1.4,1-1.7,1.2c-0.7,0.5-1.4,0.7-1.9,0.7c-0.5,0-1-0.2-1.9-0.7
		c-0.3-0.2-1-0.7-1.7-1.2l-0.5-0.3c-4.7-3.5-7.8-5.7-9.5-7.1l-0.3-0.3c-0.3-0.3-0.5-0.7-0.5-1v-1c0-0.7,0.3-1.4,0.9-1.9
		c0.5-0.5,1.2-0.9,1.9-0.9h23.7c0.7,0,1.4,0.3,1.9,0.9c0.5,0.5,0.9,1.2,0.9,1.9L639.9,48.8L639.9,48.8z M656.8,42.2
		c-0.3,0.5-0.9,0.9-1.6,1.2s-1.4,0.2-1.9-0.2c-0.7-0.3-1-0.9-1.2-1.4l-2.6-9.7c-0.2-0.7,0-1.2,0.3-1.7c0.3-0.5,0.9-1,1.6-1.2
		s1.2-0.2,1.9,0.2c0.5,0.3,1,0.9,1.2,1.4l2.6,9.7C657.2,41,657.2,41.5,656.8,42.2z M679.3,39.8c-0.3,0.7-0.9,1-1.6,1.2l-1.7,0.5
		l1.4,5.2c0.3,1,0,1.7-0.7,2.4c-0.7,0.5-1.4,0.9-2.2,0.7c-0.9-0.2-1.4-0.7-1.7-1.7l-1.4-5.2l-3.1,0.9l1.4,5.2c0.3,0.9,0,1.7-0.5,2.2
		c-0.7,0.5-1.4,0.9-2.2,0.7c-0.9-0.2-1.4-0.7-1.7-1.7l-1.4-5.2l-1.7,0.5c-0.7,0.2-1.4,0.2-1.9-0.2c-0.5-0.3-1-0.9-1.2-1.6l-4.2-15.1
		l20.8-5.7l4.2,15.1C679.7,38.6,679.7,39.3,679.3,39.8z M682.5,35.8c-0.7,0.2-1.2,0.2-1.9-0.2c-0.5-0.3-1-0.9-1.2-1.6l-2.6-9.7
		c-0.2-0.7-0.2-1.2,0.2-1.9c0.3-0.5,0.9-0.9,1.4-1c0.7-0.2,1.4-0.2,1.9,0.2c0.7,0.3,1,0.7,1.2,1.4l2.6,9.7c0.2,0.7,0,1.2-0.3,1.9
		C683.7,35.3,683.1,35.6,682.5,35.8z"/>
	<path class="st1" d="M28.4,177.5c0-0.3-0.2-0.5-0.5-0.7l-3.8-2.2c-0.3-0.2-0.5-0.2-0.9-0.2c-0.3,0-0.5,0.2-0.7,0.5l-7.8,13.2
		c-0.2,0.3-0.2,0.7,0,1l4,9.2c0.2,0.3,0.3,0.5,0.7,0.5c0.3,0.2,0.5,0.2,0.9,0l4-1.7c0.3-0.2,0.5-0.3,0.7-0.5c0.2-0.3,0.2-0.5,0-0.9
		l-2.9-6.6l6.4-10.7C28.4,178.1,28.6,177.7,28.4,177.5z"/>
	<path class="st1" d="M1007.9,0"/>
	<path class="st1" d="M575.9,37.5c1,0.5,2.1,0.7,3.3,0.3c1.2-0.3,2.1-1,2.6-2.1c0.5-1,0.7-2.1,0.3-3.3c-0.3-1.2-1-2.1-2.1-2.6
		c-1-0.5-2.1-0.7-3.3-0.3c-1.2,0.3-2.1,1-2.6,2.1s-0.7,2.1-0.3,3.3C574.3,36.2,575,37,575.9,37.5z"/>
	<path class="st1" d="M658.4,22.3c0.2,0.2,0.5,0.2,0.7,0c0.2,0,0.5-0.2,0.5-0.3c0.2-0.2,0.2-0.3,0.2-0.7s-0.2-0.3-0.3-0.5
		c-0.2-0.2-0.5-0.2-0.7-0.2s-0.3,0.2-0.5,0.5c-0.2,0.2-0.2,0.5,0,0.7S658.2,22.1,658.4,22.3z"/>
	<path class="st1" d="M145.7,242.9c-0.3,0.2-0.7,0.3-0.9,0.7l-3.5,7.4l2.4,6.6l35-12.5l-5.5-15.2l-7.4-3.5c-0.3-0.2-0.9-0.2-1.2,0
		c-0.5,0.2-0.9,0.5-1,0.9l-9,19.2l-7.4-3.5C146.6,242.8,146,242.8,145.7,242.9z"/>
</g>
<g>
	<path class="st2" d="M776.9,154.5c-11.8-21.1-49.3-6.9-49.3-6.9c-79.1,20.1-150.4,46.9-201.1,68c1.6-13.5,0.9-27.2-2.2-40.8l19.7-9
		C516.3,105,430.7,58,365.1,87.9c-0.3,0.2-1.9,0.9-8.8,4c-60.7,27.7-87.6,99.5-59.9,160.2c11.6,25.3,30.8,44.6,53.6,56.8
		c-129.9,88.4-161.4,168.4-161.4,168.4c-39.8,95.2-16.4,124.6-16.4,124.6c21.6,12.1,42.4-17.3,42.4-17.3
		c13-32.9,72.7-91.7,72.7-91.7c-35.5,109.9-35.1,224.4-35.1,224.4H567c-32-214.6-9-283.3-9-283.3
		c44.1-172.2,190.3-229.3,190.3-229.3C792.5,187.7,776.9,154.5,776.9,154.5z"/>
	<path class="st2" d="M365.1,87.9L365.1,87.9L365.1,87.9z"/>
	<path class="st2" d="M365.1,87.9L365.1,87.9L365.1,87.9z"/>
</g>
<polygon class="st2" points="1419.2,199.9 1453.5,163.2 1544.3,214.6 "/>
<polygon class="st2" points="1472.9,152.8 1544.3,214.6 1513.2,152.8 "/>
<g>
	<polygon class="st3" points="1468.6,206.6 1543.8,215.4 1555.8,243.3 	"/>
	<path class="st2" d="M1474.4,208.2l68.7,8.1l10.9,25.4L1474.4,208.2 M1462.7,204.9l94.7,40l-13-30.3L1462.7,204.9L1462.7,204.9z"/>
</g>
<g>
	<polygon class="st3" points="1473.9,173.6 1473.9,154.5 1537.2,209.5 	"/>
	<path class="st2" d="M1474.6,156.4l55.4,47.9l-55.4-31.3V156.4 M1472.9,152.8v21.5l71.3,40.5L1472.9,152.8L1472.9,152.8z"/>
</g>
<g>
	<path class="st2" d="M802,146.2c-1.2,0-2.2-0.5-2.9-1.6c-1-1.6-0.5-3.8,1-4.8c0.3-0.2,6.6-4.2,18.3-10.2c1.7-0.9,3.8-0.2,4.7,1.6
		c0.9,1.7,0.2,3.8-1.6,4.7c-11.6,6.1-17.8,9.9-18,9.9C803.2,146,802.7,146.2,802,146.2z"/>
	<path class="st2" d="M1386.9,126.8c-0.5,0-1-0.2-1.6-0.3c-12.6-5.9-25.4-11.6-38.2-16.6c-1.7-0.7-2.6-2.8-1.9-4.5
		c0.7-1.7,2.8-2.6,4.5-1.9c13,5.2,26,10.7,38.6,16.8c1.7,0.9,2.4,2.9,1.7,4.7C1389.3,126.1,1388.1,126.8,1386.9,126.8z M858.1,118.4
		c-1.4,0-2.6-0.9-3.1-2.1c-0.7-1.7,0-3.8,1.9-4.5c12.8-5.4,26-10.6,39.3-15.2c1.7-0.7,3.8,0.3,4.3,2.1c0.7,1.7-0.3,3.8-2.1,4.3
		c-13.2,4.7-26.3,9.7-38.9,15.1C858.9,118.4,858.6,118.4,858.1,118.4z M1309,96c-0.3,0-0.7,0-1-0.2c-13.2-4.3-26.6-8.1-40-11.6
		c-1.9-0.5-2.9-2.4-2.6-4.2c0.5-1.9,2.4-2.9,4.2-2.6c13.5,3.5,27.2,7.3,40.5,11.6c1.9,0.5,2.8,2.6,2.2,4.3
		C1311.8,95,1310.4,96,1309,96z M937.2,90.7c-1.6,0-2.9-1-3.3-2.6c-0.5-1.9,0.5-3.8,2.4-4.3c13.5-3.8,27.2-7.3,40.8-10.2
		c1.9-0.3,3.6,0.9,4.2,2.6c0.3,1.9-0.9,3.6-2.6,4.2c-13.5,2.9-27.2,6.4-40.5,10C937.9,90.5,937.5,90.7,937.2,90.7z M1227.7,75.4
		c-0.2,0-0.3,0-0.7,0c-13.7-2.4-27.5-4.5-41.2-6.1c-1.9-0.2-3.3-1.9-3.1-3.8c0.2-1.9,1.9-3.3,3.8-3.1c13.8,1.6,27.9,3.6,41.7,6.1
		c1.9,0.3,3.1,2.1,2.8,4C1230.8,74.4,1229.4,75.4,1227.7,75.4z M1019,72.8c-1.7,0-3.1-1.2-3.5-2.9c-0.3-1.9,1-3.6,2.9-4
		c13.8-2.1,28-3.8,41.9-5c1.9-0.2,3.6,1.2,3.8,3.1c0.2,1.9-1.2,3.6-3.1,3.8c-13.7,1.2-27.7,2.9-41.4,5
		C1019.4,72.8,1019.2,72.8,1019,72.8z M1144.5,66.1C1144.5,66.1,1144.3,66.1,1144.5,66.1c-14-0.7-28-0.9-41.9-0.5
		c-1.9,0-3.5-1.6-3.5-3.5s1.6-3.5,3.5-3.5c14-0.3,28.2-0.2,42.2,0.5c1.9,0,3.5,1.7,3.3,3.6C1147.7,64.7,1146.4,66.1,1144.5,66.1z"/>
	<path class="st2" d="M1442.3,156.3c-0.5,0-1.2-0.2-1.7-0.5c-5.9-3.5-11.9-6.9-18-10.2c-1.7-0.9-2.2-2.9-1.4-4.7
		c0.9-1.7,2.9-2.2,4.7-1.4c6.1,3.3,12.1,6.7,18.2,10.2c1.7,1,2.2,3.1,1.2,4.7C1444.7,155.6,1443.5,156.3,1442.3,156.3z"/>
</g>
</svg>
