<?xml version="1.0" encoding="utf-8"?>
<!-- Generator: Adobe Illustrator 22.1.0, SVG Export Plug-In . SVG Version: 6.00 Build 0)  -->
<svg version="1.1" id="Layer_1" xmlns="http://www.w3.org/2000/svg" xmlns:xlink="http://www.w3.org/1999/xlink" x="0px" y="0px"
	 viewBox="0 0 429.6 251.6" style="enable-background:new 0 0 429.6 251.6;" xml:space="preserve">
<style type="text/css">
	.st0{fill:#3558A7;}
	.st1{fill:#FFFFFF;stroke:#3558A7;stroke-linejoin:round;stroke-miterlimit:10;}
</style>
<g>
	<path class="st0" d="M198,164.9c-28.7-5.7-35.2-25.8-35.2-25.8c-8.4-29.2-30.2-43.4-45.9-50.1c14.5-5.6,25.5-18.3,28.7-33.8h8.3
		c0-25.4-22.3-55.3-49.7-55.3c-0.1,0-0.8,0-3.7,0c-25.4,0-46,20.6-46,46c0,15.1,7.2,28.4,18.4,36.8c-35,4.7-60,29.6-60,29.6
		c-29,29,0,60.5,0,60.5c11.6,11.6,9.1,29.3,9.1,29.3c0,10,5.3,10,5.3,10C22,230.9,22,251.6,22,251.6h119.3c-10-41.3-4.7-88-4.7-88
		c25.3,25.3,60,20.3,60,20.3c11.7-2.2,11.7-7.3,11.7-7.3C208.3,167.3,198,164.9,198,164.9z"/>
	<path class="st0" d="M414.7,118.4c0,0-14.7-20.6-42-27.3c10.9-8.4,17.9-21.6,17.9-36.4c0-25.4-20.6-46-46-46c-2.9,0-3.5,0-3.7,0
		c-27.5,0-49.7,29.8-49.7,55.3h8.3c2.8,13.8,11.8,25.4,24,31.7c-15.8,6.5-38.2,20.7-46.8,50.4c0,0-3.2,28.8-22.2,38.8
		c0,0-9.3,3.4-10.3,11.7c0,0,0,7.3,11.7,7.3c0,0,41.5-1.8,47-33.3c0,0,3.3,39.7-6.7,81h115.3c0,0,5.6-15.6,6.8-51.1
		c0,0,6.4-10.7,9.9-21C428,179.5,436.5,145.3,414.7,118.4z"/>
	<g>
		<path class="st1" d="M217.2,138c-21,3.9-31.3,23.4-31.3,23.4l27.9,20.5c0,0,10.4-29.5,36.7-28.2l-20-13.4
			C230.4,140.3,223.6,137.1,217.2,138z"/>
		<path class="st1" d="M230.4,140.3l20,13.4c-26.2,6.2-36.7,28.2-36.7,28.2l-27.9-20.5c0,0,10.4-19.5,31.3-23.4c0,0,4.3,2.9,5.6,5
			C222.8,143,225.2,139.7,230.4,140.3z"/>
	</g>
</g>
</svg>
