<?xml version="1.0" encoding="utf-8"?>
<!-- Generator: Adobe Illustrator 22.1.0, SVG Export Plug-In . SVG Version: 6.00 Build 0)  -->
<svg version="1.1" id="Layer_1" xmlns="http://www.w3.org/2000/svg" xmlns:xlink="http://www.w3.org/1999/xlink" x="0px" y="0px"
	 viewBox="0 0 1090.3 638.7" style="enable-background:new 0 0 1090.3 638.7;" xml:space="preserve">
<style type="text/css">
	.st0{fill:#3558A7;}
	.st1{fill:#FFFFFF;stroke:#3558A7;stroke-linejoin:round;stroke-miterlimit:10;}
</style>
<g>
	<path class="st0" d="M502.4,418.7c-72.8-14.5-89.3-65.5-89.3-65.5c-21.3-74.1-76.6-110.1-116.5-127.1
		c36.8-14.2,64.7-46.4,72.8-85.8h21.1C390.5,75.9,333.9,0,264.4,0l-8.2,0c-64.3,0-117.4,51.5-118,115.8c-0.3,38.7,18,72.9,46.7,94.4
		C96.1,222,32.7,285.2,32.7,285.2c-73.6,73.6,0,153.5,0,153.5c29.4,29.4,23.1,74.4,23.1,74.4c0,25.4,13.4,25.4,13.4,25.4
		c-6.5,23.2-9.9,47.5-11.6,66.4c-1.7,18.2,12.7,33.9,30.9,33.9h232.1c19.1,0,33.7-17.1,30.7-36c-15.3-94.2-4.7-187.3-4.7-187.3
		c64.2,64.2,152.3,51.5,152.3,51.5c29.7-5.6,29.7-18.5,29.7-18.5C528.6,424.8,502.4,418.7,502.4,418.7z"/>
	<path class="st0" d="M1052.3,300.7c0,0-37.3-52.3-106.6-69.3c27.7-21.3,45.4-54.9,45.4-92.4c0-64.7-53.4-116.7-118.1-116.7h-8.1
		c-69.8,0-126.1,75.6-126.1,140.3H760c7.1,35,29.9,64.5,60.9,80.4C780.8,259.6,724,295.6,702.1,371c0,0-8.1,73.1-56.3,98.5
		c0,0-23.6,8.6-26.1,29.7c0,0,0,18.5,29.7,18.5c0,0,105.3-4.6,119.3-84.5c0,0,6.7,81-10.2,173.3c-3.1,16.8,9.7,32.2,26.8,32.2h238
		c12.8,0,24-9,26.6-21.5c4.3-20.4,9.9-55.7,11.7-108.2c0,0,16.2-27.2,25.1-53.3C1086.1,455.8,1107.7,369,1052.3,300.7z"/>
	<g>
		<path class="st1" d="M551.2,350.5c-53.3,9.9-79.4,59.4-79.4,59.4l70.8,52c0,0,26.4-74.9,93.1-71.6l-50.8-34
			C584.6,356.3,567.4,348.2,551.2,350.5z"/>
		<path class="st1" d="M584.6,356.3l50.8,34c-66.5,15.7-93.1,71.6-93.1,71.6l-70.8-52c0,0,26.4-49.5,79.4-59.4
			c0,0,10.9,7.4,14.2,12.7C565.4,363.1,571.5,354.8,584.6,356.3z"/>
	</g>
</g>
</svg>
