<svg xmlns="http://www.w3.org/2000/svg" width="513" height="282.4" viewBox="0 0 513 282.4"><path fill="#7d07f2" d="M283.5 110.1h-77.8a21.9 21.9 0 0 0-22 21.8v77.9a21.9 21.9 0 0 0 21.9 21.8h56l17 17.1a2.9 2.9 0 0 0 4.9-2v-15.1a21.8 21.8 0 0 0 21.8-21.8v-77.9a21.6 21.6 0 0 0-21.7-21.8z"/><path fill="#fff" d="M208.4 130.2a3.3 3.3 0 0 1 3.3-3.3h9.3a3.3 3.3 0 0 1 3.3 3.3v5.4a3.3 3.3 0 0 1-3.3 3.3h-9.3a3.3 3.3 0 0 1-3.3-3.3zm67 19.3l-62.7 61.6a2.5 2.5 0 0 1-3.6 0 2.5 2.5 0 0 1-.8-1.8l.2-61.7a2.5 2.5 0 0 1 2.5-2.5h10.7a2.6 2.6 0 0 1 2.6 2.5v24.2a2.6 2.6 0 0 0 2.5 2.6 2.7 2.7 0 0 0 1.8-.7l27.9-27.9a2.5 2.5 0 0 1 1.8-.8h15.2a2.6 2.6 0 0 1 2.6 2.6 3.2 3.2 0 0 1-.7 1.9z"/><path fill="#4285f4" d="M31.5 125.1l9.3-41.7 81.6-25.5-9.4 41.7-81.5 25.5z"/><path fill="#fbbc05" d="M81.6 70.7l40.8-12.8L59.4 0 18.7 12.8l62.9 57.9z"/><path fill="#34a853" d="M0 96.2l31.5 28.9 18.6-83.4-31.4-28.9L0 96.2z"/><path fill="#007af5" d="M392.3 182l33.1 32.7-43.7 16.2-33.1-33 43.7-16.2-33.1-32.8 43.7-16.1 33.2 32.7zm31.5 40.3l33.1 33.1-43.7 16.1-33.2-32.7zm45.4-24l-33.1-32.8 43.7-16.2 33.2 32.8-43.8 16.5 33.1 32.7-43.7 16.2-33.1-33z"/><path fill="#5207f2" d="M415.2 105.8l-45.6-30.9a2.6 2.6 0 0 1 .3-4.5l49.6-24.1a2.6 2.6 0 0 1 3.7 2.6l-3.9 54.9a2.7 2.7 0 0 1-4.1 2zm-337 46.7l21.3 50.7a2.6 2.6 0 0 1-2.7 3.6l-54.6-6.9a2.6 2.6 0 0 1-1.8-4.1l33.3-43.9a2.6 2.6 0 0 1 4.5.6z"/><path fill="none" stroke="#5207f2" stroke-linecap="round" stroke-miterlimit="10" stroke-width="4" d="M188.1 244a61.1 61.1 0 0 1-4.9 8.7"/><path fill="none" stroke="#5207f2" stroke-dasharray="22.29 22.29" stroke-linecap="round" stroke-miterlimit="10" stroke-width="4" d="M167.7 268.6a63 63 0 0 1-97.8-35.7"/><path fill="none" stroke="#5207f2" stroke-linecap="round" stroke-miterlimit="10" stroke-width="4" d="M68.1 221.9a66.8 66.8 0 0 1 .1-10"/><path fill="none" stroke="#5207f2" stroke-dasharray="20 20" stroke-linecap="round" stroke-miterlimit="10" stroke-width="4" d="M273.1 96.7a63 63 0 1 1 122.3-30.2"/></svg>