<?xml version="1.0" encoding="utf-8"?>
<!-- Generator: Adobe Illustrator 22.1.0, SVG Export Plug-In . SVG Version: 6.00 Build 0)  -->
<svg version="1.1" id="Layer_1" xmlns="http://www.w3.org/2000/svg" xmlns:xlink="http://www.w3.org/1999/xlink" x="0px" y="0px"
	 viewBox="0 0 243.4 243.4" style="enable-background:new 0 0 243.4 243.4;" xml:space="preserve">
<style type="text/css">
	.st0{fill:#FFFFFF;}
</style>
<g>
	<path class="st0" d="M121.7,243.4C54.6,243.4,0,188.8,0,121.7S54.6,0,121.7,0s121.7,54.6,121.7,121.7S188.8,243.4,121.7,243.4z
		 M121.7,18C64.5,18,18,64.5,18,121.7s46.5,103.7,103.7,103.7s103.7-46.5,103.7-103.7S178.9,18,121.7,18z"/>
	<g>
		<path class="st0" d="M184.7,101.9c0,13.7-3.3,26.8-10,39.5c-6.8,13.5-16.4,24.2-28.7,32.1c-13.5,8.9-28.9,13.4-46.4,13.4
			c-16.7,0-31.9-4.5-45.8-13.4c2.1,0.2,4.5,0.3,7.1,0.3c13.8,0,26.3-4.3,37.3-12.8c-6.6,0-12.5-1.9-17.5-5.8
			c-5-3.9-8.5-8.8-10.4-14.6c1.9,0.2,3.7,0.3,5.4,0.3c2.7,0,5.3-0.3,8-0.9c-6.8-1.5-12.5-5-17.1-10.5s-6.8-11.8-6.8-18.8v-0.6
			c4.2,2.5,8.6,3.8,13.4,4c-4-2.8-7.2-6.4-9.7-10.8c-2.5-4.4-3.7-9.1-3.7-14.4s1.4-10.2,4.3-14.9c7.4,9.3,16.4,16.7,27.2,22.2
			c10.7,5.5,22.1,8.5,34.3,9.1c-0.4-2.3-0.6-4.6-0.6-6.8c0-5.3,1.3-10.3,4-14.9c2.7-4.6,6.3-8.3,10.8-10.9s9.5-4,14.8-4
			c4.4,0,8.4,0.9,12.1,2.6c3.7,1.7,7,4,9.8,6.8c6.8-1.3,13.2-3.7,19.1-7.1c-2.3,7-6.6,12.5-13.1,16.5c5.7-0.8,11.4-2.4,17.1-4.8
			c-4.2,6.1-9.2,11.3-15.1,15.6C184.6,98.9,184.7,100.2,184.7,101.9z"/>
	</g>
</g>
</svg>
